<svg xmlns="http://www.w3.org/2000/svg" width="284.76" height="265.29" viewBox="0 0 284.76 265.29">
  <g id="Access_Denied" data-name="Access Denied" transform="translate(-69.436 -164.705)">
    <path id="blob_1_" data-name="blob (1)" d="M172.35,144.741c23.461-19.535,35.514-46.676,40.9-74.163,5.6-27.66,4.735-55.838-8.609-81.942-13.129-26.277-38.743-50.479-70.813-59.469S63.225-73.6,26.635-62.881-44.609-37.123-59.03-14.13c-14.206,22.992-8.394,53.937-3.229,86.437,5.381,32.327,9.686,66.038,32.931,85.745s65.432,25.412,104.175,21.955C113.59,176.722,148.674,164.448,172.35,144.741Z" transform="translate(137.696 249.04)" fill="#fff"/>
    <g id="Group_35096" data-name="Group 35096" transform="translate(19125.135 15494.16)">
      <path id="Path_36330" data-name="Path 36330" d="M257.423,356.015V353.58c0-1.568-.029-3.844-.053-6.7l.094.088-33.933.065.153-.153h0V356l-.147-.153,24.175.071,7.134.041h2.429a.589.589,0,0,1,.177,0h-2.535l-7.075.041-24.3.071h-.153v-9.18h0l.153-.153,33.933.059h.094v.094c0,2.883-.041,5.177-.053,6.763v2.223A.677.677,0,0,1,257.423,356.015Z" transform="translate(-19183.346 -15493.986)" fill="#e0e0e0"/>
      <path id="Path_36332" data-name="Path 36332" d="M604.033,419.059c-9.434-7.435-10.914-20.307-9.864-31.739.177-1.9.083-3.933,1.091-5.56s3.2-2.647,4.858-1.739c1.386.749,1.9,2.435,2.624,3.85a11.2,11.2,0,0,0,4.234,4.54,4.279,4.279,0,0,0,3.9.59c1.7-.814,2.028-3.084,2.129-4.982l.548-10.613a17.792,17.792,0,0,1,.9-5.613,5.907,5.907,0,0,1,3.939-3.774,3.581,3.581,0,0,1,4.287,2.653,16.8,16.8,0,0,1-.083,2.359,1.993,1.993,0,0,0,1.061,1.952,2.33,2.33,0,0,0,2.129-.755,25.457,25.457,0,0,0,4.935-6.586,35.56,35.56,0,0,1,4.646-6.828,10.163,10.163,0,0,1,7.193-3.5c2.736.035,5.537,1.851,6.067,4.564s-1.179,5.354-3.013,7.423a42.6,42.6,0,0,1-9.316,7.877,3.49,3.49,0,0,0-1.568,1.5c-.489,1.244.643,2.571,1.869,3.06a22.119,22.119,0,0,0,4.41.755c1.462.259,3.037,1.008,3.538,2.441.666,1.993-1.079,3.933-2.759,5.177a36.449,36.449,0,0,1-11.12,5.584,12.277,12.277,0,0,0-4.127,1.716,3.534,3.534,0,0,0-1.362,3.962c.6,1.38,2.329,1.91,3.809,1.728a24.921,24.921,0,0,0,4.269-1.356c2.671-.831,6.032-.46,7.577,1.9a6.026,6.026,0,0,1,.33,5.36,13.909,13.909,0,0,1-3.154,4.528,36.609,36.609,0,0,1-16.25,10.071c-6.179,1.769-11.834,1.993-17.73-.56" transform="translate(-19450.363 -15496.683)" fill="#f2f5f8"/>
      <path id="Path_36333" data-name="Path 36333" d="M616.82,413.292a170.311,170.311,0,0,1,7.83-17.954l2.294-4.6c.755-1.5,1.5-3,2.359-4.422a85.061,85.061,0,0,1,5.2-7.872c1.769-2.423,3.538-4.658,5.224-6.739s3.278-3.98,4.811-5.655a67.756,67.756,0,0,1,7.765-7.358c.985-.79,1.769-1.38,2.311-1.769l.59-.442a1.12,1.12,0,0,1,.218-.142,1.178,1.178,0,0,1-.195.171l-.59.472c-.525.407-1.3,1.014-2.27,1.822a71.289,71.289,0,0,0-7.712,7.423c-1.521,1.68-3.107,3.585-4.77,5.666s-3.426,4.328-5.189,6.751a86.2,86.2,0,0,0-5.165,7.854c-.814,1.409-1.557,2.9-2.317,4.4s-1.515,3.048-2.288,4.6a174,174,0,0,0-7.836,17.907" transform="translate(-19459.777 -15497.926)" fill="#e0e0e0"/>
      <path id="Path_36334" data-name="Path 36334" d="M637.021,392.5a3.771,3.771,0,0,1-.136-.82c-.071-.531-.147-1.3-.224-2.258-.159-1.91-.289-4.552-.424-7.471s-.295-5.548-.484-7.447c-.094-.955-.171-1.722-.236-2.252a3.973,3.973,0,0,1-.059-.831,4.017,4.017,0,0,1,.195.808c.1.525.224,1.291.342,2.246.254,1.9.46,4.54.59,7.459s.23,5.483.318,7.471c.041.9.077,1.657.112,2.264A3.775,3.775,0,0,1,637.021,392.5Z" transform="translate(-19467.424 -15504.114)" fill="#e0e0e0"/>
      <path id="Path_36335" data-name="Path 36335" d="M662.8,401.762a5.626,5.626,0,0,1-.979.059c-.631,0-1.545.041-2.671.106-2.252.112-5.36.377-8.774.82s-6.486.979-8.7,1.433c-1.108.218-2,.419-2.618.554a5.275,5.275,0,0,1-.967.177,5.2,5.2,0,0,1,.937-.312c.59-.177,1.492-.413,2.594-.666,2.205-.513,5.307-1.091,8.709-1.539a86.083,86.083,0,0,1,8.809-.713c1.132-.035,2.052,0,2.683,0a5.029,5.029,0,0,1,.979.083Z" transform="translate(-19468.504 -15516.525)" fill="#e0e0e0"/>
      <path id="Path_36336" data-name="Path 36336" d="M610.079,429.97a1.279,1.279,0,0,1-.153-.307l-.366-.914c-.312-.79-.743-1.946-1.25-3.379-1.014-2.871-2.294-6.875-3.65-11.315s-2.594-8.461-3.538-11.344c-.466-1.4-.855-2.559-1.144-3.414-.118-.371-.218-.678-.3-.932a1.179,1.179,0,0,1-.089-.336,1.424,1.424,0,0,1,.153.313c.1.242.218.542.366.908.318.79.743,1.946,1.25,3.379,1.014,2.871,2.294,6.875,3.65,11.321s2.594,8.455,3.538,11.339c.472,1.4.855,2.559,1.144,3.414.118.371.224.684.307.932A1.281,1.281,0,0,1,610.079,429.97Z" transform="translate(-19452.705 -15515.035)" fill="#e0e0e0"/>
      <path id="Path_36337" data-name="Path 36337" d="M650.474,437.64a1.284,1.284,0,0,1-.33.112l-.961.259-3.538.926c-2.989.784-7.111,1.91-11.663,3.166s-8.691,2.359-11.7,3.06c-1.5.366-2.724.643-3.573.82l-.979.195a1.367,1.367,0,0,1-.342.047,1.232,1.232,0,0,1,.33-.118l.961-.26,3.538-.926c2.989-.784,7.111-1.91,11.669-3.16s8.685-2.359,11.692-3.066c1.5-.36,2.724-.643,3.573-.814l.979-.2A1.181,1.181,0,0,1,650.474,437.64Z" transform="translate(-19460.01 -15531.289)" fill="#e0e0e0"/>
      <path id="Path_36338" data-name="Path 36338" d="M118.468,332.977s-4.752,1.639.088,11.792a129.806,129.806,0,0,0,8.255,15.212s.849,2.359-1.12,2.659-6.262-.5-7.2,1.881.772,4.853,4.375,7,11.327,7.17,12.028,7.624,1.35,1.551.041,1.975-11.032,1.179-10.4,5.767,11.669,8.956,12.848,9.458,1.474,1.014,1.356,1.68-3.408.59-6.167.932-5.9,1.179-5.307,3.809,7.04,8.255,23,10.265l7.465.442,4.234-6.2c8.255-13.827,7.777-22.406,6.073-24.458s-4.316-.13-6.274,1.84-3.933,4.6-4.528,4.287-.831-.849-.489-2.1,3.7-12.624.466-15.92-9.805,3.88-10.949,4.646-1.592-.436-1.527-1.25.873-10.024,1.4-14.151-.295-7.017-2.836-7.765c-2.447-.719-4.452,3.16-5.9,4.522s-2.789-.755-2.789-.755a130.47,130.47,0,0,0-6.91-15.867c-5.024-10.071-9.334-7.241-9.334-7.241" transform="translate(-19139.432 -15488.225)" fill="#ebebeb"/>
      <path id="Path_36339" data-name="Path 36339" d="M162.533,421.776c-3.662-7.412-9.947-20.69-15.407-32.058s-10.407-21.657-14.027-29.086l-4.3-8.785-1.179-2.394c-.13-.265-.224-.478-.3-.625a1.159,1.159,0,0,1-.094-.218s.047.071.118.206l.318.59c.283.554.69,1.35,1.179,2.359,1.044,2.058,2.535,5.053,4.369,8.756,3.662,7.412,8.632,17.689,14.092,29.057s11.722,24.658,15.33,32.081" transform="translate(-19143.879 -15494.754)" fill="#e0e0e0"/>
      <path id="Path_36340" data-name="Path 36340" d="M130.06,389a3.258,3.258,0,0,1,.519.159c.324.118.8.3,1.374.525,1.179.46,2.73,1.138,4.463,1.91l4.416,2,1.338.59a2.2,2.2,0,0,1,.483.242,2.235,2.235,0,0,1-.513-.153c-.33-.118-.8-.3-1.374-.531-1.15-.472-2.724-1.179-4.452-1.946l-4.428-1.969-1.344-.59A2.356,2.356,0,0,1,130.06,389Z" transform="translate(-19145.045 -15511.329)" fill="#e0e0e0"/>
      <path id="Path_36341" data-name="Path 36341" d="M152.309,387.173c-.059,0,1.179-3.337,2.789-7.4s2.948-7.347,3-7.323-1.179,3.337-2.783,7.406S152.368,387.2,152.309,387.173Z" transform="translate(-19154.176 -15504.537)" fill="#e0e0e0"/>
      <path id="Path_36342" data-name="Path 36342" d="M165.19,419.723a2.554,2.554,0,0,1,.313-.454l.92-1.179c.772-1,1.834-2.394,2.948-3.968s2.081-3.037,2.771-4.127l.814-1.256a2.481,2.481,0,0,1,.324-.448,2.478,2.478,0,0,1-.248.5c-.171.307-.425.755-.755,1.3-.654,1.085-1.6,2.565-2.718,4.127s-2.205,2.948-3.013,3.939c-.407.483-.737.879-.979,1.138A3.129,3.129,0,0,1,165.19,419.723Z" transform="translate(-19159.461 -15519.245)" fill="#e0e0e0"/>
      <path id="Path_36343" data-name="Path 36343" d="M143.38,424.469a2.123,2.123,0,0,1,.513,0l1.38.147c1.179.136,2.765.336,4.54.59s3.373.46,4.534.637l1.368.218a1.821,1.821,0,0,1,.5.118,2.53,2.53,0,0,1-.507,0l-1.38-.147c-1.179-.136-2.771-.336-4.54-.59s-3.373-.466-4.534-.643l-1.368-.218A2.24,2.24,0,0,1,143.38,424.469Z" transform="translate(-19150.512 -15525.879)" fill="#e0e0e0"/>
      <path id="Path_36344" data-name="Path 36344" d="M151.36,452.629a4.5,4.5,0,0,1,.654.035l1.769.183c1.492.165,3.538.407,5.82.684s4.334.554,5.82.755l1.769.259a3.208,3.208,0,0,1,.643.124,3.539,3.539,0,0,1-.649-.035l-1.769-.183c-1.5-.165-3.538-.407-5.826-.684s-4.334-.548-5.82-.755L152,452.753A3.35,3.35,0,0,1,151.36,452.629Z" transform="translate(-19153.785 -15537.44)" fill="#e0e0e0"/>
      <path id="Path_36345" data-name="Path 36345" d="M178.64,445.536a3.861,3.861,0,0,1,.383-.59l1.109-1.551c.938-1.3,2.223-3.113,3.585-5.153s2.547-3.915,3.4-5.277l1-1.616a3.763,3.763,0,0,1,.4-.59,4.751,4.751,0,0,1-.312.625c-.218.4-.537.961-.949,1.651-.814,1.386-1.981,3.284-3.349,5.307s-2.671,3.839-3.638,5.124c-.489.637-.89,1.179-1.179,1.5a5.262,5.262,0,0,1-.448.566Z" transform="translate(-19164.982 -15528.466)" fill="#e0e0e0"/>
      <g id="freepik--Plant--inject-34" transform="translate(-19053.039 -15142.253)">
        <path id="Path_36346" data-name="Path 36346" d="M114.093,396.572c-2.783-3.284-3.149-8.555-2.742-12.836s1.4-8.6.725-12.842c-.4-2.518-1.374-4.923-1.7-7.453s.136-5.383,2.093-7.017c2.252-1.875,5.8-1.433,8.137.33s3.7,4.528,4.717,7.282c2.176,6.055,2.978,12.771,1.179,18.956s-5.985,11.71-12.146,13.561" transform="translate(-83.887 -355.21)" fill="#34a853"/>
        <path id="Path_36347" data-name="Path 36347" d="M140.973,430a5.661,5.661,0,0,1,2.948-3.768,7.084,7.084,0,0,1,5.012.289,18.092,18.092,0,0,0,4.906,1.48c1.71.106,3.65-.708,4.163-2.359.478-1.539-.448-3.178-1.61-4.3a10.147,10.147,0,0,0-16.622,3.992" transform="translate(-95.991 -381.189)" fill="#087124"/>
        <path id="Path_36349" data-name="Path 36349" d="M117.413,435.975c-2.512-2.358-2.358-6.539-1.132-9.77a14.707,14.707,0,0,1,7.04-7.347,22.3,22.3,0,0,1,19.458-.625,9.216,9.216,0,0,0-7.476,4.375c-1.38,2.288-1.686,5.065-2.824,7.476a11.751,11.751,0,0,1-15.065,5.9" transform="translate(-85.999 -380.28)" fill="#34a853"/>
        <path id="Path_36350" data-name="Path 36350" d="M114.482,450.046a1.551,1.551,0,0,1,0-.377v-1.085a35.642,35.642,0,0,1,.324-3.98,51.888,51.888,0,0,1,1.061-5.825,26.776,26.776,0,0,1,2.659-6.751,28.12,28.12,0,0,1,8.909-9.6c.7-.478,1.374-.837,1.952-1.179a12.315,12.315,0,0,1,1.539-.767l1-.419a1.707,1.707,0,0,1,.36-.124,1.7,1.7,0,0,1-.336.183l-.973.466c-.419.218-.926.484-1.509.808a19.765,19.765,0,0,0-1.91,1.209,28.821,28.821,0,0,0-8.768,9.564c-2.553,4.463-3.255,9.163-3.768,12.459-.236,1.663-.354,3.019-.425,3.956q-.047.666-.071,1.079A1.768,1.768,0,0,1,114.482,450.046Z" transform="translate(-85.609 -381.774)" fill="#263238"/>
        <path id="Path_36351" data-name="Path 36351" d="M70.22,409.93c-5.142,3.107-5.13,5.932-4.269,8.6s4.015,4.517,6.639,3.538a8.313,8.313,0,0,0,3.467-3.143,14.56,14.56,0,0,1,3.06-3.608,3.91,3.91,0,0,1,4.428-.36" transform="translate(-65.521 -377.666)" fill="#087124"/>
        <path id="Path_36353" data-name="Path 36353" d="M66.984,410.854c1.344-1.863,4.67-2.4,6.769-1.474a13.536,13.536,0,0,1,5.012,4.6,20.456,20.456,0,0,0,4.623,5.053c1.9,1.274,4.57,1.769,6.486.454a5.554,5.554,0,0,0,2.2-3.8,12.665,12.665,0,0,0-.307-4.487c-.454-2.158-1.179-4.41-2.919-5.784-1.928-1.527-4.6-1.6-7.075-1.521a26.447,26.447,0,0,0-8.325,1.285,11.634,11.634,0,0,0-6.486,5.672" transform="translate(-66.112 -375.182)" fill="#34a853"/>
        <path id="Path_36354" data-name="Path 36354" d="M97.687,443.6a2.949,2.949,0,0,1-.035-.442,12.116,12.116,0,0,0-.053-1.28c-.035-1.144-.083-2.736-.147-4.717s-.147-4.345-.295-6.963-.342-5.489-.737-8.485a27.8,27.8,0,0,0-.855-4.3A21.939,21.939,0,0,0,94,413.641a20.414,20.414,0,0,0-4.127-5.507,16.091,16.091,0,0,0-3.862-2.618A11.8,11.8,0,0,0,84.827,405a1.84,1.84,0,0,1-.407-.183,4.038,4.038,0,0,1,.43.124,10.791,10.791,0,0,1,1.179.46,15.413,15.413,0,0,1,3.933,2.583,20.241,20.241,0,0,1,4.251,5.531,22,22,0,0,1,1.61,3.809,27.123,27.123,0,0,1,.867,4.357c.4,3.007.59,5.9.719,8.514s.195,4.982.23,6.969.047,3.591.047,4.717v1.28A1.845,1.845,0,0,1,97.687,443.6Z" transform="translate(-73.277 -375.569)" fill="#263238"/>
        <path id="Path_36355" data-name="Path 36355" d="M110.1,430a.336.336,0,0,0-.053-.142l-.136-.43c-.118-.383-.254-.949-.4-1.692a29.062,29.062,0,0,1-.4-6.368,38.479,38.479,0,0,1,1.545-9.34c1.032-3.414,2.5-7.075,3.8-10.937a47.931,47.931,0,0,0,2.4-11.268,76.321,76.321,0,0,0,.218-9.434c-.083-2.689-.218-4.864-.307-6.368-.041-.731-.071-1.309-.094-1.728v-.454a.59.59,0,0,1,0-.153.654.654,0,0,1,0,.153,1.494,1.494,0,0,0,.053.448c.035.419.088,1,.147,1.728.124,1.5.295,3.673.407,6.362a74.613,74.613,0,0,1-.153,9.463,47.5,47.5,0,0,1-2.394,11.338c-1.3,3.9-2.771,7.535-3.815,10.932a39.216,39.216,0,0,0-1.586,9.287,30.46,30.46,0,0,0,.3,6.338c.13.737.242,1.309.342,1.692.041.177.077.324.106.436a.749.749,0,0,1,.024.136Z" transform="translate(-83.395 -361.973)" fill="#263238"/>
      </g>
      <g id="freepik--Fence--inject-34" transform="translate(-18962.145 -15176.492)">
        <rect id="Rectangle_4576" data-name="Rectangle 4576" width="5.112" height="93.968" transform="translate(14.817 8.367)" fill="#e0e0e0"/>
        <path id="Path_36356" data-name="Path 36356" d="M445.737,302.293a5.147,5.147,0,1,1-1.508-3.646A5.153,5.153,0,0,1,445.737,302.293Z" transform="translate(-423.195 -297.14)" fill="#ff725e"/>
        <rect id="Rectangle_4577" data-name="Rectangle 4577" width="5.112" height="93.968" transform="translate(116.398 8.367)" fill="#e0e0e0"/>
        <path id="Path_36357" data-name="Path 36357" d="M618.007,302.293a5.147,5.147,0,1,1-1.505-3.644,5.153,5.153,0,0,1,1.505,3.644Z" transform="translate(-493.891 -297.14)" fill="#ff725e"/>
        <rect id="Rectangle_4578" data-name="Rectangle 4578" width="130.961" height="23.432" transform="translate(0.23 17.435)" fill="#ff6565"/>
        <path id="Path_36358" data-name="Path 36358" d="M429.883,326.71l-.23.389L416.2,350.142H415.06V326.71Z" transform="translate(-414.836 -309.275)" fill="#f5f5f5"/>
        <path id="Path_36359" data-name="Path 36359" d="M474.352,326.71l-13.7,23.432h-17.9l5.442-9.31,8.255-14.122Z" transform="translate(-426.203 -309.275)" fill="#f5f5f5"/>
        <path id="Path_36360" data-name="Path 36360" d="M530.466,326.71l-13.691,23.432h-17.9l13.691-23.432Z" transform="translate(-449.234 -309.275)" fill="#f5f5f5"/>
        <path id="Path_36361" data-name="Path 36361" d="M586.582,326.72l-13.7,23.426H554.99l13.7-23.426Z" transform="translate(-472.26 -309.279)" fill="#f5f5f5"/>
        <path id="Path_36362" data-name="Path 36362" d="M626.476,326.72v23.426H611.11l13.7-23.426Z" transform="translate(-495.29 -309.279)" fill="#f5f5f5"/>
        <rect id="Rectangle_4579" data-name="Rectangle 4579" width="130.961" height="23.432" transform="translate(0.23 53.632)" fill="#ff6565"/>
        <path id="Path_36363" data-name="Path 36363" d="M429.883,388.1l-.23.389L416.2,411.532H415.06V388.1Z" transform="translate(-414.836 -334.468)" fill="#f5f5f5"/>
        <path id="Path_36364" data-name="Path 36364" d="M474.352,388.1l-13.7,23.432h-17.9l5.442-9.3,8.255-14.127Z" transform="translate(-426.203 -334.468)" fill="#f5f5f5"/>
        <path id="Path_36365" data-name="Path 36365" d="M530.466,388.1l-13.691,23.432h-17.9L512.571,388.1Z" transform="translate(-449.234 -334.468)" fill="#f5f5f5"/>
        <path id="Path_36366" data-name="Path 36366" d="M586.582,388.11l-13.7,23.426H554.99l13.7-23.426Z" transform="translate(-472.26 -334.472)" fill="#f5f5f5"/>
        <path id="Path_36367" data-name="Path 36367" d="M626.476,388.11v23.426H611.11l13.7-23.426Z" transform="translate(-495.29 -334.472)" fill="#f5f5f5"/>
        <path id="Path_36368" data-name="Path 36368" d="M545.865,349.961v-1.586c0-1.044,0-2.571-.035-4.558,0-3.986-.041-9.829-.077-17.3l.136.136-130.95.124h0l.254-.259v23.432l-.254-.259,93.231.118,27.642.071,7.471.035h.065l-7.412.029-27.589.077-93.408.112h-.259V326.27h.265l130.95.124h.136v.136c0,7.506-.059,13.373-.077,17.382v5.672A.617.617,0,0,1,545.865,349.961Z" transform="translate(-414.68 -309.094)" fill="#263238"/>
        <path id="Path_36369" data-name="Path 36369" d="M545.865,411.351v-1.58c0-1.044,0-2.565-.035-4.558,0-3.986-.041-9.823-.077-17.3l.136.136-130.95.124h0l.254-.259v23.432l-.254-.254,93.231.112,27.642.077h7.535l-7.412.035-27.589.071-93.408.118h-.259V387.66h.265l130.95.124h.136v.136c0,7.512-.059,13.373-.077,17.382v5.672A.617.617,0,0,1,545.865,411.351Z" transform="translate(-414.68 -334.287)" fill="#263238"/>
      </g>
      <g id="freepik--Floor--inject-34" transform="translate(-19055.699 -15074.31)">
        <path id="Path_36370" data-name="Path 36370" d="M314.8,470.593c0,.083-57,.153-127.283.153s-127.3-.071-127.3-.153,56.984-.153,127.3-.153S314.8,470.5,314.8,470.593Z" transform="translate(-60.22 -470.44)" fill="#263238"/>
      </g>
      <g id="freepik--Sign--inject-34" transform="translate(-19042.195 -15283.786)">
        <rect id="Rectangle_4580" data-name="Rectangle 4580" width="5.366" height="143.155" transform="translate(38.532 66.475)" fill="#e0e0e0"/>
        <path id="Path_36371" data-name="Path 36371" d="M154.548,370.9V359.69c0-7.211,0-17.647-.047-30.572,0-25.831-.041-61.6-.065-101.368l.153.153h-5.366l.153-.153c-.059,68.986-.106,126.94-.118,143.155l-.035-.041h-.041v-.035c0-16.215-.059-74.175-.112-143.155v-.153h5.672v.153c0,39.817-.047,75.625-.065,101.48,0,12.913-.035,23.331-.047,30.537v10.4A3.721,3.721,0,0,1,154.548,370.9Z" transform="translate(-110.65 -161.275)" fill="#263238"/>
        <circle id="Ellipse_1630" data-name="Ellipse 1630" cx="31.215" cy="31.215" r="31.215" transform="translate(0 25.403) rotate(-24.01)" fill="#ff6565"/>
        <path id="Path_36372" data-name="Path 36372" d="M162.16,163.411a2.282,2.282,0,0,1-.053-.454c0-.324-.053-.767-.094-1.333,0-.295-.041-.625-.059-.985s-.118-.749-.183-1.179a19.8,19.8,0,0,0-.59-2.9,26.533,26.533,0,0,0-3.119-7.435,27.936,27.936,0,0,0-7.111-7.913,27.618,27.618,0,0,0-11.739-5.195,28,28,0,0,0-14.629,1.221,29.431,29.431,0,0,0-3.632,1.6c-.59.318-1.15.69-1.733,1.038a14.581,14.581,0,0,0-1.675,1.179,31.5,31.5,0,0,0-3.16,2.689,30.626,30.626,0,0,0-2.724,3.225,26.993,26.993,0,0,0-3.98,7.665,27.636,27.636,0,0,0,0,17.565,27.052,27.052,0,0,0,3.974,7.665,31.359,31.359,0,0,0,2.73,3.231,32.167,32.167,0,0,0,3.154,2.683,14.476,14.476,0,0,0,1.68,1.179c.59.342,1.15.713,1.733,1.032a27.972,27.972,0,0,0,37.111-10.283,26.7,26.7,0,0,0,3.119-7.435,19.965,19.965,0,0,0,.59-2.9c.065-.425.142-.814.183-1.179s.041-.684.059-.979c.041-.59.071-1.008.094-1.333a2.282,2.282,0,0,1,.053-.454,2.95,2.95,0,0,1,0,.454c0,.324,0,.772-.035,1.338a8.394,8.394,0,0,1-.041.985c-.041.36-.1.755-.153,1.179a20.5,20.5,0,0,1-.548,2.919,26.5,26.5,0,0,1-3.066,7.541,28.231,28.231,0,0,1-33.909,12.211,29.19,29.19,0,0,1-3.7-1.621c-.59-.324-1.179-.7-1.769-1.05a14.059,14.059,0,0,1-1.716-1.179,25.943,25.943,0,0,1-6-6.014,27.429,27.429,0,0,1-4.063-7.813,28.072,28.072,0,0,1,0-17.9,27.612,27.612,0,0,1,4.057-7.807A32.471,32.471,0,0,1,114,143.393a31.839,31.839,0,0,1,3.225-2.73,14.409,14.409,0,0,1,1.71-1.179c.59-.354,1.179-.731,1.769-1.055a30.407,30.407,0,0,1,3.7-1.616,28.231,28.231,0,0,1,33.909,12.211,26.634,26.634,0,0,1,3.066,7.541,20.413,20.413,0,0,1,.548,2.948c.053.425.124.82.153,1.179s0,.69.041.985c0,.59,0,1.014.035,1.344a2.944,2.944,0,0,1,.006.389Z" transform="translate(-92.85 -123.363)" fill="#fff"/>
        <rect id="Rectangle_4581" data-name="Rectangle 4581" width="32.506" height="6.781" transform="translate(24.965 36.528)" fill="#fafafa"/>
      </g>
      <g id="freepik--error-403--inject-34" transform="translate(-18964.1 -15329.455)">
        <rect id="Rectangle_4583" data-name="Rectangle 4583" width="122.4" height="122.4" transform="translate(0.172 18.251) rotate(-5.32)" fill="#fff"/>
        <path id="Path_36520" data-name="Path 36520" d="M544.757,171.206a4.11,4.11,0,0,0-.065-.59c-.065-.4-.094-.943-.165-1.686-.142-1.486-.354-3.679-.631-6.539-.542-5.719-1.338-14.1-2.359-24.764-2-21.321-4.87-51.763-8.308-88.284l.189.153L411.566,60.858h0l.177-.212,11.321,121.875-.189-.153,88.308-8.131,24.764-2.264,6.545-.59,1.68-.147.59-.041-.554.059-1.663.165-6.486.625L511.3,174.4l-88.4,8.32h-.171v-.171c-3.3-35.425-7.205-77.241-11.368-121.875v-.195h.195L533.418,49.16h.171v.171c3.367,36.557,6.173,67.064,8.143,88.444.973,10.655,1.734,19.027,2.258,24.764.253,2.848.454,5.029.59,6.486.065.731.112,1.285.147,1.663A4.549,4.549,0,0,1,544.757,171.206Z" transform="translate(-411.36 -42.412)" fill="#263238"/>
        <rect id="Rectangle_4584" data-name="Rectangle 4584" width="5.371" height="13.042" transform="translate(5.513 10.446) rotate(-5.32)" fill="#e0e0e0"/>
        <rect id="Rectangle_4585" data-name="Rectangle 4585" width="5.371" height="13.042" transform="translate(16.872 132.4) rotate(-5.32)" fill="#e0e0e0"/>
        <rect id="Rectangle_4586" data-name="Rectangle 4586" width="5.371" height="13.042" transform="translate(112.251 0.498) rotate(-5.32)" fill="#e0e0e0"/>
        <rect id="Rectangle_4587" data-name="Rectangle 4587" width="5.371" height="13.042" transform="translate(123.681 123.296) rotate(-5.32)" fill="#e0e0e0"/>
        <circle id="Ellipse_1631" data-name="Ellipse 1631" cx="26.769" cy="26.769" r="26.769" transform="matrix(0.627, -0.779, 0.779, 0.627, 26.919, 53.548)" fill="#fff"/>
        <path id="Path_36521" data-name="Path 36521" d="M501.951,129.875a27.123,27.123,0,1,1,27.058-29.67h0a27.187,27.187,0,0,1-24.517,29.552C503.637,129.834,502.794,129.875,501.951,129.875Zm.041-53.55c-.814,0-1.639.041-2.465.118a26.344,26.344,0,1,0,2.465-.118Z" transform="translate(-437.428 -53.274)" fill="#ff6565"/>
        <path id="Path_36522" data-name="Path 36522" d="M525.837,106.614a1.881,1.881,0,0,0-3.025-.153,6.523,6.523,0,0,0-.826,1.846c-.525,1.621-.985,3.261-1.5,4.888-.053.171-.259.3-.4.448-.112-.165-.295-.324-.318-.507-.13-.926-.236-1.857-.318-2.789-.171-1.834-.318-3.667-.483-5.5-.283-3.078-.59-6.162-.879-9.234a1.9,1.9,0,0,0-.407-.955,1.8,1.8,0,0,0-2.081-.371,1.7,1.7,0,0,0-.92,1.769q.448,4.9.908,9.794a1.369,1.369,0,0,1,0,.46c-.041.124-.183.283-.295.295a.478.478,0,0,1-.336-.236,1.232,1.232,0,0,1-.071-.448l-1.061-11.38a5.884,5.884,0,0,0-.083-.713,1.327,1.327,0,0,0-1.179-1.144,1.769,1.769,0,0,0-2.2,2.04q.513,5.607,1.044,11.2a3.13,3.13,0,0,1,0,.66.419.419,0,0,1-.265.295.436.436,0,0,1-.342-.212,2.034,2.034,0,0,1-.094-.59c-.283-3-.548-5.985-.843-8.98a1.722,1.722,0,0,0-3.426.33q.436,4.776.884,9.54a2.034,2.034,0,0,1,.035.59,1.969,1.969,0,0,1-.277.478c-.136-.142-.377-.271-.4-.425-.13-1.15-.212-2.311-.318-3.467s-.212-2.453-.348-3.673a1.616,1.616,0,0,0-1.916-1.409,1.492,1.492,0,0,0-1.38,1.7q.236,3.6.466,7.205h0c.136,1.462.254,2.948.324,4.393a22.193,22.193,0,0,0,1.934,8.473,7.877,7.877,0,0,0,5.9,4.652,11.4,11.4,0,0,0,8.325-1.675,7.665,7.665,0,0,0,3.538-4.558c.973-3.709,1.869-7.435,2.754-11.162A2.152,2.152,0,0,0,525.837,106.614Z" transform="translate(-448.85 -60.249)" fill="#ff6565"/>
        <path id="Path_36523" data-name="Path 36523" d="M473.081,231.346l.077.867-5.077.472-.631-7,4.941-.46.083.867-3.939.371.195,2.146,3.538-.324.077.849-3.508.33.212,2.258Z" transform="translate(-434.378 -114.663)" fill="#263238"/>
        <path id="Path_36524" data-name="Path 36524" d="M481.688,227.32l.088.932h-.224a1.59,1.59,0,0,0-1.5,1.946l.248,2.642-.961.088-.5-5.307.926-.088.083.89A2.028,2.028,0,0,1,481.688,227.32Z" transform="translate(-439.052 -115.524)" fill="#263238"/>
        <path id="Path_36525" data-name="Path 36525" d="M488.522,226.69l.088.926h-.218a1.589,1.589,0,0,0-1.5,1.946l.242,2.642-.961.088-.489-5.307.92-.083.083.89a2.022,2.022,0,0,1,1.84-1.1Z" transform="translate(-441.859 -115.266)" fill="#263238"/>
        <path id="Path_36526" data-name="Path 36526" d="M491.988,229.028A2.771,2.771,0,1,1,495,231.481a2.653,2.653,0,0,1-3.013-2.453Zm4.546-.425a.73.73,0,1,0,.006,0Z" transform="translate(-444.441 -114.962)" fill="#263238"/>
        <path id="Path_36527" data-name="Path 36527" d="M506.022,225.06l.088.926h-.224a1.59,1.59,0,0,0-1.5,1.946l.248,2.642-.961.088-.489-5.307.92-.083.083.89A2.011,2.011,0,0,1,506.022,225.06Z" transform="translate(-449.041 -114.597)" fill="#263238"/>
        <path id="Path_36528" data-name="Path 36528" d="M515.747,222.081l.23,2.441,3.538-.324.059.873-3.538.33.265,2.83-1,.094-.648-7,4.941-.46.083.873Z" transform="translate(-453.748 -112.873)" fill="#263238"/>
        <path id="Path_36529" data-name="Path 36529" d="M524.769,225.987a2.765,2.765,0,1,1,3.013,2.453,2.647,2.647,0,0,1-3.013-2.453Zm4.54-.425a1.769,1.769,0,1,0-.361,1.368A1.769,1.769,0,0,0,529.309,225.562Z" transform="translate(-457.893 -113.719)" fill="#263238"/>
        <path id="Path_36530" data-name="Path 36530" d="M538.8,222l.088.926h-.224a1.59,1.59,0,0,0-1.5,1.946l.248,2.642-.961.088-.489-5.307.92-.083.083.89a2.022,2.022,0,0,1,1.84-1.1Z" transform="translate(-462.493 -113.341)" fill="#263238"/>
        <path id="Path_36531" data-name="Path 36531" d="M548.388,222.5a2.588,2.588,0,0,1-2.429,2.948,2.241,2.241,0,0,1-1.975-.719l.083.837-.926.088-.69-7.423.961-.088.271,2.948a2.27,2.27,0,0,1,1.769-1.02,2.583,2.583,0,0,1,2.936,2.429Zm-.973.094a1.769,1.769,0,1,0-.363,1.37,1.769,1.769,0,0,0,.363-1.37Z" transform="translate(-465.156 -111.757)" fill="#263238"/>
        <path id="Path_36532" data-name="Path 36532" d="M553.808,217.586a.663.663,0,1,1,.708.56.619.619,0,0,1-.708-.56Zm.318,1.627.961-.088.5,5.307-.961.088Z" transform="translate(-469.816 -111.244)" fill="#263238"/>
        <path id="Path_36533" data-name="Path 36533" d="M563.692,216l.69,7.423-.92.083-.077-.837a2.252,2.252,0,0,1-1.8,1.079,2.718,2.718,0,0,1-.507-5.413,2.252,2.252,0,0,1,1.928.678l-.271-2.948Zm-.507,4.858a1.769,1.769,0,1,0-.356,1.37,1.769,1.769,0,0,0,.356-1.37Z" transform="translate(-471.788 -110.879)" fill="#263238"/>
        <path id="Path_36534" data-name="Path 36534" d="M575.267,214.93l.714,7.417-.92.088-.077-.843a2.252,2.252,0,0,1-1.81,1.079,2.718,2.718,0,1,1-.5-5.413,2.258,2.258,0,0,1,1.928.678l-.271-2.919Zm-.5,4.859a1.769,1.769,0,1,0-.361,1.368,1.769,1.769,0,0,0,.361-1.368Z" transform="translate(-476.546 -110.44)" fill="#263238"/>
        <path id="Path_36535" data-name="Path 36535" d="M587.077,220.587l-4.3.4a1.769,1.769,0,0,0,2.064,1.368,1.987,1.987,0,0,0,1.474-.778l.59.59a2.9,2.9,0,0,1-5.112-1.391,2.606,2.606,0,0,1,2.412-2.948,2.565,2.565,0,0,1,2.872,2.482A1.635,1.635,0,0,1,587.077,220.587Zm-4.363-.289,3.4-.318a1.722,1.722,0,0,0-3.4.318Z" transform="translate(-481.292 -111.621)" fill="#263238"/>
        <path id="Path_36536" data-name="Path 36536" d="M597.832,218.816l.283,3.048-.961.094-.271-2.948c-.1-1.038-.666-1.5-1.574-1.415a1.58,1.58,0,0,0-1.515,1.916l.254,2.73-.961.088-.5-5.307.92-.088.077.8a2.276,2.276,0,0,1,1.834-1.026A2.076,2.076,0,0,1,597.832,218.816Z" transform="translate(-485.732 -111.166)" fill="#263238"/>
        <path id="Path_36537" data-name="Path 36537" d="M493.976,194.527l-3.945.366.472,5.065-4.015.377-.472-5.065-12.205,1.138-.271-2.871,9.652-15.383,4.428-.413-9.092,14.693,7.294-.684-.419-4.487,3.886-.366.419,4.493,3.951-.366Z" transform="translate(-436.877 -95.178)" fill="#263238"/>
        <path id="Path_36538" data-name="Path 36538" d="M510.153,187c-.678-7.323,2.948-11.84,8.255-12.329s9.717,3.272,10.4,10.613-2.948,11.84-8.255,12.335S510.837,194.3,510.153,187Zm14.464-1.344c-.5-5.383-2.836-7.665-5.9-7.388s-4.9,2.948-4.4,8.349,2.836,7.665,5.861,7.388S525.118,191.038,524.617,185.655Z" transform="translate(-451.869 -93.901)" fill="#263238"/>
        <path id="Path_36539" data-name="Path 36539" d="M561.351,186.543c.348,3.762-2.182,7.276-8.172,7.83a14.052,14.052,0,0,1-8.614-1.8l1.486-3.384a10.454,10.454,0,0,0,6.734,1.592c2.948-.277,4.593-1.769,4.4-3.815s-1.769-3.178-5.147-2.866l-2.04.189-.265-2.83,4.5-6.486-10.13.943-.324-3.473,15.195-1.415.259,2.771-4.817,6.94C558.65,180.883,561.038,183.2,561.351,186.543Z" transform="translate(-465.702 -92.424)" fill="#263238"/>
      </g>
    </g>
  </g>
</svg>
