<svg xmlns="http://www.w3.org/2000/svg" xmlns:xlink="http://www.w3.org/1999/xlink" width="168.301" height="44.479" viewBox="0 0 168.301 44.479">
  <defs>
    <linearGradient id="linear-gradient" x1="0.323" x2="0.643" y2="0.943" gradientUnits="objectBoundingBox">
      <stop offset="0" stop-color="#f9ad1f"/>
      <stop offset="1" stop-color="#f98a14"/>
    </linearGradient>
    <linearGradient id="linear-gradient-2" x1="0.856" y1="0.185" x2="-0.074" y2="1.504" gradientUnits="objectBoundingBox">
      <stop offset="0" stop-color="#ff3b9f"/>
      <stop offset="1" stop-color="#5f0736"/>
    </linearGradient>
  </defs>
  <g id="Logo_Appbar" transform="translate(22526.301 16190)">
    <text id="PayrollEzy" transform="translate(-22473 -16160)" fill="#fff" font-size="24" font-family="Reem Kufi"><tspan x="0" y="0">PayrollEzy</tspan></text>
    <g id="Group_34915" data-name="Group 34915" transform="translate(-787.301 715.07)">
      <g id="Logo_Icon" data-name="Logo Icon" transform="translate(-21739 -16905.07)">
        <g id="_fa950dff" data-name="#fa950dff" transform="translate(2.104 0)">
          <path id="Path_36235" data-name="Path 36235" d="M23.856,3.472A1.662,1.662,0,0,1,24.975,3.3c-.048.516-.845.54-1.222.762a16.72,16.72,0,0,0-8.62,8.64c-.024.3-.067.9-.087,1.2,1.159-1.147,1.528-2.8,2.488-4.08a17.406,17.406,0,0,1,5.5-4.814,5.436,5.436,0,0,1,2.179-.119c-3.187,2.56-7.081,5.322-7.422,9.783,2.092-1.3,1.782-4.513,3.909-5.822.579-.3,1.715-.583,1.814.345-.528,1.326-1.611,2.338-2.159,3.655-.988,2.048-.929,4.374-.861,6.588.064,3.358,1.929,6.366,4.1,8.807A15.751,15.751,0,0,0,35.882,33.39c1.064-.123,2.131-.222,3.191-.373,6.072-.984,10.252-7.227,9.692-13.208.127-2.492-.877-4.842-1.9-7.057a24.125,24.125,0,0,0-5.787-7.2A22.785,22.785,0,0,1,51.722,19c2.5,8.287-.333,18.17-7.565,23.19a18.866,18.866,0,0,1-9.482,3.326,24.106,24.106,0,0,1-20.61-9.069,22.306,22.306,0,0,1-4.5-11.462,23.485,23.485,0,0,1,1.369-11.109c1.3-2.512,2.838-5.068,5.255-6.664.111-.127.333-.381.448-.508,2.211-1.492,4.806-2.155,7.215-3.235m-7.95,4.219c-1.619,2.175-3.735,4.405-3.782,7.275a36.1,36.1,0,0,0,2.052-3.727,26.212,26.212,0,0,1,2.842-3.862C16.644,7.477,16.275,7.58,15.906,7.691Z" transform="translate(-9.415 -3.27)" fill="url(#linear-gradient)"/>
        </g>
        <g id="_be0e6bff" data-name="#be0e6bff" transform="translate(0 3.911)">
          <g id="Group_34909" data-name="Group 34909">
            <path id="Path_36236" data-name="Path 36236" d="M46.71,13.757a5.591,5.591,0,0,1,4.227-.389A27.785,27.785,0,0,1,57.6,15.94a29.453,29.453,0,0,1,7.561,6.438c.218.012.655.032.873.04-.6-2.762-3-4.6-3.866-7.231a3.118,3.118,0,0,1,2.056.877c2.719,2.588,4,6.227,5.211,9.688.56,5.981-3.62,12.224-9.692,13.208a23.837,23.837,0,0,1-3.171.347,12.749,12.749,0,0,0-3.215-9.563,19.579,19.579,0,0,0-4.628-3.108c-.013-.491-.263-.932,0-1.5s.627-.592,1.052-.764c2.219.512,3.493,2.977,5.775,3.239.2-.929-.683-1.413-1.294-1.905a16.21,16.21,0,0,0-7.64-3.4,3.018,3.018,0,0,1-1.913-1.25c.448-.885,1.123-1.861,2.27-1.679a19.549,19.549,0,0,1,6.334,2.159c1.461.738,2.631,1.933,4.136,2.58a2.2,2.2,0,0,0-.877-1.6A18.2,18.2,0,0,0,46.2,18.468a5.3,5.3,0,0,1-2.508-.659,2.238,2.238,0,0,1,2.481-1.98,20.219,20.219,0,0,1,9.1,2.433c1.687.857,3.028,2.25,4.711,3.116-.1-.46-.008-1.044-.468-1.334-3.429-2.985-7.847-4.413-12.236-5.255Z" transform="translate(-27.983 -13.123)" fill="url(#linear-gradient-2)"/>
            <path id="Path_36237" data-name="Path 36237" d="M4.144,41.093A16.854,16.854,0,0,1,7.74,30,23.485,23.485,0,0,0,6.371,41.109a22.306,22.306,0,0,0,4.5,11.462,24.106,24.106,0,0,0,20.61,9.069,18.866,18.866,0,0,0,9.482-3.326,19.791,19.791,0,0,1-13.054,5.517,22.614,22.614,0,0,1-18.936-8.5A21.206,21.206,0,0,1,4.144,41.093Z" transform="translate(-4.114 -23.302)" fill="url(#linear-gradient-2)"/>
          </g>
        </g>
      </g>
    </g>
  </g>
</svg>
