<svg xmlns="http://www.w3.org/2000/svg" xmlns:xlink="http://www.w3.org/1999/xlink" width="225.768" height="181.701" viewBox="0 0 225.768 181.701">
  <defs>
    <clipPath id="clip-path">
      <rect id="Rectangle_4179" data-name="Rectangle 4179" width="225.768" height="181.702" fill="#fff"/>
    </clipPath>
  </defs>
  <g id="New_to_PayrollEzy" data-name="New to PayrollEzy" clip-path="url(#clip-path)">
    <path id="Path_34951" data-name="Path 34951" d="M214.7,179.413s16.619-44.035,9.137-100.253c-2.552-19.222-7.818-40.006-20.349-54.439C186.1,4.671,156.693-5.222,132.656,2.773c-21.409,7.11-36.323,26.1-54.227,39.853C58.9,57.616,40.2,46.377,17.358,68.394S-.921,129.746,4.066,143.82s11.779,28.35,31.663,34.554Z" transform="translate(0.002 0)" fill="#34a853"/>
    <path id="Path_34952" data-name="Path 34952" d="M214.7,179.413s16.619-44.035,9.137-100.253c-2.552-19.222-7.818-40.006-20.349-54.439C186.1,4.671,156.693-5.222,132.656,2.773c-21.409,7.11-36.323,26.1-54.227,39.853C58.9,57.616,40.2,46.377,17.358,68.394S-.921,129.746,4.066,143.82s11.779,28.35,31.663,34.554Z" transform="translate(0.002 0)" fill="#fff" opacity="0.9"/>
    <path id="Path_34953" data-name="Path 34953" d="M188.828,32.641H24.766V157.908H188.828Z" transform="translate(10.959 20.454)" fill="#fff" stroke="#263238" stroke-linecap="round" stroke-linejoin="round" stroke-width="1"/>
    <path id="Path_34954" data-name="Path 34954" d="M154.3,34.867H98.906V137.516H154.3Z" transform="translate(43.765 21.85)" fill="#fff" stroke="#263238" stroke-linecap="round" stroke-linejoin="round" stroke-width="1"/>
    <path id="Path_34955" data-name="Path 34955" d="M81.394,34.867H26V137.516H81.394Z" transform="translate(11.505 21.85)" fill="#fff" stroke="#263238" stroke-linecap="round" stroke-linejoin="round" stroke-width="1"/>
    <path id="Path_34956" data-name="Path 34956" d="M154.3,68.032,98.906,89.854V34.863H154.3Z" transform="translate(43.765 21.847)" fill="#51df77" stroke="#263238" stroke-linecap="round" stroke-linejoin="round" stroke-width="1"/>
    <path id="Path_34957" data-name="Path 34957" d="M81.392,68.032,26,93.965v-59.1H81.392Z" transform="translate(11.505 21.847)" fill="#51df77" stroke="#263238" stroke-linecap="round" stroke-linejoin="round" stroke-width="1"/>
    <path id="Path_34958" data-name="Path 34958" d="M111.224,32.641H65.938V157.908h45.287Z" transform="translate(29.177 20.454)" fill="#34a853" stroke="#263238" stroke-linecap="round" stroke-linejoin="round" stroke-width="1"/>
    <path id="Path_34959" data-name="Path 34959" d="M67.715,99.232h40.16v52.125H67.715Zm0-63.687V87.669h40.16V35.545Z" transform="translate(29.963 22.274)" fill="#fff" stroke="#263238" stroke-linecap="round" stroke-linejoin="round" stroke-width="1"/>
    <path id="Path_34960" data-name="Path 34960" d="M103.825,105.353V99.139L76,111.108H90.22Z" transform="translate(33.627 62.126)" fill="#51df77"/>
    <path id="Path_34961" data-name="Path 34961" d="M67.715,72.527l40.16-19.765V35.545H67.715Z" transform="translate(29.963 22.274)" fill="#51df77"/>
    <path id="Path_34962" data-name="Path 34962" d="M88.05,71.858l15.82-6.612V59.773L75.441,71.858Z" transform="translate(33.382 37.457)" fill="#51df77"/>
    <path id="Path_34963" data-name="Path 34963" d="M67.715,119.144l40.16-18.576V74.7H67.715Z" transform="translate(29.963 46.809)" fill="#51df77"/>
    <path id="Path_34964" data-name="Path 34964" d="M192.362,47.12H23.18L40.1,13.338H175.449Z" transform="translate(10.257 8.358)" fill="#34a853" stroke="#263238" stroke-linecap="round" stroke-linejoin="round" stroke-width="1"/>
    <path id="Path_34965" data-name="Path 34965" d="M23.19,34.16c0,.234-.033.468-.033.7a11.757,11.757,0,0,0,.714,4.046,10.754,10.754,0,0,0,2.033,3.43,9.39,9.39,0,0,0,3.042,2.292,8.4,8.4,0,0,0,7.176,0,9.39,9.39,0,0,0,3.042-2.292,10.754,10.754,0,0,0,2.033-3.43,11.753,11.753,0,0,0,.714-4.046,5.889,5.889,0,0,0-.027-.7Z" transform="translate(10.246 21.407)" fill="#fff" stroke="#263238" stroke-linecap="round" stroke-linejoin="round" stroke-width="1"/>
    <path id="Path_34966" data-name="Path 34966" d="M36.217,34.16c0,.234-.033.468-.033.7a11.3,11.3,0,0,0,2.746,7.476,8.645,8.645,0,0,0,13.26,0,11.3,11.3,0,0,0,2.746-7.476,5.889,5.889,0,0,0-.027-.7Z" transform="translate(16.011 21.407)" fill="#34a853" stroke="#263238" stroke-linecap="round" stroke-linejoin="round" stroke-width="1"/>
    <path id="Path_34967" data-name="Path 34967" d="M49.24,34.16c0,.234-.033.468-.033.7a11.3,11.3,0,0,0,2.746,7.476,8.645,8.645,0,0,0,13.26,0,11.3,11.3,0,0,0,2.746-7.476,5.858,5.858,0,0,0-.027-.7Z" transform="translate(21.774 21.407)" fill="#fff" stroke="#263238" stroke-linecap="round" stroke-linejoin="round" stroke-width="1"/>
    <path id="Path_34968" data-name="Path 34968" d="M62.268,34.16c0,.234-.033.468-.033.7a11.753,11.753,0,0,0,.714,4.046,10.751,10.751,0,0,0,2.032,3.43,9.39,9.39,0,0,0,3.042,2.292,8.4,8.4,0,0,0,7.176,0,9.392,9.392,0,0,0,3.042-2.292,10.757,10.757,0,0,0,2.032-3.43,11.757,11.757,0,0,0,.714-4.046,5.886,5.886,0,0,0-.027-.7Z" transform="translate(27.538 21.407)" fill="#34a853" stroke="#263238" stroke-linecap="round" stroke-linejoin="round" stroke-width="1"/>
    <path id="Path_34969" data-name="Path 34969" d="M75.295,34.16c0,.234-.033.468-.033.7a11.3,11.3,0,0,0,2.746,7.476,8.645,8.645,0,0,0,13.26,0,11.3,11.3,0,0,0,2.746-7.476,5.857,5.857,0,0,0-.027-.7Z" transform="translate(33.302 21.407)" fill="#fff" stroke="#263238" stroke-linecap="round" stroke-linejoin="round" stroke-width="1"/>
    <path id="Path_34970" data-name="Path 34970" d="M88.318,34.16c0,.234-.033.468-.033.7a11.3,11.3,0,0,0,2.746,7.476,8.645,8.645,0,0,0,13.26,0,11.3,11.3,0,0,0,2.746-7.476,5.715,5.715,0,0,0-.027-.7Z" transform="translate(39.065 21.407)" fill="#34a853" stroke="#263238" stroke-linecap="round" stroke-linejoin="round" stroke-width="1"/>
    <path id="Path_34971" data-name="Path 34971" d="M101.345,34.16c0,.234-.033.468-.033.7a11.3,11.3,0,0,0,2.747,7.476,8.646,8.646,0,0,0,13.261,0,11.294,11.294,0,0,0,2.745-7.476,5.44,5.44,0,0,0-.027-.7Z" transform="translate(44.829 21.407)" fill="#fff" stroke="#263238" stroke-linecap="round" stroke-linejoin="round" stroke-width="1"/>
    <path id="Path_34972" data-name="Path 34972" d="M114.373,34.16c0,.234-.033.468-.033.7a11.3,11.3,0,0,0,2.746,7.476,8.645,8.645,0,0,0,13.259,0,11.3,11.3,0,0,0,2.747-7.476,6.013,6.013,0,0,0-.027-.7Z" transform="translate(50.594 21.407)" fill="#34a853" stroke="#263238" stroke-linecap="round" stroke-linejoin="round" stroke-width="1"/>
    <path id="Path_34973" data-name="Path 34973" d="M127.4,34.16c0,.234-.033.468-.033.7a11.3,11.3,0,0,0,2.746,7.476,8.645,8.645,0,0,0,13.259,0,11.3,11.3,0,0,0,2.747-7.476,5.715,5.715,0,0,0-.027-.7Z" transform="translate(56.357 21.407)" fill="#fff" stroke="#263238" stroke-linecap="round" stroke-linejoin="round" stroke-width="1"/>
    <path id="Path_34974" data-name="Path 34974" d="M72.273,53.088l13.545-8.223,13.456,8.223" transform="translate(31.98 28.115)" fill="none" stroke="#fff" stroke-linecap="round" stroke-linejoin="round" stroke-width="1"/>
    <path id="Path_34975" data-name="Path 34975" d="M83.395,45.441a1.631,1.631,0,0,0-.223-.83,1.373,1.373,0,0,0-.594-.55,1.187,1.187,0,0,0-.765-.085,1.286,1.286,0,0,0-.678.409,1.562,1.562,0,0,0-.362.765,1.671,1.671,0,0,0,.075.863,1.469,1.469,0,0,0,.488.67,1.221,1.221,0,0,0,.736.252,1.253,1.253,0,0,0,.936-.437A1.6,1.6,0,0,0,83.395,45.441Z" transform="translate(35.729 27.54)" fill="#fff" stroke="#263238" stroke-linecap="round" stroke-linejoin="round" stroke-width="1"/>
    <path id="Path_34976" data-name="Path 34976" d="M99.275,49.92h-27V64.986h27Z" transform="translate(31.98 31.282)" fill="#34a853" stroke="#263238" stroke-linecap="round" stroke-linejoin="round" stroke-width="1"/>
    <path id="Path_34977" data-name="Path 34977" d="M76.2,54.211a2.4,2.4,0,0,1-.18.97,1.479,1.479,0,0,1-.493.631,1.267,1.267,0,0,1-1.432,0,1.479,1.479,0,0,1-.493-.631,2.71,2.71,0,0,1,0-1.941,1.479,1.479,0,0,1,.493-.631,1.267,1.267,0,0,1,1.432,0,1.479,1.479,0,0,1,.493.631A2.4,2.4,0,0,1,76.2,54.211Zm-.369,0a1.964,1.964,0,0,0-.137-.778,1.089,1.089,0,0,0-.367-.48.9.9,0,0,0-1.034,0,1.1,1.1,0,0,0-.367.48,2.3,2.3,0,0,0,0,1.556,1.1,1.1,0,0,0,.367.48.9.9,0,0,0,1.034,0,1.089,1.089,0,0,0,.367-.48A1.964,1.964,0,0,0,75.827,54.211Zm1.01,1.775V52.436H77.9a1.1,1.1,0,0,1,.605.151.9.9,0,0,1,.35.4,1.482,1.482,0,0,1,0,1.138.914.914,0,0,1-.347.409,1.1,1.1,0,0,1-.6.151h-.762v-.381h.75a.743.743,0,0,0,.407-.1.566.566,0,0,0,.223-.267.988.988,0,0,0,.071-.383.974.974,0,0,0-.071-.381.546.546,0,0,0-.224-.264.77.77,0,0,0-.412-.1h-.67v3.168Zm2.747,0V52.436h1.9v.381H79.964v1.2h1.42V54.4h-1.42V55.6h1.543v.381Zm5.082-3.549v3.549H84.3L82.582,53.2h-.031v2.787H82.17V52.436h.369L84.26,55.23h.031V52.436Zm.763,3.549V52.436h1.9v.381H85.809v1.2h1.42V54.4h-1.42V55.6h1.543v.381Zm3.558,0h-.971V52.436h1.014a1.4,1.4,0,0,1,.784.213,1.345,1.345,0,0,1,.5.608,2.342,2.342,0,0,1,.174.946,2.369,2.369,0,0,1-.175.955,1.355,1.355,0,0,1-.51.614A1.487,1.487,0,0,1,88.986,55.986ZM88.4,55.6h.565a1.149,1.149,0,0,0,.647-.17,1.014,1.014,0,0,0,.383-.483,2.268,2.268,0,0,0,0-1.487,1.008,1.008,0,0,0-.372-.478A1.072,1.072,0,0,0,89,52.818H88.4Z" transform="translate(32.486 32.829)" fill="#263238"/>
    <path id="Path_34978" data-name="Path 34978" d="M95.26,75.871a3.121,3.121,0,1,0-2.748-3.1A2.939,2.939,0,0,0,95.26,75.871Z" transform="translate(40.935 43.661)" fill="#fff" stroke="#263238" stroke-linecap="round" stroke-linejoin="round" stroke-width="1"/>
    <path id="Path_34979" data-name="Path 34979" d="M94.635,72.673a.8.8,0,1,0-.7-.791A.75.75,0,0,0,94.635,72.673Z" transform="translate(41.565 44.55)" fill="#fff" stroke="#263238" stroke-linecap="round" stroke-linejoin="round" stroke-width="1"/>
    <path id="Path_34980" data-name="Path 34980" d="M215.1,113.327H11.7a1.686,1.686,0,0,1-.72-.158,1.869,1.869,0,0,1-.611-.457,2.158,2.158,0,0,1-.409-.688,2.35,2.35,0,0,1,0-1.62,2.131,2.131,0,0,1,.409-.685,1.862,1.862,0,0,1,.611-.454,1.68,1.68,0,0,1,.719-.156H215.1a1.786,1.786,0,0,1,1.32.62,2.26,2.26,0,0,1,.548,1.487h0a2.261,2.261,0,0,1-.547,1.493,1.769,1.769,0,0,1-1.321.621Z" transform="translate(4.344 68.374)" fill="#f5f5f5"/>
    <path id="Path_34981" data-name="Path 34981" d="M35.111,50.769v4.263H33.929V50.357a2.222,2.222,0,0,0-.133-.767,2.032,2.032,0,0,0-.384-.651,1.776,1.776,0,0,0-.576-.435,1.6,1.6,0,0,0-.68-.153,1.683,1.683,0,0,0-1.258.587,2.142,2.142,0,0,0-.521,1.418v5.807H29.256V53.084a1.542,1.542,0,0,0-.373-1.018,1.211,1.211,0,0,0-.9-.425h0a1.211,1.211,0,0,0-.9.423,1.541,1.541,0,0,0-.375,1.02V57.8a.993.993,0,0,0,.244.654.78.78,0,0,0,.581.27h2.8v3.491h3.55V57.706h2.462a.944.944,0,0,0,.706-.33,1.2,1.2,0,0,0,.292-.8h0V50.774a1.352,1.352,0,0,0-.329-.895,1.062,1.062,0,0,0-.794-.371h0a1.063,1.063,0,0,0-.784.374,1.352,1.352,0,0,0-.326.887Z" transform="translate(11.816 30.3)" fill="#34a853"/>
    <path id="Path_34982" data-name="Path 34982" d="M34.587,56.711H28.344v6.528h6.243Z" transform="translate(12.542 35.538)" fill="#fff" stroke="#263238" stroke-linecap="round" stroke-linejoin="round" stroke-width="1"/>
    <path id="Path_34983" data-name="Path 34983" d="M35.069,55.758H28.086v2.1h6.983Z" transform="translate(12.428 34.941)" fill="#fff" stroke="#263238" stroke-linecap="round" stroke-linejoin="round" stroke-width="1"/>
    <path id="Path_34984" data-name="Path 34984" d="M32.014,76.5l-2.279-4.112,1.52.163-.144-2.4,1.672,2.4.144-7.362,1.212,4.794,1.52-6.167.454,7.191,3.039-3.593-2.126,5.648,2.126-.854-4.1,5.135Z" transform="translate(13.157 39.991)" fill="#34a853"/>
    <path id="Path_34985" data-name="Path 34985" d="M36.751,71.957H30.508v6.528h6.243Z" transform="translate(13.499 45.092)" fill="#fff" stroke="#263238" stroke-linecap="round" stroke-linejoin="round" stroke-width="1"/>
    <path id="Path_34986" data-name="Path 34986" d="M37.233,71.008H30.25v2.1h6.983Z" transform="translate(13.385 44.497)" fill="#fff" stroke="#263238" stroke-linecap="round" stroke-linejoin="round" stroke-width="1"/>
    <path id="Path_34987" data-name="Path 34987" d="M54.43,76.5l-2.278-4.112,1.515.163-.144-2.4,1.672,2.4.144-7.362,1.212,4.794,1.52-6.167.454,7.191,3.039-3.593-2.126,5.648,2.126-.854-4.1,5.135Z" transform="translate(23.077 39.991)" fill="#34a853"/>
    <path id="Path_34988" data-name="Path 34988" d="M59.165,71.957H52.922v6.528h6.243Z" transform="translate(23.417 45.092)" fill="#fff" stroke="#263238" stroke-linecap="round" stroke-linejoin="round" stroke-width="1"/>
    <path id="Path_34989" data-name="Path 34989" d="M59.651,71.008H52.668v2.1h6.983Z" transform="translate(23.305 44.497)" fill="#fff" stroke="#263238" stroke-linecap="round" stroke-linejoin="round" stroke-width="1"/>
    <path id="Path_34990" data-name="Path 34990" d="M44.3,75.024a17.952,17.952,0,0,1-3.191-.342c-1.683-.342-1.975-1.544-1.212-1.9a9.283,9.283,0,0,1,3.338.163s-3.338,0-3.792-2.227,1.212-2.056,1.683-1.537,1.683,1.537,1.683,1.537-2.581-2.91-2.581-4.623,1.683-1.537,2.126-.512,1.52,4.111,1.52,4.111-1.683-5.477.454-4.623,1.683,3.416,1.683,3.94v2.22s2.126-4.618,2.885-3.593-1.066,2.91-1.066,2.91,1.066-4.428,3.645-4.281.144,2.227-.3,3.091A18.718,18.718,0,0,1,48.748,72.1a22.109,22.109,0,0,1,6.523-2.227c2.12,0,.157,2.739-1.06,2.91s-3.494.512-3.494.512,3.039,1.544,1.823,1.9a12.965,12.965,0,0,1-4.251-.342Z" transform="translate(17.42 40.614)" fill="#34a853"/>
    <path id="Path_34991" data-name="Path 34991" d="M48.118,71.957H41.875v6.528h6.243Z" transform="translate(18.529 45.092)" fill="#fff" stroke="#263238" stroke-linecap="round" stroke-linejoin="round" stroke-width="1"/>
    <path id="Path_34992" data-name="Path 34992" d="M48.6,71.008H41.617v2.1H48.6Z" transform="translate(18.415 44.497)" fill="#fff" stroke="#263238" stroke-linecap="round" stroke-linejoin="round" stroke-width="1"/>
    <path id="Path_34993" data-name="Path 34993" d="M49.817,52.355v3.162h.876V52.051A1.588,1.588,0,0,1,51.08,51a1.213,1.213,0,0,1,1.859,0,1.581,1.581,0,0,1,.384,1.047v4.294h.814V54.068a1.134,1.134,0,0,1,.276-.751.891.891,0,0,1,.666-.311h0a.9.9,0,0,1,.668.311,1.14,1.14,0,0,1,.28.752v3.5a.735.735,0,0,1-.181.483.578.578,0,0,1-.43.2H53.323v2.586H50.692V57.495H48.869a.707.707,0,0,1-.524-.249.9.9,0,0,1-.216-.592V52.36a1.02,1.02,0,0,1,.246-.673.8.8,0,0,1,.6-.282h0a.806.806,0,0,1,.592.275,1.023,1.023,0,0,1,.255.662Z" transform="translate(21.297 31.69)" fill="#34a853"/>
    <path id="Path_34994" data-name="Path 34994" d="M54.7,56.711H48.457v6.528H54.7Z" transform="translate(21.442 35.538)" fill="#fff" stroke="#263238" stroke-linecap="round" stroke-linejoin="round" stroke-width="1"/>
    <path id="Path_34995" data-name="Path 34995" d="M55.178,55.758H48.2v2.1h6.983Z" transform="translate(21.326 34.941)" fill="#fff" stroke="#263238" stroke-linecap="round" stroke-linejoin="round" stroke-width="1"/>
    <path id="Path_34996" data-name="Path 34996" d="M33.11,82.894v3.162h.876V82.59a1.644,1.644,0,0,1,.1-.567,1.5,1.5,0,0,1,.284-.48,1.316,1.316,0,0,1,.426-.321,1.186,1.186,0,0,1,.5-.113h0a1.247,1.247,0,0,1,.93.433,1.587,1.587,0,0,1,.388,1.047v4.3h.808V84.613a1.14,1.14,0,0,1,.28-.752.9.9,0,0,1,.668-.311h0a.891.891,0,0,1,.666.311,1.135,1.135,0,0,1,.276.751v3.5a.763.763,0,0,1-.044.263.7.7,0,0,1-.131.224.606.606,0,0,1-.2.15.546.546,0,0,1-.233.053H36.616v2.586H33.985V88.034H32.162a.7.7,0,0,1-.523-.244.891.891,0,0,1-.217-.59h0V82.9a1.014,1.014,0,0,1,.246-.671.8.8,0,0,1,.595-.278h0a.8.8,0,0,1,.6.276,1.019,1.019,0,0,1,.252.668Z" transform="translate(13.904 50.828)" fill="#34a853"/>
    <path id="Path_34997" data-name="Path 34997" d="M37.985,87.25H31.742v6.528h6.243Z" transform="translate(14.046 54.676)" fill="#fff" stroke="#263238" stroke-linecap="round" stroke-linejoin="round" stroke-width="1"/>
    <path id="Path_34998" data-name="Path 34998" d="M38.471,86.3H31.488v2.1h6.983Z" transform="translate(13.933 54.081)" fill="#fff" stroke="#263238" stroke-linecap="round" stroke-linejoin="round" stroke-width="1"/>
    <path id="Path_34999" data-name="Path 34999" d="M54.57,82.894v3.162h.88V82.59a1.644,1.644,0,0,1,.1-.567,1.5,1.5,0,0,1,.284-.48,1.315,1.315,0,0,1,.426-.321,1.185,1.185,0,0,1,.5-.113h0a1.247,1.247,0,0,1,.93.433,1.587,1.587,0,0,1,.388,1.047v4.3h.808V84.613a1.141,1.141,0,0,1,.28-.752.871.871,0,0,1,1.334,0,1.135,1.135,0,0,1,.276.751v3.5a.759.759,0,0,1-.044.263.7.7,0,0,1-.131.224.605.605,0,0,1-.2.15.547.547,0,0,1-.233.053h-2.1v2.586H55.438V88.034H53.615a.7.7,0,0,1-.523-.244.891.891,0,0,1-.217-.59h0V82.9a1.013,1.013,0,0,1,.246-.671.8.8,0,0,1,.595-.278.755.755,0,0,1,.325.068.839.839,0,0,1,.277.2.962.962,0,0,1,.185.309,1.054,1.054,0,0,1,.065.366Z" transform="translate(23.397 50.828)" fill="#34a853"/>
    <path id="Path_35000" data-name="Path 35000" d="M59.45,87.25H53.207v6.528H59.45Z" transform="translate(23.544 54.676)" fill="#fff" stroke="#263238" stroke-linecap="round" stroke-linejoin="round" stroke-width="1"/>
    <path id="Path_35001" data-name="Path 35001" d="M59.936,86.3H52.953v2.1h6.983Z" transform="translate(23.431 54.081)" fill="#fff" stroke="#263238" stroke-linecap="round" stroke-linejoin="round" stroke-width="1"/>
    <path id="Path_35002" data-name="Path 35002" d="M44.26,92.146a12.082,12.082,0,0,0-2.177-2.9A9.162,9.162,0,0,1,40.3,84.791s.594-.221,1.779,1.113a14.025,14.025,0,0,1,1.975,3.118,42.247,42.247,0,0,1-.79-5.124c0-1.334,1.981-4.675,1.981-4.675a22.713,22.713,0,0,1,.589,3.561v5.124a16.366,16.366,0,0,1,2.771-4.229,10.526,10.526,0,0,1,3.926-2.227s.2,2.676-.594,3.561-4.146,4.01-4.146,4.01l4.544-.885-4.544,3.118s-.853,1.266-1.587.891a3.4,3.4,0,0,0-1.947,0Z" transform="translate(17.834 49.645)" fill="#34a853"/>
    <path id="Path_35003" data-name="Path 35003" d="M47.989,87.25H41.746v6.528h6.243Z" transform="translate(18.472 54.676)" fill="#fff" stroke="#263238" stroke-linecap="round" stroke-linejoin="round" stroke-width="1"/>
    <path id="Path_35004" data-name="Path 35004" d="M48.471,86.3H41.488v2.1h6.983Z" transform="translate(18.358 54.081)" fill="#fff" stroke="#263238" stroke-linecap="round" stroke-linejoin="round" stroke-width="1"/>
    <path id="Path_35005" data-name="Path 35005" d="M57.782,60.637s-1.969-1.9-2.581-2.568-2.126-2.568-.909-1.9a19.271,19.271,0,0,1,2.581,1.9,31.8,31.8,0,0,1-1.06-4.623c0-1.031,1.515-.342,2.278,1.373s1.212,2.91,1.212,2.91-1.369-6.85-.144-7.191,1.52,4.428,1.52,4.428,1.06-8.387,2.581-6.507-1.066,6.85-1.066,6.85,3.041-2.4,2.429-.512a4.741,4.741,0,0,1-.908,1.545,4.127,4.127,0,0,1-1.37,1.023s4.4-1.2,3.191.683-5.16,3.427-5.16,3.427Z" transform="translate(23.82 30.194)" fill="#34a853"/>
    <path id="Path_35006" data-name="Path 35006" d="M62.161,56.711H55.918v6.528h6.243Z" transform="translate(24.743 35.538)" fill="#fff" stroke="#263238" stroke-linecap="round" stroke-linejoin="round" stroke-width="1"/>
    <path id="Path_35007" data-name="Path 35007" d="M62.643,55.758H55.66v2.1h6.983Z" transform="translate(24.629 34.941)" fill="#fff" stroke="#263238" stroke-linecap="round" stroke-linejoin="round" stroke-width="1"/>
    <path id="Path_35008" data-name="Path 35008" d="M40.947,60.637s-1.975-1.9-2.581-2.568-2.126-2.568-.915-1.9a18.855,18.855,0,0,1,2.578,1.9,31.818,31.818,0,0,1-1.06-4.623c0-1.031,1.52-.342,2.278,1.373s1.212,2.91,1.212,2.91-1.363-6.85-.144-7.191,1.52,4.428,1.52,4.428,1.066-8.387,2.581-6.507-1.06,6.85-1.06,6.85,3.029-2.4,2.429-.512a4.759,4.759,0,0,1-.908,1.544,4.145,4.145,0,0,1-1.369,1.025s4.4-1.2,3.186.683-5.16,3.427-5.16,3.427Z" transform="translate(16.37 30.194)" fill="#34a853"/>
    <path id="Path_35009" data-name="Path 35009" d="M45.321,56.711H39.078v6.528h6.243Z" transform="translate(17.292 35.538)" fill="#fff" stroke="#263238" stroke-linecap="round" stroke-linejoin="round" stroke-width="1"/>
    <path id="Path_35010" data-name="Path 35010" d="M45.8,55.758H38.82v2.1H45.8Z" transform="translate(17.178 34.941)" fill="#fff" stroke="#263238" stroke-linecap="round" stroke-linejoin="round" stroke-width="1"/>
    <path id="Path_35011" data-name="Path 35011" d="M81.677,60.506H26.148v3.162H81.677Z" transform="translate(11.57 37.916)" fill="#34a853" stroke="#263238" stroke-linecap="round" stroke-linejoin="round" stroke-width="1"/>
    <path id="Path_35012" data-name="Path 35012" d="M81.677,75.834H26.148V79H81.677Z" transform="translate(11.57 47.522)" fill="#34a853" stroke="#263238" stroke-linecap="round" stroke-linejoin="round" stroke-width="1"/>
    <path id="Path_35013" data-name="Path 35013" d="M81.677,91.162H26.148v3.162H81.677Z" transform="translate(11.57 57.127)" fill="#34a853" stroke="#263238" stroke-linecap="round" stroke-linejoin="round" stroke-width="1"/>
    <path id="Path_35014" data-name="Path 35014" d="M28.112,60.506H26.148v80.006h1.963Z" transform="translate(11.57 37.916)" fill="#34a853" stroke="#263238" stroke-linecap="round" stroke-linejoin="round" stroke-width="1"/>
    <path id="Path_35015" data-name="Path 35015" d="M65.244,60.506H63.281v80.006h1.963Z" transform="translate(28.001 37.916)" fill="#34a853" stroke="#263238" stroke-linecap="round" stroke-linejoin="round" stroke-width="1"/>
    <path id="Path_35016" data-name="Path 35016" d="M121.554,112.428a22.209,22.209,0,0,1-2.6-7.167q-.837-4.62-1.223-9.322c-.309-3.105-.92-8.159-.92-8.159a32.728,32.728,0,0,1,3.517,6.8,66.305,66.305,0,0,1,1.532,7.185c.309,2.72.763,4.465.915,5.636s.157,4.067.157,4.067q.134-6.412-.309-12.815a68.132,68.132,0,0,1-.763-10.487c.151-3.105.144-3.688.3-5.63s.309-5.636.309-5.636,1.833,6.407,2.6,10.487a66.246,66.246,0,0,1,.769,8.93,20.142,20.142,0,0,1,.151,6.019c-.309,1.745-.151,1.942-.612,4.276a13.568,13.568,0,0,1-.763,2.91,93.551,93.551,0,0,0,2.748-9.488,42.592,42.592,0,0,1,2.142-7.59,22.671,22.671,0,0,1,1.532-3.3l2.452-4.655s.144,6.995-.612,9.488-1.072,4.465-1.991,6.8a16.057,16.057,0,0,0-1.223,5.061,9.292,9.292,0,0,1-.763,3.884c-.612.976-.763,2.328-1.223,2.91a7.95,7.95,0,0,1-1.223,1.17s3.668-6.407,4.589-7.971.915-1.942,2.294-2.917,2.136-1.55,2.136-1.55-2.748,6.995-3.517,8.35a16.151,16.151,0,0,1-2.294,4.08,16.8,16.8,0,0,0-1.683,1.745h-9.023a14.546,14.546,0,0,1-2.142-5.242c-.309-2.523-.46-5.061-.46-5.061a30.08,30.08,0,0,1,2.452,2.529q1.48,2.252,2.747,4.667Z" transform="translate(51.486 48.189)" fill="#34a853"/>
    <path id="Path_35017" data-name="Path 35017" d="M132.271,100.564H116.695v14.775h15.576Z" transform="translate(51.636 63.019)" fill="#fff" stroke="#263238" stroke-linecap="round" stroke-linejoin="round" stroke-width="1"/>
    <path id="Path_35018" data-name="Path 35018" d="M133.483,99.365H116.051v3.206h17.432Z" transform="translate(51.351 62.268)" fill="#fff" stroke="#263238" stroke-linecap="round" stroke-linejoin="round" stroke-width="1"/>
    <path id="Path_35019" data-name="Path 35019" d="M135.588,73.419a7.208,7.208,0,0,0,4.078-3.681,9.2,9.2,0,0,0,.831-5.617s-3.769,1.809-4.734,4.281a8.789,8.789,0,0,0-.561,3.162c-1.442-3.074-7.42-5.1-7.42-5.1s.858,5.44,2.754,7.185c1.414,1.3,3.2,2.713,4.027,3.346V81.8a7.814,7.814,0,0,0-3.338-3.105c-2.243-.976-6.03.771-6.03.771a7.38,7.38,0,0,0,4.134,3.3,6.272,6.272,0,0,0,5.233-.7v7.507a7.779,7.779,0,0,0-3.338-3.112c-2.243-.976-6.03.778-6.03.778a7.433,7.433,0,0,0,4.134,3.3,6.293,6.293,0,0,0,5.233-.708V95.4a7.779,7.779,0,0,0-3.338-3.112c-2.243-.976-6.03.778-6.03.778a7.433,7.433,0,0,0,4.134,3.3,6.293,6.293,0,0,0,5.233-.709v8.475a7.854,7.854,0,0,0-3.338-3.112c-2.243-.968-6.03.778-6.03.778a7.38,7.38,0,0,0,4.134,3.3,6.3,6.3,0,0,0,5.233-.7v7.5a7.813,7.813,0,0,0-3.338-3.105c-2.243-.976-6.03.771-6.03.771a7.38,7.38,0,0,0,4.134,3.3,6.273,6.273,0,0,0,5.233-.7v12.549a.344.344,0,0,0,.082.224.27.27,0,0,0,.2.093.267.267,0,0,0,.2-.093.337.337,0,0,0,.082-.224V77.151a7.4,7.4,0,0,0,.464-3.732Z" transform="translate(55.397 40.182)" fill="#34a853"/>
    <path id="Path_35020" data-name="Path 35020" d="M135.56,73.186a7.88,7.88,0,0,0-3.443,3.3,6.467,6.467,0,0,0,2.6.989,6.212,6.212,0,0,0,2.736-.218,7.38,7.38,0,0,0,4.134-3.3S137.8,72.213,135.56,73.186Z" transform="translate(58.46 45.677)" fill="#34a853"/>
    <path id="Path_35021" data-name="Path 35021" d="M135.56,77.839a7.918,7.918,0,0,0-3.443,3.3,6.478,6.478,0,0,0,2.6.991,6.233,6.233,0,0,0,2.738-.213,7.428,7.428,0,0,0,4.134-3.3S137.8,76.871,135.56,77.839Z" transform="translate(58.46 48.595)" fill="#34a853"/>
    <path id="Path_35022" data-name="Path 35022" d="M135.56,81.417a7.917,7.917,0,0,0-3.443,3.3,6.476,6.476,0,0,0,2.6.991,6.228,6.228,0,0,0,2.738-.213,7.428,7.428,0,0,0,4.134-3.3S137.8,80.469,135.56,81.417Z" transform="translate(58.46 50.842)" fill="#34a853"/>
    <path id="Path_35023" data-name="Path 35023" d="M135.56,86.912a7.917,7.917,0,0,0-3.443,3.3,6.453,6.453,0,0,0,2.6.993,6.208,6.208,0,0,0,2.738-.216,7.381,7.381,0,0,0,4.134-3.3S137.8,85.944,135.56,86.912Z" transform="translate(58.46 54.28)" fill="#34a853"/>
    <path id="Path_35024" data-name="Path 35024" d="M135.56,91.69a7.878,7.878,0,0,0-3.443,3.3,6.467,6.467,0,0,0,2.6.989,6.212,6.212,0,0,0,2.736-.218,7.379,7.379,0,0,0,4.134-3.3S137.8,90.717,135.56,91.69Z" transform="translate(58.46 57.273)" fill="#34a853"/>
    <g id="Group_33347" data-name="Group 33347" transform="translate(180.592 104.303)" opacity="0.5">
      <path id="Path_35025" data-name="Path 35025" d="M135.588,73.419a7.208,7.208,0,0,0,4.078-3.681,9.2,9.2,0,0,0,.831-5.617s-3.769,1.809-4.734,4.281a8.789,8.789,0,0,0-.561,3.162c-1.442-3.074-7.42-5.1-7.42-5.1s.858,5.44,2.754,7.185c1.414,1.3,3.2,2.713,4.027,3.346V81.8a7.814,7.814,0,0,0-3.338-3.105c-2.243-.976-6.03.771-6.03.771a7.38,7.38,0,0,0,4.134,3.3,6.272,6.272,0,0,0,5.233-.7v7.507a7.779,7.779,0,0,0-3.338-3.112c-2.243-.976-6.03.778-6.03.778a7.433,7.433,0,0,0,4.134,3.3,6.293,6.293,0,0,0,5.233-.708V95.4a7.779,7.779,0,0,0-3.338-3.112c-2.243-.976-6.03.778-6.03.778a7.433,7.433,0,0,0,4.134,3.3,6.293,6.293,0,0,0,5.233-.709v8.475a7.854,7.854,0,0,0-3.338-3.112c-2.243-.968-6.03.778-6.03.778a7.38,7.38,0,0,0,4.134,3.3,6.3,6.3,0,0,0,5.233-.7v7.5a7.813,7.813,0,0,0-3.338-3.105c-2.243-.976-6.03.771-6.03.771a7.38,7.38,0,0,0,4.134,3.3,6.273,6.273,0,0,0,5.233-.7v12.549a.344.344,0,0,0,.082.224.27.27,0,0,0,.2.093.267.267,0,0,0,.2-.093.337.337,0,0,0,.082-.224V77.151a7.4,7.4,0,0,0,.464-3.732Z" transform="translate(-125.195 -64.121)"/>
      <path id="Path_35026" data-name="Path 35026" d="M135.564,73.186a7.88,7.88,0,0,0-3.443,3.3,6.459,6.459,0,0,0,2.6.989,6.212,6.212,0,0,0,2.736-.218,7.38,7.38,0,0,0,4.134-3.3S137.8,72.213,135.564,73.186Z" transform="translate(-122.13 -58.626)"/>
      <path id="Path_35027" data-name="Path 35027" d="M135.564,77.839a7.918,7.918,0,0,0-3.443,3.3,6.478,6.478,0,0,0,2.6.991,6.233,6.233,0,0,0,2.738-.213,7.428,7.428,0,0,0,4.134-3.3S137.8,76.871,135.564,77.839Z" transform="translate(-122.13 -55.708)"/>
      <path id="Path_35028" data-name="Path 35028" d="M135.564,81.417a7.917,7.917,0,0,0-3.443,3.3,6.476,6.476,0,0,0,2.6.991,6.228,6.228,0,0,0,2.738-.213,7.428,7.428,0,0,0,4.134-3.3S137.8,80.469,135.564,81.417Z" transform="translate(-122.13 -53.461)"/>
      <path id="Path_35029" data-name="Path 35029" d="M135.564,86.912a7.917,7.917,0,0,0-3.443,3.3,6.453,6.453,0,0,0,2.6.993,6.21,6.21,0,0,0,2.738-.216,7.381,7.381,0,0,0,4.134-3.3S137.8,85.944,135.564,86.912Z" transform="translate(-122.13 -50.023)"/>
      <path id="Path_35030" data-name="Path 35030" d="M135.564,91.69a7.878,7.878,0,0,0-3.443,3.3,6.459,6.459,0,0,0,2.6.989,6.212,6.212,0,0,0,2.736-.218,7.379,7.379,0,0,0,4.134-3.3S137.8,90.717,135.564,91.69Z" transform="translate(-122.13 -47.03)"/>
    </g>
    <path id="Path_35031" data-name="Path 35031" d="M136.286,100.564h-6.243v14.775h6.243Z" transform="translate(57.543 63.019)" fill="#fff" stroke="#263238" stroke-linecap="round" stroke-linejoin="round" stroke-width="1"/>
    <path id="Path_35032" data-name="Path 35032" d="M136.768,99.365h-6.983v3.206h6.983Z" transform="translate(57.428 62.268)" fill="#fff" stroke="#263238" stroke-linecap="round" stroke-linejoin="round" stroke-width="1"/>
    <path id="Path_35033" data-name="Path 35033" d="M115.9,100.564H100.324v14.775H115.9Z" transform="translate(44.392 63.019)" fill="#fff" stroke="#263238" stroke-linecap="round" stroke-linejoin="round" stroke-width="1"/>
    <path id="Path_35034" data-name="Path 35034" d="M117.113,99.365H99.68v3.206h17.433Z" transform="translate(44.107 62.268)" fill="#fff" stroke="#263238" stroke-linecap="round" stroke-linejoin="round" stroke-width="1"/>
    <path id="Path_35035" data-name="Path 35035" d="M105.063,85.766a5.463,5.463,0,0,0-2.243-3.105,36.726,36.726,0,0,0-5.688-2.917s-.169,1.163,1.38,3.3a35.364,35.364,0,0,0,4.824,4.857,24.605,24.605,0,0,1-3.443.19c-2.243,0-4.307,3.3-4.307,3.3a39,39,0,0,0,4.134.582,29.284,29.284,0,0,0,4.824-1.36,9.72,9.72,0,0,0-1.206,3.694q.208,3.027.684,6.019a5.223,5.223,0,0,0,2.586-2.917,49.234,49.234,0,0,0,.866-6.019,6.323,6.323,0,0,0,1.714,1.941,27.818,27.818,0,0,0,5.166,2.72,14.347,14.347,0,0,0-1.9-4.857,8.241,8.241,0,0,0-4.307-3.3,2.655,2.655,0,0,0,1.142-.343,2.987,2.987,0,0,0,.928-.827,31.647,31.647,0,0,0,2.243-5.244,4.581,4.581,0,0,0-3.443.392,19.071,19.071,0,0,0-3.957,3.884Z" transform="translate(42.296 49.972)" fill="#34a853"/>
    <path id="Path_35036" data-name="Path 35036" d="M105.063,85.766a5.463,5.463,0,0,0-2.243-3.105,36.726,36.726,0,0,0-5.688-2.917s-.169,1.163,1.38,3.3a35.364,35.364,0,0,0,4.824,4.857,24.605,24.605,0,0,1-3.443.19c-2.243,0-4.307,3.3-4.307,3.3a39,39,0,0,0,4.134.582,29.284,29.284,0,0,0,4.824-1.36,9.72,9.72,0,0,0-1.206,3.694q.208,3.027.684,6.019a5.223,5.223,0,0,0,2.586-2.917,49.234,49.234,0,0,0,.866-6.019,6.323,6.323,0,0,0,1.714,1.941,27.818,27.818,0,0,0,5.166,2.72,14.347,14.347,0,0,0-1.9-4.857,8.241,8.241,0,0,0-4.307-3.3,2.655,2.655,0,0,0,1.142-.343,2.987,2.987,0,0,0,.928-.827,31.647,31.647,0,0,0,2.243-5.244,4.581,4.581,0,0,0-3.443.392,19.071,19.071,0,0,0-3.957,3.884Z" transform="translate(42.296 49.972)" opacity="0.5"/>
    <path id="Path_35037" data-name="Path 35037" d="M109.591,94.293a3.346,3.346,0,0,0-1.363-1.9,21.961,21.961,0,0,0-3.462-1.771s-.107.708.835,2.006a21.4,21.4,0,0,0,2.934,2.954,14.387,14.387,0,0,1-2.092.12c-1.363,0-2.62,2.006-2.62,2.006a23.616,23.616,0,0,0,2.513.355,17.764,17.764,0,0,0,2.934-.828,5.883,5.883,0,0,0-.734,2.245q.128,1.839.421,3.655a3.162,3.162,0,0,0,1.571-1.771,30.737,30.737,0,0,0,.522-3.655,3.89,3.89,0,0,0,1.043,1.176,17.113,17.113,0,0,0,3.14,1.658,8.637,8.637,0,0,0-1.154-2.954,5,5,0,0,0-2.62-2.006,1.61,1.61,0,0,0,.694-.208,1.8,1.8,0,0,0,.563-.5,18.627,18.627,0,0,0,1.363-3.162,2.794,2.794,0,0,0-2.092.234,11.423,11.423,0,0,0-2.4,2.347Z" transform="translate(45.941 56.789)" fill="#34a853"/>
    <path id="Path_35038" data-name="Path 35038" d="M109.591,94.293a3.346,3.346,0,0,0-1.363-1.9,21.961,21.961,0,0,0-3.462-1.771s-.107.708.835,2.006a21.4,21.4,0,0,0,2.934,2.954,14.387,14.387,0,0,1-2.092.12c-1.363,0-2.62,2.006-2.62,2.006a23.616,23.616,0,0,0,2.513.355,17.764,17.764,0,0,0,2.934-.828,5.883,5.883,0,0,0-.734,2.245q.128,1.839.421,3.655a3.162,3.162,0,0,0,1.571-1.771,30.737,30.737,0,0,0,.522-3.655,3.89,3.89,0,0,0,1.043,1.176,17.113,17.113,0,0,0,3.14,1.658,8.637,8.637,0,0,0-1.154-2.954,5,5,0,0,0-2.62-2.006,1.61,1.61,0,0,0,.694-.208,1.8,1.8,0,0,0,.563-.5,18.627,18.627,0,0,0,1.363-3.162,2.794,2.794,0,0,0-2.092.234,11.423,11.423,0,0,0-2.4,2.347Z" transform="translate(45.941 56.789)" opacity="0.5"/>
    <path id="Path_35039" data-name="Path 35039" d="M106.5,99.1a4.008,4.008,0,0,0-1.649-2.277,27,27,0,0,0-4.183-2.144s-.128.854,1.01,2.429a26.553,26.553,0,0,0,3.55,3.579,18.2,18.2,0,0,1-2.536.14c-1.649,0-3.174,2.429-3.174,2.429a28.69,28.69,0,0,0,3.041.43,21.824,21.824,0,0,0,3.55-1,7.163,7.163,0,0,0-.886,2.714q.151,2.225.5,4.428a3.855,3.855,0,0,0,1.9-2.144,36.163,36.163,0,0,0,.633-4.428,4.629,4.629,0,0,0,1.268,1.43,20.455,20.455,0,0,0,3.8,2.006,10.434,10.434,0,0,0-1.4-3.579,6.068,6.068,0,0,0-3.163-2.429,1.949,1.949,0,0,0,.838-.252,2.209,2.209,0,0,0,.682-.608,22.886,22.886,0,0,0,1.643-3.858,3.364,3.364,0,0,0-2.536.285,13.818,13.818,0,0,0-2.9,2.852Z" transform="translate(44.036 59.334)" fill="#34a853"/>
    <path id="Path_35040" data-name="Path 35040" d="M103.218,94a4.007,4.007,0,0,0-1.643-2.29,27.172,27.172,0,0,0-4.183-2.144,3.873,3.873,0,0,0,1.01,2.44,26.132,26.132,0,0,0,3.544,3.567,17.341,17.341,0,0,1-2.53.145c-1.649,0-3.173,2.429-3.173,2.429a28.5,28.5,0,0,0,3.039.429,21.177,21.177,0,0,0,3.534-1,7.106,7.106,0,0,0-.891,2.713q.154,2.227.511,4.428a3.844,3.844,0,0,0,1.9-2.144,36.741,36.741,0,0,0,.633-4.428,4.736,4.736,0,0,0,1.268,1.43,20.139,20.139,0,0,0,3.8,2A10.452,10.452,0,0,0,108.643,98a6.1,6.1,0,0,0-3.173-2.429,1.952,1.952,0,0,0,.838-.25,2.18,2.18,0,0,0,.682-.6,23.08,23.08,0,0,0,1.649-3.858,3.374,3.374,0,0,0-2.536.285A14.032,14.032,0,0,0,103.218,94Z" transform="translate(42.586 56.127)" fill="#34a853"/>
    <path id="Path_35041" data-name="Path 35041" d="M108.733,90.736a3.273,3.273,0,0,0-2.581.455,28.842,28.842,0,0,0-3.75,2.991s.594.556,2.373.241a23.185,23.185,0,0,0,4.527-1.658,23.226,23.226,0,0,1-1.167,2.529c-.829,1.607.264,4.314.264,4.314s1.476-2.006,1.862-2.746a28.565,28.565,0,0,0,1.021-3.959,6.582,6.582,0,0,0,1.633,2.233,36.409,36.409,0,0,0,3.645,1.732,4.418,4.418,0,0,0-.684-2.928,29.241,29.241,0,0,0-3.074-2.853,3.94,3.94,0,0,0,1.731-.512,21.42,21.42,0,0,0,3.449-2.694,7.724,7.724,0,0,0-3.439-.442,5.806,5.806,0,0,0-3.462,1.859,2.691,2.691,0,0,0,.107-1.9,22.919,22.919,0,0,0-2.12-3.567,4.5,4.5,0,0,0-1.054,2.612,16.221,16.221,0,0,0,.72,4.289Z" transform="translate(45.312 52.535)" fill="#34a853"/>
    <path id="Path_35042" data-name="Path 35042" d="M129.071,103.441H108.027v10.1h21.044Z" transform="translate(47.801 64.822)" fill="#fff" stroke="#263238" stroke-linecap="round" stroke-linejoin="round" stroke-width="1"/>
    <path id="Path_35043" data-name="Path 35043" d="M130.712,102.621H107.16v2.188h23.551Z" transform="translate(47.417 64.308)" fill="#fff" stroke="#263238" stroke-linecap="round" stroke-linejoin="round" stroke-width="1"/>
    <path id="Path_35044" data-name="Path 35044" d="M117.137,101.328s1.037-.588-.684-1.951-2.243-1.353-2.243-1.353l1.722,3.3a12.681,12.681,0,0,0-3.443-.777,5.354,5.354,0,0,0-2.412.582l3.528,2.086s-3.7-.342-4.392-.342a11.833,11.833,0,0,0-2.581.778l2.581.582-3.96,1.36,4.134.386v1.942l2.581-1.745a5.761,5.761,0,0,0,.522,1.163c.342.582,1.548,2.137,1.548,2.137l1.548-2.72s.516,1.752,1.031,1.752a8.887,8.887,0,0,1,1.722.386l.4-2.492,2.53,2.107v-1.749l1.38,1.752,1.206-2.137.175,1.745,2.243-1.163,1.031,2.328.516-2.91,1.442.265.274-.847.69.386a8.929,8.929,0,0,0,2.754.778,20.952,20.952,0,0,0-1.375-1.942,7.094,7.094,0,0,0-1.9-1.163l1.206-.582a16.889,16.889,0,0,0-3.1-.976,5.109,5.109,0,0,0-1.9.778,5.136,5.136,0,0,0,1.38-1.557,17.974,17.974,0,0,0,.689-2.137s-2.586,0-2.928.976-1.031,2.529-1.031,2.529l-1.206-2.909a4.8,4.8,0,0,0-.866,1.359q-.206.766-.342,1.55l-1.031-2.327A5.842,5.842,0,0,0,119.379,99q-.138,1.063-.175,2.137v1.359l-.865-2.334v1.948Z" transform="translate(46.574 61.427)" fill="#34a853"/>
    <path id="Path_35045" data-name="Path 35045" d="M117.137,101.328s1.037-.588-.684-1.951-2.243-1.353-2.243-1.353l1.722,3.3a12.681,12.681,0,0,0-3.443-.777,5.354,5.354,0,0,0-2.412.582l3.528,2.086s-3.7-.342-4.392-.342a11.833,11.833,0,0,0-2.581.778l2.581.582-3.96,1.36,4.134.386v1.942l2.581-1.745a5.761,5.761,0,0,0,.522,1.163c.342.582,1.548,2.137,1.548,2.137l1.548-2.72s.516,1.752,1.031,1.752a8.887,8.887,0,0,1,1.722.386l.4-2.492,2.53,2.107v-1.749l1.38,1.752,1.206-2.137.175,1.745,2.243-1.163,1.031,2.328.516-2.91,1.442.265.274-.847.69.386a8.929,8.929,0,0,0,2.754.778,20.952,20.952,0,0,0-1.375-1.942,7.094,7.094,0,0,0-1.9-1.163l1.206-.582a16.889,16.889,0,0,0-3.1-.976,5.109,5.109,0,0,0-1.9.778,5.136,5.136,0,0,0,1.38-1.557,17.974,17.974,0,0,0,.689-2.137s-2.586,0-2.928.976-1.031,2.529-1.031,2.529l-1.206-2.909a4.8,4.8,0,0,0-.866,1.359q-.206.766-.342,1.55l-1.031-2.327A5.842,5.842,0,0,0,119.379,99q-.138,1.063-.175,2.137v1.359l-.865-2.334v1.948Z" transform="translate(46.574 61.427)" opacity="0.3"/>
  </g>
</svg>
