<svg xmlns="http://www.w3.org/2000/svg" xmlns:xlink="http://www.w3.org/1999/xlink" width="223.957" height="201.631" viewBox="0 0 223.957 201.631">
  <defs>
    <clipPath id="clip-path">
      <rect id="Rectangle_4180" data-name="Rectangle 4180" width="223.958" height="201.631" fill="#fff"/>
    </clipPath>
  </defs>
  <g id="Join_your_team" data-name="Join your team" clip-path="url(#clip-path)">
    <path id="Path_35046" data-name="Path 35046" d="M64.337,104.7c25.892,7.881,45.04,50.491,74.972,38.224C165.463,132.2,147.421,93.206,178.458,92c18.815-.745,56.405,4.426,42.475-36.061-8.458-24.584-31.549-46.042-54-53.958C132.15-10.3,141.2,38.287,117.008,47.2c-10.875,4.008-17.517-3.977-26.555-9.092C77.162,30.589,59.526,22.3,44.4,21.992,20.334,21.5-1.04,50.116.039,77.021,1.952,123.974,40.479,97.438,64.337,104.7Z" transform="translate(0 0)" fill="#fbbc05"/>
    <path id="Path_35047" data-name="Path 35047" d="M64.337,104.7c25.892,7.881,45.04,50.491,74.972,38.224C165.463,132.2,147.421,93.206,178.458,92c18.815-.745,56.405,4.426,42.475-36.061-8.458-24.584-31.549-46.042-54-53.958C132.15-10.3,141.2,38.287,117.008,47.2c-10.875,4.008-17.517-3.977-26.555-9.092C77.162,30.589,59.526,22.3,44.4,21.992,20.334,21.5-1.04,50.116.039,77.021,1.952,123.974,40.479,97.438,64.337,104.7Z" transform="translate(0 0)" fill="#fff" opacity="0.9"/>
    <path id="Path_35048" data-name="Path 35048" d="M110.3,110.861c57.927,0,104.886-3.074,104.886-6.864S168.227,97.133,110.3,97.133,5.414,100.206,5.414,104,52.373,110.861,110.3,110.861Z" transform="translate(3.931 90.773)" fill="#f5f5f5"/>
    <path id="Path_35049" data-name="Path 35049" d="M105.511,16.389c-3.245,1.989-4.327,7.881-2.807,10.446-5.626,1.892-2.7,12.731,6.492,13.339s16.2-3.159,11.679-11.2c4.469-6.748,2.417-14.283-1.5-13.453C115.177,6.092,101.093,6.37,105.511,16.389Z" transform="translate(72.499 8.089)" fill="#263238"/>
    <path id="Path_35050" data-name="Path 35050" d="M110.528,31.166A7.229,7.229,0,0,1,106.5,29.9a.15.15,0,0,1-.048-.037.143.143,0,0,1-.031-.057.175.175,0,0,1-.009-.067.2.2,0,0,1,.019-.064.147.147,0,0,1,.041-.049.12.12,0,0,1,.055-.026.129.129,0,0,1,.06,0,.134.134,0,0,1,.052.031,6.946,6.946,0,0,0,5.22,1.088,7.5,7.5,0,0,0,4.588-2.992,6.53,6.53,0,0,0,1.308-4.3,6.377,6.377,0,0,0-1.724-4.108.171.171,0,0,1-.033-.109.163.163,0,0,1,.043-.1.131.131,0,0,1,.095-.043.126.126,0,0,1,.095.044,6.727,6.727,0,0,1,1.792,4.309,6.888,6.888,0,0,1-1.364,4.5,8.206,8.206,0,0,1-2.746,2.382A7.3,7.3,0,0,1,110.528,31.166Z" transform="translate(77.272 17.825)" fill="#263238"/>
    <path id="Path_35051" data-name="Path 35051" d="M101.165,25.2a.121.121,0,0,1-.076-.029.15.15,0,0,1-.048-.073c-1.44-4.62.487-10.822,3.889-12.52a.129.129,0,0,1,.1,0,.148.148,0,0,1,.074.074.179.179,0,0,1,0,.113.15.15,0,0,1-.071.081c-3.288,1.637-5.144,7.651-3.744,12.126a.171.171,0,0,1,.007.059.165.165,0,0,1-.014.058.158.158,0,0,1-.033.047.132.132,0,0,1-.047.029Z" transform="translate(73.021 11.745)" fill="#263238"/>
    <path id="Path_35052" data-name="Path 35052" d="M100.458,18.519h-.047a.149.149,0,0,1-.074-.079.174.174,0,0,1-.007-.115,9.466,9.466,0,0,1,1.818-3.48,8.223,8.223,0,0,1,2.976-2.268.125.125,0,0,1,.1.012.151.151,0,0,1,.064.09.165.165,0,0,1-.01.115.14.14,0,0,1-.081.073,7.9,7.9,0,0,0-2.871,2.2,9.129,9.129,0,0,0-1.743,3.369.152.152,0,0,1-.052.064.125.125,0,0,1-.076.021Z" transform="translate(72.85 11.749)" fill="#263238"/>
    <path id="Path_35053" data-name="Path 35053" d="M106.32,105.364h-3.126l-.518-13.155,5.263.145Z" transform="translate(74.558 86.171)" fill="#ffb573"/>
    <path id="Path_35054" data-name="Path 35054" d="M102.05,40.3s-.276,36.528-.963,52.426a12.141,12.141,0,0,0,0,1.418c1.036,15.939,2.732,46.574,2.732,46.574l5.3.151s4.614-24.462,1.759-46.622c4.593-25.064,7.065-47.429,2.905-53.958Z" transform="translate(73.389 37.655)" fill="#fbbc05"/>
    <path id="Path_35055" data-name="Path 35055" d="M107.075,47.8c-1.623,6.1-.043,25.706.8,34.752,1.141-6.535,2.115-12.822,2.834-18.618Z" transform="translate(77.242 44.669)" opacity="0.2"/>
    <path id="Path_35056" data-name="Path 35056" d="M105.556,98.133h4.063a.313.313,0,0,1,.233.093.38.38,0,0,1,.112.247l.411,3.728a.92.92,0,0,1-.054.337.886.886,0,0,1-.166.288.773.773,0,0,1-.254.193.706.706,0,0,1-.3.068c-1.79,0-2.646-.145-4.9-.139-1.39,0-2.228.157-4.142.157s-1.921-2.062-1.115-2.25c3.624-.843,4.083-1.31,5.35-2.426a1.183,1.183,0,0,1,.761-.3Z" transform="translate(71.843 91.707)" fill="#263238"/>
    <path id="Path_35057" data-name="Path 35057" d="M109.659,27.807c-.2,1.256-.428,2.426-.671,3.637s-.492,2.426-.778,3.637c-.568,2.426-1.158,4.8-1.937,7.2a36.244,36.244,0,0,1-1.364,3.637,14.746,14.746,0,0,1-.989,1.886c-.109.164-.205.321-.345.5a3.835,3.835,0,0,1-.449.534,3.633,3.633,0,0,1-1.46.952,3.155,3.155,0,0,1-1.764.079,3.99,3.99,0,0,1-1.3-.605,6.823,6.823,0,0,1-1.59-1.613A13.52,13.52,0,0,1,95.2,44.1a1.419,1.419,0,0,1-.02-.851,1.263,1.263,0,0,1,.463-.675,1.04,1.04,0,0,1,.739-.2,1.091,1.091,0,0,1,.684.369l.066.079A20.715,20.715,0,0,0,99.3,45.036a3.619,3.619,0,0,0,.989.606c.129.037.221.037.233,0s-.076-.06-.152-.054-.124.037-.1,0a1.221,1.221,0,0,1,.086-.151,1.47,1.47,0,0,0,.14-.236,10.439,10.439,0,0,0,.6-1.3q.589-1.558,1.036-3.176c.616-2.219,1.179-4.529,1.666-6.85s.968-4.693,1.4-7.009a2.552,2.552,0,0,1,.975-1.553,2.068,2.068,0,0,1,1.664-.361,2.258,2.258,0,0,1,1.421,1.032,2.775,2.775,0,0,1,.387,1.849Z" transform="translate(69.075 23.27)" fill="#ffb573"/>
    <path id="Path_35058" data-name="Path 35058" d="M100.7,39.293c0,1.492,20.74,1.782,20.74-.193l-10.6-3.031L100.7,39.287" transform="translate(73.122 33.707)" fill="#263238"/>
    <path id="Path_35059" data-name="Path 35059" d="M104.459,24.731a42.245,42.245,0,0,1,16.505.182,2.212,2.212,0,0,1,.9.381,2.5,2.5,0,0,1,.69.749,2.848,2.848,0,0,1,.368.995,3.01,3.01,0,0,1-.014,1.077c-2.934,14.714-2.762,19.661-2.482,27.408H102.277c-.91-12.925-1.39-20.312-1.509-24.493C100.67,27.837,101.651,25.2,104.459,24.731Z" transform="translate(73.168 22.434)" fill="#ffb573"/>
    <path id="Path_35060" data-name="Path 35060" d="M112.446,26.59a17.675,17.675,0,0,0,.715,6.063c.233-1.4.5-2.9.811-4.546Z" transform="translate(81.632 24.849)" opacity="0.2"/>
    <path id="Path_35061" data-name="Path 35061" d="M112.422,18.828c-.54,2.94-1.036,8.342.806,10.307,0,0-.72,2.989-5.6,2.989-5.372,0-2.57-2.989-2.57-2.989,2.934-.787,2.857-3.225,2.348-5.511Z" transform="translate(75.758 17.595)" fill="#ffb573"/>
    <path id="Path_35062" data-name="Path 35062" d="M109.08,19.84,106.109,22.7a10.7,10.7,0,0,1,.254,1.625,3.494,3.494,0,0,0,1.75-1,4.152,4.152,0,0,0,1.025-1.875A4.977,4.977,0,0,0,109.08,19.84Z" transform="translate(77.051 18.541)" opacity="0.2"/>
    <path id="Path_35063" data-name="Path 35063" d="M116.181,20.211c-1.006,4.8-1.336,6.85-3.9,8.918a5.357,5.357,0,0,1-2.769,1.386,5.07,5.07,0,0,1-3.009-.427,5.79,5.79,0,0,1-2.373-2.116,6.785,6.785,0,0,1-1.046-3.19c-.271-4.529,1.412-11.607,5.95-12.731a5.376,5.376,0,0,1,3.014.11,5.906,5.906,0,0,1,2.586,1.74,6.957,6.957,0,0,1,1.505,2.93,7.524,7.524,0,0,1,.041,3.38Z" transform="translate(74.833 11.108)" fill="#ffb573"/>
    <path id="Path_35064" data-name="Path 35064" d="M110.924,12.461c-4.533.563-3.154,10.034.254,10.949C115.171,21.222,117.632,12.91,110.924,12.461Z" transform="translate(78.455 11.645)" fill="#263238"/>
    <path id="Path_35065" data-name="Path 35065" d="M125.806,99.916l-3.133,1.068L118.1,90.244l4.819-1.474Z" transform="translate(85.76 82.957)" fill="#ffb573"/>
    <path id="Path_35066" data-name="Path 35066" d="M121.931,95.382l4.025-1.741a.29.29,0,0,1,.221,0,.328.328,0,0,1,.169.156l1.8,3.407a.735.735,0,0,1,.043.563.7.7,0,0,1-.136.245.606.606,0,0,1-.216.159c-1.412.606-2.094.915-3.863,1.685-1.082.472-2.781,2.049-4.284,2.7s-2.165-.892-1.623-1.424a14.37,14.37,0,0,0,3.376-5.223.973.973,0,0,1,.2-.311.842.842,0,0,1,.29-.2Z" transform="translate(85.6 87.487)" fill="#263238"/>
    <path id="Path_35067" data-name="Path 35067" d="M104.523,40.312s6.67,38.238,9.2,53.35c2.613,15.762,14.255,41.869,14.255,41.869l4.833-1.48s-6.616-27.925-9.7-41.766c-.606-25.064.109-45.461-5.41-52Z" transform="translate(75.899 37.647)" fill="#fbbc05"/>
    <path id="Path_35068" data-name="Path 35068" d="M106.91,16.574c-.059.387-.292.679-.54.606s-.368-.4-.309-.8.3-.679.54-.636S106.974,16.182,106.91,16.574Z" transform="translate(77.006 14.713)" fill="#263238"/>
    <path id="Path_35069" data-name="Path 35069" d="M104.606,16.172c-.06.387-.3.679-.54.606s-.368-.387-.309-.8.3-.679.54-.605S104.67,15.78,104.606,16.172Z" transform="translate(75.333 14.359)" fill="#263238"/>
    <path id="Path_35070" data-name="Path 35070" d="M104.458,15.605l-.806-.437S103.977,15.992,104.458,15.605Z" transform="translate(75.267 14.175)" fill="#263238"/>
    <path id="Path_35071" data-name="Path 35071" d="M105.572,16.271a10.728,10.728,0,0,1-1.623,2.279,1.538,1.538,0,0,0,.556.4,1.4,1.4,0,0,0,.652.1Z" transform="translate(75.482 15.206)" fill="#ed893e"/>
    <path id="Path_35072" data-name="Path 35072" d="M105.886,19.232a2.7,2.7,0,0,1-.54-.054.108.108,0,0,1-.04-.016.146.146,0,0,1-.029-.031.162.162,0,0,1-.017-.041.134.134,0,0,1,0-.045.128.128,0,0,1,.041-.074.1.1,0,0,1,.078-.022,2.546,2.546,0,0,0,1.314-.066,2.785,2.785,0,0,0,1.148-.721.088.088,0,0,1,.035-.027.085.085,0,0,1,.041-.01.1.1,0,0,1,.041.01.123.123,0,0,1,.035.027.136.136,0,0,1,0,.164,2.788,2.788,0,0,1-2.106.907Z" transform="translate(76.433 16.936)" fill="#263238"/>
    <path id="Path_35073" data-name="Path 35073" d="M112.42,19.544a3.316,3.316,0,0,1-1.952,1.668c-1.082.31-1.623-.787-1.288-1.935.287-1.025,1.208-2.426,2.294-2.236a1.388,1.388,0,0,1,.646.33,1.642,1.642,0,0,1,.428.633,1.806,1.806,0,0,1,.109.785,1.757,1.757,0,0,1-.236.749Z" transform="translate(79.21 15.909)" fill="#ffb573"/>
    <path id="Path_35074" data-name="Path 35074" d="M108.315,16.881a.189.189,0,0,1-.121-.046.234.234,0,0,1-.074-.118,2.791,2.791,0,0,0-.6-.918,2.422,2.422,0,0,0-.882-.568.214.214,0,0,1-.074-.043.247.247,0,0,1-.078-.163.246.246,0,0,1,.009-.094.236.236,0,0,1,.041-.082.217.217,0,0,1,.067-.057.2.2,0,0,1,.081-.024.187.187,0,0,1,.083.014,2.771,2.771,0,0,1,1.058.69,3.173,3.173,0,0,1,.694,1.128.278.278,0,0,1,.01.092.264.264,0,0,1-.024.089.23.23,0,0,1-.052.072.21.21,0,0,1-.074.044Z" transform="translate(77.323 13.801)" fill="#263238"/>
    <path id="Path_35075" data-name="Path 35075" d="M103.816,14.972a.193.193,0,0,1-.128-.049.232.232,0,0,1-.073-.127.249.249,0,0,1,.012-.151.221.221,0,0,1,.091-.11,1.938,1.938,0,0,1,.939-.332,1.893,1.893,0,0,1,.97.187.213.213,0,0,1,.064.057.224.224,0,0,1,.04.08.268.268,0,0,1,.01.091.255.255,0,0,1-.022.088.229.229,0,0,1-.05.072.2.2,0,0,1-.071.045.2.2,0,0,1-.081.011.193.193,0,0,1-.079-.025h0a1.525,1.525,0,0,0-.772-.135,1.566,1.566,0,0,0-.742.268.174.174,0,0,1-.109.031Z" transform="translate(75.236 13.268)" fill="#263238"/>
    <path id="Path_35076" data-name="Path 35076" d="M115.01,25.381c1.541,2.261,2.934,4.546,4.274,6.964.659,1.213,1.308,2.426,1.9,3.716a26.441,26.441,0,0,1,1.6,4.19c.059.193.1.418.152.606l.038.176.048.255c.021.159.036.319.043.48a7.036,7.036,0,0,1-.1,1.571,13.042,13.042,0,0,1-.69,2.383,28.965,28.965,0,0,1-1.883,3.892,52.409,52.409,0,0,1-4.6,6.736,1.092,1.092,0,0,1-.72.414,1.038,1.038,0,0,1-.782-.233,1.286,1.286,0,0,1-.44-.76,1.39,1.39,0,0,1,.129-.895v-.031c1.2-2.335,2.38-4.736,3.4-7.111a32.366,32.366,0,0,0,1.3-3.534A8.58,8.58,0,0,0,119,42.617a2.03,2.03,0,0,0,0-.48v-.11c-.038-.122-.066-.23-.114-.358a26.713,26.713,0,0,0-1.483-3.289c-.6-1.122-1.227-2.244-1.876-3.364-1.321-2.219-2.7-4.449-4.112-6.608a2.772,2.772,0,0,1-.383-1.863,2.6,2.6,0,0,1,.884-1.635,2.091,2.091,0,0,1,1.652-.48,2.227,2.227,0,0,1,1.483.947Z" transform="translate(80.603 22.81)" fill="#ffb573"/>
    <path id="Path_35077" data-name="Path 35077" d="M106.767,16l-.806-.437S106.28,16.39,106.767,16Z" transform="translate(76.943 14.542)" fill="#263238"/>
    <path id="Path_35078" data-name="Path 35078" d="M101.905,29.4a36.2,36.2,0,0,1,1.288-4.492,14.636,14.636,0,0,1,2.537-.606,20.614,20.614,0,0,1,4.241,6.171,27.132,27.132,0,0,1,9.466-6.262,6.551,6.551,0,0,1,2.7.387c-1.845,6.523-3.727,13.083-.39,14.768-.059,3.1.1,6.941.238,10.833-3.154-.387-15.661-1.06-20.74.193-.259-3.941-.345-7.276-.335-10.154C98.55,36.849,100.919,32.253,101.905,29.4Z" transform="translate(72.541 22.615)" fill="#263238"/>
    <g id="Group_33351" data-name="Group 33351" transform="translate(168.852 42.333)" opacity="0.2">
      <path id="Path_35079" data-name="Path 35079" d="M107.526,35.851a.146.146,0,0,0-.076.035.16.16,0,0,0-.052.074,6,6,0,0,0,.031,3.722c-.373-.352-.739-.7-1.081-1.049a4.823,4.823,0,0,0,.338-2.341,4.63,4.63,0,0,0-.806-2.193.169.169,0,0,0-.064-.057.158.158,0,0,0-.083-.016.141.141,0,0,0-.078.033.158.158,0,0,0-.05.075,5.964,5.964,0,0,0,.069,3.819c-.487-.5-.951-.994-1.379-1.474a4.82,4.82,0,0,0,.369-2.365,4.642,4.642,0,0,0-.808-2.224.188.188,0,0,0-.066-.057.158.158,0,0,0-.083-.016.14.14,0,0,0-.078.033.158.158,0,0,0-.05.075,6.029,6.029,0,0,0,.069,3.825c-.741-.867-1.358-1.656-1.818-2.31a4.639,4.639,0,0,0-.953-1.96,3.973,3.973,0,0,0-1.68-1.2.155.155,0,0,0-.077.008.172.172,0,0,0-.067.045.2.2,0,0,0-.042.073.212.212,0,0,0-.009.086,3.952,3.952,0,0,0,.843,2.079,3.267,3.267,0,0,0,1.765,1.14c.254.358.54.753.887,1.176a4.129,4.129,0,0,0-2.7-.364.148.148,0,0,0-.073.045.178.178,0,0,0-.041.082.217.217,0,0,0,0,.092.2.2,0,0,0,.036.084,3.774,3.774,0,0,0,1.744,1.262,3.394,3.394,0,0,0,2.075.042c.3.352.63.71.97,1.079a4.716,4.716,0,0,0-3.468.23.165.165,0,0,0-.064.067.207.207,0,0,0,0,.187.166.166,0,0,0,.064.067,3.841,3.841,0,0,0,2.051.7,3.794,3.794,0,0,0,2.09-.537c.454.48.937.967,1.434,1.437a4.445,4.445,0,0,0-3.521-.23.166.166,0,0,0-.069.058.177.177,0,0,0-.035.087.212.212,0,0,0,.009.093.19.19,0,0,0,.05.077,3.759,3.759,0,0,0,1.982.954,3.581,3.581,0,0,0,2.134-.348l.045-.031a.139.139,0,0,0,.031-.074l.611.557a.165.165,0,0,0,.076.06q.487.437.993.855a.148.148,0,0,0,.209,0,.177.177,0,0,0,.028-.065.2.2,0,0,0,0-.071.18.18,0,0,0-.022-.067.187.187,0,0,0-.043-.052c-.309-.261-.616-.522-.915-.8a4.853,4.853,0,0,0,.292-2.3,4.65,4.65,0,0,0-.8-2.14.161.161,0,0,0-.059-.061.144.144,0,0,0-.078-.022Z" transform="translate(-96.961 -14.038)" fill="#fff"/>
      <path id="Path_35080" data-name="Path 35080" d="M101.535,31.017a.153.153,0,0,0,.078-.035.19.19,0,0,0,.052-.074,6.014,6.014,0,0,0-.033-3.722c.373.352.741.7,1.082,1.049a4.824,4.824,0,0,0-.34,2.341,4.648,4.648,0,0,0,.806,2.193.174.174,0,0,0,.066.057.156.156,0,0,0,.081.016.151.151,0,0,0,.079-.033.172.172,0,0,0,.05-.075,5.964,5.964,0,0,0-.071-3.819c.487.5.953.994,1.381,1.474a4.8,4.8,0,0,0-.369,2.365,4.642,4.642,0,0,0,.808,2.224.174.174,0,0,0,.066.057.156.156,0,0,0,.081.016.151.151,0,0,0,.079-.033.172.172,0,0,0,.05-.075,6.029,6.029,0,0,0-.071-3.825c.741.867,1.358,1.656,1.818,2.31a4.663,4.663,0,0,0,.955,1.96,3.966,3.966,0,0,0,1.68,1.2.155.155,0,0,0,.078-.008.173.173,0,0,0,.066-.045.2.2,0,0,0,.043-.073.209.209,0,0,0,.009-.086,3.946,3.946,0,0,0-.842-2.079,3.27,3.27,0,0,0-1.766-1.14c-.254-.358-.54-.753-.887-1.176a4.084,4.084,0,0,0,2.7.358.139.139,0,0,0,.074-.042.182.182,0,0,0,.04-.08.238.238,0,0,0,0-.092.231.231,0,0,0-.036-.084,3.766,3.766,0,0,0-1.743-1.262,3.4,3.4,0,0,0-2.077-.042c-.3-.352-.628-.71-.968-1.079a4.717,4.717,0,0,0,3.468-.23.161.161,0,0,0,.062-.067.193.193,0,0,0,0-.187.162.162,0,0,0-.062-.067,3.851,3.851,0,0,0-2.052-.7,3.8,3.8,0,0,0-2.09.537c-.454-.48-.936-.967-1.433-1.437a4.445,4.445,0,0,0,3.521.23.177.177,0,0,0,.064-.059.188.188,0,0,0,.031-.086.209.209,0,0,0-.007-.092.188.188,0,0,0-.045-.078,3.765,3.765,0,0,0-1.982-.954,3.589,3.589,0,0,0-2.135.348l-.043.031a.141.141,0,0,0-.033.074l-.611-.557a.15.15,0,0,0-.076-.06q-.487-.437-.991-.855a.149.149,0,0,0-.211,0h0a.213.213,0,0,0-.027.135.2.2,0,0,0,.06.121c.314.261.621.522.92.8a4.831,4.831,0,0,0-.292,2.3,4.648,4.648,0,0,0,.8,2.14.164.164,0,0,0,.06.067.145.145,0,0,0,.081.024Z" transform="translate(-96.306 -18.594)" fill="#fff"/>
      <path id="Path_35081" data-name="Path 35081" d="M114.1,38.14a.16.16,0,0,0-.076.034.182.182,0,0,0-.054.069A6.065,6.065,0,0,0,114,41.964c-.373-.346-.741-.7-1.082-1.049a4.833,4.833,0,0,0,.34-2.338,4.654,4.654,0,0,0-.806-2.19.17.17,0,0,0-.066-.057.149.149,0,0,0-.081-.014.159.159,0,0,0-.078.032.18.18,0,0,0-.052.071,6.017,6.017,0,0,0,.071,3.825c-.487-.5-.953-.994-1.381-1.474a4.77,4.77,0,0,0,.371-2.363,4.609,4.609,0,0,0-.81-2.22.166.166,0,0,0-.064-.06.138.138,0,0,0-.083-.013.161.161,0,0,0-.076.033.185.185,0,0,0-.054.069,6.017,6.017,0,0,0,.071,3.825c-.741-.861-1.358-1.656-1.818-2.31a4.7,4.7,0,0,0-.956-1.958,4,4,0,0,0-1.678-1.2.148.148,0,0,0-.079,0,.155.155,0,0,0-.067.045.189.189,0,0,0-.043.078.206.206,0,0,0-.005.092,3.948,3.948,0,0,0,.844,2.075A3.27,3.27,0,0,0,108.185,36c.254.358.54.758.887,1.182a4.128,4.128,0,0,0-2.7-.364.153.153,0,0,0-.072.047.21.21,0,0,0-.045.171.17.17,0,0,0,.036.08,3.736,3.736,0,0,0,1.742,1.269,3.363,3.363,0,0,0,2.077.035c.3.352.628.716.968,1.085a4.683,4.683,0,0,0-3.468.23.181.181,0,0,0-.062.066.231.231,0,0,0-.024.091.183.183,0,0,0,.021.091.16.16,0,0,0,.06.066,3.85,3.85,0,0,0,2.051.7,3.8,3.8,0,0,0,2.092-.534c.454.472.936.952,1.434,1.437a4.445,4.445,0,0,0-3.521-.23.177.177,0,0,0-.069.058.217.217,0,0,0-.035.087.187.187,0,0,0,.012.092.171.171,0,0,0,.054.072,3.765,3.765,0,0,0,1.982.954,3.59,3.59,0,0,0,2.135-.348l.038-.037a.288.288,0,0,0,.038-.066l.611.557a.143.143,0,0,0,.071.06c.325.29.654.58.989.861a.15.15,0,0,0,.105.043.153.153,0,0,0,.105-.043.207.207,0,0,0,.028-.064.246.246,0,0,0,0-.071.183.183,0,0,0-.022-.067.162.162,0,0,0-.041-.053c-.314-.261-.616-.528-.92-.8a4.828,4.828,0,0,0,.3-2.3,4.648,4.648,0,0,0-.8-2.141.2.2,0,0,0-.059-.068.169.169,0,0,0-.081-.028Z" transform="translate(-92.19 -11.899)" fill="#fff"/>
      <path id="Path_35082" data-name="Path 35082" d="M120.126,40.3a.141.141,0,0,0-.078.033.176.176,0,0,0-.052.075,6.014,6.014,0,0,0,.028,3.722c-.373-.352-.735-.7-1.082-1.049a4.8,4.8,0,0,0,.345-2.34,4.633,4.633,0,0,0-.8-2.194.168.168,0,0,0-.066-.058.146.146,0,0,0-.083-.014.151.151,0,0,0-.079.035.2.2,0,0,0-.054.074,6.011,6.011,0,0,0,.071,3.819c-.487-.5-.946-.994-1.381-1.474a4.8,4.8,0,0,0,.371-2.365,4.627,4.627,0,0,0-.81-2.224.185.185,0,0,0-.064-.057.16.16,0,0,0-.083-.016.141.141,0,0,0-.078.033.176.176,0,0,0-.052.075,5.993,5.993,0,0,0,.071,3.825c-.741-.867-1.364-1.656-1.818-2.31a4.637,4.637,0,0,0-.953-1.96,3.97,3.97,0,0,0-1.681-1.2.142.142,0,0,0-.079,0,.157.157,0,0,0-.069.045.2.2,0,0,0-.041.076.2.2,0,0,0-.005.089,3.961,3.961,0,0,0,.842,2.08,3.266,3.266,0,0,0,1.766,1.139c.249.358.54.753.887,1.176a4.148,4.148,0,0,0-2.7-.364.181.181,0,0,0-.071.048.217.217,0,0,0-.043.08.212.212,0,0,0,0,.093.226.226,0,0,0,.038.083,3.786,3.786,0,0,0,1.742,1.26,3.4,3.4,0,0,0,2.071.044c.309.352.628.71.968,1.079a4.7,4.7,0,0,0-3.463.23.167.167,0,0,0-.062.065.21.21,0,0,0-.024.092.215.215,0,0,0,.021.093.188.188,0,0,0,.055.071,3.875,3.875,0,0,0,2.052.7,3.82,3.82,0,0,0,2.09-.533q.684.716,1.428,1.437a4.444,4.444,0,0,0-3.521-.23.158.158,0,0,0-.066.057.2.2,0,0,0-.031.088.244.244,0,0,0,.01.093.206.206,0,0,0,.048.077,3.77,3.77,0,0,0,1.983.954,3.581,3.581,0,0,0,2.134-.348.084.084,0,0,0,.038,0,.116.116,0,0,0,.038-.074l.611.557a.182.182,0,0,0,.071.06q.487.437.989.855a.153.153,0,0,0,.105.044.15.15,0,0,0,.105-.044h0a.171.171,0,0,0,.029-.064.167.167,0,0,0,.005-.072.185.185,0,0,0-.022-.068.165.165,0,0,0-.045-.052l-.92-.8a4.828,4.828,0,0,0,.3-2.3,4.632,4.632,0,0,0-.8-2.141.184.184,0,0,0-.05-.076.163.163,0,0,0-.078-.04Z" transform="translate(-87.816 -9.876)" fill="#fff"/>
      <path id="Path_35083" data-name="Path 35083" d="M106.347,40.657a.143.143,0,0,0-.076.032.184.184,0,0,0-.054.071,6.014,6.014,0,0,0,.028,3.722c-.373-.346-.735-.7-1.082-1.049a4.8,4.8,0,0,0,.345-2.34,4.632,4.632,0,0,0-.8-2.194.164.164,0,0,0-.067-.052.154.154,0,0,0-.081-.012.169.169,0,0,0-.078.032.2.2,0,0,0-.055.068,6.041,6.041,0,0,0,.071,3.825q-.73-.754-1.381-1.474a4.8,4.8,0,0,0,.371-2.365,4.644,4.644,0,0,0-.81-2.224.146.146,0,0,0-.064-.056.14.14,0,0,0-.083-.01.135.135,0,0,0-.078.03.166.166,0,0,0-.052.073,5.993,5.993,0,0,0,.071,3.825,29.274,29.274,0,0,1-1.817-2.31,4.68,4.68,0,0,0-.956-1.958,3.994,3.994,0,0,0-1.678-1.2.157.157,0,0,0-.081,0,.169.169,0,0,0-.071.045.215.215,0,0,0-.037.077.229.229,0,0,0-.006.087,3.951,3.951,0,0,0,.842,2.079,3.269,3.269,0,0,0,1.764,1.14c.249.358.54.753.887,1.213a4.071,4.071,0,0,0-2.7-.364.157.157,0,0,0-.071.044.187.187,0,0,0-.043.078.213.213,0,0,0,0,.093.2.2,0,0,0,.039.083,3.727,3.727,0,0,0,1.738,1.269,3.349,3.349,0,0,0,2.074.035c.309.352.628.716.968,1.085a4.643,4.643,0,0,0-3.462.23.158.158,0,0,0-.062.062.183.183,0,0,0-.024.089.211.211,0,0,0,.019.093.189.189,0,0,0,.057.071,3.863,3.863,0,0,0,2.052.7,3.806,3.806,0,0,0,2.09-.532c.454.472.93.952,1.428,1.432a4.44,4.44,0,0,0-3.521-.224.155.155,0,0,0-.066.055.182.182,0,0,0-.031.085.213.213,0,0,0,.01.093.205.205,0,0,0,.048.077,3.77,3.77,0,0,0,1.983.954,3.581,3.581,0,0,0,2.134-.348.09.09,0,0,0,.038,0,.116.116,0,0,0,.038-.066l.611.557a.182.182,0,0,0,.071.06c.33.29.654.58.991.861a.154.154,0,0,0,.105.044.15.15,0,0,0,.105-.044h0a.171.171,0,0,0,.029-.064.2.2,0,0,0,.005-.072.186.186,0,0,0-.022-.068.165.165,0,0,0-.045-.052l-.92-.8a4.831,4.831,0,0,0,.3-2.3,4.655,4.655,0,0,0-.8-2.147.165.165,0,0,0-.045-.108.145.145,0,0,0-.1-.049Z" transform="translate(-97.82 -9.544)" fill="#fff"/>
      <path id="Path_35084" data-name="Path 35084" d="M113.9,27.456a.162.162,0,0,0-.078.036.191.191,0,0,0-.052.072,6.065,6.065,0,0,0,.033,3.722c-.373-.352-.741-.7-1.082-1.049a4.842,4.842,0,0,0,.34-2.341,4.667,4.667,0,0,0-.8-2.194.177.177,0,0,0-.066-.057.158.158,0,0,0-.081-.016.142.142,0,0,0-.079.033.173.173,0,0,0-.05.075,5.987,5.987,0,0,0,.071,3.819c-.487-.5-.953-.994-1.381-1.474a4.8,4.8,0,0,0,.369-2.365,4.642,4.642,0,0,0-.808-2.224.173.173,0,0,0-.066-.058.146.146,0,0,0-.081-.015.142.142,0,0,0-.079.033.173.173,0,0,0-.05.075,6.017,6.017,0,0,0,.071,3.825c-.741-.867-1.358-1.656-1.818-2.31a4.663,4.663,0,0,0-.955-1.96,3.975,3.975,0,0,0-1.68-1.2.158.158,0,0,0-.078.008.169.169,0,0,0-.067.045.19.19,0,0,0-.041.073.209.209,0,0,0-.009.086,3.943,3.943,0,0,0,.842,2.078,3.275,3.275,0,0,0,1.766,1.141c.254.358.54.753.887,1.176a4.131,4.131,0,0,0-2.7-.364.175.175,0,0,0-.073.048.19.19,0,0,0-.041.08.21.21,0,0,0,0,.093.184.184,0,0,0,.036.083,3.767,3.767,0,0,0,1.743,1.262,3.4,3.4,0,0,0,2.077.042c.3.352.627.71.968,1.079a4.717,4.717,0,0,0-3.468.23.181.181,0,0,0-.062.066.231.231,0,0,0-.024.091.217.217,0,0,0,.021.094.178.178,0,0,0,.06.071,3.776,3.776,0,0,0,4.143.164c.454.48.936.967,1.433,1.437a4.445,4.445,0,0,0-3.521-.23.167.167,0,0,0-.071.056.194.194,0,0,0-.022.184.18.18,0,0,0,.055.075,3.761,3.761,0,0,0,1.978.952,3.591,3.591,0,0,0,2.134-.347l.043-.031a.156.156,0,0,0,.033-.074l.611.557a.161.161,0,0,0,.076.06q.487.437.989.855a.15.15,0,0,0,.105.044.153.153,0,0,0,.105-.044.256.256,0,0,0,.028-.064.246.246,0,0,0,0-.071.183.183,0,0,0-.022-.067.163.163,0,0,0-.041-.053c-.314-.261-.616-.522-.92-.8a4.827,4.827,0,0,0,.3-2.3,4.65,4.65,0,0,0-.8-2.141.184.184,0,0,0-.062-.061.153.153,0,0,0-.078-.023Z" transform="translate(-92.334 -21.883)" fill="#fff"/>
      <path id="Path_35085" data-name="Path 35085" d="M108.013,33.468a.148.148,0,0,0,.078-.032.165.165,0,0,0,.052-.071,5.989,5.989,0,0,0-.028-3.722c.373.346.735.7,1.082,1.049a4.82,4.82,0,0,0-.343,2.34,4.648,4.648,0,0,0,.8,2.194.171.171,0,0,0,.069.053.154.154,0,0,0,.157-.021.167.167,0,0,0,.055-.068,6.023,6.023,0,0,0-.071-3.826q.73.753,1.381,1.474a4.8,4.8,0,0,0-.369,2.365,4.642,4.642,0,0,0,.808,2.224.171.171,0,0,0,.069.053.154.154,0,0,0,.157-.021.167.167,0,0,0,.055-.068,5.976,5.976,0,0,0-.076-3.826,28.8,28.8,0,0,1,1.818,2.31,4.685,4.685,0,0,0,.958,1.959,4,4,0,0,0,1.681,1.2.148.148,0,0,0,.079,0,.155.155,0,0,0,.067-.045.214.214,0,0,0,.041-.079.23.23,0,0,0,0-.091,3.938,3.938,0,0,0-.842-2.077,3.258,3.258,0,0,0-1.766-1.136c-.249-.358-.54-.753-.887-1.213a4.072,4.072,0,0,0,2.7.364.148.148,0,0,0,.071-.044.167.167,0,0,0,.043-.078.213.213,0,0,0,0-.093.2.2,0,0,0-.04-.083,3.728,3.728,0,0,0-1.738-1.269,3.355,3.355,0,0,0-2.075-.035c-.3-.352-.628-.716-.968-1.085a4.645,4.645,0,0,0,3.463-.23.17.17,0,0,0,.064-.065.188.188,0,0,0,.022-.092.179.179,0,0,0-.017-.09.169.169,0,0,0-.059-.066,3.858,3.858,0,0,0-2.051-.7,3.813,3.813,0,0,0-2.092.532c-.454-.472-.93-.952-1.428-1.432a4.464,4.464,0,0,0,3.521.224.146.146,0,0,0,.066-.055.182.182,0,0,0,.031-.085.193.193,0,0,0-.007-.094.168.168,0,0,0-.052-.076,3.754,3.754,0,0,0-1.982-.956,3.58,3.58,0,0,0-2.135.35.09.09,0,0,0-.038,0,.3.3,0,0,0-.038.068l-.611-.557a.141.141,0,0,0-.071-.06c-.325-.29-.654-.606-.989-.861a.15.15,0,0,0-.105-.044.153.153,0,0,0-.105.044.206.206,0,0,0-.028.064.246.246,0,0,0,0,.071.185.185,0,0,0,.022.067.164.164,0,0,0,.041.053l.92.8a4.852,4.852,0,0,0-.3,2.3,4.653,4.653,0,0,0,.8,2.147.211.211,0,0,0,.045.1.171.171,0,0,0,.083.055Z" transform="translate(-91.591 -16.378)" fill="#fff"/>
    </g>
    <path id="Path_35086" data-name="Path 35086" d="M125.347,33.423,89.1,37.523a3.575,3.575,0,0,0-2.47,1.489,4.459,4.459,0,0,0-.81,3.009l1.245,13.89a6.2,6.2,0,0,1,3.2-1.332,5.99,5.99,0,0,1,3.365.632,6.843,6.843,0,0,1,2.637,2.427,7.973,7.973,0,0,1,1.207,3.577,8.22,8.22,0,0,1-.544,3.775,7.313,7.313,0,0,1-2.15,2.97,6.218,6.218,0,0,1-3.184,1.374,5.981,5.981,0,0,1-3.372-.587l1.25,13.89A4.283,4.283,0,0,0,90.8,85.4a3.415,3.415,0,0,0,2.682.911l36.249-4.092a3.587,3.587,0,0,0,2.467-1.5,4.47,4.47,0,0,0,.813-3.008l-3.651-40.625a4.29,4.29,0,0,0-1.334-2.758A3.422,3.422,0,0,0,125.347,33.423Z" transform="translate(62.304 31.217)" fill="#fbbc05"/>
    <path id="Path_35087" data-name="Path 35087" d="M125.347,33.423,89.1,37.523a3.575,3.575,0,0,0-2.47,1.489,4.459,4.459,0,0,0-.81,3.009l1.245,13.89a6.2,6.2,0,0,1,3.2-1.332,5.99,5.99,0,0,1,3.365.632,6.843,6.843,0,0,1,2.637,2.427,7.973,7.973,0,0,1,1.207,3.577,8.22,8.22,0,0,1-.544,3.775,7.313,7.313,0,0,1-2.15,2.97,6.218,6.218,0,0,1-3.184,1.374,5.981,5.981,0,0,1-3.372-.587l1.25,13.89A4.283,4.283,0,0,0,90.8,85.4a3.415,3.415,0,0,0,2.682.911l36.249-4.092a3.587,3.587,0,0,0,2.467-1.5,4.47,4.47,0,0,0,.813-3.008l-3.651-40.625a4.29,4.29,0,0,0-1.334-2.758A3.422,3.422,0,0,0,125.347,33.423Z" transform="translate(62.304 31.217)" opacity="0.3"/>
    <path id="Path_35088" data-name="Path 35088" d="M117.738,40.248l-1.678-.818-3.937,1.128a2.114,2.114,0,0,0-1.136.843l-.834,1.213a1.574,1.574,0,0,0-.254.923,1.544,1.544,0,0,0,.325.9l.941,1.161a1.242,1.242,0,0,0,.873.468,1.2,1.2,0,0,0,.917-.346l2.137-2.054S117.667,42.31,117.738,40.248Z" transform="translate(79.803 36.848)" fill="#ffb573"/>
    <path id="Path_35089" data-name="Path 35089" d="M95.208,37.994l1.742-.25a1.036,1.036,0,0,0,.625-.328,1.266,1.266,0,0,0,.321-.684l.238-1.548a1.354,1.354,0,0,0-.021-.557,1.26,1.26,0,0,0-.241-.488,1.09,1.09,0,0,0-.41-.316.978.978,0,0,0-.492-.077l-2.033.164a1.041,1.041,0,0,0-.746.4,1.3,1.3,0,0,0-.276.873l.054,1.637a1.331,1.331,0,0,0,.1.5,1.209,1.209,0,0,0,.278.4,1.049,1.049,0,0,0,.4.24.97.97,0,0,0,.455.034Z" transform="translate(68.196 31.533)" fill="#ffb573"/>
    <path id="Path_35090" data-name="Path 35090" d="M115.349,14.136c-4.295,2.426-11.841,1.309-11.841,1.309S107.716,7.732,115.349,14.136Z" transform="translate(75.162 10.835)" fill="#263238"/>
    <path id="Path_35091" data-name="Path 35091" d="M69.785,93.136l-2.158,12.592-5.463-1.48,2.158-12.592Z" transform="translate(45.14 85.655)" fill="#ffc3bd"/>
    <path id="Path_35092" data-name="Path 35092" d="M65.908,96.884l6.074,1.48a.383.383,0,0,1,.235.166.471.471,0,0,1,.074.3l-.421,5a.991.991,0,0,1-.11.354.883.883,0,0,1-.228.275.785.785,0,0,1-.307.147.723.723,0,0,1-.334,0c-1.909-.5-2.477-.818-4.9-1.406-2.819-.7-3.82-.51-7.129-1.322-2-.491-1.909-2.844-1.012-2.849a12.352,12.352,0,0,0,6.756-2.02,1.6,1.6,0,0,1,1.3-.126Z" transform="translate(41.569 90.462)" fill="#263238"/>
    <path id="Path_35093" data-name="Path 35093" d="M69.353,93.142l-1.115,6.487-5.468-1.48,1.115-6.492Z" transform="translate(45.58 85.655)" opacity="0.2"/>
    <path id="Path_35094" data-name="Path 35094" d="M79.2,90.238C85.606,69.1,90.679,44.161,90.679,44.161l-18.285-1.3S69.684,75.228,68.3,90.145c-1.46,15.509-6,50.52-6,50.52l8.249,1.873S78.282,109.579,79.2,90.238Z" transform="translate(45.243 40.057)" fill="#263238"/>
    <path id="Path_35095" data-name="Path 35095" d="M73.967,49.615,78.4,55.763C77.272,60.51,75.952,65.846,74.5,71.3A120.038,120.038,0,0,1,73.967,49.615Z" transform="translate(53.522 46.367)" fill="#263238" opacity="0.2"/>
    <path id="Path_35096" data-name="Path 35096" d="M62.573,96.24,70.145,98.1a.57.57,0,0,0,.444-.074.692.692,0,0,0,.287-.387l.834-2.733a.776.776,0,0,0,.033-.289.762.762,0,0,0-.075-.278.677.677,0,0,0-.171-.22.591.591,0,0,0-.236-.122l-8.216-2.153a.563.563,0,0,0-.263-.006.6.6,0,0,0-.242.115.678.678,0,0,0-.179.216.763.763,0,0,0-.084.28l-.19,3.031a.769.769,0,0,0,.113.486.63.63,0,0,0,.374.278Z" transform="translate(45.081 85.808)" fill="#263238"/>
    <path id="Path_35097" data-name="Path 35097" d="M62.573,96.24,70.145,98.1a.57.57,0,0,0,.444-.074.692.692,0,0,0,.287-.387l.834-2.733a.776.776,0,0,0,.033-.289.762.762,0,0,0-.075-.278.677.677,0,0,0-.171-.22.591.591,0,0,0-.236-.122l-8.216-2.153a.563.563,0,0,0-.263-.006.6.6,0,0,0-.242.115.678.678,0,0,0-.179.216.763.763,0,0,0-.084.28l-.19,3.031a.769.769,0,0,0,.113.486.63.63,0,0,0,.374.278Z" transform="translate(45.081 85.808)" fill="#fff" opacity="0.1"/>
    <path id="Path_35098" data-name="Path 35098" d="M86.337,92.238l.345,12.992-5.544-.085-.345-12.992Z" transform="translate(58.668 86.118)" fill="#ffc3bd"/>
    <path id="Path_35099" data-name="Path 35099" d="M84.264,97.492l5.9.1a.363.363,0,0,1,.259.11.452.452,0,0,1,.126.277l.476,5a1.015,1.015,0,0,1-.043.373.951.951,0,0,1-.174.321.8.8,0,0,1-.275.215.729.729,0,0,1-.33.074c-1.957-.066-2.575-.248-5.047-.29-2.89-.054-3.511.352-6.9.3-2.051-.037-2.38-2.365-1.5-2.572a12.974,12.974,0,0,0,6.269-3.482,1.634,1.634,0,0,1,1.25-.416Z" transform="translate(55.397 91.101)" fill="#263238"/>
    <path id="Path_35100" data-name="Path 35100" d="M86.343,92.243l.173,6.693-5.55-.085-.173-6.7Z" transform="translate(58.668 86.118)" opacity="0.2"/>
    <path id="Path_35101" data-name="Path 35101" d="M91.278,89.559c-1.569-22.232-.243-34.224-2.548-45.268L72.09,43.131s5.167,32.678,8.016,47.458,5.917,50.684,5.917,50.684l8.179.116S95.2,106.9,91.278,89.559Z" transform="translate(52.348 40.307)" fill="#263238"/>
    <path id="Path_35102" data-name="Path 35102" d="M80.65,96.856l7.742.133a.592.592,0,0,0,.433-.187.742.742,0,0,0,.2-.469l.173-2.861a.778.778,0,0,0-.031-.28.716.716,0,0,0-.127-.243.63.63,0,0,0-.2-.167.568.568,0,0,0-.245-.063l-8.424-.29a.565.565,0,0,0-.273.058.632.632,0,0,0-.223.185.726.726,0,0,0-.129.276.776.776,0,0,0-.009.311l.54,3.032a.737.737,0,0,0,.2.389.606.606,0,0,0,.371.175Z" transform="translate(57.746 86.378)" fill="#263238"/>
    <path id="Path_35103" data-name="Path 35103" d="M80.65,96.856l7.742.133a.592.592,0,0,0,.433-.187.742.742,0,0,0,.2-.469l.173-2.861a.778.778,0,0,0-.031-.28.716.716,0,0,0-.127-.243.63.63,0,0,0-.2-.167.568.568,0,0,0-.245-.063l-8.424-.29a.565.565,0,0,0-.273.058.632.632,0,0,0-.223.185.726.726,0,0,0-.129.276.776.776,0,0,0-.009.311l.54,3.032a.737.737,0,0,0,.2.389.606.606,0,0,0,.371.175Z" transform="translate(57.746 86.378)" fill="#fff" opacity="0.1"/>
    <path id="Path_35104" data-name="Path 35104" d="M82.556,27.944c-.639,1.548-1.3,2.915-2.028,4.329S79.04,35.056,78.2,36.4A38.871,38.871,0,0,1,75.4,40.374a17.233,17.233,0,0,1-3.879,3.685l-.19.122a2.466,2.466,0,0,1-1.057.393,2.386,2.386,0,0,1-1.108-.127c-1.055-.387-2.071-.812-3.078-1.273s-1.975-.967-2.934-1.5-1.9-1.1-2.814-1.7a30.3,30.3,0,0,1-2.7-1.946,1.887,1.887,0,0,1-.65-1.043,2.083,2.083,0,0,1,.094-1.268,1.789,1.789,0,0,1,.8-.907,1.507,1.507,0,0,1,1.129-.129h.059c.968.261,1.97.58,2.934.861l2.934.867c.968.3,1.942.546,2.9.813s1.914.472,2.857.691l-2.332.387a14.183,14.183,0,0,0,2.165-2.557c.741-1.068,1.455-2.244,2.165-3.455s1.352-2.48,1.99-3.765,1.288-2.614,1.861-3.838l.033-.066A3.414,3.414,0,0,1,78.5,22.944a3.007,3.007,0,0,1,2.42.238A3.615,3.615,0,0,1,82.549,25.2a4.155,4.155,0,0,1-.023,2.723Z" transform="translate(41.342 21.301)" fill="#ffc3bd"/>
    <path id="Path_35105" data-name="Path 35105" d="M77.328,20c-6.459.824-11.36,12.035-11.36,12.035l6.664,7.949S75.6,36.018,78.8,31.006C82.279,25.541,82.441,19.35,77.328,20Z" transform="translate(47.903 18.647)" fill="#fbbc05"/>
    <path id="Path_35106" data-name="Path 35106" d="M73.808,21c2.482-.989,13.605.606,13.605.606-2.165,3.128-3.97,29.033-4.17,43.923a66.358,66.358,0,0,1-13.524-.878C69.99,58.809,72.163,31.4,73.808,21Z" transform="translate(50.626 19.326)" fill="#fff"/>
    <path id="Path_35107" data-name="Path 35107" d="M68.312,29.612a11.541,11.541,0,0,1,3.272-6.969,9.286,9.286,0,0,1,6.579-2.767,61.287,61.287,0,0,1,13.821,1.71,5.128,5.128,0,0,1,1.972.955,5.821,5.821,0,0,1,1.485,1.74,6.522,6.522,0,0,1,.764,2.25,6.774,6.774,0,0,1-.078,2.406C92.7,45.034,93.607,60.3,92.693,67.41a24.115,24.115,0,0,1-10.184,1.818s.081-6.129.844-16.478c.606-8.228,1.693-27.573,3.932-30.786,0,0-8.028-1.213-10.511-.236-1.845,11.671-3.2,47.022-3.2,47.028-3.927-.315-5.777-2.764-5.719-3.492a241.235,241.235,0,0,1,.454-35.653Z" transform="translate(48.947 18.574)" fill="#fbbc05"/>
    <path id="Path_35108" data-name="Path 35108" d="M83.659,15.652c-.753,2.426-1.623,6.725-.233,9.137a.992.992,0,0,1,.139.376,1.035,1.035,0,0,1-.018.407.966.966,0,0,1-.173.359.837.837,0,0,1-.293.241A11.259,11.259,0,0,1,75.7,27.954c-3.489-.315-3.245-2.08-2.348-3.225a1.212,1.212,0,0,1,.822-.46c3.3-.443,3.326-2.668,2.852-4.85Z" transform="translate(52.847 14.627)" fill="#ffc3bd"/>
    <path id="Path_35109" data-name="Path 35109" d="M79.164,16.451l-3.922,2.236a7.79,7.79,0,0,1,.211,1.582c1.428,0,3.452-1.074,3.684-2.3a3.5,3.5,0,0,0,.028-1.515Z" transform="translate(54.637 15.374)" opacity="0.2"/>
    <path id="Path_35110" data-name="Path 35110" d="M78.274,13.319c.147-2.187-.914-4.06-2.37-4.184s-2.756,1.55-2.9,3.737.914,4.06,2.37,4.183S78.127,15.506,78.274,13.319Z" transform="translate(52.999 8.531)" fill="#263238"/>
    <path id="Path_35111" data-name="Path 35111" d="M85.573,15.987c-.725,4.784-.936,7.626-3.306,9.853a5.326,5.326,0,0,1-2.762,1.328,5.067,5.067,0,0,1-2.978-.46,5.79,5.79,0,0,1-2.339-2.116,6.778,6.778,0,0,1-1.03-3.165c-.492-4.432.773-11.518,5.09-12.95A5.188,5.188,0,0,1,81.2,8.372a5.61,5.61,0,0,1,2.611,1.536,6.616,6.616,0,0,1,1.6,2.779,7.239,7.239,0,0,1,.168,3.3Z" transform="translate(53.051 7.67)" fill="#ffc3bd"/>
    <path id="Path_35112" data-name="Path 35112" d="M84.9,22.951c-.054,0-.119-.079-.173-.043-1.937,1.213-2.563-1.395-2.446-3.128a4.494,4.494,0,0,1,.435-1.65,4.034,4.034,0,0,1,1-1.308c-2.1.267-4.132-1.25-4.165-2.662-2.32,1.145-5.118,1.213-6.378-1.213A3.425,3.425,0,0,1,73.2,9.456a2.852,2.852,0,0,1,1.28-1.131,2.5,2.5,0,0,1,1.626-.131c-.974-1.952,3.143-5.856,7.455-.1.135-4.177,6.162,0,5.178,4.105,2.791,1.079,5.178,7.02.449,8.287C88.87,25.988,84.9,22.951,84.9,22.951Z" transform="translate(52.796 4.747)" fill="#263238"/>
    <path id="Path_35113" data-name="Path 35113" d="M82.728,16.73a4.015,4.015,0,0,1-2.619,1.648c-1.3.164-1.585-1.315-.92-2.662.6-1.213,2-2.753,3.154-2.279S83.572,15.577,82.728,16.73Z" transform="translate(57.252 12.476)" fill="#ffc3bd"/>
    <path id="Path_35114" data-name="Path 35114" d="M77.077,12.779c-.033.4-.243.7-.476.673s-.4-.364-.362-.764.243-.691.476-.667S77.11,12.385,77.077,12.779Z" transform="translate(55.358 11.233)" fill="#263238"/>
    <path id="Path_35115" data-name="Path 35115" d="M74.651,12.513c-.033.387-.243.691-.476.667s-.39-.364-.362-.758.243-.7.476-.673S74.7,12.113,74.651,12.513Z" transform="translate(53.596 10.979)" fill="#263238"/>
    <path id="Path_35116" data-name="Path 35116" d="M76.066,12.26a14.355,14.355,0,0,1-1.952,3.2,2,2,0,0,0,.775.474,1.838,1.838,0,0,0,.881.066Z" transform="translate(53.817 11.457)" fill="#fcbab3"/>
    <path id="Path_35117" data-name="Path 35117" d="M75.942,15.694a2.625,2.625,0,0,0,1.16-.173,2.867,2.867,0,0,0,1-.671.122.122,0,0,0,.022-.039.135.135,0,0,0,.007-.045.128.128,0,0,0-.009-.045.119.119,0,0,0-.023-.038.108.108,0,0,0-.035-.025.1.1,0,0,0-.041-.008.091.091,0,0,0-.04.01.106.106,0,0,0-.034.026,2.7,2.7,0,0,1-1.149.685,2.5,2.5,0,0,1-1.3.025.087.087,0,0,0-.04,0,.092.092,0,0,0-.037.017.1.1,0,0,0-.028.033.118.118,0,0,0-.013.043.132.132,0,0,0,.016.087.111.111,0,0,0,.065.052A4.088,4.088,0,0,0,75.942,15.694Z" transform="translate(54.739 13.691)" fill="#263238"/>
    <path id="Path_35118" data-name="Path 35118" d="M78.142,12.736a.2.2,0,0,0,.1,0,.208.208,0,0,0,.067-.053.234.234,0,0,0,.043-.078.258.258,0,0,0,.013-.091.251.251,0,0,0-.02-.089,2.366,2.366,0,0,0-.576-.889,2.033,2.033,0,0,0-.874-.5.193.193,0,0,0-.144.05.241.241,0,0,0-.076.146.257.257,0,0,0,.032.166.212.212,0,0,0,.123.1,1.623,1.623,0,0,1,.687.407,1.888,1.888,0,0,1,.449.71.238.238,0,0,0,.073.085.205.205,0,0,0,.1.037Z" transform="translate(55.678 10.314)" fill="#263238"/>
    <path id="Path_35119" data-name="Path 35119" d="M73.335,11.624a.194.194,0,0,0,.1,0,.207.207,0,0,0,.092-.051,1.613,1.613,0,0,1,.675-.415,1.481,1.481,0,0,1,.77-.028.186.186,0,0,0,.156-.02.227.227,0,0,0,.1-.137.261.261,0,0,0-.017-.177.218.218,0,0,0-.123-.113,1.835,1.835,0,0,0-.975.018,1.994,1.994,0,0,0-.858.522.232.232,0,0,0-.045.075.254.254,0,0,0,0,.177.235.235,0,0,0,.045.075.2.2,0,0,0,.079.072Z" transform="translate(53.151 9.933)" fill="#263238"/>
    <path id="Path_35120" data-name="Path 35120" d="M87.465,25.4c.345.774.639,1.437.92,2.159s.54,1.418.822,2.128c.54,1.432,1.012,2.886,1.455,4.358a65.774,65.774,0,0,1,2.071,9.137l.147,1.213.076.606v.412c0,.193.028.387.028.606a10.315,10.315,0,0,1-.578,3.225,25.022,25.022,0,0,1-2.045,4.48,44.231,44.231,0,0,1-2.417,3.813q-1.273,1.828-2.707,3.505a1.607,1.607,0,0,1-1.041.578,1.532,1.532,0,0,1-1.125-.325,1.881,1.881,0,0,1-.662-1.07,2.071,2.071,0,0,1,.123-1.294v-.048c1.12-2.614,2.3-5.256,3.245-7.833.243-.642.459-1.285.649-1.909a16.959,16.959,0,0,0,.471-1.782,3.882,3.882,0,0,0,.091-1.161h0l-.026-.112-.1-.5-.2-1a78.936,78.936,0,0,0-2.289-8c-.433-1.333-.925-2.65-1.4-3.972-.238-.654-.492-1.31-.746-1.958l-.758-1.892-.043-.108a4.144,4.144,0,0,1-.134-2.85,3.615,3.615,0,0,1,1.7-2.122,3,3,0,0,1,2.543-.151,3.492,3.492,0,0,1,1.893,1.909Z" transform="translate(58.889 21.786)" fill="#ffc3bd"/>
    <path id="Path_35121" data-name="Path 35121" d="M83.094,20.848c7.2,2.037,9.2,12.362,9.2,12.362L83.343,40.4A17.122,17.122,0,0,1,80.455,31.7C80.146,28.78,81.634,20.769,83.094,20.848Z" transform="translate(58.393 19.483)" fill="#fbbc05"/>
    <path id="Path_35122" data-name="Path 35122" d="M84.361,41.061,80.2,42.8l3.192,4.79s3.6-2.091,2.915-4.413Z" transform="translate(58.234 38.372)" fill="#ffc3bd"/>
    <path id="Path_35123" data-name="Path 35123" d="M99.664,54.386a5.938,5.938,0,0,0-3.344.34l2.071-13.762a4.509,4.509,0,0,0-.63-3.064,3.651,3.651,0,0,0-2.377-1.672L59.465,29.457a3.37,3.37,0,0,0-2.728.707,4.2,4.2,0,0,0-1.491,2.657l-2.1,13.793a5.835,5.835,0,0,1,3.344-.339,6.247,6.247,0,0,1,2.765,1.29,7.221,7.221,0,0,1,1.973,2.525,8.214,8.214,0,0,1,.2,6.535A7.378,7.378,0,0,1,59.609,59.3a6.365,6.365,0,0,1-2.681,1.5,5.917,5.917,0,0,1-3,.017,6.348,6.348,0,0,1-2.694-1.466L49.167,73.1a4.51,4.51,0,0,0,.63,3.064,3.651,3.651,0,0,0,2.377,1.672l35.919,6.771a3.374,3.374,0,0,0,2.731-.706,4.207,4.207,0,0,0,1.494-2.658l2.071-13.768a6.335,6.335,0,0,0,2.689,1.438,5.92,5.92,0,0,0,2.979-.031,6.371,6.371,0,0,0,2.664-1.494,7.381,7.381,0,0,0,1.808-2.654,8.216,8.216,0,0,0-.172-6.5,7.241,7.241,0,0,0-1.945-2.529,6.268,6.268,0,0,0-2.739-1.315Z" transform="translate(35.666 27.477)" fill="#fbbc05"/>
    <path id="Path_35124" data-name="Path 35124" d="M99.664,54.386a5.938,5.938,0,0,0-3.344.34l2.071-13.762a4.509,4.509,0,0,0-.63-3.064,3.651,3.651,0,0,0-2.377-1.672L59.465,29.457a3.37,3.37,0,0,0-2.728.707,4.2,4.2,0,0,0-1.491,2.657l-2.1,13.793a5.835,5.835,0,0,1,3.344-.339,6.247,6.247,0,0,1,2.765,1.29,7.221,7.221,0,0,1,1.973,2.525,8.214,8.214,0,0,1,.2,6.535A7.378,7.378,0,0,1,59.609,59.3a6.365,6.365,0,0,1-2.681,1.5,5.917,5.917,0,0,1-3,.017,6.348,6.348,0,0,1-2.694-1.466L49.167,73.1a4.51,4.51,0,0,0,.63,3.064,3.651,3.651,0,0,0,2.377,1.672l35.919,6.771a3.374,3.374,0,0,0,2.731-.706,4.207,4.207,0,0,0,1.494-2.658l2.071-13.768a6.335,6.335,0,0,0,2.689,1.438,5.92,5.92,0,0,0,2.979-.031,6.371,6.371,0,0,0,2.664-1.494,7.381,7.381,0,0,0,1.808-2.654,8.216,8.216,0,0,0-.172-6.5,7.241,7.241,0,0,0-1.945-2.529,6.268,6.268,0,0,0-2.739-1.315Z" transform="translate(35.666 27.477)" fill="#fff" opacity="0.6"/>
    <path id="Path_35125" data-name="Path 35125" d="M79.271,46.658l1.369,1.466a1.464,1.464,0,0,0,.973.478,1.424,1.424,0,0,0,1.017-.344l1.78-1.5-3.192-4.79L79.244,44.19a1.75,1.75,0,0,0-.337.569,1.913,1.913,0,0,0,.015,1.339,1.738,1.738,0,0,0,.35.559Z" transform="translate(57.215 39.223)" fill="#ffc3bd"/>
    <path id="Path_35126" data-name="Path 35126" d="M55.848,31.481l.5-2.068a1.233,1.233,0,0,1,.427-.595,1.028,1.028,0,0,1,.656-.206,4.917,4.917,0,0,1,2.071.358l2.814,1.161-.135,1.285a2.783,2.783,0,0,1-.9,1.52,2.273,2.273,0,0,1-1.554.548,9.374,9.374,0,0,1-2.482-.3l-.3-.074a1.115,1.115,0,0,1-.49-.164,1.264,1.264,0,0,1-.385-.377,1.436,1.436,0,0,1-.212-.522,1.511,1.511,0,0,1,0-.573Z" transform="translate(40.534 26.734)" fill="#ffc3bd"/>
    <path id="Path_35127" data-name="Path 35127" d="M38.266,20.9c1.8-2.347,4.512-8.438-.583-10.767-3.76-1.722-11.738-.843-16.321,7.158-3.133,1.213-4.056,9.021,3.176,10.665S38.266,20.9,38.266,20.9Z" transform="translate(13.808 8.778)" fill="#263238"/>
    <path id="Path_35128" data-name="Path 35128" d="M43.11,93.109l-8.267.774,1.4,10.889,6.9-.631Z" transform="translate(25.302 87.013)" fill="#ffc3bd"/>
    <path id="Path_35129" data-name="Path 35129" d="M43.112,93.111l-8.272.774.791,6.1,7.509-.7Z" transform="translate(25.299 87.015)" opacity="0.2"/>
    <path id="Path_35130" data-name="Path 35130" d="M33.867,97.815c-3.245-13.944-11.652-30.544-6.325-43.96L50.7,53.775s.573,27.615.735,40.625c.162,13.6-.849,39.182-.849,39.182l-9.471.807S34.625,113.45,33.867,97.815Z" transform="translate(18.747 50.254)" fill="#fbbc05"/>
    <path id="Path_35131" data-name="Path 35131" d="M34.95,98.505l10.234-.843a.352.352,0,0,0,.232-.124.436.436,0,0,0,.1-.263l.216-4.244a.443.443,0,0,0-.028-.17.4.4,0,0,0-.089-.141.351.351,0,0,0-.134-.086.322.322,0,0,0-.154-.015l-11.36,1.691a.32.32,0,0,0-.147.054.364.364,0,0,0-.112.12.414.414,0,0,0-.054.162.428.428,0,0,0,.015.173l.9,3.407a.409.409,0,0,0,.146.213.337.337,0,0,0,.232.067Z" transform="translate(24.439 86.551)" fill="#263238"/>
    <path id="Path_35132" data-name="Path 35132" d="M26.779,60.862a77.874,77.874,0,0,0,.357,9.866c1.131,4.384,2.575,8.773,3.873,13.029C32.708,71.7,32.713,57.655,26.779,60.862Z" transform="translate(19.424 56.444)" opacity="0.2"/>
    <path id="Path_35133" data-name="Path 35133" d="M25.4,93.459l-8.3.091-.01,10.973,6.936-.06Z" transform="translate(12.413 87.34)" fill="#ffc3bd"/>
    <path id="Path_35134" data-name="Path 35134" d="M17.08,98.548a.478.478,0,0,1,.057-.172.421.421,0,0,1,.114-.131.371.371,0,0,1,.152-.068.351.351,0,0,1,.163.007c2.083.927,6.031.219,7.524-.1a1.1,1.1,0,0,1,.5,0,1.162,1.162,0,0,1,.458.224,15.082,15.082,0,0,0,3.932,2.037,5.815,5.815,0,0,1,.216,2.794H16.215a33.787,33.787,0,0,0,.865-4.59Z" transform="translate(11.774 91.632)" fill="#263238"/>
    <path id="Path_35135" data-name="Path 35135" d="M35.491,98.548a.475.475,0,0,1,.057-.172.423.423,0,0,1,.114-.131.371.371,0,0,1,.152-.068.351.351,0,0,1,.163.007c2.083.927,6.031.219,7.524-.1a1.1,1.1,0,0,1,.5,0,1.162,1.162,0,0,1,.458.224,18.248,18.248,0,0,0,5.831,2.037,5.781,5.781,0,0,1,.211,2.794H34.621a33.794,33.794,0,0,0,.87-4.59Z" transform="translate(25.14 91.632)" fill="#263238"/>
    <path id="Path_35136" data-name="Path 35136" d="M25.4,93.463l-8.3.085V99.7l7.542-.074Z" transform="translate(12.415 87.343)" opacity="0.2"/>
    <path id="Path_35137" data-name="Path 35137" d="M17.48,93.3c-1.125-14.083-4.661-33.053-.649-39.528h27.1s-5.524,28.082-7.79,41.08c-2.353,13.513-9.121,39.464-9.121,39.464l-8.976.031S14.646,109.383,17.48,93.3Z" transform="translate(10.867 50.251)" fill="#fbbc05"/>
    <path id="Path_35138" data-name="Path 35138" d="M17.669,131.145a.259.259,0,0,1-.161-.062.312.312,0,0,1-.1-.156c-.644-2.426-.54-30.283,1.082-37.916,0-1.006-.19-2.983-.406-5.486-.741-8.487-2.115-24.251-.066-33.192a.3.3,0,0,1,.131-.172.253.253,0,0,1,.2-.028.283.283,0,0,1,.165.13.345.345,0,0,1,.044.221c-2.028,8.845-.659,24.547.076,32.987.221,2.546.4,4.554.411,5.571a.4.4,0,0,1,0,.079c-1.554,7.214-1.709,35.284-1.082,37.63a.337.337,0,0,1-.019.227.282.282,0,0,1-.154.148.191.191,0,0,1-.124.02Z" transform="translate(12.305 50.577)" fill="#fff" opacity="0.2"/>
    <path id="Path_35139" data-name="Path 35139" d="M16.642,97.965H26.807a.312.312,0,0,0,.226-.084.387.387,0,0,0,.119-.231l.671-4.043a.468.468,0,0,0-.007-.184.436.436,0,0,0-.077-.163.379.379,0,0,0-.132-.109.338.338,0,0,0-.161-.035l-11.068.551a.317.317,0,0,0-.134.037.351.351,0,0,0-.11.093.4.4,0,0,0-.069.134.433.433,0,0,0-.017.153l.228,3.492a.447.447,0,0,0,.12.274.357.357,0,0,0,.253.113Z" transform="translate(11.652 87.018)" fill="#263238"/>
    <path id="Path_35140" data-name="Path 35140" d="M42.1,30.875c.54,2.426,1.036,4.85,1.521,7.276s.936,4.85,1.358,7.276l.649,3.637.606,3.637c.416,2.426.784,4.887,1.163,7.336l-.882-2.213a2.055,2.055,0,0,0,.72,1.116A5.816,5.816,0,0,0,49.532,60a15.731,15.731,0,0,0,3.333.491c.6.037,1.217.06,1.84.048h1.807l.768.06a2.823,2.823,0,0,1,1.754.8,3.441,3.441,0,0,1,.972,1.821,3.719,3.719,0,0,1-.2,2.11,3.226,3.226,0,0,1-1.292,1.551c-.433.267-.741.466-1.108.679s-.709.387-1.082.605c-.725.352-1.466.685-2.234.967a20.883,20.883,0,0,1-2.375.716,20.036,20.036,0,0,1-2.558.4,14.372,14.372,0,0,1-2.786-.048,11.268,11.268,0,0,1-3.019-.716,12.108,12.108,0,0,1-3.088-1.71A13,13,0,0,1,37.6,64.967a4.617,4.617,0,0,1-.715-1.548l-.173-.673c-.6-2.389-1.208-4.771-1.769-7.171l-.863-3.589-.816-3.6c-.54-2.426-1.082-4.813-1.574-7.227s-.984-4.85-1.412-7.276a7.472,7.472,0,0,1,.872-5.009,6.111,6.111,0,0,1,3.738-2.914,5.508,5.508,0,0,1,4.494.827,6.779,6.779,0,0,1,2.71,4.1Z" transform="translate(21.906 24.102)" fill="#ffc3bd"/>
    <path id="Path_35141" data-name="Path 35141" d="M45.207,45.432l.114,3.917c1.412,3.8,5.458.915,5.458.915l2.446-.5a1.871,1.871,0,0,0,1.055-.808,2.274,2.274,0,0,0,.341-1.38l-.066-2.741A2.329,2.329,0,0,0,54.05,43.3a1.861,1.861,0,0,0-1.317-.7l-2.165.048a3.509,3.509,0,0,0-1.8.546Z" transform="translate(32.827 39.807)" fill="#ffc3bd"/>
    <path id="Path_35142" data-name="Path 35142" d="M38.052,25.731c4.976,2.935,8.229,13.29,8.229,13.29-1.049,4.85-5.28,13.694-9.2,13.64,0,0-5.75-8.318-6.373-14.325C29.953,31.066,27.987,19.8,38.052,25.731Z" transform="translate(21.813 22.491)" fill="#263238"/>
    <path id="Path_35143" data-name="Path 35143" d="M44.707,24.291a93.241,93.241,0,0,0-23.072.412c-4.426.7-7.573,3.784-7.032,13.944,1.082,20.612-.6,36.679,1.742,44.088,0,0,34.038,10.913,43.742.455,2.358-24.8-5.582-45.392-9.2-53.958a8.53,8.53,0,0,0-2.515-3.377,7.276,7.276,0,0,0-3.668-1.564Z" transform="translate(10.56 22.21)" fill="#263238"/>
    <path id="Path_35144" data-name="Path 35144" d="M36.267,30.793c-.882-.967-1.807-.406-2.234-1.867a5.576,5.576,0,0,1,.487-3.353l-10.5-6.353c.205,4.329.362,7.748-1.352,9.479-.5,3.225,4.869,6.444,12.014,6.492C39.231,35.211,37.531,32.186,36.267,30.793Z" transform="translate(16.438 17.962)" fill="#ffc3bd"/>
    <path id="Path_35145" data-name="Path 35145" d="M32.918,23.814l-8.286-2.321c2.094,3.693,5.869,5.711,7.892,4.819a5.651,5.651,0,0,1,.394-2.5Z" transform="translate(17.887 20.085)" opacity="0.2"/>
    <path id="Path_35146" data-name="Path 35146" d="M31.341,11.881a6.588,6.588,0,0,0-3.634-.051,7.137,7.137,0,0,0-3.212,1.9,8.378,8.378,0,0,0-2.007,3.4,9.188,9.188,0,0,0-.312,4.058c1.06,5.566,1.9,9.324,5.334,11.22,6.827,3.77,10.158.133,10.716-5.68C38.73,21.478,36.907,13.251,31.341,11.881Z" transform="translate(16.032 10.84)" fill="#ffc3bd"/>
    <path id="Path_35147" data-name="Path 35147" d="M23.291,26.376c3.067.774,4.327-.952,4.327-2.881a8.192,8.192,0,0,0-1.1-3.6,7.092,7.092,0,0,0-2.525-2.546c.677-4.546,11.859,1.818,10.792-4.48,0,0-.3-1.079-3.192-1.685S20.985,12.537,21.527,19,23.291,26.376,23.291,26.376Z" transform="translate(15.612 10.353)" fill="#263238"/>
    <path id="Path_35148" data-name="Path 35148" d="M20.273,16.276a9.151,9.151,0,0,0,.6-5.457S24.238,13.31,20.273,16.276Z" transform="translate(14.722 10.11)" fill="#263238"/>
    <path id="Path_35149" data-name="Path 35149" d="M29.65,20.506a4.176,4.176,0,0,0,.682-.116.128.128,0,0,0,.049-.024.145.145,0,0,0,.037-.043.158.158,0,0,0,.019-.056.165.165,0,0,0,0-.06.153.153,0,0,0-.02-.056.135.135,0,0,0-.038-.042.122.122,0,0,0-.05-.021.118.118,0,0,0-.054,0,3.322,3.322,0,0,1-1.711.013,3.57,3.57,0,0,1-1.534-.849.135.135,0,0,0-.044-.035.122.122,0,0,0-.106,0,.136.136,0,0,0-.045.035.171.171,0,0,0,0,.219,3.755,3.755,0,0,0,1.316.832,3.453,3.453,0,0,0,1.5.2Z" transform="translate(19.456 17.951)" fill="#263238"/>
    <path id="Path_35150" data-name="Path 35150" d="M21.61,20.925a4.72,4.72,0,0,0,1.3,1.329,4.188,4.188,0,0,0,1.657.666c1.574.242,2.165-1.389,1.554-2.929-.54-1.389-2.013-3.182-3.506-2.722a2,2,0,0,0-.864.565,2.351,2.351,0,0,0-.521.958,2.554,2.554,0,0,0-.051,1.12,2.415,2.415,0,0,0,.43,1.013Z" transform="translate(15.351 16.069)" fill="#ffc3bd"/>
    <path id="Path_35151" data-name="Path 35151" d="M27.341,17.356c.066.491.345.855.633.807s.471-.491.406-.983-.345-.849-.628-.8S27.3,16.84,27.341,17.356Z" transform="translate(19.85 15.303)" fill="#263238"/>
    <path id="Path_35152" data-name="Path 35152" d="M30.332,16.95c.066.5.345.855.633.807s.471-.486.406-.967-.345-.855-.628-.807S30.271,16.459,30.332,16.95Z" transform="translate(22.017 14.932)" fill="#263238"/>
    <path id="Path_35153" data-name="Path 35153" d="M29.2,16.816l.249,4.159a2.076,2.076,0,0,0,.992-.045,2.24,2.24,0,0,0,.884-.506A8.627,8.627,0,0,0,29.2,16.816Z" transform="translate(21.2 15.715)" fill="#fcbab3"/>
    <path id="Path_35154" data-name="Path 35154" d="M26.49,17.453a.227.227,0,0,1-.136,0,.249.249,0,0,1-.116-.078.3.3,0,0,1-.064-.134.318.318,0,0,1,.007-.152,3.072,3.072,0,0,1,.574-1.216,2.648,2.648,0,0,1,1.005-.79.233.233,0,0,1,.1-.012.237.237,0,0,1,.1.033.268.268,0,0,1,.079.072.3.3,0,0,1,.048.1.331.331,0,0,1-.019.224.276.276,0,0,1-.154.145,2.115,2.115,0,0,0-.791.636,2.452,2.452,0,0,0-.448.969.3.3,0,0,1-.068.128.253.253,0,0,1-.115.073Z" transform="translate(19.002 14.084)" fill="#263238"/>
    <path id="Path_35155" data-name="Path 35155" d="M32.2,16.167a.222.222,0,0,1-.124-.025.252.252,0,0,1-.1-.091,2.138,2.138,0,0,0-.72-.72,1.868,1.868,0,0,0-.935-.268.261.261,0,0,1-.177-.1.331.331,0,0,1,0-.412.26.26,0,0,1,.177-.1,2.327,2.327,0,0,1,1.185.316,2.66,2.66,0,0,1,.919.9.308.308,0,0,1,.042.1.322.322,0,0,1,0,.114.311.311,0,0,1-.035.106.278.278,0,0,1-.069.083.238.238,0,0,1-.076.065.212.212,0,0,1-.093.026Z" transform="translate(21.836 13.51)" fill="#263238"/>
    <path id="Path_35156" data-name="Path 35156" d="M69.668,43.814A6.109,6.109,0,0,0,66.5,45.027L65.52,31.083a4.306,4.306,0,0,0-1.279-2.8,3.428,3.428,0,0,0-2.666-.974L25.261,30.52a3.57,3.57,0,0,0-2.493,1.435A4.461,4.461,0,0,0,21.9,34.94l2.867,40.7a4.3,4.3,0,0,0,1.276,2.8,3.419,3.419,0,0,0,2.668.971L65.018,76.2a3.564,3.564,0,0,0,2.5-1.431,4.455,4.455,0,0,0,.871-2.989L67.4,57.863a5.921,5.921,0,0,0,3.306.667,6.524,6.524,0,0,0,4.11-2.75A8.046,8.046,0,0,0,76.2,50.642a7.79,7.79,0,0,0-2.078-4.832,6.249,6.249,0,0,0-4.444-1.994Z" transform="translate(15.893 25.513)" fill="#fbbc05"/>
    <path id="Path_35157" data-name="Path 35157" d="M26.3,38.04l-.54,1.116-.621,1.25c-.4.849-.811,1.7-1.184,2.559q-1.128,2.516-2.018,5.154a25.949,25.949,0,0,0-.73,2.515A21.218,21.218,0,0,0,20.7,53.06a14.154,14.154,0,0,0-.114,4l-1.245-2.426a9.824,9.824,0,0,0,1.833,2.1A28.126,28.126,0,0,0,24.055,59c1.036.753,2.165,1.474,3.288,2.194l1.726,1.074c.54.364,1.189.727,1.7,1.079l.259.176A3.364,3.364,0,0,1,32.3,65.2a3.825,3.825,0,0,1,.094,2.2,3.464,3.464,0,0,1-1.115,1.809,2.847,2.847,0,0,1-1.865.68c-.822,0-1.526-.06-2.284-.128s-1.478-.17-2.213-.3a32.837,32.837,0,0,1-4.431-1.068,26.945,26.945,0,0,1-4.488-1.873A17.523,17.523,0,0,1,11.333,63,4.8,4.8,0,0,1,10.25,61.09l-.152-.522a24.946,24.946,0,0,1-.93-8.943,38.572,38.572,0,0,1,1.341-7.748,52.9,52.9,0,0,1,2.446-6.9c.471-1.091.953-2.171,1.493-3.219q.4-.792.822-1.577l.444-.787.233-.4.281-.466a6.083,6.083,0,0,1,3.754-2.858,5.509,5.509,0,0,1,4.472.869,6.788,6.788,0,0,1,2.676,4.109,7.505,7.505,0,0,1-.624,5.038Z" transform="translate(6.603 25.716)" fill="#ffc3bd"/>
    <path id="Path_35158" data-name="Path 35158" d="M21.793,25.35C12.817,30.722,9.48,42.72,9.48,42.72c1.775,3.79,12.475,7.881,16.5,6.771A54.637,54.637,0,0,0,30.64,34.564C31.368,28.03,27.046,22.207,21.793,25.35Z" transform="translate(6.884 22.87)" fill="#263238"/>
    <path id="Path_35159" data-name="Path 35159" d="M20.25,47.852l.185,3.917c1.483,3.77,5.475.8,5.475.8l2.439-.557a1.879,1.879,0,0,0,1.038-.832,2.276,2.276,0,0,0,.313-1.387l-.109-2.733a2.332,2.332,0,0,0-.518-1.541,1.862,1.862,0,0,0-1.333-.694l-2.165.1a3.525,3.525,0,0,0-1.79.606Z" transform="translate(14.705 41.886)" fill="#ffc3bd"/>
  </g>
</svg>
