<svg xmlns="http://www.w3.org/2000/svg" width="230.561" height="205.252" viewBox="0 0 230.561 205.252">
  <g id="Login" transform="translate(-73.469 -86.018)">
    <g id="freepik--background-simple--inject-1" transform="translate(73.469 86.017)">
      <path id="Path_35160" data-name="Path 35160" d="M270.252,103.468V90a88.96,88.96,0,0,0-29.092,13.456Z" transform="translate(-136.697 -87.519)" fill="#34a853"/>
      <rect id="Rectangle_4181" data-name="Rectangle 4181" width="71.24" height="88.421" transform="translate(137.61 20.802)" fill="#34a853"/>
      <path id="Path_35161" data-name="Path 35161" d="M244.74,119.41H208.977c-7.992,5.98-16.2,12.035-25.771,15.486-3.2,1.159-6.441,2.174-9.706,3.115v69.82h71.24Z" transform="translate(-111.186 -98.608)" fill="#34a853"/>
      <path id="Path_35162" data-name="Path 35162" d="M425.276,134.157A57.773,57.773,0,0,0,415.24,121v87.431h7.326C433.829,185.9,437.517,156.365,425.276,134.157Z" transform="translate(-202.334 -99.207)" fill="#34a853"/>
      <path id="Path_35163" data-name="Path 35163" d="M131.734,151.1c-3.881,1.065-7.793,2.068-11.705,3.115-30.655,8.192-49.661,35.739-46.142,65.565h57.847Z" transform="translate(-73.469 -110.557)" fill="#34a853"/>
      <path id="Path_35164" data-name="Path 35164" d="M415.24,269.136v7.282q1.352-1.807,2.585-3.738c.735-1.152,1.445-2.342,2.143-3.551Z" transform="translate(-202.334 -155.06)" fill="#34a853"/>
      <path id="Path_35165" data-name="Path 35165" d="M365.61,269.14H294.37v37.29c5.924.075,11.8.548,17.791-.106,19.673-2.143,39.831-10.191,53.449-25.03Z" transform="translate(-156.76 -155.064)" fill="#34a853"/>
      <path id="Path_35166" data-name="Path 35166" d="M294.37,101.966h68.487c-13.9-10.353-31.92-15.5-48.976-15.91a90.091,90.091,0,0,0-19.511,1.551Z" transform="translate(-156.76 -86.017)" fill="#34a853"/>
      <path id="Path_35167" data-name="Path 35167" d="M244.74,269.14H173.5v53.075c12.353.212,24.762-3.339,36.474-7.313,9.307-3.152,18.688-6.416,28.519-7.887a53.193,53.193,0,0,1,6.23-.536Z" transform="translate(-111.186 -155.064)" fill="#34a853"/>
      <path id="Path_35168" data-name="Path 35168" d="M132.455,269.14H75.38c4.5,21.8,21.853,41.681,43.681,49.867a50.1,50.1,0,0,0,13.393,3Z" transform="translate(-74.19 -155.064)" fill="#34a853"/>
      <g id="Group_33354" data-name="Group 33354" opacity="0.7">
        <path id="Path_35169" data-name="Path 35169" d="M270.252,103.468V90a88.96,88.96,0,0,0-29.092,13.456Z" transform="translate(-136.697 -87.519)" fill="#fff"/>
        <rect id="Rectangle_4182" data-name="Rectangle 4182" width="71.24" height="88.421" transform="translate(137.61 20.802)" fill="#fff"/>
        <path id="Path_35170" data-name="Path 35170" d="M244.74,119.41H208.977c-7.992,5.98-16.2,12.035-25.771,15.486-3.2,1.159-6.441,2.174-9.706,3.115v69.82h71.24Z" transform="translate(-111.186 -98.608)" fill="#fff"/>
        <path id="Path_35171" data-name="Path 35171" d="M425.276,134.157A57.773,57.773,0,0,0,415.24,121v87.431h7.326C433.829,185.9,437.517,156.365,425.276,134.157Z" transform="translate(-202.334 -99.207)" fill="#fff"/>
        <path id="Path_35172" data-name="Path 35172" d="M131.734,151.1c-3.881,1.065-7.793,2.068-11.705,3.115-30.655,8.192-49.661,35.739-46.142,65.565h57.847Z" transform="translate(-73.469 -110.557)" fill="#fff"/>
        <path id="Path_35173" data-name="Path 35173" d="M415.24,269.136v7.282q1.352-1.807,2.585-3.738c.735-1.152,1.445-2.342,2.143-3.551Z" transform="translate(-202.334 -155.06)" fill="#fff"/>
        <path id="Path_35174" data-name="Path 35174" d="M365.61,269.14H294.37v37.29c5.924.075,11.8.548,17.791-.106,19.673-2.143,39.831-10.191,53.449-25.03Z" transform="translate(-156.76 -155.064)" fill="#fff"/>
        <path id="Path_35175" data-name="Path 35175" d="M294.37,101.966h68.487c-13.9-10.353-31.92-15.5-48.976-15.91a90.091,90.091,0,0,0-19.511,1.551Z" transform="translate(-156.76 -86.017)" fill="#fff"/>
        <path id="Path_35176" data-name="Path 35176" d="M244.74,269.14H173.5v53.075c12.353.212,24.762-3.339,36.474-7.313,9.307-3.152,18.688-6.416,28.519-7.887a53.193,53.193,0,0,1,6.23-.536Z" transform="translate(-111.186 -155.064)" fill="#fff"/>
        <path id="Path_35177" data-name="Path 35177" d="M132.455,269.14H75.38c4.5,21.8,21.853,41.681,43.681,49.867a50.1,50.1,0,0,0,13.393,3Z" transform="translate(-74.19 -155.064)" fill="#fff"/>
      </g>
    </g>
    <g id="freepik--Characters--inject-1" transform="translate(103.708 108.541)">
      <ellipse id="Ellipse_1607" data-name="Ellipse 1607" cx="26.151" cy="5.663" rx="26.151" ry="5.663" transform="translate(0 170.268)" fill="#34a853"/>
      <ellipse id="Ellipse_1608" data-name="Ellipse 1608" cx="26.151" cy="5.663" rx="26.151" ry="5.663" transform="translate(0 170.268)" fill="#f5f5f5"/>
      <ellipse id="Ellipse_1609" data-name="Ellipse 1609" cx="26.151" cy="5.663" rx="26.151" ry="5.663" transform="translate(94.888 170.268)" fill="#34a853"/>
      <ellipse id="Ellipse_1610" data-name="Ellipse 1610" cx="26.151" cy="5.663" rx="26.151" ry="5.663" transform="translate(94.888 170.268)" fill="#f5f5f5"/>
      <path id="Path_35191" data-name="Path 35191" d="M244.271,238.63a8.721,8.721,0,0,1,2.641,2.573c.785,1.427,4.074,2.355,4.074,2.355H252.2l.5,5.712a29.45,29.45,0,0,0-3.738.361,12.232,12.232,0,0,1-2.218.28s-3.856-4.853-4.5-5.781a4.2,4.2,0,0,1-.424-3.214C242.109,240.555,244.271,238.63,244.271,238.63Z" transform="translate(-167.125 -166.084)" fill="#fff" stroke="#263238" stroke-linecap="round" stroke-linejoin="round" stroke-width="0.75"/>
      <path id="Path_35192" data-name="Path 35192" d="M236.724,254.165s-2.143.716-1.215,1.289a2.523,2.523,0,0,0,2.859-.573C238.723,254.308,237.6,253.878,236.724,254.165Z" transform="translate(-164.717 -171.907)" fill="#fff" stroke="#263238" stroke-linecap="round" stroke-linejoin="round" stroke-width="0.75"/>
      <path id="Path_35193" data-name="Path 35193" d="M233.507,242.416s6.354-2.286,6.641-2.074a8.8,8.8,0,0,1,.785,2.143s4.423,2.641,4.784,3.644a13.014,13.014,0,0,1,0,4.71,4.968,4.968,0,0,1-1.869.928,2.822,2.822,0,0,1-1.358,0c-.212-.069-3.644-2.492-3.644-2.492s-3.495.355-4.28.355-1.576-.069-1.576-.069Z" transform="translate(-163.855 -166.724)" fill="#fff" stroke="#263238" stroke-linecap="round" stroke-linejoin="round" stroke-width="0.75"/>
      <path id="Path_35194" data-name="Path 35194" d="M246.54,248a13.488,13.488,0,0,1,2.859,2,16.3,16.3,0,0,1,1,3.788" transform="translate(-168.964 -169.617)" fill="none" stroke="#263238" stroke-linecap="round" stroke-linejoin="round" stroke-width="0.75"/>
      <path id="Path_35195" data-name="Path 35195" d="M244.94,250.1s2.785,1.5,3.065,2.211a22.427,22.427,0,0,1,.623,2.785" transform="translate(-168.361 -170.409)" fill="none" stroke="#263238" stroke-linecap="round" stroke-linejoin="round" stroke-width="0.75"/>
      <path id="Path_35196" data-name="Path 35196" d="M244.16,239.96a37.7,37.7,0,0,1-3.788,3.788c-.716.361-.853-.075-1.246-.361s2.286-4.136,2.218-4.423a2.087,2.087,0,0,1,2.567.069" transform="translate(-166.154 -166.056)" fill="#fff" stroke="#263238" stroke-linecap="round" stroke-linejoin="round" stroke-width="0.75"/>
      <path id="Path_35197" data-name="Path 35197" d="M239.695,252.45l-.112.386a7.954,7.954,0,0,0-.392,2.112c.143.287,1,.573,1.29.143a7.577,7.577,0,0,0,.71-2.853C241.046,251.952,240.486,250.712,239.695,252.45Z" transform="translate(-166.193 -170.953)" fill="#fff" stroke="#263238" stroke-linecap="round" stroke-linejoin="round" stroke-width="0.75"/>
      <path id="Path_35198" data-name="Path 35198" d="M243.733,252.09c-.224.28-1.246,3.358-1,3.738s1.283.5,1.57.075,1.283-3.115,1-3.738S244.755,250.875,243.733,252.09Z" transform="translate(-167.515 -170.903)" fill="#fff" stroke="#263238" stroke-linecap="round" stroke-linejoin="round" stroke-width="0.75"/>
      <path id="Path_35199" data-name="Path 35199" d="M246.558,253.092l-.106.249c-.311.741-1.2,2.978-.966,3.4s1.638.623,1.925-.068,1.29-3.358.623-4a.841.841,0,0,0-1.476.424Z" transform="translate(-168.552 -171.264)" fill="#fff" stroke="#263238" stroke-linecap="round" stroke-linejoin="round" stroke-width="0.75"/>
      <path id="Path_35200" data-name="Path 35200" d="M167.658,155.9a8.024,8.024,0,0,1-.056,3.214c-.43.916-1.071,2.834-1.071,2.834l9.481,8.41s2.89-3.644,3.426-4.361,1.246-1.663,1.246-1.663-4.66-2.947-5.607-5.089-.48-4.871-2.492-5.3S168.249,154.616,167.658,155.9Z" transform="translate(-138.796 -134.117)" fill="#fff" stroke="#263238" stroke-linecap="round" stroke-linejoin="round" stroke-width="0.75"/>
      <path id="Path_35201" data-name="Path 35201" d="M184.433,129.765s3.962-.056,3.158-3.856-10.067-4.61-11.78-2.841-1.445,2.492-1.445,2.492-7.98-.212-10.017,4.124-1.121,9.967.218,12.907,3.588,3.264,4.766,2.89,2.031-1.071,2.031-2.143.754-3.638,1.663-3,1.869.853,3.482-.7,3.906-3.482,3.052-5.033-2.3-1.607-1.5-2.3,5.357-1.246,5.781-1.713a3.563,3.563,0,0,0,.592-.829Z" transform="translate(-137.525 -122.174)" fill="#263238" stroke="#263238" stroke-linecap="round" stroke-linejoin="round" stroke-width="0.75"/>
      <path id="Path_35202" data-name="Path 35202" d="M185.277,130.7s.561,1.128-4.772,2.529-14.328,1.682-14.6,5.052" transform="translate(-138.563 -125.389)" fill="none" stroke="#fff" stroke-linecap="round" stroke-linejoin="round" stroke-width="0.75"/>
      <path id="Path_35203" data-name="Path 35203" d="M175.285,141.07s-6.454,1.962-7.862,4.211a3.482,3.482,0,0,0,.567,4.2" transform="translate(-138.942 -129.299)" fill="none" stroke="#fff" stroke-linecap="round" stroke-linejoin="round" stroke-width="0.75"/>
      <path id="Path_35204" data-name="Path 35204" d="M187.482,134.36a53.292,53.292,0,0,1,1.5,6.1c0,1.022-1.071,2.031-.592,3.158s2.087,3.32,2.087,4.018-2.355,1.389-2.355,1.389-1.981,7.475-2.411,8.41-1.869,1.071-3.588.623-6.261-2.841-7.475-4.709-.324-5.04-.324-5.04a5.625,5.625,0,0,1-3-3.476c-.5-2.355,1.339-3.912,2.947-3.376a3.389,3.389,0,0,1,2.087,1.769s.162.586.623.43.91-1.128,1.339-1.184,3.482-1.121,3.115-2.3-4.18-1.246-3.912-2.573S187.482,134.36,187.482,134.36Z" transform="translate(-140.574 -126.769)" fill="#fff" stroke="#263238" stroke-linecap="round" stroke-linejoin="round" stroke-width="0.75"/>
      <line id="Line_5" data-name="Line 5" x1="1.551" y2="1.071" transform="translate(40.591 21.19)" fill="#fff" stroke="#263238" stroke-linecap="round" stroke-linejoin="round" stroke-width="0.75"/>
      <path id="Path_35205" data-name="Path 35205" d="M188.71,157.31a3.26,3.26,0,0,0,2.492,1.713" transform="translate(-147.159 -135.422)" fill="#fff" stroke="#263238" stroke-linecap="round" stroke-linejoin="round" stroke-width="0.75"/>
      <path id="Path_35206" data-name="Path 35206" d="M188.589,157.91s-.91,2.492.212,3.052,1.607-1.763,1.607-1.763Z" transform="translate(-146.983 -135.649)"/>
      <path id="Path_35207" data-name="Path 35207" d="M197.76,148.436c-.062,1.3-.392,2.342-.735,2.324s-.561-1.084-.492-2.386.392-2.336.735-2.324S197.828,147.134,197.76,148.436Z" transform="translate(-150.104 -131.177)" fill="#fff" stroke="#263238" stroke-linecap="round" stroke-linejoin="round" stroke-width="0.75"/>
      <line id="Line_6" data-name="Line 6" x1="10.927" transform="translate(35.502 15.945)" fill="#fff" stroke="#263238" stroke-linecap="round" stroke-linejoin="round" stroke-width="0.75"/>
      <path id="Path_35208" data-name="Path 35208" d="M195.33,144.621a1.937,1.937,0,0,1,1.177-1.289c.916-.268,1.071.218,1.071.218" transform="translate(-149.655 -130.121)" fill="#fff" stroke="#263238" stroke-linecap="round" stroke-linejoin="round" stroke-width="0.75"/>
      <path id="Path_35209" data-name="Path 35209" d="M134.734,290.527l33.2-1s2.068,22.987,1.57,23.491-33.415,1.869-33.415,1.869-2.548.181-2.909-.959S134.734,290.527,134.734,290.527Z" transform="translate(-126.205 -185.276)" fill="#fff" stroke="#263238" stroke-linecap="round" stroke-linejoin="round" stroke-width="0.75"/>
      <path id="Path_35210" data-name="Path 35210" d="M134.1,291.13s-3.115,22.775-2.573,23.423,3.115,1.115,3.931.928C136.21,315.344,134.1,291.13,134.1,291.13Z" transform="translate(-125.576 -185.879)" fill="#fff" stroke="#263238" stroke-linecap="round" stroke-linejoin="round" stroke-width="0.75"/>
      <path id="Path_35211" data-name="Path 35211" d="M149.955,390.4c-1.825,1.115-2.71,3-2.28,4.5s.567,1.645,1.713,1.869,6.279-.573,11.836-1.5,6.36-1.14,6.852-1.925,1.358-1.57-4.143-2.492-6-1.931-6-1.931S152.883,388.613,149.955,390.4Z" transform="translate(-131.647 -222.743)" fill="#263238" stroke="#263238" stroke-linecap="round" stroke-linejoin="round" stroke-width="0.75"/>
      <path id="Path_35212" data-name="Path 35212" d="M168.215,393.69c-.374.766-1.545,2.143-5.227,2.585-3.893.467-10.939,1.171-14.658,1.489.255.53.567.623,1.346.8,1.14.212,6.279-.573,11.836-1.5s6.36-1.14,6.852-1.925C168.682,394.662,169.112,394.188,168.215,393.69Z" transform="translate(-131.934 -224.55)" fill="#263238" stroke="#263238" stroke-linecap="round" stroke-linejoin="round" stroke-width="0.75"/>
      <path id="Path_35213" data-name="Path 35213" d="M161.278,394.4s5.712,2.716,8.858,3.358,3.925.716,3.569,1.713-.43,1.289-5.214,2.429-10-.143-12.285-.573-3,.218-3.993-.212-.716-2.573-.716-2.573Z" transform="translate(-133.115 -224.818)" fill="#263238" stroke="#263238" stroke-linecap="round" stroke-linejoin="round" stroke-width="0.75"/>
      <path id="Path_35214" data-name="Path 35214" d="M168.517,405.117c4.018-.959,4.709-1.314,5.04-2-4.361,1.869-10.142,1.1-14.552.592-2.841-.33-5.55-.623-7.475-.779a1.6,1.6,0,0,0,.729,1.4c1,.43,1.713-.212,3.993.212S163.733,406.257,168.517,405.117Z" transform="translate(-133.14 -228.034)" fill="#263238" stroke="#263238" stroke-linecap="round" stroke-linejoin="round" stroke-width="0.75"/>
      <path id="Path_35215" data-name="Path 35215" d="M151.933,309.994s-1,8.136-3,11.637-4.709,5.924-5.139,11,1,25.778,1.14,27.565-.623,2.355.143,3.495a19.871,19.871,0,0,0,1.57,2l2.361-2.068s1.713-5.5,1.283-16-.355-17.561,1.5-24.563,2.211-8.852,1.352-11.568S151.933,309.994,151.933,309.994Z" transform="translate(-130.192 -192.889)" fill="#263238" stroke="#263238" stroke-linecap="round" stroke-linejoin="round" stroke-width="0.75"/>
      <path id="Path_35216" data-name="Path 35216" d="M149.274,282.356s2.355,4.442,2.89,5.607,1.763,14.677.8,19.174-4.7,12.141-4.361,18.85.623,24.494.623,24.706a8.1,8.1,0,0,0,0,3.214,3.445,3.445,0,0,0,1.427,2.492,35.763,35.763,0,0,1,5.638-2.068c3.5-1,4.5-2.429,4.5-2.429a25.757,25.757,0,0,0-1.071-2.716c-.5-1-1.352-2.567-1.209-3.071s1.071-16.919,2.928-22.345,2.922-11.138,4.5-16.141,5.332-18.4,5.332-21.828V281.59l-22.277-.43Z" transform="translate(-132.03 -182.12)" fill="#263238" stroke="#263238" stroke-linecap="round" stroke-linejoin="round" stroke-width="0.75"/>
      <path id="Path_35217" data-name="Path 35217" d="M151.193,334.44c-.623,1.912-1.314,4.055-1.838,5.756-1.246,4.049,0,26.787,0,26.787a42.8,42.8,0,0,1,.118,4.984c-.118,2.062,0,2.878.511,3.432" transform="translate(-132.112 -202.209)" fill="none" stroke="#fff" stroke-linecap="round" stroke-linejoin="round" stroke-width="0.75"/>
      <path id="Path_35218" data-name="Path 35218" d="M154.538,326.68s-.461,1.377-1.078,3.264" transform="translate(-133.868 -199.284)" fill="none" stroke="#fff" stroke-linecap="round" stroke-linejoin="round" stroke-width="0.75"/>
      <path id="Path_35219" data-name="Path 35219" d="M164.13,163.76a21.387,21.387,0,0,1,6.229,4.124c3.738,3.27,7.55,6.373,6.747,7.475a36.5,36.5,0,0,0-2.3,4.984,24.893,24.893,0,0,0-5.513-5.607c-4.124-3.3-7.288-6.267-7.288-6.267S163.7,164.458,164.13,163.76Z" transform="translate(-137.088 -137.854)" fill="#fff" stroke="#263238" stroke-linecap="round" stroke-linejoin="round" stroke-width="0.75"/>
      <path id="Path_35220" data-name="Path 35220" d="M152.515,172.18s-7.98,5.675-9.344,11.138-1.931,8.142-1.819,18.583.748,17.031.748,17.511S140,239.284,140,239.5s3.738,3.644,14.191,3.856a125.918,125.918,0,0,0,21.18-1.657L170.817,204.1s-1.769-16.016-3.588-19.012S152.515,172.18,152.515,172.18Z" transform="translate(-128.793 -141.029)" fill="#34a853" stroke="#263238" stroke-linecap="round" stroke-linejoin="round" stroke-width="0.75"/>
      <path id="Path_35221" data-name="Path 35221" d="M167.48,255.634s6.641,1.339,11.213-.324" transform="translate(-139.155 -172.373)" fill="none" stroke="#263238" stroke-linecap="round" stroke-linejoin="round" stroke-width="0.75"/>
      <path id="Path_35222" data-name="Path 35222" d="M167.48,258.808s6.641,1.339,11.213-.318" transform="translate(-139.155 -173.572)" fill="none" stroke="#263238" stroke-linecap="round" stroke-linejoin="round" stroke-width="0.75"/>
      <path id="Path_35223" data-name="Path 35223" d="M231.377,241.96l1.645.785-1,7.426-1.638-.287Z" transform="translate(-162.871 -167.34)" fill="#fff" stroke="#263238" stroke-linecap="round" stroke-linejoin="round" stroke-width="0.75"/>
      <path id="Path_35224" data-name="Path 35224" d="M166.089,187.86a5.432,5.432,0,0,0-2.423,1.57c-1.071,1.246-6.852,8.422-6.429,11.568s7.943,14.633,10.434,18.209a26.015,26.015,0,0,0,12.627,9.855c6.286,2.286,22.638,1.146,22.638,1.146l.866-8.865s-8.921-2.853-15.063-4.709a76.08,76.08,0,0,1-10-3.738s-1.427-3.5-2.43-4.068-1.14-.928-1.14-.928-1.925-10.5-2.928-13.929-2.355-4.28-2.355-4.28" transform="translate(-135.284 -146.941)" fill="#34a853" stroke="#263238" stroke-linecap="round" stroke-linejoin="round" stroke-width="0.75"/>
      <path id="Path_35225" data-name="Path 35225" d="M298.231,388.65a62.357,62.357,0,0,1-7.924,3.856c-3.644,1.358-4.5,1.869-3.788,2.641s6.927,1.358,10.422.623,4.859-1.208,6.429-1.14,3.738.5,4.5-.573,1.071-1.283.5-3.071S298.231,388.65,298.231,388.65Z" transform="translate(-183.951 -222.649)" fill="#263238" stroke="#263238" stroke-linecap="round" stroke-linejoin="round" stroke-width="0.75"/>
      <path id="Path_35226" data-name="Path 35226" d="M296.95,397.922c3.5-.71,4.859-1.209,6.429-1.14s3.738.5,4.5-.573c.561-.766.866-1.1.785-1.869-2.542-.212-7.444.592-13.287,1.869a24.226,24.226,0,0,1-9.039.461.579.579,0,0,0,.193.623C287.244,398.065,293.455,398.638,296.95,397.922Z" transform="translate(-183.959 -224.782)" fill="#263238" stroke="#263238" stroke-linecap="round" stroke-linejoin="round" stroke-width="0.75"/>
      <path id="Path_35227" data-name="Path 35227" d="M320.706,396.22a50.778,50.778,0,0,1-4.566,4.361c-2.361,1.925-6.429,4.572-6,5.712s3.351,2.211,9.494.623a35.782,35.782,0,0,0,11-5.139,2.753,2.753,0,0,0,1.713-1.072,2.938,2.938,0,0,0-.069-2.211Z" transform="translate(-192.933 -225.504)" fill="#263238" stroke="#263238" stroke-linecap="round" stroke-linejoin="round" stroke-width="0.75"/>
      <path id="Path_35228" data-name="Path 35228" d="M320.023,408.407a35.781,35.781,0,0,0,11-5.139,2.753,2.753,0,0,0,1.713-1.072,2.691,2.691,0,0,0,0-2.056c-8.883,6.722-17.193,8.1-21.591,8.3C312.3,409.235,315.152,409.652,320.023,408.407Z" transform="translate(-193.322 -226.982)" fill="#263238" stroke="#263238" stroke-linecap="round" stroke-linejoin="round" stroke-width="0.75"/>
      <path id="Path_35229" data-name="Path 35229" d="M302.491,261.3a16.212,16.212,0,0,1-6.5-.5c-2.716-1-5.283-1.782-5.283-1.782s-1.5,19.492.143,27.347,6,17.443,6.068,19.635a46.726,46.726,0,0,0,.928,7.849c.5,2,2.928,17.443,3.071,19.137a11.6,11.6,0,0,1,0,2.573s-1.713.573-1.713,1.072v3.638a23.823,23.823,0,0,0,4.429,1.788c2.641.785,6.354,1.427,6.354,1.427a39.087,39.087,0,0,0,.71-4.361c0-1-.623-3.638-.623-5.071s.361-18.564.361-18.564,3.495,14.639,3.495,19.492-.068,6.429-.068,6.429-1.57-.5-1.57.573-.075,3.638-.075,3.638,5.569,1.427,8.21,2.211a10.491,10.491,0,0,0,4.859.287s1.427-5.426,1.283-7.207-1.925-3.289-1.925-4.286.928-10.852-.43-19.424-4.928-12.5-5.071-16.707.623-19.349.716-21.8,2.567-7.569,2.928-9.855a76.817,76.817,0,0,0,.069-9.064S306.851,262.085,302.491,261.3Z" transform="translate(-185.383 -173.772)" fill="#263238" stroke="#263238" stroke-linecap="round" stroke-linejoin="round" stroke-width="0.75"/>
      <line id="Line_7" data-name="Line 7" x2="3.856" y2="2.498" transform="translate(110.281 97.314)" fill="none" stroke="#fff" stroke-linecap="round" stroke-linejoin="round" stroke-width="0.75"/>
      <path id="Path_35230" data-name="Path 35230" d="M321.38,346.16c.536,1.389.866,2.193.866,2.193" transform="translate(-197.183 -206.629)" fill="none" stroke="#fff" stroke-linecap="round" stroke-linejoin="round" stroke-width="0.75"/>
      <path id="Path_35231" data-name="Path 35231" d="M303.17,281.37s2.567,15.063,5.638,24.488c1.576,4.834,3.264,9.469,4.535,12.827" transform="translate(-190.317 -182.199)" fill="none" stroke="#fff" stroke-linecap="round" stroke-linejoin="round" stroke-width="0.75"/>
      <path id="Path_35232" data-name="Path 35232" d="M256.63,242.557c.069.212.424,8,.424,8l20.495-1.869-.424-10.067Z" transform="translate(-172.769 -166.08)" fill="#263238" stroke="#263238" stroke-linecap="round" stroke-linejoin="round" stroke-width="0.75"/>
      <path id="Path_35233" data-name="Path 35233" d="M311.379,177.089s-4.641,1.638-5.569,2.785-6.429,20.489-8.235,26.2-2.355,22.993-2.355,22.993a19.606,19.606,0,0,0,3.071.86,15.742,15.742,0,0,0,3.115.212s6-20.208,8.927-27.129,7.849-16.851,9.712-20.707,3.495-4.572,3.283-6.429-1.071-2.573-2.143-2.716S311.379,177.089,311.379,177.089Z" transform="translate(-187.319 -141.396)" fill="#fff" stroke="#263238" stroke-linecap="round" stroke-linejoin="round" stroke-width="0.75"/>
      <path id="Path_35234" data-name="Path 35234" d="M312.324,176.179s-4.641,1.638-5.569,2.785-6.423,20.489-8.192,26.2-2.373,22.993-2.373,22.993a19.607,19.607,0,0,0,3.071.86,16.3,16.3,0,0,0,3.115.212s6-20.208,8.927-27.136,7.855-16.82,9.712-20.707,3.495-4.566,3.283-6.423-1.071-2.573-2.143-2.716S312.324,176.179,312.324,176.179Z" transform="translate(-187.685 -141.053)" fill="#34a853" stroke="#263238" stroke-linecap="round" stroke-linejoin="round" stroke-width="0.75"/>
      <path id="Path_35235" data-name="Path 35235" d="M321.3,179.265a121.467,121.467,0,0,0-7.637,15.5c-2.928,7.569-5.283,14.328-8.285,24.42a51.225,51.225,0,0,0-1.782,19.205s1.427,2.43,9.855,2.716,18.994-2.429,18.994-2.429a132.257,132.257,0,0,1-1.576-13.636c-.143-5.065,3.931-22.85,5.644-27.491s5.426-9.282,1.869-13.78-12.066-9.568-12.066-9.568S322.227,177.695,321.3,179.265Z" transform="translate(-190.386 -141.791)" fill="#263238" stroke="#263238" stroke-linecap="round" stroke-linejoin="round" stroke-width="0.75"/>
      <path id="Path_35236" data-name="Path 35236" d="M304.157,182.038a31,31,0,0,0-4.211,8.721c-2,5.937-5.712,21.71-7.426,28.419s-2.573,21.635-2.573,21.635-.928-.069-2.853-.069a8.628,8.628,0,0,1-3.644-.928s1.358-14.639,2.573-21.492,4.784-19.068,5.426-23.853.853-5.993,1.713-6.641,7.569-4.709,8.927-5.638S304.157,182.038,304.157,182.038Z" transform="translate(-182.881 -144.632)" fill="#263238" stroke="#263238" stroke-linecap="round" stroke-linejoin="round" stroke-width="0.75"/>
      <path id="Path_35237" data-name="Path 35237" d="M330.588,176.72s-4.068,8.067-5.139,9.568A19.416,19.416,0,0,0,323.8,189l-3.569,1.358,1.427,2.286s-7.207,12.907-9.064,17.206-3.738,8.927-3.738,8.927" transform="translate(-192.462 -142.741)" fill="none" stroke="#fff" stroke-linecap="round" stroke-linejoin="round" stroke-width="0.75"/>
      <path id="Path_35238" data-name="Path 35238" d="M296.556,235.07c-.131,1.427-.156,1.993-.156,1.993" transform="translate(-187.764 -164.742)" fill="none" stroke="#fff" stroke-linecap="round" stroke-linejoin="round" stroke-width="0.75"/>
      <path id="Path_35239" data-name="Path 35239" d="M305.647,186.23l-4,6.142.928,1.427-2.218,2.716s-2.355,9.78-3,15.063c-.125,1.028-.23,1.925-.311,2.7" transform="translate(-188.009 -146.327)" fill="none" stroke="#fff" stroke-linecap="round" stroke-linejoin="round" stroke-width="0.75"/>
      <path id="Path_35240" data-name="Path 35240" d="M311.635,181.99l-.785,3.781,4.068-2.71Z" transform="translate(-193.212 -144.728)" fill="#fff" stroke="#263238" stroke-linecap="round" stroke-linejoin="round" stroke-width="0.75"/>
      <path id="Path_35241" data-name="Path 35241" d="M315.536,177.18c-.075.212-3.426,3-3.426,3l3.781,1.57.785-3.071Z" transform="translate(-193.687 -142.914)" fill="#fff" stroke="#263238" stroke-linecap="round" stroke-linejoin="round" stroke-width="0.75"/>
      <path id="Path_35242" data-name="Path 35242" d="M310.414,130.57a9.413,9.413,0,0,0-3.644,4.211c-1.283,2.928-2.28,4.143-1.993,5.071a9.86,9.86,0,0,1,.424,1.931c0,.212-3,3.071-3.071,3.925s1.931,2.429,1.931,2.429.212,4.928.212,5.357a3.263,3.263,0,0,0,2.218,3.208,8.908,8.908,0,0,0,4.28-.069l1.358,7s9.5-5.856,10.5-6.354,2.211-1.14,2.286-1.925-.573-5.146-.573-5.146,5.071-4.641,4.984-10.067-2.978-8.852-8.267-10.466S310.414,130.57,310.414,130.57Z" transform="translate(-189.923 -124.798)" fill="#fff" stroke="#263238" stroke-linecap="round" stroke-linejoin="round" stroke-width="0.75"/>
      <path id="Path_35243" data-name="Path 35243" d="M333.64,140.114c-.069-5.426-3-8.852-8.279-10.5s-10.64.928-10.64.928a7.537,7.537,0,0,0-1.171.866c1.744-.311,4.616-.53,6.672.779,3.115,2,1.14,4,.069,5.071s-1.283,1.5-.5,2.492,2.286,1,1.925,1.925-1.427,2.218-.567,2.573,1.638-.43,2-1.5,2.137-1.071,2.853,1.146a4.23,4.23,0,0,1-1.5,4.641,2.941,2.941,0,0,1-2,.567,18.067,18.067,0,0,0,3.856,1.433,7.214,7.214,0,0,0,2.311-.181v-.181S333.715,145.54,333.64,140.114Z" transform="translate(-194.23 -124.774)" fill="#263238" stroke="#263238" stroke-linecap="round" stroke-linejoin="round" stroke-width="0.75"/>
      <path id="Path_35244" data-name="Path 35244" d="M311.975,150.667c0,.554-.174,1-.392,1s-.392-.449-.392-1,.174-1,.392-1S311.975,150.119,311.975,150.667Z" transform="translate(-193.341 -132.542)"/>
      <path id="Path_35245" data-name="Path 35245" d="M309.47,145.9s.287-1,1.869-.928,1.645,1.215,1.645,1.215" transform="translate(-192.692 -130.767)" fill="#fff" stroke="#263238" stroke-linecap="round" stroke-linejoin="round" stroke-width="0.75"/>
      <path id="Path_35246" data-name="Path 35246" d="M305.23,158.384a2.884,2.884,0,0,0,2.641-.355c1.14-.928.212-1.719.212-1.719" transform="translate(-191.093 -135.045)" fill="#fff" stroke="#263238" stroke-linecap="round" stroke-linejoin="round" stroke-width="0.75"/>
      <path id="Path_35247" data-name="Path 35247" d="M305.186,160.3s3.781-1.869,5.494-1.925,3.5,2.878,2.8,5.37-1.5,3.738-3.925,4.716-4.716.785-5.139-.86,1.5-3.993,2.423-4.423,1.645-.5,1.5.287-.573,1.352,1.215,1,2.785-.853,2.853-2.785-.623-2.641-2.492-2.355a18.976,18.976,0,0,0-4.641,1.782Z" transform="translate(-190.763 -135.825)" fill="#263238" stroke="#263238" stroke-linecap="round" stroke-linejoin="round" stroke-width="0.75"/>
      <path id="Path_35248" data-name="Path 35248" d="M308.09,163.058s3-.143,4.074-1.358" transform="translate(-192.172 -137.078)" fill="#fff" stroke="#263238" stroke-linecap="round" stroke-linejoin="round" stroke-width="0.75"/>
      <path id="Path_35249" data-name="Path 35249" d="M326.6,161.13a3.943,3.943,0,0,1-1.433,3.071" transform="translate(-198.612 -136.863)" fill="#fff" stroke="#263238" stroke-linecap="round" stroke-linejoin="round" stroke-width="0.75"/>
      <path id="Path_35250" data-name="Path 35250" d="M318.18,179l2.074,4.784s7.849-5.856,9.78-8.142,3.426-3.426,2.355-4.984-2.641-.287-2.928-.143S318.18,179,318.18,179Z" transform="translate(-195.976 -140.165)" fill="#fff" stroke="#263238" stroke-linecap="round" stroke-linejoin="round" stroke-width="0.75"/>
      <path id="Path_35251" data-name="Path 35251" d="M281.836,240.09a75.135,75.135,0,0,1-2.137-8.815c-.43-2.735-.623-5.519-.623-5.519a30.848,30.848,0,0,1-9.973-2.641A35.668,35.668,0,0,1,263.39,220s6.354,20.707,7.644,25.061,1.57,5.283,1.57,5.283a26.724,26.724,0,0,0,6.423,2.218,34.148,34.148,0,0,0,5.357.567Z" transform="translate(-175.318 -159.06)" fill="#fff" stroke="#263238" stroke-linecap="round" stroke-linejoin="round" stroke-width="0.75"/>
      <path id="Path_35252" data-name="Path 35252" d="M294.785,250.632a17.381,17.381,0,0,1-4.361-1.427,10.59,10.59,0,0,0-3.351-1.246h-.287l.853,2.641a15.336,15.336,0,0,1-3.208.361c-1.713,0-5.289-.573-5.426-.361a4.878,4.878,0,0,0-.143,1.57c0,.5,2.567,3.576,4.068,4.647a7.6,7.6,0,0,0,4.211,1.782c1.358,0,8.64-1,8.64-1Z" transform="translate(-181.147 -169.602)" fill="#fff" stroke="#263238" stroke-linecap="round" stroke-linejoin="round" stroke-width="0.75"/>
      <path id="Path_35253" data-name="Path 35253" d="M324.73,200.953s.355,8,.573,13.78.573,6.286.573,6.286-16,6-18.427,6.5-4.28,1.072-4.28,1.072l1.071,7.781a44.778,44.778,0,0,0,15.574-1.427c7.787-2.286,19.779-4.572,20-5.638a37.892,37.892,0,0,0,0-4.984c0-.7-.218-16.066-.218-22.918s.5-8.428-.355-9.855-5.214-2.143-7.712-.716" transform="translate(-190.317 -147.768)" fill="#263238" stroke="#263238" stroke-linecap="round" stroke-linejoin="round" stroke-width="0.75"/>
      <path id="Path_35254" data-name="Path 35254" d="M318.39,233.684l13.225-4.591-1.171-17.623" transform="translate(-196.055 -155.843)" fill="none" stroke="#fff" stroke-linecap="round" stroke-linejoin="round" stroke-width="0.75"/>
      <line id="Line_8" data-name="Line 8" y1="0.66" x2="1.912" transform="translate(118.622 78.47)" fill="none" stroke="#fff" stroke-linecap="round" stroke-linejoin="round" stroke-width="0.75"/>
      <path id="Path_35255" data-name="Path 35255" d="M345.1,194.837s4.984-6.229,9.936-2.984" transform="translate(-206.126 -148.094)" fill="none" stroke="#fff" stroke-linecap="round" stroke-linejoin="round" stroke-width="0.75"/>
      <path id="Path_35256" data-name="Path 35256" d="M279.32,253.4s3.289,2.211,5.5,2.573" transform="translate(-181.324 -171.653)" fill="none" stroke="#263238" stroke-linecap="round" stroke-linejoin="round" stroke-width="0.75"/>
      <path id="Path_35257" data-name="Path 35257" d="M280.24,256.84a11.057,11.057,0,0,0,3.283,2l1.5.424" transform="translate(-181.671 -172.95)" fill="none" stroke="#263238" stroke-linecap="round" stroke-linejoin="round" stroke-width="0.75"/>
      <path id="Path_35258" data-name="Path 35258" d="M286,262.57a9.86,9.86,0,0,0,2.641.573" transform="translate(-183.843 -175.111)" fill="none" stroke="#263238" stroke-linecap="round" stroke-linejoin="round" stroke-width="0.75"/>
      <path id="Path_35259" data-name="Path 35259" d="M177.639,198.524s-.984-10.061-2.143-17.15c-.623-3.918-3-7.257-5.476-10.248-2.049-2.492-5.146-4.772-6.852-7.419-.592-.91-3.694,5.669-3.7,5.675-.623,1.4,6.759,5.843,7.756,6.852,1.308,1.308,2.492,2.853,3.682,4.261.542.623,1.969,3,2.785,3.2l1.321.33-.99,2.971Z" transform="translate(-136.119 -137.802)" fill="#34a853" stroke="#263238" stroke-linecap="round" stroke-linejoin="round" stroke-width="0.75"/>
    </g>
  </g>
</svg>
