<svg xmlns="http://www.w3.org/2000/svg" xmlns:xlink="http://www.w3.org/1999/xlink" width="269.999" height="209.132" viewBox="0 0 269.999 209.132">
  <defs>
    <filter id="Rectangle_765" x="58.222" y="40.132" width="149.304" height="119.739" filterUnits="userSpaceOnUse">
      <feOffset input="SourceAlpha"/>
      <feGaussianBlur stdDeviation="3" result="blur"/>
      <feFlood flood-opacity="0.161"/>
      <feComposite operator="in" in2="blur"/>
      <feComposite in="SourceGraphic"/>
    </filter>
  </defs>
  <g id="Check_your_email" data-name="Check your email" transform="translate(10180.656 9551.167)">
    <path id="Path_3117" data-name="Path 3117" d="M16.388,27.353C35.93-3.931,86.786-10.4,113.036,18.522S137.69,77.732,150.074,86.7s41.073-34.337,72.591-31.028,55.079,18.265,44.956,64.541-65.412,96.543-138.315,87.946S-38.585,115.35,16.388,27.353Z" transform="translate(-10180.656 -9551.167)" fill="#34a853" opacity="0.1"/>
    <g id="Group_248" data-name="Group 248" transform="translate(-10163.821 -9536.926)">
      <g transform="matrix(1, 0, 0, 1, -16.84, -14.24)" filter="url(#Rectangle_765)">
        <rect id="Rectangle_765-2" data-name="Rectangle 765" width="131.304" height="101.739" rx="8" transform="translate(67.22 49.13)" fill="#fff"/>
      </g>
      <g id="_27447eff" data-name="#27447eff" transform="translate(34.827 0)">
        <path id="Path_3043" data-name="Path 3043" d="M366.18,253.257l.529-.157c-.306,1.144-.627,2.284-.987,3.412-1.7,5.6-3.487,11.173-5.179,16.771-.56,1.822-1.14,3.635-1.677,5.461-.031.094-.086.278-.117.368-.184.58-.364,1.156-.537,1.739-3.122,10.233-6.35,20.426-9.441,30.667-3.389-2.856-6.742-5.755-10.166-8.568-4.634-3.9-9.238-7.839-13.892-11.713q-.752-.635-1.493-1.269c10.049-8.63,20.258-17.069,30.31-25.7,3.741-3.1,7.432-6.268,11.173-9.367A5.184,5.184,0,0,0,366.18,253.257Z" transform="translate(-323.22 -253.1)" fill="#fbbc05"/>
        <path id="Path_3044" data-name="Path 3044" d="M401.219,527.851a8.886,8.886,0,0,1,9.163-.043q4.237,2.591,8.47,5.195c12.2,7.565,24.508,14.953,36.688,22.549,10.252,6.092,20.3,12.524,30.561,18.608-.012,1.555,0,3.115-.008,4.678,0,2.879.012,5.759,0,8.638-.027,2.586.074,5.179-.051,7.765a6.411,6.411,0,0,1-4.443,4.392c-2.942.725-5.994.317-8.987.435q-24.493-.029-48.985-.031c-4.838.043-9.676.059-14.507-.086-6.527.263-13.061-.023-19.588.11-18.671-.016-37.342-.043-56.013.019a9.681,9.681,0,0,1-5.841-1.7,5.252,5.252,0,0,1-2.194-4.239c.016-2.641.012-5.281.027-7.917.039-4.047-.008-8.094.016-12.137a36.872,36.872,0,0,0,4.791-2.766c-.047-.18-.149-.537-.2-.717a17.176,17.176,0,0,0,3.318,1.528c.329-.376.646-.764.948-1.16-.545-.325-1.089-.643-1.641-.944,3.906-2.781,8.145-5.058,12.184-7.639,15.905-9.782,31.865-19.478,47.755-29.284q4.266-2.633,8.536-5.25m-33.946,21.284c.219,2.413,1.066,4.732,1.034,7.181a3.1,3.1,0,0,0,1.489-.325,12.984,12.984,0,0,0-.932-6.3c-.2-.709-1.058-.411-1.591-.56m-3.882,18c.3.36.407,1.2,1.046,1.073.517.016.772-.552,1.12-.842a15.53,15.53,0,0,0,2.825-4.6c.094-.748-.729-.87-1.2-1.163a25.364,25.364,0,0,1-3.788,5.532m-16.5-3.24a32.841,32.841,0,0,0,4.419,5.614c.505-.325,1.355-.772.862-1.493-1.128-1.493-2.382-2.887-3.42-4.446-.5-.776-1.395-.11-1.861.325m5.579,9.234c-.137.6-.133,1.352.639,1.461.9-.161,1.751-.56,2.652-.744,1.739,1.359,3.263,3.04,5.214,4.121.525.031,1.512-.435,1.089-1.081-1.211-1.493-3.107-2.237-4.321-3.741.447-.294.917-.564,1.336-.9.678-.462-.2-1.062-.357-1.563-1.967,1.113-4.2,1.551-6.252,2.449m-13.01-.086c-.071.447-.153,1.2.458,1.3a22.714,22.714,0,0,0,6.55.9c.067-.517.133-1.03.2-1.543-1.634-.208-3.267-.439-4.889-.713-.768-.082-1.606-.376-2.319.055m27.4,7.24c-.07.544-.682,1.258,0,1.657a28.473,28.473,0,0,0,5.453,2.934c.932.063,1.116-1.277.341-1.63a44.022,44.022,0,0,0-5.79-2.962m11.757,5.974c-.5.309-.56,1.273.063,1.469a39.59,39.59,0,0,0,5.445,1.884c.858.4,1.54-.972.784-1.426-1.481-.7-3.111-1.015-4.615-1.665C379.739,586.4,379.147,585.925,378.606,586.254Z" transform="translate(-324.595 -419.429)" fill="#fbbc05"/>
      </g>
      <g id="_272f60ff" data-name="#272f60ff" transform="translate(0 0.157)">
        <path id="Path_3045" data-name="Path 3045" d="M302.63,256.281c2.821-.858,5.661-1.645,8.486-2.5l.991-.286a5.185,5.185,0,0,1-1.477,1.649c-1.45-.239-2.445,1.011-3.62,1.6-7.9,4.113-15.4,8.936-23.208,13.222-2.879,1.544-5.528,3.491-8.493,4.885-2.856,1.332-5.344,3.291-8.113,4.779-2.821,1.547-5.61,3.158-8.376,4.8-1.92-.646-3.851-1.25-5.767-1.9q-7.886-2.65-15.8-5.21c-.979-.313-1.963-.627-2.938-.952a31.01,31.01,0,0,1,3.35-1.046c1.677-.4,3.314-.948,4.948-1.493.94-.251,1.877-.517,2.817-.783,2.554-.713,5.093-1.493,7.643-2.229,2.844-.862,5.708-1.657,8.556-2.515,3.616-1.081,7.255-2.084,10.859-3.22.725-.2,1.461-.36,2.182-.584,1.222-.372,2.445-.752,3.675-1.1,2.5-.744,5.018-1.461,7.526-2.2,3.013-.893,6.025-1.771,9.042-2.652,1.12-.345,2.253-.662,3.381-.987C299.747,257.159,301.181,256.7,302.63,256.281Z" transform="translate(-234.32 -253.5)" fill="#fbbc05"/>
        <path id="Path_3046" data-name="Path 3046" d="M328.221,445.5a27.771,27.771,0,0,1,11.588-.027c.121-.1.368-.3.49-.4.008.106.027.321.035.427a51.78,51.78,0,0,1,28.042,13.633q8.474,8.315,16.9,16.685c.756.791,1.52,1.583,2.327,2.331,1.214,1.128,2.386,2.311,3.608,3.44-.071.208-.208.623-.274.83-7.024,3.843-14.28,7.251-21.327,11.048-2.507,1.069-4.787,2.582-7.283,3.667-3.263,1.524-6.378,3.342-9.641,4.87-2.539,1.179-4.913,2.684-7.494,3.765a22.239,22.239,0,0,1-.317-4.329c-.525-.043-1.05-.09-1.571-.133a25.359,25.359,0,0,0,.153,4.689c-1.763,2.311-4.678,2.993-7.091,4.356-3.487,2.01-7.208,3.561-10.746,5.465q.035-33.1.008-66.2c-.086-1.79,1.3-3.107,2.593-4.113m29.762,47.019a20.889,20.889,0,0,1,6.237,2.836c.219-.486.9-1.293.212-1.716a11.383,11.383,0,0,0-5.747-2.527c-.807.035-.631.842-.7,1.406m-12.066,2.57c-.188.65.592.932.917,1.352a14.5,14.5,0,0,1,5.512-3.53,2.308,2.308,0,0,0-.674-1.61A12.563,12.563,0,0,0,345.917,495.088Z" transform="translate(-289.853 -369.902)" fill="#fbbc05"/>
        <path id="Path_3047" data-name="Path 3047" d="M618.681,445.582c3.949-.662,8.078-1.12,11.992-.012a8.53,8.53,0,0,1,2.3,2.582,20.046,20.046,0,0,1,.227,4.627q0,28.277.008,56.562c0,1.124,0,2.253.008,3.381q0,1.387.02,2.777l-.627.317c-3.291-2.362-7.126-3.753-10.628-5.743-7.424-3.824-14.851-7.631-22.33-11.345-2.527-1.218-4.909-2.715-7.467-3.871-6.37-3.15-12.615-6.542-19.012-9.641a53.565,53.565,0,0,1-5.755-3.248c5.3-5.163,10.562-10.378,15.85-15.564,4.274-4.062,8.176-8.572,13.045-11.952A52.624,52.624,0,0,1,618.681,445.582Z" transform="translate(-436.926 -369.919)" fill="#fbbc05"/>
      </g>
      <g id="_202044ff" data-name="#202044ff" transform="translate(24.5 1.776)">
        <path id="Path_3048" data-name="Path 3048" d="M345.05,259.266c1.175-.592,2.17-1.841,3.62-1.6-3.741,3.1-7.432,6.264-11.173,9.367-10.052,8.626-20.262,17.065-30.31,25.7a20.527,20.527,0,0,0-.944,1.849c-2.5,4.944-4.928,9.927-7.475,14.852-.38-2.531-.227-5.116-.729-7.635-.274-3.353-.411-6.719-.788-10.064-.129-1.591-.227-3.185-.392-4.772,2.766-1.645,5.555-3.256,8.376-4.8,2.77-1.489,5.257-3.447,8.113-4.779,2.966-1.395,5.614-3.342,8.493-4.885C329.65,268.2,337.148,263.379,345.05,259.266Z" transform="translate(-296.86 -257.633)" fill="#c59300"/>
        <path id="Path_3049" data-name="Path 3049" d="M477.2,284.439a7.844,7.844,0,0,1,9.88-.027c8.713,7.5,17.472,14.945,26.161,22.475-20.7.031-41.409-.012-62.113.023,1.626-1.653,3.557-2.962,5.214-4.583.682-.56,1.355-1.128,2.025-1.712q.958-.846,1.943-1.665c.074-.059.216-.176.286-.231,2.511-2.151,5.007-4.317,7.518-6.468l.944-.815c2.366-2.041,4.748-4.062,7.11-6.108C476.516,285.034,476.857,284.737,477.2,284.439Z" transform="translate(-390.694 -273.734)" fill="#fbbc05"/>
      </g>
      <g id="_202858ff" data-name="#202858ff" transform="translate(175.834 17.936)">
        <path id="Path_3062" data-name="Path 3062" d="M683.5,299.081a1.177,1.177,0,0,1,1.8.635c.544,3.263,1,6.542,1.5,9.81.141,1.034-1.195,1.52-1.951.952-.854-2.86-.909-5.884-1.508-8.795C683.3,300.844,682.855,299.779,683.5,299.081Z" transform="translate(-683.154 -298.882)"/>
      </g>
      <g id="_252f5eff" data-name="#252f5eff" transform="translate(184.008 24.408)">
        <path id="Path_3067" data-name="Path 3067" d="M710.359,315.707c.733-.854,1.426.317,2.014.733a26.175,26.175,0,0,1-3.444,3.745c-1.234,1.207-2.386,2.5-3.729,3.6-.435-.439-1.12-.764-1.179-1.449a4.906,4.906,0,0,1,1.379-1.767C707.08,318.979,708.615,317.231,710.359,315.707Z" transform="translate(-704.02 -315.403)"/>
      </g>
      <g id="_1f2858ff" data-name="#1f2858ff" transform="translate(186.788 37.076)">
        <path id="Path_3073" data-name="Path 3073" d="M712.082,347.74c3.314.466,6.628.972,9.939,1.481,1.152.051,1.289,2.1.086,2.178a44.8,44.8,0,0,1-4.729-.643,46.855,46.855,0,0,1-5.575-.925C710.66,349.546,711.079,347.936,712.082,347.74Z" transform="translate(-711.117 -347.74)"/>
      </g>
      <g id="_6f9ad1ff" data-name="#6f9ad1ff" transform="translate(17.461 57.185)">
        <path id="Path_3081" data-name="Path 3081" d="M282.917,399.07c.368.161.74.321,1.113.486-.118,1.6-1.481,2.605-2.253,3.9-.533.7-.874,1.606-1.638,2.084-.313-.043-.936-.137-1.25-.18C279.368,402.85,281.413,401.021,282.917,399.07Z" transform="translate(-278.89 -399.07)"/>
        <path id="Path_3082" data-name="Path 3082" d="M281.88,586.7c.584-.208,1.387-.56,1.79.149,1.085,1.532,2.327,2.958,3.353,4.529.5.58-.5,1.058-.705,1.536C284.544,591.107,282.652,589.156,281.88,586.7Z" transform="translate(-280.709 -513.026)"/>
      </g>
      <g id="_fffffdff" data-name="#fffffdff" transform="translate(113.558 64.624)">
        <path id="Path_3084" data-name="Path 3084" d="M524.19,427.576a14.3,14.3,0,0,1,3.381-9.516c-.031,1.818-.862,3.475-1.41,5.175C525.569,424.7,525.252,426.346,524.19,427.576Z" transform="translate(-524.19 -418.06)" fill="#fffffd"/>
      </g>
      <g id="_201f43ff" data-name="#201f43ff" transform="translate(38.369 65.415)">
        <path id="Path_3085" data-name="Path 3085" d="M332.26,430.418c4.035-3.42,8.011-6.918,12.047-10.339.047,3.3-.02,6.6.031,9.911-.121.1-.368.3-.49.4A27.77,27.77,0,0,0,332.26,430.418Z" transform="translate(-332.26 -420.08)" fill="#c59300"/>
      </g>
      <g id="_1e1f42ff" data-name="#1e1f42ff" transform="translate(181.74 65.537)">
        <path id="Path_3086" data-name="Path 3086" d="M698.23,420.39c4.027,3.4,8,6.848,12.007,10.272-3.914-1.109-8.043-.65-11.992.012C698.23,427.246,698.238,423.818,698.23,420.39Z" transform="translate(-698.23 -420.39)" fill="#c59300"/>
      </g>
      <g id="_6e99d0ff" data-name="#6e99d0ff" transform="translate(11.8 68.205)">
        <path id="Path_3087" data-name="Path 3087" d="M264.44,434.3a14.412,14.412,0,0,1,2.875-7.1c.4.286.807.576,1.211.866-.913,2.021-1.7,4.106-2.687,6.088C265.49,434.189,264.789,434.263,264.44,434.3Z" transform="translate(-264.44 -427.2)"/>
      </g>
      <g id="_6d98d0ff" data-name="#6d98d0ff" transform="translate(8.517 80.714)">
        <path id="Path_3088" data-name="Path 3088" d="M257.361,459.181c.454-.02.913-.035,1.371-.051.07,2.421-.823,4.721-1.054,7.114-.541-.031-1.081-.063-1.618-.1A27.612,27.612,0,0,1,257.361,459.181Z" transform="translate(-256.06 -459.13)"/>
        <path id="Path_3089" data-name="Path 3089" d="M266.637,556.67c.458.231,1.167.168,1.395.737.854,1.638,1.63,3.322,2.421,4.995.5.791-.56,1.159-1.054,1.512a36.547,36.547,0,0,1-2.656-5.222A3.482,3.482,0,0,1,266.637,556.67Z" transform="translate(-262.434 -518.458)"/>
      </g>
      <g id="_729cd5ff" data-name="#729cd5ff" transform="translate(7.647 93.705)">
        <path id="Path_3095" data-name="Path 3095" d="M253.953,492.5c.572-.078,1.359-.517,1.735.168.118,2.053.125,4.121.074,6.178.023.768-.819.878-1.383.635C253.514,497.271,253.945,494.819,253.953,492.5Z" transform="translate(-253.839 -492.293)"/>
      </g>
      <g id="_6e99d1ff" data-name="#6e99d1ff" transform="translate(8.867 106.605)">
        <path id="Path_3097" data-name="Path 3097" d="M257,525.22c.447.023.9.051,1.348.078.58,2.209.975,4.47,1.641,6.66-.584.4-1.567.783-1.837-.184C257.556,529.647,256.745,527.465,257,525.22Z" transform="translate(-256.954 -525.22)"/>
      </g>
      <g id="_1f1f43ff" data-name="#1f1f43ff" transform="translate(35.754 111.404)">
        <path id="Path_3099" data-name="Path 3099" d="M391.348,537.478c.227,0,.674-.008.9-.008.118.552.247,1.1.372,1.661.035.2.082.4.129.607-15.89,9.806-31.85,19.5-47.755,29.284-4.039,2.582-8.278,4.858-12.184,7.639q-2.45-1.24-4.85-2.562c-.114.309-.345.932-.462,1.242.525,1.007,1.775,1.32,2.687,1.9.051.18.153.537.2.717a36.907,36.907,0,0,1-4.791,2.766c0-2.864-.02-5.724.008-8.583,3.538-1.9,7.259-3.455,10.746-5.465,2.413-1.363,5.328-2.045,7.091-4.356a12.129,12.129,0,0,0,.948,2.672c.333-.118,1-.36,1.34-.478-.18-.811-.368-1.614-.552-2.421,2.582-1.081,4.956-2.586,7.494-3.765,3.263-1.528,6.378-3.346,9.641-4.87,2.5-1.085,4.775-2.6,7.283-3.667,7.048-3.8,14.3-7.2,21.327-11.047.067-.208.2-.623.274-.831Z" transform="translate(-325.586 -537.47)" fill="#c59300"/>
        <path id="Path_3100" data-name="Path 3100" d="M563.82,540.887c.458-.466.932-.921,1.41-1.367a53.569,53.569,0,0,0,5.755,3.248c6.4,3.1,12.642,6.491,19.012,9.641,2.558,1.156,4.94,2.652,7.467,3.87,7.479,3.714,14.906,7.522,22.33,11.345,3.5,1.99,7.338,3.381,10.628,5.743.157-.078.47-.239.627-.317,0,.337.012,1.007.016,1.344,0,.784-.008,1.563,0,2.351-.008.7-.008,1.395,0,2.1,0,1.066,0,2.131.008,3.2-10.26-6.084-20.309-12.517-30.561-18.609C588.328,555.841,576.019,548.452,563.82,540.887Z" transform="translate(-470.49 -538.717)" fill="#c59300"/>
      </g>
      <g id="_78a5dbff" data-name="#78a5dbff" transform="translate(68.13 121.366)">
        <path id="Path_3102" data-name="Path 3102" d="M408.23,564.306c.071-.564-.106-1.371.7-1.406a11.383,11.383,0,0,1,5.747,2.527c.689.423.008,1.23-.212,1.716A20.889,20.889,0,0,0,408.23,564.306Z" transform="translate(-408.23 -562.9)"/>
      </g>
      <g id="_78a1d8ff" data-name="#78a1d8ff" transform="translate(56.035 121.554)">
        <path id="Path_3103" data-name="Path 3103" d="M377.385,567.168a12.563,12.563,0,0,1,5.755-3.788,2.308,2.308,0,0,1,.674,1.61,14.5,14.5,0,0,0-5.512,3.53C377.977,568.1,377.2,567.819,377.385,567.168Z" transform="translate(-377.356 -563.38)"/>
      </g>
      <g id="_79a3d8ff" data-name="#79a3d8ff" transform="translate(77.505 129.707)">
        <path id="Path_3104" data-name="Path 3104" d="M432.16,584.19c.533.149,1.387-.149,1.591.56a12.984,12.984,0,0,1,.932,6.3,3.1,3.1,0,0,1-1.489.325C433.226,588.922,432.379,586.6,432.16,584.19Z" transform="translate(-432.16 -584.19)"/>
      </g>
      <g id="_7ba7deff" data-name="#7ba7deff" transform="translate(53.411 131.56)">
        <path id="Path_3107" data-name="Path 3107" d="M370.7,588.92c.521.043,1.046.09,1.571.133a22.243,22.243,0,0,0,.317,4.329c.184.807.372,1.61.552,2.421-.337.117-1.007.36-1.34.478a12.125,12.125,0,0,1-.948-2.672A25.358,25.358,0,0,1,370.7,588.92Z" transform="translate(-370.656 -588.92)"/>
      </g>
      <g id="_6e9ad1ff" data-name="#6e9ad1ff" transform="translate(27.078 140.139)">
        <path id="Path_3109" data-name="Path 3109" d="M304.184,610.82c1.822,1.1,3.232,2.742,4.944,4a1.064,1.064,0,0,1,.29,1.481,1.325,1.325,0,0,1-1.6-.2,44.934,44.934,0,0,1-4.38-3.984C303.687,611.678,303.934,611.247,304.184,610.82Z" transform="translate(-303.44 -610.82)"/>
      </g>
      <g id="_769fd5ff" data-name="#769fd5ff" transform="translate(73.623 142.172)">
        <path id="Path_3110" data-name="Path 3110" d="M422.25,621.542a25.366,25.366,0,0,0,3.788-5.531c.474.294,1.3.415,1.2,1.163a15.527,15.527,0,0,1-2.825,4.6c-.349.29-.6.858-1.12.842C422.657,622.744,422.552,621.9,422.25,621.542Z" transform="translate(-422.25 -616.01)"/>
      </g>
      <g id="_77a1d7ff" data-name="#77a1d7ff" transform="translate(57.118 143.782)">
        <path id="Path_3111" data-name="Path 3111" d="M380.12,620.8c.466-.435,1.359-1.1,1.861-.325,1.038,1.559,2.292,2.954,3.42,4.446.494.721-.356,1.167-.862,1.493A32.854,32.854,0,0,1,380.12,620.8Z" transform="translate(-380.12 -620.119)"/>
        <path id="Path_3112" data-name="Path 3112" d="M430.583,663.69a44.057,44.057,0,0,1,5.79,2.962c.776.353.592,1.692-.341,1.63a28.47,28.47,0,0,1-5.453-2.934C429.9,664.947,430.512,664.234,430.583,663.69Z" transform="translate(-410.619 -646.621)"/>
      </g>
      <g id="_79a3dcff" data-name="#79a3dcff" transform="translate(37.663 148.033)">
        <path id="Path_3113" data-name="Path 3113" d="M330.46,632.212c.117-.309.349-.932.462-1.242q2.4,1.328,4.85,2.562c.552.3,1.1.619,1.642.944-.3.4-.619.784-.948,1.16a17.184,17.184,0,0,1-3.318-1.528C332.235,633.532,330.985,633.219,330.46,632.212Z" transform="translate(-330.46 -630.97)"/>
      </g>
      <g id="_76a1d6ff" data-name="#76a1d6ff" transform="translate(62.628 151.249)">
        <path id="Path_3114" data-name="Path 3114" d="M394.254,641.628c2.049-.9,4.286-1.336,6.252-2.448.161.5,1.034,1.1.356,1.563-.419.337-.889.607-1.336.9,1.214,1.5,3.111,2.249,4.321,3.741.423.646-.564,1.113-1.089,1.081-1.951-1.081-3.475-2.762-5.214-4.121-.9.184-1.747.584-2.652.744C394.121,642.98,394.117,642.224,394.254,641.628Z" transform="translate(-394.185 -639.18)"/>
      </g>
      <g id="_77a1d6ff" data-name="#77a1d6ff" transform="translate(49.638 153.382)">
        <path id="Path_3115" data-name="Path 3115" d="M361.075,644.854c.713-.431,1.551-.137,2.319-.055,1.622.274,3.255.505,4.889.713-.067.513-.133,1.026-.2,1.543a22.716,22.716,0,0,1-6.55-.9C360.922,646.053,361,645.3,361.075,644.854Z" transform="translate(-361.027 -644.625)"/>
      </g>
      <g id="_78a3d8ff" data-name="#78a3d8ff" transform="translate(88.448 166.711)">
        <path id="Path_3116" data-name="Path 3116" d="M460.484,678.762c.541-.329,1.132.145,1.677.262,1.5.65,3.134.964,4.615,1.665.756.455.074,1.822-.784,1.426a39.6,39.6,0,0,1-5.445-1.884C459.924,680.036,459.983,679.072,460.484,678.762Z" transform="translate(-460.094 -678.648)"/>
      </g>
      <g id="Ellipse_1601" data-name="Ellipse 1601" transform="translate(11.801 1.789)" fill="#34a853" stroke="#34a853" stroke-width="2">
        <circle cx="11.368" cy="11.368" r="11.368" stroke="none"/>
        <circle cx="11.368" cy="11.368" r="10.368" fill="none"/>
      </g>
      <g id="Ellipse_1602" data-name="Ellipse 1602" transform="translate(170.96 86.616)" fill="#34a853" stroke="#34a853" stroke-width="2">
        <ellipse cx="24.486" cy="24.923" rx="24.486" ry="24.923" stroke="none"/>
        <ellipse cx="24.486" cy="24.923" rx="23.486" ry="23.923" fill="none"/>
      </g>
      <text id="_1" data-name="1" transform="translate(22.547 16.789)" fill="#fff" font-size="14" font-family="Reem Kufi"><tspan x="-2.324" y="0">1</tspan></text>
      <g id="notifications_active_black_24dp" transform="translate(179.412 95.834)">
        <path id="Path_34501" data-name="Path 34501" d="M0,0H31.075V31.075H0Z" fill="none"/>
        <path id="Path_34502" data-name="Path 34502" d="M22.679,19.98V13.506c0-3.975-2.123-7.3-5.827-8.183v-.88A1.951,1.951,0,0,0,14.9,2.5a1.929,1.929,0,0,0-1.929,1.942v.88c-3.716.88-5.827,4.2-5.827,8.183V19.98L5.458,21.65a1.3,1.3,0,0,0,.906,2.214H23.417a1.3,1.3,0,0,0,.919-2.214ZM14.9,27.749a2.6,2.6,0,0,0,2.59-2.59H12.307A2.589,2.589,0,0,0,14.9,27.749ZM8.138,5.387a1.276,1.276,0,0,0,.039-1.852,1.294,1.294,0,0,0-1.8-.026,13.5,13.5,0,0,0-4.234,7.846,1.309,1.309,0,0,0,1.295,1.5,1.291,1.291,0,0,0,1.269-1.075A10.928,10.928,0,0,1,8.138,5.387ZM23.456,3.51a1.31,1.31,0,0,0-1.813.026,1.271,1.271,0,0,0,.039,1.839,11,11,0,0,1,3.431,6.4,1.271,1.271,0,0,0,1.269,1.075,1.3,1.3,0,0,0,1.282-1.5A13.579,13.579,0,0,0,23.456,3.51Z" transform="translate(0.628 0.737)" fill="#fff"/>
      </g>
      <g id="check_circle_black_24dp" transform="translate(80.912 37.415)">
        <path id="Path_34503" data-name="Path 34503" d="M0,0H68.684V68.684H0Z" fill="none"/>
        <path id="Path_34504" data-name="Path 34504" d="M30.618,2A28.618,28.618,0,1,0,59.236,30.618,28.629,28.629,0,0,0,30.618,2ZM22.863,42.9,12.589,32.621a2.853,2.853,0,0,1,4.035-4.035l8.271,8.242L44.584,17.139a2.853,2.853,0,1,1,4.035,4.035L26.9,42.9a2.85,2.85,0,0,1-4.035,0Z" transform="translate(3.724 3.724)" fill="#34a853"/>
      </g>
    </g>
  </g>
</svg>
