<svg xmlns="http://www.w3.org/2000/svg" width="263.741" height="216.258" viewBox="0 0 263.741 216.258">
  <g id="Link_not_found" data-name="Link not found" transform="translate(-2446.994 -900.349)">
    <g id="istockphoto-1095047472-612x612" transform="translate(2446.994 900.349)">
      <g id="_ffffffff" data-name="#ffffffff" transform="translate(63.719 67.039)">
        <path id="Path_139202" data-name="Path 139202" d="M219.746,243.155c4.26-.318,8.539-.176,12.806-.248,2.019-.28,2.6,1.973,3.478,3.3,11.731.255,23.475.078,35.213.085q37.89.049,75.767-.02-.01,36.5,0,73-72.7.078-145.4-.013-.029-36.492,0-72.979c5.491.006,10.975.157,16.46-.072q.84-1.527,1.674-3.054m28.647,25.39c1.042,1.036,2.071,2.084,3.118,3.118-1.061,1.283-2.169,2.528-3.25,3.791.274.475.827,1.413,1.1,1.882,2.085.064,3.245-1.876,4.612-3.118,1.485,1.114,3.022,4.149,5.1,2.579,1.6-2.11-1.464-3.615-2.566-5.119,1.29-1.342,3.182-2.521,3.107-4.618-.463-.274-1.4-.808-1.87-1.082-1.527.891-2.456,3.211-4.495,2.8a12.206,12.206,0,0,0-3.237-2.879,3.945,3.945,0,0,0-1.622,2.645m40.736-1.57c.059.5.183,1.479.248,1.973.955.912,1.9,1.837,2.834,2.775-1.464,1.5-3.928,3-2.69,5.432,2.26.69,3.511-1.557,4.918-2.864,1.718,1.095,2.971,3.42,5.335,2.911.944-2.468-1.244-4.019-2.736-5.569.912-.853,1.83-1.693,2.749-2.534.117-.612.235-1.218.352-1.824-.652-.509-1.6-1.674-2.462-.8a20.144,20.144,0,0,0-2.82,2.657,31.624,31.624,0,0,1-3.706-3.081c-.678.306-1.348.612-2.019.925m-40.057,25.984c.02.541.052,1.615.072,2.156.5,1.133,1.863.821,2.84.906q16.434-.039,32.868-.013c.176,2.84-.664,6.2,1.375,8.559a5.992,5.992,0,0,0,9.2-.02c2.019-2.305,1.107-5.634,1.29-8.416.834-.085,1.661-.163,2.5-.234a25.95,25.95,0,0,0,.248-3.088c-12.324-.449-24.68-.085-37.017-.2C257.994,292.736,253.5,292.275,249.071,292.958Z" transform="translate(-201.598 -242.884)" fill="#fff"/>
      </g>
      <g id="_eaedf4ff" data-name="#eaedf4ff" transform="translate(0 0)">
        <path id="Path_139203" data-name="Path 139203" d="M172.412,149.959c12.871-5.966,26.967-9.679,41.205-9.673,4.918-.84,9.829.2,14.753.332,3.68.56,7.243,1.889,11.021,1.856,10.168.127,19.736,3.9,29.422,6.52,5.954,1.8,12.109,3.048,17.795,5.641,3.257,1.5,6.911,2.273,9.692,4.677,2.944,2.545,7.028,3.133,9.953,5.713,2.566,2.182,4.794,4.761,7.509,6.781,1.616,1.218,3.491,2.11,4.866,3.635a151.022,151.022,0,0,1,24.328,34.88c1.145,2.084,1.583,4.748,3.472,6.331,4.41.886,8.988.221,13.47.382,1.993.169,4.391-.573,6.038.906-5.042-.56-10.118-.183-15.164-.332a24.012,24.012,0,0,0-6.038.358c-1.518,1.273-1.576,3.941-.632,5.576,1.622,1.088,3.635,1.459,5.2,2.645,1.023,1.57-.02,3.368-.489,4.937-4.95.456-9.927-.117-14.864.345-3.016.853-3.55,5.276-.912,6.957,2.638.827,5.654-.274,8.162,1.035,2.26,1.446,1.3,5.1-1.218,5.608-3.928.636-8.09-.612-11.848,1.179-.1,1.726-.977,3.823.382,5.27,1.687,1.121,3.863,1.121,5.562,2.208,1.049,1.527.228,3.472.163,5.165,4.794,0,9.588-.449,14.343.365-.7,2.091-2.215,4.344-1.159,6.579,1,2.305.339,4.82.026,7.2-.137-2.241.143-4.716-1.361-6.572-1.655-2.1-.209-4.794.072-7.132a31.616,31.616,0,0,0-7.063-.2c-4.481.312-8.982.013-13.457.346-.247,10.011-.183,20.045-.046,30.06,3.6.039,7.2.006,10.8-.026l-.127,1.082c-14.056-.41-28.119-.091-42.176-.15-13.125-.026-26.243.046-39.369-.046l.475-.8c20.648-.1,41.3.085,61.951-.1-.052-28.139.006-56.278-.032-84.41.052-3.557-2.944-7.269-6.722-6.873-45.387-.072-90.774,0-136.161-.039a36.461,36.461,0,0,0-6.363.234,8.319,8.319,0,0,0-4.149,4.064,49.121,49.121,0,0,0-.2,7.172q0,39.941-.032,79.89c20.329.123,40.658-.046,60.987.085-2.482,1.145-5.237.847-7.881.834-22.355-.064-44.7.1-67.051-.143a20.792,20.792,0,0,0-5.713.6c.652,3.654,3.432,6.168,6.533,7.891-9.614-.1-19.228.052-28.836-.046-.8-5,1.6-9.777,1.049-14.763-5.345-.228-10.7.006-16.049-.072-.944-.127-2.267.2-2.749-.886l.28.006c19.632.078,39.263-.059,58.9.064q-.039-9.36-.013-18.727c.169-2.071-1.159-3.754-2.124-5.445-6.351-10.806-12.552-21.7-18.818-32.561a39.977,39.977,0,0,0-2.9-4.442c-2.462,2.991-3.9,6.637-6.084,9.809a48.269,48.269,0,0,1-.573-9.041c.085-5.445-.463-11.053,1.375-16.291,1.667-4.5,2.494-9.243,3.83-13.841,1.628-5.139,4.436-9.783,6.976-14.5a34.54,34.54,0,0,1,5.419-6.911c2.853-3.114,4.4-7.211,7.536-10.083,4.247-4.547,9.517-7.947,14.831-11.1m162.3,68.515c-1.817.678-2.078,3.1-1.257,4.645a4,4,0,0,0,3.9.5c1.42-.43,1.25-2.332,1.055-3.491C338.046,218.534,336.112,217.994,334.711,218.476Z" transform="translate(-103.774 -139.962)" fill="#eaf6ed"/>
        <path id="Path_139204" data-name="Path 139204" d="M131.26,387.629q116.141-.039,232.282-.006a76.945,76.945,0,0,1-18.173,20.414c-3.159,2.291-5.954,5.179-9.562,6.781-4.149,1.909-7.523,5.1-11.444,7.4-2.045,1.049-4.279,1.654-6.325,2.71-2.188,1.036-4.09,2.566-6.272,3.615-8.331,3.811-17.209,6.253-26.126,8.279-6.005,1.782-12.128,3.394-18.42,3.7-4.612.127-9,1.961-13.626,1.889a204.785,204.785,0,0,1-23.488-.6c-8.181-.625-16.1-2.834-24.118-4.4-4.279-.7-8.572-1.322-12.8-2.291-4.9-1.179-10.1-.586-14.845-2.462-4.175-1.556-8.728-1.544-12.936-2.951a65.886,65.886,0,0,1-25.1-15.841,41.081,41.081,0,0,1-7.406-14.191A59.847,59.847,0,0,1,131.26,387.629Z" transform="translate(-113.357 -226.301)" fill="#eaf6ed"/>
      </g>
      <g id="_616b98ff" data-name="#616b98ff" transform="translate(59.713 58.182)">
        <path id="Path_139205" data-name="Path 139205" d="M195.684,233.647a8.357,8.357,0,0,1,4.149-4.1,36.1,36.1,0,0,1,6.364-.237c45.387.039,90.774-.033,136.161.039,3.778-.4,6.774,3.347,6.722,6.936.039,28.4-.02,56.8.032,85.208-20.648.191-41.3,0-61.951.105-9.927-.059-19.86-.039-29.787-.013-.234.006-.7.026-.938.033-20.329-.132-40.658.039-60.987-.085q.069-40.327.032-80.642a49.683,49.683,0,0,1,.2-7.239m75.161-2.51c.059.743.117,1.492.176,2.242l2.164.237c.157-.526.475-1.585.632-2.117a22.607,22.607,0,0,0-2.97-.361M199.4,235.881c.064,1.926.085,3.846.064,5.773q-.029,36.836,0,73.666,72.7.138,145.4.013.01-36.845,0-73.686a39.54,39.54,0,0,0-.215-6.148c-46.143.2-92.279.033-138.428.085a49.454,49.454,0,0,0-6.819.3Z" transform="translate(-195.449 -229.286)" fill="#616b98"/>
      </g>
      <g id="_8e9aa6ff" data-name="#8e9aa6ff" transform="translate(134.805 59.77)">
        <path id="Path_139206" data-name="Path 139206" d="M311.2,232.11a27.49,27.49,0,0,1,3.579.431c-.191.636-.573,1.9-.764,2.528l-2.606-.283C311.341,233.892,311.271,232.995,311.2,232.11Z" transform="translate(-311.2 -232.11)" fill="#616b98"/>
        <circle id="Ellipse_3190" data-name="Ellipse 3190" cx="0.873" cy="0.873" r="0.873" transform="translate(0.897 0.776)" fill="#d5d8e1"/>
      </g>
      <g id="_d5d8e1ff" data-name="#d5d8e1ff" transform="translate(63.668 64.34)">
        <path id="Path_139207" data-name="Path 139207" d="M201.52,239.118a49.778,49.778,0,0,1,6.82-.293c46.149-.052,92.285.111,138.428-.085a38.819,38.819,0,0,1,.215,6.091q-37.88.127-75.767.02c-.847-1.1-1.273-3.133-2.977-3.062-4.442-.228-8.9-.059-13.34-.013-.509.729-1.023,1.453-1.53,2.182-.951-.938-1.772-2.371-3.309-2.227-4.292-.123-8.591.006-12.884.032-.4,1-.788,1.993-1.172,3-.879-1.329-1.459-3.583-3.478-3.3-4.264.072-8.546-.072-12.806.248q-.83,1.527-1.674,3.054c-5.485.228-10.969.078-16.46.072.02-1.909,0-3.81-.064-5.719m3.224,2.025c-.02.7-.032,1.4-.046,2.1l2.15-.039c-.026-.671-.046-1.342-.064-2.013-.684-.02-1.361-.032-2.036-.052m4.064.169c-.445.932-.326,2.091.821,2.418,1.224-.123,1.329-1.3,1.583-2.254-.781-.033-1.655-.592-2.4-.163m4.377-.143q-.049,1.036-.091,2.071c.671-.026,1.348-.046,2.026-.072-.006-.658-.013-1.309-.013-1.961-.65-.021-1.288-.028-1.927-.041Z" transform="translate(-201.52 -238.74)" fill="#d5d8e1"/>
        <path id="Path_139208" data-name="Path 139208" d="M464.625,259.519a24.009,24.009,0,0,1,6.038-.358c5.048.15,10.122-.228,15.164.332,1.479,1.55,2.136,4.332.26,5.854-3.459,3.118-9.227-.99-12.493,2.651.091,1.381-.449,3.245.97,4.117,2.586,1.655,6.162-.228,8.611,1.8a3.952,3.952,0,0,1-1.062,6.132c-2.605.5-5.276.117-7.9.339-1.85.143-4.327,1-4.009,3.322.111,2.853,3.348,3.257,5.543,3.557l.632.1a4.863,4.863,0,0,1,.9,5.022c-1.635,2.3-4.6,1.85-7.041,2.215-2.762.026-3.53,4.794-.795,5.576,2.456.43,5,.123,7.452.678-2.808.085-5.621.072-8.422-.052-1.194-.2-3.91.636-5.282.666-3.588.072-5.973,0-9.564,0,.064-1.693,1.391-4.671.342-6.2-1.7-1.088-3.875-1.088-5.562-2.208-1.361-1.446-.489-3.543-.382-5.27,3.758-1.791,7.921-.541,11.848-1.179,2.514-.509,3.478-4.162,1.218-5.608-2.508-1.309-5.523-.209-8.162-1.036-2.638-1.681-2.1-6.1.912-6.957,4.937-.463,9.914.111,14.864-.345.469-1.57,1.511-3.368.489-4.937-1.564-1.185-3.576-1.557-5.2-2.645C463.048,263.46,463.107,260.79,464.625,259.519Z" transform="translate(-287.331 -245.854)" fill="#caccda"/>
        <path id="Path_139209" data-name="Path 139209" d="M457.409,260.409c1.4-.482,3.335.059,3.691,1.648.2,1.159.365,3.061-1.055,3.491a4,4,0,0,1-3.9-.5C455.331,263.509,455.592,261.087,457.409,260.409Z" transform="translate(-290.14 -246.235)" fill="#caccda"/>
      </g>
      <g id="_fb7c8aff" data-name="#fb7c8aff" transform="translate(66.842 66.744)">
        <path id="Path_139210" data-name="Path 139210" d="M206.444,242.43c.678.02,1.355.032,2.036.052.02.671.039,1.342.064,2.013l-2.15.039C206.411,243.831,206.424,243.127,206.444,242.43Z" transform="translate(-206.394 -242.43)" fill="#fb7c8a"/>
      </g>
      <g id="_f0c149ff" data-name="#f0c149ff" transform="translate(70.717 66.753)">
        <path id="Path_139211" data-name="Path 139211" d="M212.582,242.607c.749-.43,1.622.127,2.4.163-.255.951-.358,2.13-1.583,2.254C212.257,244.7,212.139,243.536,212.582,242.607Z" transform="translate(-212.343 -242.445)" fill="#f0c149"/>
      </g>
      <g id="_8bc54eff" data-name="#8bc54eff" transform="translate(75.242 66.77)">
        <path id="Path_139212" data-name="Path 139212" d="M219.381,242.47c.636.013,1.277.02,1.922.039,0,.652.006,1.3.013,1.961-.678.026-1.355.046-2.026.072C219.316,243.851,219.349,243.16,219.381,242.47Z" transform="translate(-219.29 -242.47)" fill="#8bc54e"/>
      </g>
      <g id="_bcc0d8ff" data-name="#bcc0d8ff" transform="translate(98.15 67.271)">
        <path id="Path_139213" data-name="Path 139213" d="M255.63,243.331c4.292-.026,8.591-.157,12.884-.032,1.537-.143,2.358,1.29,3.309,2.227.509-.729,1.023-1.453,1.53-2.182,4.442-.046,8.9-.215,13.34.013,1.707-.072,2.13,1.961,2.977,3.062-11.738-.006-23.481.169-35.212-.085C254.844,245.324,255.234,244.328,255.63,243.331Z" transform="translate(-254.458 -243.24)" fill="#bcc0d8"/>
      </g>
      <g id="_f5777aff" data-name="#f5777aff" transform="translate(0.283 81.956)">
        <path id="Path_139214" data-name="Path 139214" d="M133.169,275.594c2.188-3.172,3.621-6.82,6.084-9.809a39.985,39.985,0,0,1,2.9,4.442c6.266,10.858,12.467,21.756,18.818,32.562.964,1.693,2.291,3.373,2.123,5.445q-.029,9.36.013,18.727c-19.632-.124-39.263.013-58.9-.064.085-.449.255-1.336.339-1.778,9.582-16.482,19.052-33.03,28.621-49.523m3.945,10.376a18.475,18.475,0,0,0-.586,4.012c.059,5.673.072,11.353-.006,17.027a9.291,9.291,0,0,0,.632,3.3q1.094.459,2.195.955c.906-.586,2.442-.866,2.332-2.254.41-4.794.137-9.62.221-14.421-.046-2.69.183-5.432-.469-8.064-.955-1.492-2.9-.84-4.318-.56m-.032,32.809c.723,1.336,2.4.821,3.627.9a4.923,4.923,0,0,0,.918-4.064c-1.082-.652-2.442-1.641-3.691-.789-1.38.74-1.4,2.668-.852,3.951Z" transform="translate(-104.209 -265.785)" fill="#fbbc05"/>
        <path id="Path_139215" data-name="Path 139215" d="M444.309,323.279c4.475-.332,8.976-.032,13.457-.345,2.355-.176,15.1.267,17.906.183.15,1.778-.671,5.237,2.247,4.7a22.069,22.069,0,0,1,4.9.2c1.713.925,3.472,2.609,3.3,4.742.026,4.136.143,8.285-.046,12.422.039,1.889-1.537,3.328-3.029,4.227-2.358.636-4.846.326-7.254.528a13.963,13.963,0,0,1-1.283,7.406,11.278,11.278,0,0,1-7.282,5.165c-4.605.2-9.217.02-13.822.085-.807-.2-1.6-.417-2.4-.645,1.537-2.4,3.986-4.462,3.927-7.556l.127-1.082c-3.6.033-7.2.064-10.8.026-.137-10.018-.2-20.049.046-30.061m31.813,7.827c-.606,5.009-.2,10.089-.248,15.125,2.15.078,4.312.064,6.468-.026.984-3.524.267-7.217.489-10.818-.169-1.348.391-3.152-.879-4.078a37.471,37.471,0,0,0-5.826-.2Z" transform="translate(-222.722 -285.727)" fill="#fbbc05"/>
      </g>
      <g id="_f57678ff" data-name="#f57678ff" transform="translate(110.384 90.056)">
        <path id="Path_139216" data-name="Path 139216" d="M273.371,280.865a3.945,3.945,0,0,1,1.622-2.645,12.207,12.207,0,0,1,3.237,2.879c2.036.41,2.97-1.909,4.495-2.8.469.274,1.407.808,1.87,1.082.072,2.1-1.817,3.277-3.107,4.618,1.1,1.5,4.169,3.009,2.566,5.12-2.078,1.57-3.615-1.464-5.1-2.579-1.368,1.244-2.528,3.185-4.612,3.118-.274-.469-.827-1.407-1.1-1.882,1.082-1.264,2.188-2.508,3.25-3.791C275.442,282.949,274.413,281.9,273.371,280.865Z" transform="translate(-273.241 -278.22)" fill="#fbbc05"/>
      </g>
      <g id="_f57877ff" data-name="#f57877ff" transform="translate(151.25 90.204)">
        <path id="Path_139217" data-name="Path 139217" d="M335.98,279.372c.671-.312,1.342-.619,2.019-.925a31.618,31.618,0,0,0,3.706,3.081,20.139,20.139,0,0,1,2.82-2.657c.86-.873,1.811.293,2.462.8-.117.606-.234,1.209-.352,1.824-.918.84-1.837,1.681-2.749,2.534,1.492,1.55,3.68,3.1,2.736,5.569-2.365.509-3.615-1.817-5.335-2.911-1.407,1.309-2.657,3.556-4.918,2.864-1.238-2.436,1.224-3.928,2.69-5.433-.938-.938-1.876-1.863-2.834-2.775C336.163,280.852,336.038,279.869,335.98,279.372Z" transform="translate(-335.98 -278.447)" fill="#fbbc05"/>
      </g>
      <g id="_eaedf6ff" data-name="#eaedf6ff" transform="translate(246.517 98.875)">
        <path id="Path_139218" data-name="Path 139218" d="M482.265,295.082c-.318-2.319,2.156-3.182,4.009-3.322q.86,3.42,1.537,6.878C485.613,298.34,482.376,297.935,482.265,295.082Z" transform="translate(-482.237 -291.76)" fill="#eaf6ed"/>
      </g>
      <g id="_fffefeff" data-name="#fffefeff" transform="translate(32.598 101.754)">
        <path id="Path_139219" data-name="Path 139219" d="M154.413,296.564c1.413-.28,3.361-.932,4.318.56.652,2.631.423,5.374.469,8.064-.085,4.8.191,9.627-.221,14.421.111,1.387-1.427,1.667-2.332,2.254-.736-.332-1.464-.652-2.2-.954a9.29,9.29,0,0,1-.632-3.3c.078-5.673.064-11.353.006-17.027A18.474,18.474,0,0,1,154.413,296.564Z" transform="translate(-153.82 -296.179)" fill="#ebf6ff"/>
      </g>
      <g id="_e9ecf3ff" data-name="#e9ecf3ff" transform="translate(244.077 110.88)">
        <path id="Path_139220" data-name="Path 139220" d="M480.992,312.4c2.443-.365,5.409.085,7.041-2.215.808,4.377.228,8.956,1.863,13.173-2.918.534-2.1-2.927-2.247-4.7-2.456-.554-5-.248-7.452-.678C477.462,317.2,478.23,312.431,480.992,312.4Z" transform="translate(-478.492 -310.19)" fill="#eaf6ed"/>
      </g>
      <g id="_f7777aff" data-name="#f7777aff" transform="translate(111.19 116.728)">
        <path id="Path_139221" data-name="Path 139221" d="M274.479,319.554c4.429-.684,8.924-.221,13.379-.352,12.337.117,24.69-.248,37.017.2a25.937,25.937,0,0,1-.248,3.088c-.84.072-1.667.149-2.5.234-.183,2.781.729,6.109-1.29,8.416a5.992,5.992,0,0,1-9.2.02c-2.036-2.358-1.2-5.719-1.374-8.559q-16.434,0-32.868.013c-.977-.085-2.339.228-2.84-.906-.02-.541-.052-1.616-.072-2.156m43.673,2.625a28.972,28.972,0,0,0-.111,4.189,2.487,2.487,0,0,1-3.648.085c-.1-1.394.528-3.1-.573-4.215a29.677,29.677,0,0,0-.064,5.94c.521,1.863,2.7,1.733,4.234,1.6.944-2.3,1.407-5.386.162-7.6Z" transform="translate(-274.478 -319.168)" fill="#fbbc05"/>
      </g>
      <g id="_fbffffff" data-name="#fbffffff" transform="translate(150.35 119.738)">
        <path id="Path_139222" data-name="Path 139222" d="M339.114,323.79c1.244,2.215.781,5.3-.163,7.6-1.531.127-3.713.26-4.234-1.6a29.682,29.682,0,0,1,.064-5.94c1.1,1.114.475,2.82.573,4.215a2.489,2.489,0,0,0,3.648-.085A28.972,28.972,0,0,1,339.114,323.79Z" transform="translate(-334.598 -323.79)" fill="#fbffff"/>
      </g>
      <g id="_fbfefdff" data-name="#fbfefdff" transform="translate(32.824 130.665)">
        <path id="Path_139224" data-name="Path 139224" d="M154.5,344.851c-.547-1.283-.528-3.211.853-3.954,1.25-.853,2.609.137,3.691.788a4.923,4.923,0,0,1-.918,4.064C156.9,345.669,155.224,346.183,154.5,344.851Z" transform="translate(-154.166 -340.567)" fill="#ebf6ff"/>
      </g>
      <g id="_caccdaff" data-name="#caccdaff" transform="translate(40.055 149.616)">
        <path id="Path_139225" data-name="Path 139225" d="M245.915,369.692c.234-.006.7-.026.938-.032.567,1.114,1.159,2.221,1.778,3.309,4.709.445,9.432.228,14.147.267,4.045-.039,8.116.235,12.135-.391.4-.795.814-1.591,1.25-2.371,13.125.091,26.243.02,39.369.046,14.056.059,28.119-.26,42.176.15.059,3.094-2.391,5.159-3.928,7.556.795.228,1.591.445,2.4.645q-92.174-.01-184.374,0c-3.1-1.718-5.882-4.234-6.533-7.891a20.789,20.789,0,0,1,5.713-.6c22.348.248,44.7.078,67.051.143C240.678,370.539,243.433,370.839,245.915,369.692Z" transform="translate(-165.269 -369.66)" fill="#caccda"/>
      </g>
      <g id="_8b94a9ff" data-name="#8b94a9ff" transform="translate(121.639 149.591)">
        <path id="Path_139226" data-name="Path 139226" d="M290.52,369.647c9.927-.026,19.86-.046,29.787.013l-.475.8c-.437.781-.847,1.576-1.25,2.371-4.019.626-8.09.352-12.135.391-4.716-.039-9.438.176-14.147-.267C291.679,371.867,291.087,370.76,290.52,369.647Z" transform="translate(-290.52 -369.621)" fill="#8b94a9"/>
      </g>
      <g id="_a9b3d1ff" data-name="#a9b3d1ff" transform="translate(8.027 157.745)">
        <path id="Path_139227" data-name="Path 139227" d="M106.19,384.138c5.109-.856,10.255-.1,15.383-.395,9.134.169,18.275-.09,27.416.079q87.644-.051,175.295,0c4.378-.113,8.763.2,13.141-.146,5.945-.2,11.89.191,17.836.191.031.991.087,2.974.118,3.977-4.267.62-8.546.169-12.819.293q-110.422-.034-220.843.012c-5.128-.067-10.255.124-15.377-.124Z" transform="translate(-106.19 -383.618)" fill="#a9b3d1"/>
      </g>
    </g>
    <g id="Group_33111" data-name="Group 33111" transform="translate(2476.077 934.927) rotate(-11)">
      <path id="Path_139126" data-name="Path 139126" d="M19.373,1.749A5.39,5.39,0,0,0,12.944.592C10.429,1.819,8.018,3.251,5.468,4.434c-1.917,1-4.244,1.93-5.113,4.092-.743,1.69-.165,3.529.314,5.2.991-.349,2.249-.437,2.9-1.354.214-.955.162-1.939.354-2.9a17.549,17.549,0,0,1,3.349-1.9c2.428-1.17,4.751-2.545,7.2-3.686.573-.209,1.428-.607,1.9-.026a10,10,0,0,1,2.415,4.882c.127.939-.827,1.45-1.489,1.9-2.223,1.327-4.62,2.328-6.878,3.6a10.1,10.1,0,0,1-3.642,1.45A16.476,16.476,0,0,1,5.15,14.637c-1.141-1.159-3.655.815-2.672,2.2A5.372,5.372,0,0,0,9.434,18.8c2.694-1.292,5.3-2.76,7.973-4.092,1.48-.8,3.149-1.485,4.139-2.913a4.658,4.658,0,0,0,.843-4.275,19.727,19.727,0,0,0-3.016-5.769Z" transform="translate(22.693 0)"/>
      <path id="Path_139127" data-name="Path 139127" d="M17.284.315c-2.8-1.048-5.494.755-7.9,1.987C6.791,3.782,3.908,4.8,1.557,6.677-.524,8.419-.255,11.541.83,13.764c1.1,2.482,2.834,5.393,5.86,5.567,2.991-.223,5.433-2.218,8.1-3.4,2.786-1.541,6.589-2.5,7.585-5.943.725-1.559-.255-3.114-.886-4.507a8.142,8.142,0,0,0-2.432,1.192c-.616,1.2.022,3.083-1.467,3.742-2.183,1.205-4.472,2.209-6.646,3.445a13.42,13.42,0,0,1-4.214,1.764c-.738.1-1.065-.655-1.441-1.145a10.55,10.55,0,0,1-1.664-4.009c-.188-.884.73-1.32,1.311-1.756C6.971,7.478,9.2,6.591,11.289,5.434A15.429,15.429,0,0,1,15.425,3.6c.961.118,1.637.983,2.41,1.5q1.291-.629,2.568-1.266A4.423,4.423,0,0,0,17.284.315Z" transform="translate(0 11.783)"/>
      <g id="_ced2e7ff" data-name="#ced2e7ff" transform="translate(9.813 0.286)">
        <path id="Path_139163" data-name="Path 139163" d="M2.816,0C.611,1.222.445,4.073.025,6.288c-.262,1.5,1.581.851,1.786-.127A10.472,10.472,0,0,0,2.816,0Z" transform="translate(11.062 0)"/>
        <path id="Path_139164" data-name="Path 139164" d="M1.585,0C1.061.162.533.328,0,.489A29.676,29.676,0,0,0,2.594,5.695a1.894,1.894,0,0,0,1.24.851c.255-.493.577-1.03.31-1.591A25.865,25.865,0,0,0,1.585,0Z" transform="translate(5.201 1.895)"/>
        <path id="Path_139165" data-name="Path 139165" d="M6,1.786A26.956,26.956,0,0,0,.428,0C.288.509.144,1.022,0,1.537A19,19,0,0,0,7.064,3.515C6.777,2.908,6.751,2.031,6,1.786Z" transform="translate(0 6.699)"/>
        <path id="Path_139166" data-name="Path 139166" d="M1.664,0C1.114.191.559.382,0,.581A42.965,42.965,0,0,0,3.288,6.7a7.123,7.123,0,0,0,.926-1.389A19.116,19.116,0,0,0,1.664,0Z" transform="translate(15.677 22.331)"/>
        <path id="Path_139167" data-name="Path 139167" d="M3.223.987C2.834.659,2.449.328,2.056,0,.755,2.291-.555,4.969.244,7.651,2.441,6.166,2.393,3.257,3.223.987Z" transform="translate(11.437 22.86)"/>
      </g>
      <g id="_ced2e8ff" data-name="#ced2e8ff" transform="translate(28.817 20.992)">
        <path id="Path_139177" data-name="Path 139177" d="M6.638,1.73A12.031,12.031,0,0,0,0,.036c.843,2.482,3.961,2.418,6.087,3Q6.369,2.379,6.638,1.73Z" transform="translate(0 0)"/>
      </g>
    </g>
  </g>
</svg>
