<svg xmlns="http://www.w3.org/2000/svg" width="243" height="227" viewBox="0 0 243 227">
  <g id="No_internet_Connection" data-name="No internet Connection" transform="translate(-78.587 -89.565)">
    <g id="_ffffffff" data-name="#ffffffff" transform="translate(93.668 109.745)">
      <path id="Path_36251" data-name="Path 36251" d="M356.158,125.239c3.909-.519,8.063-.519,11.737,1.1a20.161,20.161,0,1,1-19.628,34.869c-6.345-4.639-9.666-13.2-7.635-20.855A20.262,20.262,0,0,1,356.158,125.239Z" transform="translate(-206.498 -124.931)" fill="#fff"/>
      <path id="Path_36252" data-name="Path 36252" d="M422.414,151.977c2.973-1.729,6.956.993,6.682,4.354.4,3.458-3.749,6.2-6.756,4.445-3.389-1.638-3.366-7.229.074-8.8m.525,1.581c-2.191,1.575-1.512,6.151,1.529,6.06,2.516.126,3.458-3.138,2.414-5.027A2.779,2.779,0,0,0,422.939,153.557Z" transform="translate(-240.755 -136.314)" fill="#fff"/>
      <path id="Path_36253" data-name="Path 36253" d="M438.784,151.614q3.244-.043,6.493,0c-.046.417-.143,1.244-.194,1.655-1.512-.006-3.024,0-4.536.006,0,.844,0,1.689.006,2.533,1.335.029,2.67.046,4.011.074-.029.354-.091,1.061-.12,1.409-1.29.006-2.585.006-3.869.011q-.034,2.046-.069,4.091c-.593-.08-1.175-.16-1.757-.24C438.8,157.97,438.767,154.792,438.784,151.614Z" transform="translate(-248.886 -136.38)" fill="#fff"/>
      <path id="Path_36254" data-name="Path 36254" d="M452.6,151.613q3.235-.051,6.482.011c-.034.411-.1,1.227-.126,1.638-1.512,0-3.024-.006-4.536,0-.006.856-.006,1.706,0,2.562,1.307.023,2.613.046,3.926.08-.029.342-.086,1.027-.12,1.369l-3.783.034c-.2,1.541.833,4.622-1.843,4.1C452.585,158.141,452.59,154.877,452.6,151.613Z" transform="translate(-254.829 -136.379)" fill="#fff"/>
      <path id="Path_36255" data-name="Path 36255" d="M131.58,290.292a109.226,109.226,0,0,1,42.589-14.932c.325,7.144.719,14.288.873,21.437a88.892,88.892,0,0,0-50.315,26.048c-1.569,1.672-3.264,3.4-5.535,4.063a10.672,10.672,0,0,1-12.268-16.159c3.218-4.177,7.475-7.4,11.2-11.087.628-.919.65-2.22,1.592-2.939,1.221-1.067,2.562-1.986,3.852-2.973.8-.542,1.581-1.335,2.63-1.21C128.287,292.78,129.9,291.262,131.58,290.292Z" transform="translate(-105.016 -189.526)" fill="#fff"/>
      <path id="Path_36256" data-name="Path 36256" d="M276.42,275.44a110.9,110.9,0,0,1,66.223,34.487,10.584,10.584,0,0,1,2.031,10.83c-1.832,5.284-8.314,8.428-13.552,6.345-2.26-.719-3.983-2.425-5.558-4.12A88.951,88.951,0,0,0,275.49,296.86C275.61,289.711,276.049,282.578,276.42,275.44Z" transform="translate(-178.624 -189.56)" fill="#fff"/>
      <path id="Path_36257" data-name="Path 36257" d="M272,383.157c.331-7.275.411-14.562.862-21.837a67.967,67.967,0,0,1,20.77,8.485c.3-.154.9-.462,1.2-.616,2.762,1.312,4.976,3.515,7.321,5.432.148.953.057,2.094.884,2.779,1.575,1.683,3.344,3.338,4.028,5.62a10.7,10.7,0,0,1-14.71,13.118c-1.991-.947-3.446-2.648-5.033-4.12A40.142,40.142,0,0,0,272,383.157Z" transform="translate(-177.037 -226.438)" fill="#fff"/>
      <path id="Path_36258" data-name="Path 36258" d="M171.069,379.372a61,61,0,0,1,32.387-18.162c.434,7.264.5,14.544.85,21.82a39.517,39.517,0,0,0-15.52,8.844,22.937,22.937,0,0,1-4.7,3.9,10.676,10.676,0,0,1-13.021-16.4Z" transform="translate(-132.41 -226.39)" fill="#fff"/>
    </g>
    <g id="_727272ff" data-name="#727272ff" transform="translate(90.728 89.565)">
      <path id="Path_36259" data-name="Path 36259" d="M315.28,97.316a22.1,22.1,0,0,1,17.551-7.726c3.178.137,6.408-.257,9.563.211.28.291.845.873,1.124,1.164-.514.474-.719,1.5-1.535,1.546-4.673.359-9.409-.325-14.048.5a18.961,18.961,0,0,0-13.192,10.653,21.478,21.478,0,0,0-1.723,9.575c.046,11.806-.04,23.611.046,35.417a18.962,18.962,0,0,0,13.517,17.6c3.309.97,6.8.759,10.2.776q28.561-.009,57.122,0a45.2,45.2,0,0,0,9.084-.479,18.961,18.961,0,0,0,12.816-10.311,20.721,20.721,0,0,0,1.854-9.386q-.009-16.253.006-32.507c.051-3.743-.137-7.652-1.894-11.041a18.778,18.778,0,0,0-16.747-10.676c-13.523-.091-27.052.029-40.569-.057-1.626.308-2.242-1.934-1.061-2.779a22.059,22.059,0,0,1,4.553-.205c12.353.029,24.712-.006,37.066.017A21.892,21.892,0,0,1,415.7,97.664a22.152,22.152,0,0,1,4.947,13.854q-.009,17.957.006,35.908a22.544,22.544,0,0,1-3.532,12.593,21.7,21.7,0,0,1-15.229,9.717c-1.7.28-3.583.143-5.027,1.232-8.7,5.946-17.426,11.834-26.116,17.785-.713.405-1.478,1.05-2.357.753-1.056-.462-.753-1.769-.873-2.687q.017-8.4.017-16.787c-12.142-.051-24.285.04-36.427-.046a21.923,21.923,0,0,1-19.971-15.121c-1.449-4.228-1.044-8.742-1.078-13.129-.017-10.105-.046-20.21,0-30.316a22.026,22.026,0,0,1,5.221-14.105m55.142,72.648c-.006,5.141-.051,10.282.029,15.429,5.2-3.435,10.311-6.99,15.475-10.476a78.869,78.869,0,0,0,6.887-4.907C385.349,169.873,377.886,169.959,370.423,169.965Z" transform="translate(-190.674 -89.565)" fill="#34a853"/>
      <path id="Path_36260" data-name="Path 36260" d="M142.6,287.415a113.113,113.113,0,0,1,47.165-17.335c.023,1,.04,2.009.074,3.013a109.226,109.226,0,0,0-42.589,14.932c-1.683.97-3.292,2.488-5.386,2.248A1.929,1.929,0,0,1,142.6,287.415Z" transform="translate(-117.748 -167.657)" fill="#34a853"/>
      <path id="Path_36261" data-name="Path 36261" d="M276.4,270.18A113.1,113.1,0,0,1,344.1,304.946a14.323,14.323,0,0,1,3.492,5.655,13.678,13.678,0,0,1-19.2,16.353c-2.379-1.118-4.074-3.184-5.883-5.016a85.736,85.736,0,0,0-47.251-24.227c.04-1.039.086-2.077.131-3.11a88.951,88.951,0,0,1,50.075,26.122c1.575,1.695,3.3,3.4,5.558,4.12,5.238,2.083,11.72-1.061,13.552-6.345a10.584,10.584,0,0,0-2.031-10.83,110.9,110.9,0,0,0-66.223-34.487C276.35,272.183,276.367,271.179,276.4,270.18Z" transform="translate(-175.538 -167.862)" fill="#34a853"/>
      <path id="Path_36262" data-name="Path 36262" d="M122.514,338.978a88.892,88.892,0,0,1,50.315-26.048c.034,1.01.068,2.026.108,3.041A86.511,86.511,0,0,0,127.5,338.236c-3.018,2.745-5.495,6.425-9.6,7.64-6.562,2.454-14.539-1.232-17.055-7.737a13.81,13.81,0,0,1,2.476-14.31A89.869,89.869,0,0,1,114,313.82a1.409,1.409,0,0,1,1.911,1.974c-3.72,3.686-7.977,6.91-11.2,11.087A10.672,10.672,0,0,0,116.98,343.04C119.251,342.378,120.945,340.65,122.514,338.978Z" transform="translate(-99.864 -186.254)" fill="#34a853"/>
      <path id="Path_36263" data-name="Path 36263" d="M166.965,374.724a64.22,64.22,0,0,1,34.11-18.7q.069,1.472.137,2.961a61,61,0,0,0-32.387,18.162,10.676,10.676,0,0,0,13.021,16.4,22.936,22.936,0,0,0,4.7-3.9,39.517,39.517,0,0,1,15.52-8.844c.1.981.217,1.974.405,2.95a38.193,38.193,0,0,0-12.308,6.682c-2.254,1.752-3.994,4.131-6.516,5.54a13.352,13.352,0,0,1-10.236,1.272,13.691,13.691,0,0,1-6.442-22.521Z" transform="translate(-127.212 -204.956)" fill="#34a853"/>
      <path id="Path_36264" data-name="Path 36264" d="M273.67,356.19a63.76,63.76,0,0,1,20.564,7.983c1.01.559,2.157,1.609,1.244,2.813-.3.154-.9.462-1.2.616a67.967,67.967,0,0,0-20.77-8.485C273.561,358.141,273.618,357.16,273.67,356.19Z" transform="translate(-174.696 -204.867)" fill="#34a853"/>
      <path id="Path_36265" data-name="Path 36265" d="M301.871,384.569c.9.017,1.974-.377,2.665.434,3.292,2.767,5.849,6.767,5.763,11.2a13.64,13.64,0,0,1-21.135,11.657c-2.22-1.535-3.886-3.709-6.02-5.346a39.918,39.918,0,0,0-11.794-6.448c.171-.981.28-1.974.371-2.961a40.141,40.141,0,0,1,15.32,8.861c1.586,1.472,3.041,3.172,5.033,4.12a10.7,10.7,0,0,0,14.71-13.118c-.685-2.282-2.454-3.937-4.028-5.62C301.928,386.663,302.019,385.522,301.871,384.569Z" transform="translate(-173.788 -217.181)" fill="#34a853"/>
    </g>
    <g id="_b5b5b5ff" data-name="#b5b5b5ff" transform="translate(224.048 106.313)">
      <path id="Path_36267" data-name="Path 36267" d="M354.882,119.209a54.15,54.15,0,0,1,7.874-.28q12.565.009,25.129.006c3.612.017,7.275-.223,10.819.616a23.371,23.371,0,0,1,16.279,32.855,23.649,23.649,0,0,1-20.832,13.432H357.644a23.413,23.413,0,0,1-2.762-46.629m-1.1,3.446a20.262,20.262,0,0,0-15.526,15.115c-2.031,7.652,1.29,16.216,7.635,20.855a20.164,20.164,0,1,0,19.628-34.869c-3.675-1.62-7.829-1.62-11.737-1.1m32,15.355c-3.441,1.569-3.464,7.161-.074,8.8,3.007,1.757,7.155-.987,6.756-4.445.274-3.361-3.709-6.083-6.682-4.354m8.239-.428c-.017,3.178.011,6.356-.034,9.54.582.08,1.164.16,1.757.24q.034-2.046.069-4.091c1.284-.006,2.579-.006,3.869-.011.029-.348.091-1.056.12-1.409-1.341-.029-2.676-.046-4.011-.074-.006-.844-.006-1.689-.006-2.533,1.512-.006,3.024-.011,4.536-.006.051-.411.148-1.238.194-1.655q-3.252-.043-6.493,0m7.874,0c-.011,3.264-.017,6.528,0,9.791,2.676.525,1.643-2.556,1.843-4.1l3.783-.034c.034-.342.091-1.027.12-1.369-1.312-.034-2.619-.057-3.926-.08-.006-.856-.006-1.706,0-2.562,1.512-.006,3.024,0,4.536,0,.029-.411.091-1.227.125-1.638Q405.131,137.534,401.893,137.583Z" transform="translate(-334.501 -118.916)" fill="#7f7f7f"/>
      <path id="Path_36268" data-name="Path 36268" d="M424.323,154.829a2.779,2.779,0,0,1,3.943,1.033c1.044,1.889.1,5.152-2.414,5.027C422.811,160.98,422.132,156.4,424.323,154.829Z" transform="translate(-372.52 -134.155)" fill="#7f7f7f"/>
      <path id="Path_36269" data-name="Path 36269" d="M415.856,230.446c7.463-.006,14.927-.091,22.39.046a78.865,78.865,0,0,1-6.887,4.907c-5.164,3.486-10.276,7.041-15.475,10.476C415.805,240.728,415.851,235.587,415.856,230.446Z" transform="translate(-369.427 -166.794)" fill="#eaf6ed"/>
      <path id="Path_36270" data-name="Path 36270" d="M444.3,323.752c3.452-2.048,8.142,1.546,7.007,5.4a4.858,4.858,0,1,1-7.007-5.4Z" transform="translate(-380.546 -206.618)" fill="#34a853"/>
    </g>
    <g id="_e8e8e8ff" data-name="#e8e8e8ff" transform="translate(78.587 111.421)">
      <path id="Path_36271" data-name="Path 36271" d="M177.763,161.872c9.894-12.144,18.752-25.929,32.608-34-.046,10.055-.017,20.109,0,30.164.034,4.366-.37,8.857,1.076,13.064a21.864,21.864,0,0,0,19.925,15.045c12.114.085,24.228-.006,36.343.045q0,8.346-.017,16.7c.12.914-.182,2.214.871,2.674.877.3,1.64-.346,2.351-.749,8.67-5.922,17.38-11.781,26.056-17.7,1.44-1.084,3.319-.948,5.015-1.226a21.652,21.652,0,0,0,15.194-9.669,106.11,106.11,0,0,1,4.327,35.188,113.886,113.886,0,0,1-8.22,38.544c-7.287,17.089-19.9,31.583-34.857,42.49-24.8,17.992-55.419,26.735-85.813,28.307A15.7,15.7,0,0,0,163.058,313a16.1,16.1,0,0,0-1.731,8.6c-.222-.749-.444-1.5-.66-2.237-12.109-2.061-24.166-4.792-35.654-9.2-13.458-5.115-26.437-12.95-34.971-24.765-15.274-20.819-15.353-51.534.239-72.205A83.819,83.819,0,0,1,127.4,185.558c11.374-4.042,23.523-5.842,34.481-11.077a43.613,43.613,0,0,0,15.877-12.609m-7.685,27.11a11.584,11.584,0,0,0-7.315,7.3c-1.07,4.031-.108,8.227-.211,12.326A113.043,113.043,0,0,0,115.5,225.856a1.916,1.916,0,0,0-.734,2.844c-1.047-.125-1.827.664-2.624,1.2-1.287.982-2.624,1.9-3.843,2.958-.939.715-.962,2.01-1.588,2.924a1.4,1.4,0,0,0-1.907-1.964,89.561,89.561,0,0,0-10.651,9.958,13.594,13.594,0,0,0,14.545,21.937c4.1-1.209,6.569-4.871,9.581-7.6A86.4,86.4,0,0,1,163.6,235.962c.427,7.136.683,14.284.894,21.438a64.121,64.121,0,0,0-34.031,18.61,13.448,13.448,0,0,0-3.6,10.327,13.6,13.6,0,0,0,10.031,12.081,13.353,13.353,0,0,0,10.213-1.266c2.516-1.4,4.253-3.77,6.5-5.513a38.135,38.135,0,0,1,12.279-6.648,11.535,11.535,0,0,0,22.435.091A39.858,39.858,0,0,1,200.09,291.5c2.129,1.629,3.791,3.793,6.006,5.32a13.612,13.612,0,0,0,21.086-11.6c.085-4.411-2.465-8.391-5.75-11.145-.689-.806-1.765-.414-2.659-.431-2.34-1.908-4.548-4.1-7.3-5.4.911-1.2-.233-2.243-1.241-2.8a63.718,63.718,0,0,0-20.517-7.943c.285-7.148.461-14.3.837-21.438a85.619,85.619,0,0,1,47.142,24.106c1.8,1.822,3.5,3.878,5.869,4.99a13.7,13.7,0,0,0,14.932-1.732,13.552,13.552,0,0,0,4.224-14.54,14.244,14.244,0,0,0-3.484-5.626,112.946,112.946,0,0,0-67.55-34.592c-.222-4.786,1.412-10.032-1.167-14.426a11.678,11.678,0,0,0-10.332-5.87c-3.37.062-6.826-.369-10.1.613m117.806,50.353a4.843,4.843,0,0,0-.854,7.965,4.9,4.9,0,0,0,7.845-2.595C296.007,240.873,291.328,237.3,287.883,239.334Z" transform="translate(-78.587 -127.87)" fill="#fff"/>
      <path id="Path_36272" data-name="Path 36272" d="M111.464,457.946c4.251-1.906,9.335,2.682,7.686,7.081-.981,4.108-6.7,5.523-9.6,2.545C106.471,464.9,107.578,459.224,111.464,457.946Z" transform="translate(-91.12 -270.39)" fill="#34a853"/>
    </g>
    <g id="_ed1b24ff" data-name="#ed1b24ff" transform="translate(120.565 146.616)">
      <path id="Path_36273" data-name="Path 36273" d="M155.263,191.384a3.772,3.772,0,1,1-1.723,6.368C151.412,195.915,152.41,191.824,155.263,191.384Z" transform="translate(-152.397 -191.258)" fill="#34a853"/>
      <path id="Path_36274" data-name="Path 36274" d="M233.4,235.014c3.287-.987,6.75-.553,10.128-.616a11.7,11.7,0,0,1,10.356,5.9c2.585,4.416.947,9.689,1.17,14.5-.029,1-.046,2-.074,3-.371,7.138-.81,14.271-.93,21.42-.046,1.033-.091,2.071-.131,3.11-.377,7.178-.553,14.362-.839,21.546-.051.97-.108,1.951-.16,2.927-.451,7.275-.531,14.562-.862,21.837-.091.987-.2,1.98-.371,2.961a11.555,11.555,0,0,1-22.487-.091c-.188-.976-.308-1.969-.405-2.95-.348-7.275-.417-14.556-.85-21.82q-.068-1.489-.137-2.961c-.211-7.19-.468-14.373-.9-21.546-.04-1.016-.074-2.031-.108-3.041-.154-7.15-.548-14.293-.873-21.437-.034-1-.051-2.008-.074-3.013.1-4.12-.862-8.336.211-12.388A11.627,11.627,0,0,1,233.4,235.014Z" transform="translate(-183.811 -209.764)" fill="#ff6565"/>
      <path id="Path_36275" data-name="Path 36275" d="M238.26,444.994a13,13,0,0,1,10.522,1.66,12.706,12.706,0,1,1-10.522-1.66Z" transform="translate(-185.29 -300.027)" fill="#ff6565"/>
    </g>
  </g>
</svg>
