<svg xmlns="http://www.w3.org/2000/svg" width="248.738" height="233.624" viewBox="0 0 248.738 233.624">
  <g id="No_result_found" data-name="No result found" transform="translate(-17.908 -72.333)">
    <g id="_ffffffff" data-name="#ffffffff" transform="translate(75.186 83.237)">
      <path id="Path_36276" data-name="Path 36276" d="M94.221,86.126q2.434,2.41,4.844,4.844,2.422-2.434,4.844-4.859,1.983,1.959,3.941,3.941c-1.591,1.638-3.205,3.261-4.82,4.875q2.362,2.374,4.741,4.733c-1.33,1.258-2.461,2.857-4.068,3.743-1.662-1.393-3.1-3.007-4.638-4.535-1.567,1.567-3.134,3.142-4.669,4.741q-2.066-1.923-4.044-3.933Q92.726,97.3,95.1,94.919q-2.422-2.422-4.82-4.859Q92.251,88.089,94.221,86.126Z" transform="translate(-90.28 -86.11)" fill="#fff"/>
      <path id="Path_36277" data-name="Path 36277" d="M120.766,93.23q41.1.047,82.2.008c.016,7.622,0,15.243,0,22.857.309.024.934.055,1.243.071l.7,2.311c8.057.206,16.122.087,24.178.047q0,64.475.008,128.965-66.778.131-133.563,0c.016-11.112-.032-22.224.024-33.335-.063-2.738.712-6.244-2.287-7.709-.1-.926-.206-1.836-.317-2.746.878-.847,2.952-1.377,2.477-2.984-.119-1.29-1.812-1.5-2.6-2.264.055-1.211.095-2.422.135-3.633.91-.586,2.327-.886,2.564-2.129.2-1.67-1.662-2.113-2.675-2.952.071-1.2.135-2.406.2-3.6,1.171-.942,2.865-1.844,2.493-3.641q.012-32.682,0-65.365c2.05.214,4.1.443,6.165.459a19.4,19.4,0,0,0,16.921-10c2.564-4.321,2.723-9.505,2.145-14.365m16.549,70.311c-4.171,3.933-2.659,11.943,2.936,13.739a7.319,7.319,0,0,0,7.3.594c5.026-2.4,5.5-10.724.673-13.573-2.81-2.865-7.843-3.641-10.914-.76m38.116.047c-4.013,3.957-2.509,11.682,2.913,13.6a7.145,7.145,0,0,0,6.252,1.061c5.683-1.274,7.107-10.225,2.319-13.328-2.588-3.514-8.263-4.511-11.484-1.338m-36.248,28.737c-10.13,3.569-20.071,9.885-24.978,19.77,2.6,1.029,5.113,2.493,7.97,2.6a15.352,15.352,0,0,1,3.633-4c7.028-5.754,16.05-8.334,24.9-9.584,6.062-.317,12.188-1.385,18.243-.364a57.285,57.285,0,0,1,12.5,1.559c8.358,1.939,16.953,5.429,22.342,12.418a62.965,62.965,0,0,0,7.764-2.691c-4.677-9.252-13.858-15.291-23.245-19.026A75.447,75.447,0,0,0,139.182,192.326Z" transform="translate(-90.81 -87.595)" fill="#fff"/>
      <path id="Path_36278" data-name="Path 36278" d="M239.772,112.929c.04-5.136-.237-10.289.348-15.409,5.722,4.986,11.128,10.32,16.771,15.4C251.184,112.937,245.478,112.929,239.772,112.929Z" transform="translate(-121.452 -88.49)" fill="#fff"/>
    </g>
    <g id="_515d70ff" data-name="#515d70ff" transform="translate(64.296 72.333)">
      <path id="Path_36279" data-name="Path 36279" d="M82.575,77.752a19.877,19.877,0,0,1,23.719-2.675,20.1,20.1,0,0,1,8.191,9.568c30.439.19,60.877.016,91.316.087,3.973,4.115,8.271,7.891,12.228,12.022,3.712,3.585,7.463,7.123,11.048,10.835.958.8.673,2.137.784,3.237q-.047,45.017-.024,90.034,0,40.47,0,80.94c.214,3.9-3.474,7.194-7.3,6.933-21.527.008-43.062-.032-64.6.016-21.488-.095-42.983.079-64.471-.087a6.914,6.914,0,0,1-5.54-6.039c-.324-25.334-.04-50.676-.158-76.01a4.827,4.827,0,0,1,2.089-4.527c3,1.464,2.224,4.97,2.287,7.709-.055,11.112-.008,22.224-.024,33.335q.012,15.659,0,31.317a62.425,62.425,0,0,0,.166,8.073,2.3,2.3,0,0,0,2.081,1.82c3.126.475,6.308.19,9.458.237q58.551,0,117.109.016c1.5-.1,3.443.04,4.305-1.48.807-2.8.364-5.785.451-8.666-.024-10.439,0-20.878-.008-31.317q-.024-64.486-.008-128.965v-2.335c-8.286-.008-16.581.047-24.875-.024-.309-.016-.934-.047-1.243-.071,0-7.614.016-15.235,0-22.857q-41.1.012-82.2-.008c-.4,0-1.2-.008-1.6-.008.807,6.941-1.725,14.365-7.416,18.638-4.487,3.72-10.558,4.677-16.209,3.933,0,.332-.008,1.005-.008,1.338q-.012,32.682,0,65.365c.372,1.8-1.322,2.7-2.493,3.641-.8-1.108-1.931-2.169-1.812-3.664-.174-3.672.016-7.352-.04-11.025-.063-18.995.087-37.989-.071-56.976-3.5-2.438-7.163-5-8.991-9.022a19.826,19.826,0,0,1,3.846-23.34m8.777,5.5q-1.971,1.959-3.941,3.933,2.4,2.446,4.82,4.859-2.374,2.386-4.749,4.757,1.983,2.006,4.044,3.933c1.535-1.6,3.1-3.174,4.669-4.741,1.535,1.527,2.976,3.142,4.638,4.535,1.607-.886,2.738-2.485,4.068-3.744q-2.374-2.362-4.741-4.733c1.615-1.615,3.229-3.237,4.82-4.875q-1.959-1.983-3.941-3.941Q98.617,85.658,96.2,88.1q-2.41-2.434-4.844-4.844m112.361,6.83c.032,5.865.024,11.737.016,17.61.507-.008,1.5-.016,2-.016,5.706,0,11.413.008,17.119-.008-5.643-5.081-11.048-10.415-16.771-15.4l.024-.285C205.3,91.349,204.511,90.716,203.712,90.083Z" transform="translate(-76.52 -72.333)" fill="#7f7f7f"/>
      <path id="Path_36280" data-name="Path 36280" d="M148.412,181.592c3.071-2.881,8.1-2.105,10.914.76,1.591,3.277,2.042,7.527-.435,10.494-1.789,2.271-4.891,2.438-7.542,2.485C145.753,193.535,144.241,185.526,148.412,181.592Z" transform="translate(-91.017 -94.742)" fill="#7f7f7f"/>
    </g>
    <g id="_c8d2e1ff" data-name="#c8d2e1ff" transform="translate(79.911 88.864)">
      <path id="Path_36281" data-name="Path 36281" d="M119.882,93.22c.4,0,1.2.008,1.6.008.578,4.859.419,10.043-2.145,14.365a19.4,19.4,0,0,1-16.921,10c-2.066-.016-4.115-.245-6.165-.459,0-.332.008-1.005.008-1.338,5.651.744,11.721-.214,16.209-3.933C118.157,107.585,120.69,100.161,119.882,93.22Z" transform="translate(-96.25 -93.22)" fill="#f2f5f8"/>
    </g>
    <g id="_e6ecf1ff" data-name="#e6ecf1ff" transform="translate(17.908 89.591)">
      <path id="Path_36282" data-name="Path 36282" d="M255.32,101.3a27.706,27.706,0,0,1,18.733-7.155c10.819-.222,21.978,3.546,29.378,11.674,8.9,9.22,12.426,22.342,12.726,34.879.158,16.707-4.947,33.921-16.042,46.647a48.224,48.224,0,0,1-19.731,14.388c-4.258,1.757-8.809,2.548-13.257,3.672q.024-45.017.024-90.034c-.111-1.1.174-2.438-.784-3.237-3.585-3.712-7.337-7.25-11.048-10.835m12.2,50.272c.055.633.158,1.915.214,2.548,1.432-.1,2.865-.2,4.305-.3l.317-1.931c-1.615-.119-3.221-.222-4.836-.317m9.03.174c.024.562.071,1.7.095,2.264l4.915-.119c.047-.53.127-1.591.174-2.121-1.733-.055-3.459-.055-5.184-.024m9.553.063c0,.507.008,1.5.008,2.01q2.279.439,4.559.9c.285-.728.57-1.448.855-2.169a39,39,0,0,0-5.421-.744m9.576,3.095c-.3.435-.9,1.322-1.2,1.757a20.8,20.8,0,0,0,3.316,3.253c.9-.182,1.884-1.14,1.021-1.987a24.138,24.138,0,0,0-3.142-3.023m3.815,8.809q.356,2.362.712,4.733l2.3-.095-.784-4.867c-.554.055-1.678.166-2.232.23m.016,9.03a24.464,24.464,0,0,0-2.366,4.305c.7.332,1.417.673,2.129,1.013.839-1.63,1.67-3.261,2.461-4.915-.744-.166-1.48-.3-2.224-.4m-9.5,9.165c.309.728.617,1.456.934,2.192q2.315-1.14,4.59-2.327c-.324-.72-.649-1.432-.973-2.153q-2.291,1.116-4.551,2.287m-18.456.609c.071.546.222,1.654.3,2.2,1.464,0,2.928,0,4.4.008.048-.538.142-1.615.182-2.153q-2.446-.036-4.883-.055m9.505.047c.055.546.182,1.638.245,2.184l4.44-.024c.055-.546.166-1.638.222-2.192C284.334,182.543,282.7,182.559,281.065,182.567Z" transform="translate(-67.423 -94.138)" fill="#fff"/>
      <path id="Path_36283" data-name="Path 36283" d="M57.838,204.1A105.759,105.759,0,0,0,75.566,192.06c.055,3.672-.135,7.352.04,11.025-.119,1.5,1.013,2.556,1.812,3.664-.063,1.2-.127,2.4-.2,3.6-1.551,1.5-1.987,3.807.111,5.081-.04,1.211-.079,2.422-.135,3.633-.451.966-1.535,1.789-1.425,2.952a22.025,22.025,0,0,0,1.551,2.3c.111.91.214,1.82.317,2.746a4.827,4.827,0,0,0-2.089,4.527c.119,25.334-.166,50.676.158,76.01-3.4-7-8.16-13.217-12.291-19.786l-1.108-1.773-.973-.95s-6.529-7.511-10.732-10.146c-3.158-2-10.526-3.261-10.526-3.261l-1.021-.206s-1.068-.514-1.425-.689c-5.825-2.129-11.65-5.136-15.227-10.407-4.946-6.276-5.722-15.093-2.77-22.414,3.838-10.566,12.956-17.807,21.575-24.44,1.029,3,3.11,5.809,6.268,6.719a9.785,9.785,0,0,0,12.568-5.96c1.345-3.506.158-7.424-2.208-10.186m-4.472,51.111c-.055,2.968,3.308,2,5.216,2.137.119-.491.348-1.456.467-1.947a52.437,52.437,0,0,0-5.683-.19m9.822.119c.079.5.237,1.5.317,2,1.559-.016,3.118-.032,4.677-.04.071-.483.214-1.448.285-1.923a45.186,45.186,0,0,0-5.279-.04m-19,2.533c.293.7.586,1.4.878,2.105q2.161-.985,4.329-1.971c-.174-.728-.348-1.456-.514-2.184-1.575.649-3.142,1.338-4.693,2.05m-3.926,3.933q-1.068,1.959-2.145,3.918c.625.53,1.25,1.068,1.884,1.607q1.235-2.327,2.406-4.693c-.712-.277-1.425-.554-2.145-.831m27.123,26.078c1.8.008,3.6,0,5.4-.016C73.231,284.832,67.082,284.935,67.382,287.872Z" transform="translate(-17.908 -114.561)" fill="#fff"/>
      <path id="Path_36284" data-name="Path 36284" d="M61.825,209.125l.2-.135c1.306,1.852,2.857,3.9,2.453,6.324-.451,4.313-5.5,7.487-9.521,5.6-2.382-.823-3.435-3.245-4.456-5.334C54.37,213.6,58.161,211.467,61.825,209.125Z" transform="translate(-24.706 -118.092)" fill="#fff"/>
      <path id="Path_36285" data-name="Path 36285" d="M96.24,288.14q66.778.154,133.563,0c.008,10.439-.016,20.878.008,31.317-32.18-.261-64.36-.032-96.548-.111-12.339.087-24.685-.166-37.023.111Q96.252,303.8,96.24,288.14Z" transform="translate(-34.245 -134.6)" fill="#ccf8d8"/>
      <path id="Path_36286" data-name="Path 36286" d="M97.94,345.67c21.488.166,42.983-.008,64.471.087-2.738,3.332-6.577,5.429-10.035,7.906-8.247,5.113-17.507,9.529-27.439,9.292C113.713,362.369,103.836,354.867,97.94,345.67Z" transform="translate(-34.6 -146.598)" fill="#fff"/>
    </g>
    <g id="_c8d3e2ff" data-name="#c8d3e2ff" transform="translate(191.488 90.083)">
      <path id="Path_36287" data-name="Path 36287" d="M237.23,94.76c.8.633,1.591,1.266,2.39,1.9l-.024.285c-.586,5.121-.309,10.273-.348,15.409-.5,0-1.5.008-2,.016C237.254,106.5,237.262,100.625,237.23,94.76Z" transform="translate(-237.23 -94.76)" fill="#f2f5f8"/>
    </g>
    <g id="_c7d2e1ff" data-name="#c7d2e1ff" transform="translate(79.855 111.808)">
      <path id="Path_36288" data-name="Path 36288" d="M233.56,122.21c8.294.071,16.589.016,24.875.024v2.335c-8.057.04-16.122.158-24.178-.047Z" transform="translate(-124.832 -122.21)" fill="#f2f5f8"/>
      <path id="Path_36289" data-name="Path 36289" d="M96.227,327.675c12.339-.277,24.685-.024,37.024-.111,32.188.079,64.368-.15,96.548.111-.087,2.881.356,5.865-.451,8.666-.863,1.52-2.81,1.377-4.305,1.48q-58.551-.071-117.109-.016c-3.15-.048-6.332.237-9.458-.237a2.3,2.3,0,0,1-2.081-1.82A62.427,62.427,0,0,1,96.227,327.675Z" transform="translate(-96.179 -165.034)" fill="#ffefef"/>
    </g>
    <g id="_cbd2daff" data-name="#cbd2daff" transform="translate(30.945 131.15)">
      <path id="Path_36290" data-name="Path 36290" d="M41.139,146.65l1.725.032c.2,2.374.127,4.764.127,7.147q3.407.036,6.814.2c-.174.4-.514,1.179-.689,1.575-2.058.04-4.115.087-6.173.127.024,2.374.016,4.749,0,7.123l-1.9.032c-.032-2.39-.04-4.788-.024-7.178a55.208,55.208,0,0,1-6.165-.206c-.119-.412-.356-1.227-.475-1.638q3.3-.024,6.6-.024C40.989,151.438,40.925,149.04,41.139,146.65Z" transform="translate(-34.38 -146.65)" fill="#34a853"/>
    </g>
    <g id="_c8d4e0ff" data-name="#c8d4e0ff" transform="translate(218.009 147.027)">
      <path id="Path_36291" data-name="Path 36291" d="M270.74,166.71c1.615.1,3.221.2,4.836.317l-.317,1.931c-1.44.1-2.873.2-4.305.3C270.9,168.625,270.8,167.343,270.74,166.71Z" transform="translate(-270.74 -166.71)" fill="#34a853"/>
    </g>
    <g id="_c7d3dfff" data-name="#c7d3dfff" transform="translate(40.938 147.179)">
      <path id="Path_36292" data-name="Path 36292" d="M282.15,166.924c1.725-.032,3.451-.032,5.184.024-.047.53-.127,1.591-.174,2.121l-4.915.119C282.221,168.626,282.174,167.486,282.15,166.924Z" transform="translate(-96.048 -166.903)" fill="#34a853"/>
      <path id="Path_36293" data-name="Path 36293" d="M160.728,183.03c4.828,2.849,4.353,11.175-.673,13.573a7.319,7.319,0,0,1-7.3-.594c2.651-.047,5.754-.214,7.542-2.485C162.77,190.557,162.319,186.307,160.728,183.03Z" transform="translate(-69.06 -170.266)" fill="#f2f5f8"/>
      <path id="Path_36294" data-name="Path 36294" d="M52.019,204.907a10.161,10.161,0,0,1,11.887,1.615c2.366,2.762,3.554,6.68,2.208,10.186a9.785,9.785,0,0,1-12.568,5.96c-3.158-.91-5.239-3.72-6.268-6.719a10,10,0,0,1,4.741-11.041m2.81,1.955c-3.348.91-4.978,4.377-5.057,7.614,1.021,2.089,2.074,4.511,4.456,5.334,4.021,1.884,9.07-1.29,9.521-5.6.4-2.422-1.148-4.472-2.453-6.324l-.2.135C59.213,206.925,56.989,205.976,54.829,206.862Z" transform="translate(-47.006 -174.574)" fill="#34a853"/>
    </g>
    <g id="_c8d2deff" data-name="#c8d2deff" transform="translate(236.592 147.264)">
      <path id="Path_36295" data-name="Path 36295" d="M294.22,167.01a39,39,0,0,1,5.421.744c-.285.72-.57,1.44-.855,2.169q-2.279-.463-4.559-.9C294.228,168.514,294.22,167.517,294.22,167.01Z" transform="translate(-294.22 -167.01)" fill="#34a853"/>
    </g>
    <g id="_cbd4deff" data-name="#cbd4deff" transform="translate(244.973 150.359)">
      <path id="Path_36296" data-name="Path 36296" d="M306.005,170.92a24.134,24.134,0,0,1,3.142,3.023c.863.847-.119,1.8-1.021,1.986a20.8,20.8,0,0,1-3.316-3.253C305.1,172.242,305.7,171.355,306.005,170.92Z" transform="translate(-304.81 -170.92)" fill="#34a853"/>
    </g>
    <g id="_515e70ff" data-name="#515e70ff" transform="translate(98.581 157.316)">
      <path id="Path_36297" data-name="Path 36297" d="M196.6,181.626c3.221-3.174,8.9-2.176,11.484,1.338,1.053,3.229,1.409,7.186-1.021,9.909-1.8,2.287-4.907,2.351-7.55,2.359C194.092,193.307,192.588,185.583,196.6,181.626Z" transform="translate(-135.375 -179.711)" fill="#7f7f7f"/>
      <path id="Path_36298" data-name="Path 36298" d="M144.818,217.446a75.447,75.447,0,0,1,49.125.689c9.386,3.736,18.567,9.774,23.245,19.026a62.965,62.965,0,0,1-7.764,2.691c-5.39-6.988-13.985-10.479-22.342-12.418a57.285,57.285,0,0,0-12.5-1.559c-6.055-1.021-12.18.047-18.243.364-8.848,1.25-17.871,3.831-24.9,9.584a15.352,15.352,0,0,0-3.633,4c-2.857-.111-5.374-1.575-7.97-2.6C124.747,227.331,134.687,221.015,144.818,217.446Z" transform="translate(-119.84 -186.794)" fill="#7f7f7f"/>
    </g>
    <g id="_cdd4dfff" data-name="#cdd4dfff" transform="translate(249.983 158.938)">
      <path id="Path_36299" data-name="Path 36299" d="M311.14,181.99c.554-.063,1.678-.174,2.232-.23l.784,4.867-2.3.095Q311.5,184.348,311.14,181.99Z" transform="translate(-311.14 -181.76)" fill="#34a853"/>
    </g>
    <g id="_c5cfdbff" data-name="#c5cfdbff" transform="translate(162.719 160.568)">
      <path id="Path_36300" data-name="Path 36300" d="M209.451,183.82c4.788,3.1,3.364,12.054-2.319,13.328a7.145,7.145,0,0,1-6.252-1.061c2.643-.008,5.746-.071,7.55-2.358C210.86,191.006,210.5,187.049,209.451,183.82Z" transform="translate(-200.88 -183.82)" fill="#f2f5f8"/>
    </g>
    <g id="_ced7e0ff" data-name="#ced7e0ff" transform="translate(247.633 168.198)">
      <path id="Path_36301" data-name="Path 36301" d="M310.536,193.46c.744.1,1.48.237,2.224.4-.791,1.654-1.622,3.284-2.461,4.915-.712-.34-1.425-.681-2.129-1.013A24.462,24.462,0,0,1,310.536,193.46Z" transform="translate(-308.17 -193.46)" fill="#34a853"/>
    </g>
    <g id="_ced6e1ff" data-name="#ced6e1ff" transform="translate(240.502 175.075)">
      <path id="Path_36302" data-name="Path 36302" d="M299.16,204.437q2.256-1.175,4.551-2.287c.324.72.649,1.432.973,2.153q-2.279,1.187-4.59,2.327C299.777,205.894,299.469,205.165,299.16,204.437Z" transform="translate(-299.16 -202.15)" fill="#34a853"/>
    </g>
    <g id="_c8d2ddff" data-name="#c8d2ddff" transform="translate(222.045 177.972)">
      <path id="Path_36303" data-name="Path 36303" d="M275.84,205.81q2.434.024,4.883.055c-.04.538-.135,1.615-.182,2.153-1.472-.008-2.936-.008-4.4-.008C276.062,207.464,275.911,206.356,275.84,205.81Z" transform="translate(-275.84 -205.81)" fill="#34a853"/>
      <path id="Path_36304" data-name="Path 36304" d="M314.154,277.795a5.883,5.883,0,0,1,2.105.016c-.071,2.659-.063,5.318-.016,7.978q3.633.012,7.273.158c-.032.507-.087,1.52-.111,2.034q-3.585.036-7.155.087-.047,3.977-.063,7.97c-.538.063-1.607.2-2.145.261q-.036-4.119-.048-8.239c-2.406-.032-4.8-.047-7.2.008-.087-.689-.483-1.464.087-2.066a71.073,71.073,0,0,1,7.115-.158C314.011,283.161,313.908,280.47,314.154,277.795Z" transform="translate(-282.251 -220.803)" fill="#ff6565"/>
    </g>
    <g id="_cad3deff" data-name="#cad3deff" transform="translate(231.551 177.988)">
      <path id="Path_36305" data-name="Path 36305" d="M287.85,205.862c1.63-.008,3.269-.024,4.907-.032-.055.554-.166,1.646-.222,2.192l-4.44.024C288.032,207.5,287.905,206.408,287.85,205.862Z" transform="translate(-287.85 -205.83)" fill="#34a853"/>
    </g>
    <g id="_545d6eff" data-name="#545d6eff" transform="translate(75.905 185.38)">
      <path id="Path_36306" data-name="Path 36306" d="M92.614,220.251c-2.1-1.274-1.662-3.577-.111-5.081,1.013.839,2.873,1.282,2.675,2.952C94.941,219.365,93.524,219.665,92.614,220.251Z" transform="translate(-91.188 -215.17)" fill="#7f7f7f"/>
    </g>
    <g id="_525d6fff" data-name="#525d6fff" transform="translate(75.764 194.093)">
      <path id="Path_36307" data-name="Path 36307" d="M91.018,229.132c-.111-1.163.973-1.987,1.425-2.952.791.768,2.485.973,2.6,2.264.475,1.607-1.6,2.137-2.477,2.984A22.022,22.022,0,0,1,91.018,229.132Z" transform="translate(-91.01 -226.18)" fill="#7f7f7f"/>
    </g>
    <g id="_d0d7dfff" data-name="#d0d7dfff" transform="translate(228.462 219.301)">
      <path id="Path_36308" data-name="Path 36308" d="M288.1,258.244c4.242-1.322,8.413,3.767,6.347,7.669a5.523,5.523,0,0,1-8.912,1.575c-3.015-2.786-1.488-8.429,2.564-9.244m.934,1.7c-2.9.229-4.472,4.282-2.176,6.229a3.62,3.62,0,0,0,5.952-1.1A3.723,3.723,0,0,0,289.031,259.945Z" transform="translate(-283.948 -258.03)" fill="#ff6565"/>
    </g>
    <g id="_cad1dfff" data-name="#cad1dfff" transform="translate(53.365 230.225)">
      <path id="Path_36309" data-name="Path 36309" d="M62.71,271.846a52.433,52.433,0,0,1,5.683.19c-.119.491-.348,1.456-.467,1.947C66.018,273.849,62.654,274.814,62.71,271.846Z" transform="translate(-62.709 -271.833)" fill="#ff6565"/>
    </g>
    <g id="_cad1deff" data-name="#cad1deff" transform="translate(63.188 230.299)">
      <path id="Path_36310" data-name="Path 36310" d="M75.12,271.985a45.189,45.189,0,0,1,5.279.04c-.071.475-.214,1.44-.285,1.923-1.559.008-3.118.024-4.677.04C75.357,273.488,75.2,272.483,75.12,271.985Z" transform="translate(-75.12 -271.926)" fill="#ff6565"/>
    </g>
    <g id="_ccd4dfff" data-name="#ccd4dfff" transform="translate(44.185 230.84)">
      <path id="Path_36311" data-name="Path 36311" d="M51.11,274.66c1.551-.712,3.118-1.4,4.693-2.05.166.728.34,1.456.514,2.184q-2.173.985-4.329,1.971C51.7,276.061,51.4,275.356,51.11,274.66Z" transform="translate(-51.11 -272.61)" fill="#ff6565"/>
    </g>
    <g id="_cdd5dfff" data-name="#cdd5dfff" transform="translate(38.115 236.823)">
      <path id="Path_36312" data-name="Path 36312" d="M45.585,280.17c.72.277,1.433.554,2.145.831q-1.175,2.362-2.406,4.693c-.633-.538-1.258-1.076-1.884-1.607Q44.52,282.129,45.585,280.17Z" transform="translate(-43.44 -280.17)" fill="#ff6565"/>
    </g>
    <g id="_d1d9e0ff" data-name="#d1d9e0ff" transform="translate(37.375 245.814)">
      <path id="Path_36313" data-name="Path 36313" d="M43.008,297.292a12.352,12.352,0,0,1-.245-5.762c.356.174,1.068.514,1.425.689.309.974.578,1.955.839,2.952.087.356.277,1.076.364,1.432Z" transform="translate(-42.505 -291.53)" fill="#ff6565"/>
    </g>
    <g id="_cfd4dcff" data-name="#cfd4dcff" transform="translate(40.046 254.631)">
      <path id="Path_36314" data-name="Path 36314" d="M45.88,303.984c.451-.324,1.353-.981,1.812-1.314q1.638,1.662,3.269,3.348l-1.2,1.931A28.251,28.251,0,0,1,45.88,303.984Z" transform="translate(-45.88 -302.67)" fill="#ff6565"/>
    </g>
    <g id="_c8d2dfff" data-name="#c8d2dfff" transform="translate(48.103 260.139)">
      <path id="Path_36315" data-name="Path 36315" d="M56.733,309.63q2.208.368,4.424.752l.38,2.089a22.9,22.9,0,0,1-5.477-.807C56.226,311.158,56.567,310.137,56.733,309.63Z" transform="translate(-56.06 -309.63)" fill="#ff6565"/>
    </g>
    <g id="_ced5deff" data-name="#ced5deff" transform="translate(57.798 260.875)">
      <path id="Path_36316" data-name="Path 36316" d="M68.571,310.56l4.25.19,1.108,1.773q-2.814.154-5.619.079C68.373,312.1,68.5,311.074,68.571,310.56Z" transform="translate(-68.31 -310.56)" fill="#ff6565"/>
    </g>
    <g id="_c9d1ddff" data-name="#c9d1ddff" transform="translate(67.372 260.658)">
      <path id="Path_36317" data-name="Path 36317" d="M80.417,312.529c-.3-2.936,5.849-3.039,5.4-.016C84.018,312.529,82.214,312.537,80.417,312.529Z" transform="translate(-80.406 -310.286)" fill="#ff6565"/>
    </g>
  </g>
</svg>
