<svg xmlns="http://www.w3.org/2000/svg" xmlns:xlink="http://www.w3.org/1999/xlink" width="238.474" height="184.714" viewBox="0 0 238.474 184.714">
  <defs>
    <filter id="Rectangle_765" x="50.373" y="34.395" width="133.973" height="107.86" filterUnits="userSpaceOnUse">
      <feOffset input="SourceAlpha"/>
      <feGaussianBlur stdDeviation="3" result="blur"/>
      <feFlood flood-opacity="0.161"/>
      <feComposite operator="in" in2="blur"/>
      <feComposite in="SourceGraphic"/>
    </filter>
  </defs>
  <g id="Thank_you" data-name="Thank you" transform="translate(0 0)">
    <path id="Path_3117" data-name="Path 3117" d="M14.474,24.159C31.735-3.472,76.652-9.182,99.838,16.36s21.775,52.3,32.714,60.222,36.277-30.327,64.115-27.406,48.648,16.132,39.707,57.006-57.774,85.27-122.166,77.678S-34.08,101.882,14.474,24.159Z" transform="translate(0 0)" fill="#34a853" opacity="0.1"/>
    <g id="Group_248" data-name="Group 248" transform="translate(14.87 12.578)">
      <g transform="matrix(1, 0, 0, 1, -14.87, -12.58)" filter="url(#Rectangle_765)">
        <rect id="Rectangle_765-2" data-name="Rectangle 765" width="115.973" height="89.86" rx="8" transform="translate(59.37 43.4)" fill="#fff"/>
      </g>
      <g id="_27447eff" data-name="#27447eff" transform="translate(30.761 0)">
        <path id="Path_3043" data-name="Path 3043" d="M361.164,253.238l.467-.138c-.27,1.01-.554,2.017-.872,3.014-1.5,4.948-3.08,9.868-4.574,14.813-.495,1.609-1.007,3.211-1.481,4.823-.028.083-.076.246-.1.325-.163.512-.322,1.021-.474,1.536-2.758,9.038-5.609,18.041-8.339,27.086-2.993-2.522-5.955-5.083-8.979-7.567-4.093-3.443-8.159-6.924-12.27-10.346q-.664-.561-1.318-1.121c8.875-7.623,17.892-15.076,26.771-22.7,3.3-2.74,6.564-5.536,9.868-8.273A4.578,4.578,0,0,0,361.164,253.238Z" transform="translate(-323.22 -253.1)" fill="#fbbc05"/>
        <path id="Path_3044" data-name="Path 3044" d="M392.375,527.7a7.848,7.848,0,0,1,8.093-.038q3.742,2.289,7.481,4.588c10.775,6.682,21.647,13.207,32.4,19.917,9.055,5.381,17.931,11.062,26.993,16.436-.01,1.374,0,2.751-.007,4.131,0,2.543.01,5.086,0,7.63-.024,2.284.066,4.574-.045,6.858a5.663,5.663,0,0,1-3.924,3.879c-2.6.64-5.294.28-7.938.384q-21.633-.026-43.266-.028c-4.273.038-8.547.052-12.813-.076-5.765.232-11.536-.021-17.3.1-16.491-.014-32.982-.038-49.473.017a8.55,8.55,0,0,1-5.159-1.505,4.639,4.639,0,0,1-1.938-3.744c.014-2.332.01-4.664.024-6.993.035-3.574-.007-7.149.014-10.72a32.575,32.575,0,0,0,4.232-2.443c-.042-.159-.131-.474-.176-.633a15.169,15.169,0,0,0,2.931,1.349c.291-.332.571-.675.837-1.024-.481-.287-.962-.568-1.45-.834,3.45-2.457,7.194-4.467,10.761-6.747,14.048-8.64,28.145-17.2,42.179-25.865q3.768-2.325,7.54-4.637m-29.982,18.8c.194,2.131.941,4.18.913,6.343a2.738,2.738,0,0,0,1.315-.287,11.468,11.468,0,0,0-.823-5.56c-.18-.626-.934-.363-1.4-.495m-3.429,15.9c.266.318.36,1.062.924.948.457.014.682-.488.99-.744a13.714,13.714,0,0,0,2.495-4.062c.083-.661-.644-.768-1.062-1.028a22.405,22.405,0,0,1-3.346,4.886m-14.578-2.862a29.009,29.009,0,0,0,3.9,4.958c.446-.287,1.2-.682.761-1.318-1-1.318-2.1-2.55-3.021-3.927-.443-.685-1.232-.1-1.644.287m4.927,8.156c-.121.526-.118,1.194.564,1.291.8-.142,1.547-.495,2.343-.657a37.285,37.285,0,0,0,4.605,3.64c.464.028,1.336-.384.962-.955-1.069-1.318-2.744-1.976-3.817-3.3.395-.26.81-.5,1.18-.8.6-.408-.173-.938-.315-1.381-1.737.983-3.713,1.37-5.522,2.163m-11.491-.076c-.062.394-.135,1.059.4,1.152a20.065,20.065,0,0,0,5.785.792c.059-.457.118-.91.176-1.363-1.443-.183-2.886-.388-4.318-.63-.678-.073-1.419-.332-2.048.048m24.2,6.394c-.062.481-.6,1.111,0,1.464a25.146,25.146,0,0,0,4.817,2.592c.824.055.986-1.128.3-1.439a38.9,38.9,0,0,0-5.114-2.616m10.384,5.277c-.443.273-.495,1.125.055,1.3a34.96,34.96,0,0,0,4.81,1.664c.758.349,1.36-.858.692-1.26-1.308-.619-2.747-.9-4.076-1.471C373.4,579.412,372.881,578.993,372.4,579.284Z" transform="translate(-324.698 -431.937)" fill="#fbbc05"/>
      </g>
      <g id="_272f60ff" data-name="#272f60ff" transform="translate(0 0.138)">
        <path id="Path_3045" data-name="Path 3045" d="M294.655,255.957c2.491-.758,5-1.453,7.495-2.2l.875-.253a4.579,4.579,0,0,1-1.3,1.457c-1.28-.211-2.159.893-3.2,1.415-6.979,3.633-13.6,7.893-20.5,11.678-2.543,1.363-4.882,3.083-7.5,4.315-2.522,1.176-4.72,2.907-7.166,4.221-2.491,1.367-4.955,2.789-7.4,4.242-1.7-.571-3.4-1.1-5.093-1.682q-6.965-2.341-13.951-4.6c-.865-.277-1.734-.554-2.6-.841a27.388,27.388,0,0,1,2.958-.924c1.481-.353,2.927-.837,4.37-1.318.83-.221,1.657-.457,2.488-.692,2.256-.63,4.5-1.318,6.751-1.969,2.512-.761,5.041-1.464,7.557-2.221,3.194-.955,6.408-1.841,9.592-2.844.64-.176,1.291-.318,1.927-.516,1.08-.329,2.159-.664,3.246-.976,2.211-.657,4.432-1.291,6.647-1.941,2.661-.789,5.322-1.564,7.986-2.343.99-.3,1.99-.585,2.986-.872C292.108,256.732,293.374,256.327,294.655,255.957Z" transform="translate(-234.32 -253.5)" fill="#fbbc05"/>
        <path id="Path_3046" data-name="Path 3046" d="M327.918,445.426a24.529,24.529,0,0,1,10.235-.024c.107-.09.325-.266.432-.353.007.093.024.284.031.377a45.735,45.735,0,0,1,24.768,12.041q7.484,7.344,14.927,14.737c.668.7,1.343,1.4,2.055,2.059,1.073,1,2.107,2.042,3.187,3.038-.062.183-.183.55-.242.734-6.2,3.394-12.612,6.4-18.837,9.758-2.214.945-4.228,2.28-6.432,3.239-2.882,1.346-5.633,2.952-8.515,4.3-2.242,1.041-4.339,2.37-6.619,3.325a19.643,19.643,0,0,1-.28-3.823c-.464-.038-.927-.08-1.388-.118a22.4,22.4,0,0,0,.135,4.142c-1.557,2.041-4.131,2.644-6.263,3.848-3.08,1.775-6.367,3.145-9.491,4.827q.031-29.237.007-58.473c-.076-1.581,1.145-2.744,2.291-3.633M354.2,486.955a18.451,18.451,0,0,1,5.509,2.505c.194-.429.8-1.142.187-1.516a10.054,10.054,0,0,0-5.076-2.232c-.713.031-.557.744-.619,1.242m-10.657,2.27c-.166.574.523.823.81,1.194a12.8,12.8,0,0,1,4.868-3.118,2.039,2.039,0,0,0-.6-1.422A11.1,11.1,0,0,0,343.547,489.225Z" transform="translate(-294.029 -378.656)" fill="#fbbc05"/>
        <path id="Path_3047" data-name="Path 3047" d="M612.7,445.5c3.488-.585,7.135-.99,10.592-.01a7.534,7.534,0,0,1,2.035,2.28,17.7,17.7,0,0,1,.2,4.086q0,24.975.007,49.958c0,.993,0,1.99.007,2.986q0,1.225.017,2.453l-.554.28c-2.906-2.087-6.294-3.315-9.387-5.073-6.557-3.377-13.117-6.74-19.723-10.021-2.232-1.076-4.336-2.4-6.6-3.419-5.626-2.782-11.142-5.778-16.792-8.515a47.316,47.316,0,0,1-5.083-2.868c4.685-4.56,9.329-9.166,14-13.747,3.775-3.588,7.221-7.571,11.522-10.557A46.479,46.479,0,0,1,612.7,445.5Z" transform="translate(-452.162 -378.673)" fill="#fbbc05"/>
      </g>
      <g id="_202044ff" data-name="#202044ff" transform="translate(21.64 1.569)">
        <path id="Path_3048" data-name="Path 3048" d="M339.423,259.075c1.038-.522,1.917-1.626,3.2-1.415-3.3,2.737-6.564,5.533-9.868,8.273-8.879,7.619-17.9,15.072-26.771,22.7a18.115,18.115,0,0,0-.834,1.633c-2.211,4.367-4.353,8.768-6.6,13.117-.336-2.235-.2-4.519-.644-6.744-.242-2.962-.363-5.934-.7-8.889-.114-1.4-.2-2.813-.346-4.214,2.443-1.453,4.906-2.875,7.4-4.242,2.446-1.315,4.644-3.045,7.166-4.221,2.619-1.232,4.958-2.952,7.5-4.315C325.821,266.968,332.444,262.708,339.423,259.075Z" transform="translate(-296.86 -257.633)" fill="#c59300"/>
        <path id="Path_3049" data-name="Path 3049" d="M474.157,284.233a6.928,6.928,0,0,1,8.727-.024c7.7,6.626,15.432,13.2,23.107,19.851-18.287.028-36.574-.01-54.861.021,1.436-1.46,3.142-2.616,4.605-4.048.6-.495,1.2-1,1.789-1.512q.846-.747,1.716-1.471c.066-.052.19-.156.253-.2,2.218-1.9,4.422-3.813,6.64-5.713l.834-.72c2.09-1.8,4.194-3.588,6.28-5.394C473.552,284.759,473.853,284.5,474.157,284.233Z" transform="translate(-397.75 -274.777)" fill="#fbbc05"/>
      </g>
      <g id="_202858ff" data-name="#202858ff" transform="translate(155.303 15.841)">
        <path id="Path_3062" data-name="Path 3062" d="M683.464,299.058a1.039,1.039,0,0,1,1.592.561c.481,2.882.882,5.778,1.325,8.664.125.913-1.055,1.343-1.723.841-.754-2.526-.8-5.2-1.332-7.768C683.281,300.615,682.89,299.674,683.464,299.058Z" transform="translate(-683.154 -298.882)"/>
      </g>
      <g id="_252f5eff" data-name="#252f5eff" transform="translate(162.523 21.558)">
        <path id="Path_3067" data-name="Path 3067" d="M709.619,315.672c.647-.754,1.26.28,1.779.647a23.124,23.124,0,0,1-3.042,3.308c-1.09,1.066-2.107,2.211-3.294,3.18-.384-.388-.99-.675-1.042-1.28a4.333,4.333,0,0,1,1.218-1.561C706.722,318.561,708.079,317.018,709.619,315.672Z" transform="translate(-704.02 -315.403)"/>
      </g>
      <g id="_1f2858ff" data-name="#1f2858ff" transform="translate(164.979 32.747)">
        <path id="Path_3073" data-name="Path 3073" d="M711.969,347.74c2.927.412,5.855.858,8.778,1.308,1.017.045,1.138,1.855.076,1.924a39.562,39.562,0,0,1-4.176-.567,41.382,41.382,0,0,1-4.924-.817C710.713,349.335,711.083,347.913,711.969,347.74Z" transform="translate(-711.117 -347.74)"/>
      </g>
      <g id="_1c1c40ff" data-name="#1c1c40ff" transform="translate(70.897 44.522)">
        <path id="Path_3076" data-name="Path 3076" d="M457.234,381.809c.868-.259,1.927.879,1.152,1.606a4.916,4.916,0,0,1-2.6.664c-2.2.073-4.391.232-6.588.311a201.89,201.89,0,0,1,.851,22.034c.045.709-.384,1.768-1.242,1.647-.976-.038-.976-1.277-.972-1.99a198.762,198.762,0,0,0-.682-21.342c-2.377.131-5.01.1-7.021,1.557-.349-.446-1.145-.865-.851-1.54.689-1.131,2.1-1.429,3.294-1.7C447.407,382.141,452.355,382.314,457.234,381.809Z" transform="translate(-439.215 -381.771)" fill="#1c1c40"/>
        <path id="Path_3077" data-name="Path 3077" d="M487.7,392.3c.17-.509.775-.661,1.173-.945.315.394.83.716.851,1.277.346,2.512.273,5.055.6,7.567a5.618,5.618,0,0,1,2.377-.775c1.564.474,2.346,2.073,2.7,3.55.779,3.294.633,6.7.654,10.062a5.579,5.579,0,0,1-.138,1.495,1.124,1.124,0,0,1-1.962-.412c-.163-3.471.221-6.993-.5-10.419-.2-.761-.412-1.692-1.176-2.076-1.021.1-1.242,1.415-1.46,2.232-.329,2.592.069,5.253-.567,7.816-.18.924-1.779.855-1.958-.038a14.5,14.5,0,0,1-.156-4.149C488.735,402.436,487.894,397.356,487.7,392.3Z" transform="translate(-470.924 -388.042)" fill="#1c1c40"/>
        <path id="Path_3078" data-name="Path 3078" d="M515.077,463.405a3.476,3.476,0,0,1,3.592,1.6,5.611,5.611,0,0,1,1.232,4.138,13.183,13.183,0,0,1-3.135,6.277,4.215,4.215,0,0,1-3.955,1.7,3.626,3.626,0,0,1-2.533-3.125,11.506,11.506,0,0,1,1.218-7.318c.879-1.343,1.979-2.785,3.581-3.266m-.4,3.349c-.481.45-1.291.55-1.522,1.235a10.849,10.849,0,0,0-.792,5.913,1.252,1.252,0,0,0,1.578,1.114,4.618,4.618,0,0,0,2.474-2.637,20.063,20.063,0,0,0,1.429-4.325,2.828,2.828,0,0,0-2.564-2.644C515.084,465.858,514.915,466.322,514.679,466.755Z" transform="translate(-485.606 -435.105)" fill="#1c1c40"/>
      </g>
      <g id="_1b1b3fff" data-name="#1b1b3fff" transform="translate(109.065 48.798)">
        <path id="Path_3079" data-name="Path 3079" d="M579.89,396.178c.052-.789.177-1.889,1.138-2.048.45.135,1.038.474.993,1.024-.19,3.4-.066,6.8.073,10.2,1.647-1.142,2.038-3.263,2.9-4.948.564-.83,2.028-.024,1.754.9-.436,2.332-1.983,4.228-3.46,6a28.377,28.377,0,0,0,5.163,5c.7.626,1.429-.083,2.024-.467.571.343,1.658.865,1.087,1.7a3.414,3.414,0,0,1-3.772.73c-2.294-1.114-3.785-3.259-5.512-5.045-.014,1.311.118,2.623.055,3.938a1.182,1.182,0,0,1-1.284,1.2c-.291-.249-.568-.512-.827-.782-.156-1.882.353-3.951-.692-5.647.751-1.017.426-2.315.46-3.481C579.966,401.7,579.755,398.936,579.89,396.178Z" transform="translate(-569.147 -394.13)" fill="#1b1b3f"/>
        <path id="Path_3080" data-name="Path 3080" d="M552.653,414.4c1.547-.637,3.782,0,4.2,1.772.349,2.512-.048,5.066.173,7.588.177.938,1.453,1.869.626,2.806-.509.657-1.26-.052-1.692-.422-1.28-1.1-1.187-2.913-1.159-4.446-.024-1.612.152-3.228.045-4.834-.121-.965-1.744-.785-2.01.045-1.277,2.439-.785,5.311-1.031,7.955-.125.72-.474,1.689-1.377,1.609-.765-.118-.962-.993-.893-1.644.066-3.118-.239-6.3.568-9.342C550.439,414.366,551.816,414.822,552.653,414.4Z" transform="translate(-549.523 -407.231)" fill="#1b1b3f"/>
      </g>
      <g id="_6f9ad1ff" data-name="#6f9ad1ff" transform="translate(15.422 50.508)">
        <path id="Path_3081" data-name="Path 3081" d="M282.447,399.07c.325.142.654.284.983.429-.1,1.412-1.308,2.3-1.99,3.443-.471.616-.772,1.419-1.446,1.841-.277-.038-.827-.121-1.1-.159C279.312,402.409,281.118,400.793,282.447,399.07Z" transform="translate(-278.89 -399.07)"/>
        <path id="Path_3082" data-name="Path 3082" d="M281.88,586.664c.516-.183,1.225-.495,1.581.131.958,1.353,2.055,2.612,2.962,4,.443.512-.44.934-.623,1.356C284.233,590.56,282.562,588.837,281.88,586.664Z" transform="translate(-280.845 -521.596)"/>
      </g>
      <g id="_1d1e42ff" data-name="#1d1e42ff" transform="translate(98.195 53.931)">
        <path id="Path_3083" data-name="Path 3083" d="M522.064,410.174c.962-1.014,3.035-1.862,4.048-.509.118.806-.336,1.592-.26,2.419.031,2.782-.343,5.592.107,8.353a4.808,4.808,0,0,0,1.661,2.751c-.163.45-.2,1.028-.7,1.263-.81.266-1.315-.63-1.827-1.1-1.149-1.194-1.308-2.879-1.474-4.439-.848,1.232-1.215,2.858-2.55,3.706-1.26.955-2.931-.477-2.927-1.841-.325-3.9,1.45-7.685,3.917-10.605m-1.851,10.342a12.789,12.789,0,0,0,1.74-3.834,16.077,16.077,0,0,0,1.246-4.571A12.629,12.629,0,0,0,520.213,420.516Z" transform="translate(-518.109 -408.964)" fill="#1d1e42"/>
      </g>
      <g id="_fffffdff" data-name="#fffffdff" transform="translate(100.299 57.079)">
        <path id="Path_3084" data-name="Path 3084" d="M524.19,426.465a12.629,12.629,0,0,1,2.986-8.4,16.073,16.073,0,0,1-1.246,4.571A12.785,12.785,0,0,1,524.19,426.465Z" transform="translate(-524.19 -418.06)" fill="#fffffd"/>
      </g>
      <g id="_201f43ff" data-name="#201f43ff" transform="translate(33.889 57.778)">
        <path id="Path_3085" data-name="Path 3085" d="M332.26,429.211c3.564-3.021,7.076-6.111,10.64-9.131.042,2.917-.017,5.834.028,8.754-.107.086-.325.263-.433.353A24.529,24.529,0,0,0,332.26,429.211Z" transform="translate(-332.26 -420.08)" fill="#c59300"/>
      </g>
      <g id="_1e1f42ff" data-name="#1e1f42ff" transform="translate(160.52 57.885)">
        <path id="Path_3086" data-name="Path 3086" d="M698.23,420.39c3.557,3,7.069,6.048,10.605,9.073-3.457-.979-7.1-.574-10.592.01C698.23,426.445,698.237,423.418,698.23,420.39Z" transform="translate(-698.23 -420.39)" fill="#c59300"/>
      </g>
      <g id="_6e99d0ff" data-name="#6e99d0ff" transform="translate(10.422 60.241)">
        <path id="Path_3087" data-name="Path 3087" d="M264.44,433.473a12.729,12.729,0,0,1,2.54-6.273c.356.253.713.509,1.069.765-.806,1.785-1.5,3.626-2.374,5.377C265.367,433.373,264.748,433.439,264.44,433.473Z" transform="translate(-264.44 -427.2)"/>
      </g>
      <g id="_6d98d0ff" data-name="#6d98d0ff" transform="translate(7.522 71.289)">
        <path id="Path_3088" data-name="Path 3088" d="M257.209,459.175c.4-.017.806-.031,1.211-.045.062,2.138-.727,4.17-.931,6.284-.478-.028-.955-.055-1.429-.087A24.389,24.389,0,0,1,257.209,459.175Z" transform="translate(-256.06 -459.13)"/>
        <path id="Path_3089" data-name="Path 3089" d="M266.626,556.67c.4.2,1.031.149,1.232.651.754,1.446,1.439,2.934,2.138,4.412.443.7-.495,1.024-.931,1.336a32.273,32.273,0,0,1-2.346-4.612A3.076,3.076,0,0,1,266.626,556.67Z" transform="translate(-262.913 -522.92)"/>
      </g>
      <g id="_1c1d40ff" data-name="#1c1d40ff" transform="translate(107.761 75.168)">
        <path id="Path_3091" data-name="Path 3091" d="M546.514,470.914c.356-1.149,2.142-.388,1.865.644-.287,2.782-1.221,5.934.543,8.425,1.706-2.422,1.734-5.54,2.477-8.311a.916.916,0,0,1,1.713.3c.564,2.412.18,5.017,1.159,7.346.64-.021,1.4-.062,1.758.609.073,1.118-1.45,2.27-2.457,1.56a6.767,6.767,0,0,1-1.785-2.232c-.716,1.135-1.384,2.623-2.841,2.913a2.847,2.847,0,0,1-2.322-1.993C545.341,477.26,545.629,473.893,546.514,470.914Z" transform="translate(-545.755 -470.339)" fill="#1c1d40"/>
      </g>
      <g id="_1b1b40ff" data-name="#1b1b40ff" transform="translate(85.555 75.417)">
        <path id="Path_3092" data-name="Path 3092" d="M481.644,472.4c-.349-.858.754-1.374,1.46-1.18,1.761,2.394.741,5.716,2.363,8.187a12.577,12.577,0,0,0,.841-6.657c-.225-.775.526-1.2.958-1.689,1.176.727,1.287,2.149,1.394,3.391.2,3.709.941,7.384.83,11.114.042,3.436-.232,7.287-2.685,9.941-.111-.491-.225-.979-.329-1.467-.2,0-.592.007-.792.007,1.924-4.111,1.862-8.785,1.6-13.221a14.05,14.05,0,0,1-2.138,1.187c-.813.138-1.246-.747-1.561-1.343A38.593,38.593,0,0,1,481.644,472.4Z" transform="translate(-481.577 -471.06)" fill="#1b1b40"/>
      </g>
      <g id="_729cd5ff" data-name="#729cd5ff" transform="translate(6.754 82.764)">
        <path id="Path_3095" data-name="Path 3095" d="M253.94,492.479c.505-.069,1.2-.457,1.533.149.1,1.813.111,3.64.066,5.457.021.678-.723.775-1.221.561C253.552,496.69,253.933,494.524,253.94,492.479Z" transform="translate(-253.839 -492.293)"/>
      </g>
      <g id="_16183eff" data-name="#16183eff" transform="translate(84.282 93.143)">
        <path id="Path_3096" data-name="Path 3096" d="M477.9,522.831c.505-.159,1.038-.823,1.585-.412.855.547.439,1.651.471,2.471C479.242,524.229,478.568,523.53,477.9,522.831Z" transform="translate(-477.9 -522.287)"/>
      </g>
      <g id="_6e99d1ff" data-name="#6e99d1ff" transform="translate(7.832 94.157)">
        <path id="Path_3097" data-name="Path 3097" d="M257,525.22c.394.021.792.045,1.19.069.512,1.952.862,3.948,1.45,5.882-.516.349-1.384.692-1.623-.163C257.485,529.13,256.769,527.2,257,525.22Z" transform="translate(-256.954 -525.22)"/>
      </g>
      <g id="_1f1f43ff" data-name="#1f1f43ff" transform="translate(31.579 98.396)">
        <path id="Path_3099" data-name="Path 3099" d="M383.669,537.477c.2,0,.6-.007.792-.007.1.488.218.976.329,1.467.031.176.073.356.114.536-14.034,8.661-28.131,17.225-42.179,25.865-3.567,2.28-7.311,4.291-10.761,6.747q-2.164-1.1-4.284-2.263c-.1.273-.3.823-.408,1.1.464.889,1.567,1.166,2.374,1.675.045.159.135.474.176.633a32.592,32.592,0,0,1-4.232,2.443c0-2.529-.017-5.055.007-7.581,3.125-1.682,6.412-3.052,9.491-4.827,2.131-1.2,4.706-1.806,6.263-3.848a10.713,10.713,0,0,0,.837,2.36c.294-.1.886-.318,1.183-.422-.159-.716-.325-1.426-.488-2.138,2.28-.955,4.377-2.284,6.619-3.325,2.882-1.349,5.633-2.955,8.515-4.3,2.2-.958,4.218-2.294,6.432-3.239,6.225-3.353,12.633-6.363,18.837-9.758.059-.183.18-.55.242-.734Z" transform="translate(-325.586 -537.47)" fill="#c59300"/>
        <path id="Path_3100" data-name="Path 3100" d="M563.82,540.728c.4-.412.824-.813,1.246-1.208a47.293,47.293,0,0,0,5.083,2.868c5.65,2.737,11.166,5.733,16.792,8.515,2.26,1.021,4.363,2.342,6.6,3.419,6.605,3.28,13.166,6.644,19.723,10.021,3.093,1.758,6.481,2.986,9.387,5.073l.554-.28c0,.3.01.889.014,1.187,0,.692-.007,1.381,0,2.076-.007.616-.007,1.232,0,1.855,0,.941,0,1.882.007,2.827-9.062-5.374-17.937-11.055-26.993-16.436C585.467,553.935,574.595,547.409,563.82,540.728Z" transform="translate(-481.387 -538.811)" fill="#c59300"/>
      </g>
      <g id="_78a5dbff" data-name="#78a5dbff" transform="translate(60.175 107.195)">
        <path id="Path_3102" data-name="Path 3102" d="M408.23,564.142c.062-.5-.093-1.211.619-1.242a10.053,10.053,0,0,1,5.076,2.232c.609.374.007,1.086-.187,1.516A18.452,18.452,0,0,0,408.23,564.142Z" transform="translate(-408.23 -562.9)"/>
      </g>
      <g id="_78a1d8ff" data-name="#78a1d8ff" transform="translate(49.493 107.361)">
        <path id="Path_3103" data-name="Path 3103" d="M377.382,566.726a11.1,11.1,0,0,1,5.083-3.346,2.039,2.039,0,0,1,.6,1.422,12.806,12.806,0,0,0-4.868,3.118C377.9,567.549,377.216,567.3,377.382,566.726Z" transform="translate(-377.356 -563.38)"/>
      </g>
      <g id="_79a3d8ff" data-name="#79a3d8ff" transform="translate(68.456 114.562)">
        <path id="Path_3104" data-name="Path 3104" d="M432.16,584.19c.471.132,1.225-.131,1.4.495a11.468,11.468,0,0,1,.823,5.56,2.736,2.736,0,0,1-1.315.287C433.1,588.37,432.354,586.321,432.16,584.19Z" transform="translate(-432.16 -584.19)"/>
      </g>
      <g id="_7ba7deff" data-name="#7ba7deff" transform="translate(47.174 116.199)">
        <path id="Path_3107" data-name="Path 3107" d="M370.692,588.92c.46.038.924.08,1.387.118a19.648,19.648,0,0,0,.28,3.823c.163.713.329,1.422.488,2.138-.3.1-.889.318-1.183.422a10.712,10.712,0,0,1-.837-2.36A22.4,22.4,0,0,1,370.692,588.92Z" transform="translate(-370.656 -588.92)"/>
      </g>
      <g id="_6e9ad1ff" data-name="#6e9ad1ff" transform="translate(23.917 123.776)">
        <path id="Path_3109" data-name="Path 3109" d="M304.1,610.82c1.609.976,2.855,2.422,4.367,3.533a.94.94,0,0,1,.256,1.308,1.17,1.17,0,0,1-1.412-.18,39.7,39.7,0,0,1-3.868-3.519C303.658,611.578,303.876,611.2,304.1,610.82Z" transform="translate(-303.44 -610.82)"/>
      </g>
      <g id="_769fd5ff" data-name="#769fd5ff" transform="translate(65.027 125.572)">
        <path id="Path_3110" data-name="Path 3110" d="M422.25,620.9a22.4,22.4,0,0,0,3.346-4.886c.419.26,1.145.367,1.062,1.028a13.715,13.715,0,0,1-2.495,4.062c-.308.256-.533.758-.99.744C422.61,621.958,422.516,621.214,422.25,620.9Z" transform="translate(-422.25 -616.01)"/>
      </g>
      <g id="_77a1d7ff" data-name="#77a1d7ff" transform="translate(50.449 126.994)">
        <path id="Path_3111" data-name="Path 3111" d="M380.12,620.721c.412-.384,1.2-.972,1.644-.287.917,1.377,2.024,2.609,3.021,3.927.436.637-.315,1.031-.761,1.318A29.017,29.017,0,0,1,380.12,620.721Z" transform="translate(-380.12 -620.119)"/>
        <path id="Path_3112" data-name="Path 3112" d="M430.545,663.69a38.914,38.914,0,0,1,5.114,2.616c.685.311.522,1.495-.3,1.439a25.147,25.147,0,0,1-4.817-2.592C429.943,664.8,430.483,664.171,430.545,663.69Z" transform="translate(-412.912 -648.614)"/>
      </g>
      <g id="_79a3dcff" data-name="#79a3dcff" transform="translate(33.266 130.749)">
        <path id="Path_3113" data-name="Path 3113" d="M330.46,632.067c.1-.273.308-.824.408-1.1q2.118,1.173,4.284,2.263c.488.266.969.547,1.45.834-.266.349-.547.692-.837,1.024a15.174,15.174,0,0,1-2.931-1.349C332.027,633.233,330.924,632.956,330.46,632.067Z" transform="translate(-330.46 -630.97)"/>
      </g>
      <g id="_76a1d6ff" data-name="#76a1d6ff" transform="translate(55.316 133.589)">
        <path id="Path_3114" data-name="Path 3114" d="M394.246,641.343c1.81-.792,3.785-1.18,5.522-2.163.142.443.913.972.315,1.381-.37.3-.785.536-1.18.8,1.073,1.329,2.747,1.986,3.817,3.3.374.571-.5.983-.962.955a37.279,37.279,0,0,1-4.605-3.64c-.8.163-1.543.516-2.343.657C394.128,642.536,394.125,641.869,394.246,641.343Z" transform="translate(-394.185 -639.18)"/>
      </g>
      <g id="_77a1d6ff" data-name="#77a1d6ff" transform="translate(43.842 135.473)">
        <path id="Path_3115" data-name="Path 3115" d="M361.069,644.827c.63-.381,1.37-.121,2.048-.048,1.432.242,2.875.446,4.318.63-.059.453-.118.906-.176,1.363a20.065,20.065,0,0,1-5.785-.792C360.934,645.886,361.007,645.222,361.069,644.827Z" transform="translate(-361.027 -644.625)"/>
      </g>
      <g id="_78a3d8ff" data-name="#78a3d8ff" transform="translate(78.121 147.246)">
        <path id="Path_3116" data-name="Path 3116" d="M460.438,678.749c.478-.291,1,.128,1.481.232,1.329.574,2.768.851,4.076,1.471.668.4.066,1.609-.692,1.26a34.979,34.979,0,0,1-4.81-1.664C459.944,679.874,460,679.022,460.438,678.749Z" transform="translate(-460.094 -678.648)"/>
      </g>
    </g>
  </g>
</svg>
