<svg xmlns="http://www.w3.org/2000/svg" width="188.716" height="158.964" viewBox="0 0 188.716 158.964">
  <g id="illustration_WelcometoPayrollEzy" transform="translate(0 0.432)">
    <path id="Path_2384" data-name="Path 2384" d="M54.209,30.434C76.021,24.5,92.162-7.572,117.384,1.657c22.04,8.07,6.837,37.426,32.989,38.34,15.859.561,47.529-3.332,35.792,27.148-7.129,18.506-26.584,34.655-45.506,40.62-29.306,9.247-21.684-27.335-42.065-34.05-9.162-3.017-14.76,2.994-22.377,6.846-11.2,5.664-26.06,11.9-38.805,12.136C17.132,93.066-.879,71.523.033,51.267,1.642,15.919,34.107,35.9,54.209,30.434Z" transform="translate(0 20.676)" fill="#ffebb1" opacity="0.56"/>
    <g id="Hello-bro" transform="translate(33.588 0)">
      <g id="freepik--Characters--inject-8" transform="translate(0)">
        <ellipse id="Ellipse_45" data-name="Ellipse 45" cx="22.737" cy="4.923" rx="22.737" ry="4.923" transform="translate(0 147.651)" fill="#fbbc05"/>
        <ellipse id="Ellipse_46" data-name="Ellipse 46" cx="22.737" cy="4.923" rx="22.737" ry="4.923" transform="translate(0 147.651)" fill="#f5f5f5"/>
        <ellipse id="Ellipse_47" data-name="Ellipse 47" cx="22.737" cy="4.923" rx="22.737" ry="4.923" transform="translate(82.499 147.651)" fill="#fbbc05"/>
        <ellipse id="Ellipse_48" data-name="Ellipse 48" cx="22.737" cy="4.923" rx="22.737" ry="4.923" transform="translate(82.499 147.651)" fill="#f5f5f5"/>
        <path id="Path_2315" data-name="Path 2315" d="M243.93,238.63a7.584,7.584,0,0,1,2.3,2.237c.682,1.24,3.542,2.047,3.542,2.047h1.056l.433,4.967a25.608,25.608,0,0,0-3.25.314,10.632,10.632,0,0,1-1.928.244s-3.353-4.219-3.911-5.026a3.655,3.655,0,0,1-.368-2.795C242.05,240.3,243.93,238.63,243.93,238.63Z" transform="translate(-176.856 -175.72)" fill="#fff" stroke="#263238" stroke-linecap="round" stroke-linejoin="round" stroke-width="0.75"/>
        <path id="Path_2316" data-name="Path 2316" d="M236.535,254.153s-1.863.623-1.056,1.121a2.194,2.194,0,0,0,2.486-.5C238.273,254.277,237.293,253.9,236.535,254.153Z" transform="translate(-173.929 -182.811)" fill="#fff" stroke="#263238" stroke-linecap="round" stroke-linejoin="round" stroke-width="0.75"/>
        <path id="Path_2317" data-name="Path 2317" d="M233.44,242.143s5.525-1.988,5.774-1.8a7.651,7.651,0,0,1,.682,1.863s3.845,2.3,4.16,3.168a11.315,11.315,0,0,1,0,4.095,4.32,4.32,0,0,1-1.625.807,2.454,2.454,0,0,1-1.181,0c-.184-.06-3.168-2.166-3.168-2.166s-3.038.309-3.721.309-1.37-.06-1.37-.06Z" transform="translate(-172.881 -176.501)" fill="#fff" stroke="#263238" stroke-linecap="round" stroke-linejoin="round" stroke-width="0.75"/>
        <path id="Path_2318" data-name="Path 2318" d="M246.54,248a11.727,11.727,0,0,1,2.486,1.739,14.168,14.168,0,0,1,.867,3.293" transform="translate(-179.092 -180.023)" fill="none" stroke="#263238" stroke-linecap="round" stroke-linejoin="round" stroke-width="0.75"/>
        <path id="Path_2319" data-name="Path 2319" d="M244.94,250.1s2.421,1.3,2.665,1.923a19.492,19.492,0,0,1,.542,2.421" transform="translate(-178.359 -180.987)" fill="none" stroke="#263238" stroke-linecap="round" stroke-linejoin="round" stroke-width="0.75"/>
        <path id="Path_2320" data-name="Path 2320" d="M243.5,239.776a32.783,32.783,0,0,1-3.293,3.293c-.623.314-.742-.065-1.083-.314s1.988-3.6,1.928-3.846a1.814,1.814,0,0,1,2.231.06" transform="translate(-175.676 -175.68)" fill="#fff" stroke="#263238" stroke-linecap="round" stroke-linejoin="round" stroke-width="0.75"/>
        <path id="Path_2321" data-name="Path 2321" d="M239.629,252.332l-.1.336a6.917,6.917,0,0,0-.341,1.836c.125.249.872.5,1.121.125a6.587,6.587,0,0,0,.617-2.481C240.8,251.9,240.317,250.821,239.629,252.332Z" transform="translate(-175.723 -181.649)" fill="#fff" stroke="#263238" stroke-linecap="round" stroke-linejoin="round" stroke-width="0.75"/>
        <path id="Path_2322" data-name="Path 2322" d="M243.6,252c-.195.244-1.083,2.919-.867,3.25s1.116.439,1.365.065,1.116-2.708.867-3.25S244.486,250.945,243.6,252Z" transform="translate(-177.331 -181.59)" fill="#fff" stroke="#263238" stroke-linecap="round" stroke-linejoin="round" stroke-width="0.75"/>
        <path id="Path_2323" data-name="Path 2323" d="M246.413,253l-.092.217c-.271.645-1.045,2.589-.84,2.952s1.424.542,1.674-.06,1.121-2.919.542-3.477a.731.731,0,0,0-1.284.368Z" transform="translate(-178.591 -182.03)" fill="#fff" stroke="#263238" stroke-linecap="round" stroke-linejoin="round" stroke-width="0.75"/>
        <path id="Path_2324" data-name="Path 2324" d="M167.51,155.631a6.977,6.977,0,0,1-.049,2.795c-.374.8-.932,2.464-.932,2.464l8.243,7.312s2.513-3.169,2.979-3.791,1.083-1.446,1.083-1.446-4.051-2.562-4.875-4.425-.417-4.235-2.166-4.609S168.025,154.515,167.51,155.631Z" transform="translate(-142.417 -136.693)" fill="#fff" stroke="#263238" stroke-linecap="round" stroke-linejoin="round" stroke-width="0.75"/>
        <path id="Path_2325" data-name="Path 2325" d="M181.655,128.774s3.445-.049,2.746-3.353-8.753-4.008-10.242-2.47-1.257,2.166-1.257,2.166-6.938-.184-8.709,3.586-.975,8.666.19,11.222,3.12,2.838,4.143,2.513,1.766-.932,1.766-1.863.655-3.163,1.446-2.605,1.625.742,3.028-.607,3.4-3.028,2.654-4.376-2-1.4-1.305-2,4.658-1.083,5.026-1.489a3.1,3.1,0,0,0,.515-.72Z" transform="translate(-140.871 -122.174)" fill="#263238" stroke="#263238" stroke-linecap="round" stroke-linejoin="round" stroke-width="0.75"/>
        <path id="Path_2326" data-name="Path 2326" d="M182.749,130.7s.487.98-4.149,2.2-12.457,1.462-12.69,4.393" transform="translate(-142.133 -126.082)" fill="none" stroke="#fff" stroke-linecap="round" stroke-linejoin="round" stroke-width="0.75"/>
        <path id="Path_2327" data-name="Path 2327" d="M174.193,141.07s-5.611,1.706-6.835,3.661a3.027,3.027,0,0,0,.493,3.656" transform="translate(-142.595 -130.836)" fill="none" stroke="#fff" stroke-linecap="round" stroke-linejoin="round" stroke-width="0.75"/>
        <path id="Path_2328" data-name="Path 2328" d="M185.362,134.36a46.333,46.333,0,0,1,1.305,5.308c0,.888-.932,1.766-.515,2.746s1.814,2.887,1.814,3.493-2.047,1.208-2.047,1.208-1.722,6.5-2.1,7.312-1.625.932-3.12.542-5.443-2.47-6.5-4.095-.282-4.382-.282-4.382a4.891,4.891,0,0,1-2.605-3.022c-.439-2.047,1.164-3.4,2.562-2.936a2.946,2.946,0,0,1,1.814,1.538s.141.509.542.374.791-.98,1.164-1.029,3.028-.975,2.708-2-3.634-1.083-3.4-2.237S185.362,134.36,185.362,134.36Z" transform="translate(-144.578 -127.76)" fill="#fff" stroke="#263238" stroke-linecap="round" stroke-linejoin="round" stroke-width="0.75"/>
        <line id="Line_1" data-name="Line 1" x1="1.349" y2="0.932" transform="translate(35.292 18.423)" fill="#fff" stroke="#263238" stroke-linecap="round" stroke-linejoin="round" stroke-width="0.75"/>
        <path id="Path_2329" data-name="Path 2329" d="M188.71,157.31a2.834,2.834,0,0,0,2.166,1.489" transform="translate(-152.584 -138.28)" fill="#fff" stroke="#263238" stroke-linecap="round" stroke-linejoin="round" stroke-width="0.75"/>
        <path id="Path_2330" data-name="Path 2330" d="M188.544,157.91s-.791,2.166.184,2.654,1.4-1.533,1.4-1.533Z" transform="translate(-152.369 -138.555)"/>
        <path id="Path_2331" data-name="Path 2331" d="M197.6,148.124c-.054,1.132-.341,2.036-.639,2.02s-.487-.942-.428-2.074.341-2.031.639-2.02S197.657,146.992,197.6,148.124Z" transform="translate(-156.164 -133.118)" fill="#fff" stroke="#263238" stroke-linecap="round" stroke-linejoin="round" stroke-width="0.75"/>
        <line id="Line_2" data-name="Line 2" x1="9.5" transform="translate(30.867 13.863)" fill="#fff" stroke="#263238" stroke-linecap="round" stroke-linejoin="round" stroke-width="0.75"/>
        <path id="Path_2332" data-name="Path 2332" d="M195.33,144.442a1.684,1.684,0,0,1,1.024-1.121c.8-.233.932.19.932.19" transform="translate(-155.618 -131.835)" fill="#fff" stroke="#263238" stroke-linecap="round" stroke-linejoin="round" stroke-width="0.75"/>
        <path id="Path_2333" data-name="Path 2333" d="M134.525,290.4l28.868-.867s1.8,19.986,1.365,20.424-29.052,1.625-29.052,1.625-2.215.157-2.529-.834S134.525,290.4,134.525,290.4Z" transform="translate(-127.11 -199.145)" fill="#fff" stroke="#263238" stroke-linecap="round" stroke-linejoin="round" stroke-width="0.75"/>
        <path id="Path_2334" data-name="Path 2334" d="M133.76,291.13s-2.708,19.8-2.237,20.365,2.708.97,3.418.807C135.591,312.183,133.76,291.13,133.76,291.13Z" transform="translate(-126.346 -199.879)" fill="#fff" stroke="#263238" stroke-linecap="round" stroke-linejoin="round" stroke-width="0.75"/>
        <path id="Path_2335" data-name="Path 2335" d="M149.644,390.2a3.7,3.7,0,0,0-1.982,3.91c.374,1.305.493,1.43,1.489,1.625s5.46-.5,10.291-1.305,5.53-.991,5.958-1.674,1.181-1.365-3.6-2.167-5.216-1.679-5.216-1.679S152.189,388.65,149.644,390.2Z" transform="translate(-133.725 -244.823)" fill="#fbbc05" stroke="#263238" stroke-linecap="round" stroke-linejoin="round" stroke-width="0.75"/>
        <path id="Path_2336" data-name="Path 2336" d="M165.618,393.69c-.325.666-1.343,1.863-4.544,2.248-3.385.406-9.511,1.018-12.744,1.294.222.46.493.542,1.17.693.991.184,5.46-.5,10.291-1.305s5.53-.991,5.958-1.674C166.025,394.535,166.4,394.123,165.618,393.69Z" transform="translate(-134.075 -247.02)" fill="#263238" stroke="#263238" stroke-linecap="round" stroke-linejoin="round" stroke-width="0.75"/>
        <path id="Path_2337" data-name="Path 2337" d="M160,394.4a47.415,47.415,0,0,0,7.7,2.919c2.735.558,3.412.623,3.1,1.489s-.374,1.121-4.533,2.112-8.693-.125-10.681-.5-2.605.19-3.472-.184-.623-2.237-.623-2.237Z" transform="translate(-135.51 -247.345)" fill="#fbbc05" stroke="#263238" stroke-linecap="round" stroke-linejoin="round" stroke-width="0.75"/>
        <path id="Path_2338" data-name="Path 2338" d="M166.3,404.831c3.493-.834,4.095-1.143,4.382-1.739-3.791,1.625-8.818.953-12.652.515-2.47-.287-4.826-.542-6.5-.677a1.392,1.392,0,0,0,.634,1.219c.867.374,1.489-.184,3.472.184S162.14,405.822,166.3,404.831Z" transform="translate(-135.541 -251.255)" fill="#263238" stroke="#263238" stroke-linecap="round" stroke-linejoin="round" stroke-width="0.75"/>
        <path id="Path_2339" data-name="Path 2339" d="M150.86,309.959s-.872,7.074-2.611,10.117-4.095,5.151-4.468,9.56.867,22.412.991,23.967-.542,2.047.125,3.039a17.281,17.281,0,0,0,1.365,1.739l2.053-1.8s1.489-4.782,1.116-13.909-.309-15.268,1.305-21.356,1.923-7.7,1.175-10.058S150.86,309.959,150.86,309.959Z" transform="translate(-131.957 -208.53)" fill="#263238" stroke="#263238" stroke-linecap="round" stroke-linejoin="round" stroke-width="0.75"/>
        <path id="Path_2340" data-name="Path 2340" d="M149.184,282.2s2.047,3.862,2.513,4.875,1.533,12.761.7,16.671-4.084,10.556-3.791,16.389.542,21.3.542,21.481a7.04,7.04,0,0,0,0,2.795,3,3,0,0,0,1.24,2.167,31.09,31.09,0,0,1,4.9-1.8c3.044-.872,3.911-2.112,3.911-2.112a22.4,22.4,0,0,0-.932-2.361c-.433-.867-1.175-2.231-1.051-2.67s.932-14.71,2.546-19.428,2.54-9.684,3.91-14.033,4.636-16,4.636-18.978v-3.661l-19.368-.374Z" transform="translate(-134.192 -195.438)" fill="#263238" stroke="#263238" stroke-linecap="round" stroke-linejoin="round" stroke-width="0.75"/>
        <path id="Path_2341" data-name="Path 2341" d="M150.88,334.44c-.542,1.663-1.143,3.526-1.6,5-1.083,3.521,0,23.29,0,23.29a37.213,37.213,0,0,1,.1,4.333c-.1,1.793,0,2.5.444,2.984" transform="translate(-134.291 -219.861)" fill="none" stroke="#fff" stroke-linecap="round" stroke-linejoin="round" stroke-width="0.75"/>
        <path id="Path_2342" data-name="Path 2342" d="M154.4,326.68s-.4,1.2-.937,2.838" transform="translate(-136.426 -216.192)" fill="none" stroke="#fff" stroke-linecap="round" stroke-linejoin="round" stroke-width="0.75"/>
        <path id="Path_2343" data-name="Path 2343" d="M163.852,163.76a18.6,18.6,0,0,1,5.416,3.586c3.25,2.844,6.564,5.541,5.866,6.5a31.738,31.738,0,0,0-2,4.333,21.643,21.643,0,0,0-4.793-4.875c-3.586-2.871-6.337-5.449-6.337-5.449S163.479,164.367,163.852,163.76Z" transform="translate(-140.341 -141.236)" fill="#fff" stroke="#263238" stroke-linecap="round" stroke-linejoin="round" stroke-width="0.75"/>
        <path id="Path_2344" data-name="Path 2344" d="M150.881,172.18s-6.938,4.934-8.124,9.684-1.679,7.079-1.582,16.157.65,14.808.65,15.225S140,230.523,140,230.707s3.25,3.168,12.338,3.353a109.474,109.474,0,0,0,18.415-1.441l-3.959-32.687s-1.538-13.925-3.12-16.53S150.881,172.18,150.881,172.18Z" transform="translate(-130.256 -145.205)" fill="#fbbc05" stroke="#263238" stroke-linecap="round" stroke-linejoin="round" stroke-width="0.75"/>
        <path id="Path_2345" data-name="Path 2345" d="M167.48,255.592s5.774,1.164,9.749-.282" transform="translate(-142.853 -183.378)" fill="none" stroke="#263238" stroke-linecap="round" stroke-linejoin="round" stroke-width="0.75"/>
        <path id="Path_2346" data-name="Path 2346" d="M167.48,258.766s5.774,1.164,9.749-.276" transform="translate(-142.853 -184.84)" fill="none" stroke="#263238" stroke-linecap="round" stroke-linejoin="round" stroke-width="0.75"/>
        <path id="Path_2347" data-name="Path 2347" d="M231.247,241.96l1.43.682L231.8,249.1l-1.424-.249Z" transform="translate(-171.685 -177.248)" fill="#fff" stroke="#263238" stroke-linecap="round" stroke-linejoin="round" stroke-width="0.75"/>
        <path id="Path_2348" data-name="Path 2348" d="M164.93,187.86a4.723,4.723,0,0,0-2.107,1.365c-.932,1.083-5.958,7.323-5.589,10.058s6.906,12.723,9.072,15.832a22.618,22.618,0,0,0,10.979,8.568c5.465,1.988,19.682,1,19.682,1l.753-7.707s-7.756-2.481-13.1-4.095a66.143,66.143,0,0,1-8.693-3.25s-1.24-3.044-2.112-3.537-.991-.807-.991-.807-1.674-9.126-2.546-12.111-2.047-3.721-2.047-3.721" transform="translate(-138.147 -152.397)" fill="#fbbc05" stroke="#263238" stroke-linecap="round" stroke-linejoin="round" stroke-width="0.75"/>
        <path id="Path_2349" data-name="Path 2349" d="M296.672,388.65A54.209,54.209,0,0,1,289.783,392c-3.168,1.181-3.916,1.625-3.293,2.3s6.023,1.181,9.061.542,4.225-1.051,5.59-.991,3.25.433,3.91-.5.932-1.116.433-2.67S296.672,388.65,296.672,388.65Z" transform="translate(-197.312 -244.709)" fill="#fbbc05" stroke="#263238" stroke-linecap="round" stroke-linejoin="round" stroke-width="0.75"/>
        <path id="Path_2350" data-name="Path 2350" d="M295.56,397.449c3.044-.617,4.225-1.051,5.59-.991s3.25.433,3.91-.5c.487-.666.753-.953.682-1.625-2.21-.184-6.472.515-11.553,1.625a21.063,21.063,0,0,1-7.859.4.5.5,0,0,0,.168.542C287.122,397.574,292.522,398.072,295.56,397.449Z" transform="translate(-197.322 -247.302)" fill="#263238" stroke="#263238" stroke-linecap="round" stroke-linejoin="round" stroke-width="0.75"/>
        <path id="Path_2351" data-name="Path 2351" d="M319.323,396.22a44.129,44.129,0,0,1-3.97,3.791c-2.053,1.674-5.59,3.975-5.216,4.967s2.914,1.923,8.254.542a31.11,31.11,0,0,0,9.56-4.468,2.394,2.394,0,0,0,1.49-.932,2.555,2.555,0,0,0-.06-1.923Z" transform="translate(-208.231 -248.179)" fill="#fbbc05" stroke="#263238" stroke-linecap="round" stroke-linejoin="round" stroke-width="0.75"/>
        <path id="Path_2352" data-name="Path 2352" d="M318.864,407.327a31.11,31.11,0,0,0,9.56-4.468,2.394,2.394,0,0,0,1.489-.932,2.34,2.34,0,0,0,0-1.787,33.865,33.865,0,0,1-18.773,7.214C312.147,408.048,314.628,408.41,318.864,407.327Z" transform="translate(-208.704 -249.976)" fill="#263238" stroke="#263238" stroke-linecap="round" stroke-linejoin="round" stroke-width="0.75"/>
        <path id="Path_2353" data-name="Path 2353" d="M300.871,261a14.1,14.1,0,0,1-5.649-.433c-2.361-.872-4.593-1.549-4.593-1.549s-1.305,16.947.125,23.777,5.216,15.165,5.275,17.072a40.624,40.624,0,0,0,.807,6.824c.433,1.739,2.546,15.165,2.67,16.639a10.1,10.1,0,0,1,0,2.237s-1.49.5-1.49.932v3.163a20.717,20.717,0,0,0,3.851,1.554c2.3.682,5.524,1.24,5.524,1.24a33.988,33.988,0,0,0,.617-3.791c0-.867-.542-3.163-.542-4.409s.314-16.14.314-16.14,3.038,12.728,3.038,16.947-.06,5.589-.06,5.589-1.365-.433-1.365.5-.065,3.163-.065,3.163,4.842,1.24,7.139,1.923a9.121,9.121,0,0,0,4.225.249s1.24-4.717,1.116-6.267-1.674-2.86-1.674-3.726.807-9.435-.374-16.888-4.284-10.865-4.409-14.526.542-16.823.623-18.957,2.232-6.581,2.546-8.568a66.8,66.8,0,0,0,.06-7.881S304.662,261.685,300.871,261Z" transform="translate(-199.052 -185.289)" fill="#263238" stroke="#263238" stroke-linecap="round" stroke-linejoin="round" stroke-width="0.75"/>
        <line id="Line_3" data-name="Line 3" x2="3.353" y2="2.172" transform="translate(95.883 84.399)" fill="none" stroke="#fff" stroke-linecap="round" stroke-linejoin="round" stroke-width="0.75"/>
        <path id="Path_2354" data-name="Path 2354" d="M321.38,346.16c.466,1.208.753,1.906.753,1.906" transform="translate(-213.397 -225.146)" fill="none" stroke="#fff" stroke-linecap="round" stroke-linejoin="round" stroke-width="0.75"/>
        <path id="Path_2355" data-name="Path 2355" d="M303.17,281.37s2.231,13.1,4.9,21.291c1.37,4.2,2.838,8.233,3.943,11.152" transform="translate(-205.05 -195.412)" fill="none" stroke="#fff" stroke-linecap="round" stroke-linejoin="round" stroke-width="0.75"/>
        <path id="Path_2356" data-name="Path 2356" d="M256.63,242.043c.06.184.368,6.954.368,6.954l17.819-1.625-.368-8.753Z" transform="translate(-183.717 -175.716)" fill="#263238" stroke="#263238" stroke-linecap="round" stroke-linejoin="round" stroke-width="0.75"/>
        <path id="Path_2357" data-name="Path 2357" d="M309.27,176.575S305.234,178,304.428,179s-5.59,17.814-7.16,22.781-2.047,19.991-2.047,19.991a17.05,17.05,0,0,0,2.67.747,13.687,13.687,0,0,0,2.708.184s5.216-17.57,7.761-23.588,6.824-14.651,8.444-18,3.038-3.975,2.854-5.59-.932-2.237-1.863-2.361S309.27,176.575,309.27,176.575Z" transform="translate(-201.406 -145.641)" fill="#fff" stroke="#263238" stroke-linecap="round" stroke-linejoin="round" stroke-width="0.75"/>
        <path id="Path_2358" data-name="Path 2358" d="M310.218,175.665s-4.035,1.424-4.842,2.421-5.584,17.814-7.122,22.781-2.064,19.991-2.064,19.991a17.038,17.038,0,0,0,2.67.747,14.169,14.169,0,0,0,2.708.184s5.216-17.57,7.761-23.593,6.83-14.624,8.444-18,3.038-3.97,2.854-5.584-.932-2.237-1.863-2.361S310.218,175.665,310.218,175.665Z" transform="translate(-201.851 -145.222)" fill="#fbbc05" stroke="#263238" stroke-linecap="round" stroke-linejoin="round" stroke-width="0.75"/>
        <path id="Path_2359" data-name="Path 2359" d="M318.956,178.6a105.615,105.615,0,0,0-6.64,13.476c-2.546,6.581-4.593,12.457-7.2,21.231a44.538,44.538,0,0,0-1.549,16.7s1.24,2.112,8.568,2.361,16.514-2.112,16.514-2.112a114.99,114.99,0,0,1-1.37-11.856c-.125-4.4,3.418-19.867,4.907-23.9s4.718-8.07,1.625-11.981-10.491-8.319-10.491-8.319S319.763,177.238,318.956,178.6Z" transform="translate(-205.135 -146.131)" fill="#263238" stroke="#263238" stroke-linecap="round" stroke-linejoin="round" stroke-width="0.75"/>
        <path id="Path_2360" data-name="Path 2360" d="M301.453,182a26.956,26.956,0,0,0-3.661,7.583c-1.739,5.162-4.967,18.875-6.456,24.709S289.1,233.1,289.1,233.1s-.807-.06-2.481-.06a7.5,7.5,0,0,1-3.168-.807s1.181-12.728,2.237-18.686,4.16-16.579,4.718-20.739.742-5.21,1.489-5.774,6.581-4.095,7.761-4.9S301.453,182,301.453,182Z" transform="translate(-196.011 -149.593)" fill="#263238" stroke="#263238" stroke-linecap="round" stroke-linejoin="round" stroke-width="0.75"/>
        <path id="Path_2361" data-name="Path 2361" d="M327.752,176.72s-3.537,7.014-4.468,8.319a16.876,16.876,0,0,0-1.43,2.356l-3.1,1.181,1.24,1.988s-6.267,11.222-7.881,14.96-3.25,7.761-3.25,7.761" transform="translate(-207.658 -147.271)" fill="none" stroke="#fff" stroke-linecap="round" stroke-linejoin="round" stroke-width="0.75"/>
        <path id="Path_2362" data-name="Path 2362" d="M296.535,235.07c-.114,1.24-.135,1.733-.135,1.733" transform="translate(-201.947 -174.075)" fill="none" stroke="#fff" stroke-linecap="round" stroke-linejoin="round" stroke-width="0.75"/>
        <path id="Path_2363" data-name="Path 2363" d="M304.524,186.23l-3.477,5.34.807,1.24-1.928,2.361s-2.047,8.5-2.605,13.1c-.108.894-.2,1.674-.271,2.351" transform="translate(-202.245 -151.637)" fill="none" stroke="#fff" stroke-linecap="round" stroke-linejoin="round" stroke-width="0.75"/>
        <path id="Path_2364" data-name="Path 2364" d="M311.532,181.99l-.682,3.288,3.537-2.356Z" transform="translate(-208.571 -149.674)" fill="#fff" stroke="#263238" stroke-linecap="round" stroke-linejoin="round" stroke-width="0.75"/>
        <path id="Path_2365" data-name="Path 2365" d="M315.089,177.18c-.065.184-2.979,2.605-2.979,2.605l3.288,1.365.682-2.67Z" transform="translate(-209.148 -147.463)" fill="#fff" stroke="#263238" stroke-linecap="round" stroke-linejoin="round" stroke-width="0.75"/>
        <path id="Path_2366" data-name="Path 2366" d="M309.332,130.382a8.184,8.184,0,0,0-3.168,3.661c-1.116,2.546-1.982,3.6-1.733,4.409a8.576,8.576,0,0,1,.368,1.679c0,.184-2.605,2.67-2.67,3.412s1.679,2.112,1.679,2.112.184,4.284.184,4.658a2.837,2.837,0,0,0,1.928,2.789,7.746,7.746,0,0,0,3.721-.06l1.181,6.082s8.26-5.091,9.126-5.525,1.923-.991,1.988-1.674-.5-4.474-.5-4.474,4.409-4.035,4.333-8.753-2.589-7.7-7.187-9.1S309.332,130.382,309.332,130.382Z" transform="translate(-204.572 -125.364)" fill="#fff" stroke="#263238" stroke-linecap="round" stroke-linejoin="round" stroke-width="0.75"/>
        <path id="Path_2367" data-name="Path 2367" d="M331.017,138.672c-.06-4.718-2.605-7.7-7.2-9.126s-9.251.807-9.251.807a6.554,6.554,0,0,0-1.018.753c1.517-.271,4.013-.46,5.8.677,2.708,1.739.991,3.477.06,4.409s-1.116,1.3-.433,2.166,1.988.867,1.674,1.674-1.24,1.928-.493,2.237,1.424-.374,1.739-1.305,1.858-.932,2.481,1a3.678,3.678,0,0,1-1.305,4.035,2.557,2.557,0,0,1-1.739.493,15.707,15.707,0,0,0,3.353,1.246,6.272,6.272,0,0,0,2.009-.157v-.157S331.082,143.39,331.017,138.672Z" transform="translate(-209.808 -125.334)" fill="#263238" stroke="#263238" stroke-linecap="round" stroke-linejoin="round" stroke-width="0.75"/>
        <path id="Path_2368" data-name="Path 2368" d="M311.872,150.537c0,.482-.152.872-.341.872s-.341-.39-.341-.872.152-.867.341-.867S311.872,150.06,311.872,150.537Z" transform="translate(-208.726 -134.778)"/>
        <path id="Path_2369" data-name="Path 2369" d="M309.47,145.774s.249-.872,1.625-.807,1.43,1.056,1.43,1.056" transform="translate(-207.938 -132.621)" fill="#fff" stroke="#263238" stroke-linecap="round" stroke-linejoin="round" stroke-width="0.75"/>
        <path id="Path_2370" data-name="Path 2370" d="M305.23,158.114a2.508,2.508,0,0,0,2.3-.309c.991-.807.184-1.495.184-1.495" transform="translate(-205.994 -137.822)" fill="#fff" stroke="#263238" stroke-linecap="round" stroke-linejoin="round" stroke-width="0.75"/>
        <path id="Path_2371" data-name="Path 2371" d="M305.077,160.053s3.288-1.625,4.777-1.674,3.044,2.5,2.432,4.669-1.3,3.25-3.412,4.1-4.1.682-4.468-.747,1.3-3.472,2.107-3.846,1.43-.433,1.305.249-.5,1.175,1.056.867,2.421-.742,2.481-2.421-.542-2.3-2.166-2.047a16.5,16.5,0,0,0-4.035,1.549Z" transform="translate(-205.593 -138.77)" fill="#263238" stroke="#263238" stroke-linecap="round" stroke-linejoin="round" stroke-width="0.75"/>
        <path id="Path_2372" data-name="Path 2372" d="M308.09,162.881s2.611-.125,3.542-1.181" transform="translate(-207.305 -140.292)" fill="#fff" stroke="#263238" stroke-linecap="round" stroke-linejoin="round" stroke-width="0.75"/>
        <path id="Path_2373" data-name="Path 2373" d="M326.416,161.13a3.428,3.428,0,0,1-1.246,2.67" transform="translate(-215.135 -140.031)" fill="#fff" stroke="#263238" stroke-linecap="round" stroke-linejoin="round" stroke-width="0.75"/>
        <path id="Path_2374" data-name="Path 2374" d="M318.18,177.807l1.8,4.16s6.824-5.091,8.5-7.079,2.979-2.979,2.047-4.333-2.3-.249-2.546-.125S318.18,177.807,318.18,177.807Z" transform="translate(-211.931 -144.114)" fill="#fff" stroke="#263238" stroke-linecap="round" stroke-linejoin="round" stroke-width="0.75"/>
        <path id="Path_2375" data-name="Path 2375" d="M279.427,237.467a65.326,65.326,0,0,1-1.858-7.664c-.374-2.378-.542-4.8-.542-4.8a26.823,26.823,0,0,1-8.671-2.3A31.015,31.015,0,0,1,263.39,220s5.525,18,6.646,21.789,1.365,4.593,1.365,4.593a23.235,23.235,0,0,0,5.584,1.928,29.686,29.686,0,0,0,4.658.493Z" transform="translate(-186.816 -167.174)" fill="#fff" stroke="#263238" stroke-linecap="round" stroke-linejoin="round" stroke-width="0.75"/>
        <path id="Path_2376" data-name="Path 2376" d="M292.7,250.284a15.112,15.112,0,0,1-3.791-1.24A9.207,9.207,0,0,0,286,247.96h-.249l.742,2.3a13.331,13.331,0,0,1-2.789.314c-1.489,0-4.6-.5-4.717-.314a4.242,4.242,0,0,0-.125,1.365c0,.439,2.232,3.109,3.537,4.04a6.61,6.61,0,0,0,3.661,1.549c1.181,0,7.512-.867,7.512-.867Z" transform="translate(-193.902 -180.009)" fill="#fff" stroke="#263238" stroke-linecap="round" stroke-linejoin="round" stroke-width="0.75"/>
        <path id="Path_2377" data-name="Path 2377" d="M321.915,199.53s.309,6.954.5,11.981.5,5.465.5,5.465-13.909,5.216-16.021,5.649-3.721.932-3.721.932l.932,6.765a38.931,38.931,0,0,0,13.54-1.24c6.77-1.988,17.2-3.975,17.386-4.9a32.936,32.936,0,0,0,0-4.333c0-.607-.19-13.968-.19-19.926s.433-7.328-.309-8.568-4.533-1.863-6.705-.623" transform="translate(-205.05 -153.41)" fill="#263238" stroke="#263238" stroke-linecap="round" stroke-linejoin="round" stroke-width="0.75"/>
        <path id="Path_2378" data-name="Path 2378" d="M318.39,230.784l11.5-3.992L328.87,211.47" transform="translate(-212.027 -163.241)" fill="none" stroke="#fff" stroke-linecap="round" stroke-linejoin="round" stroke-width="0.75"/>
        <line id="Line_4" data-name="Line 4" y1="0.574" x2="1.663" transform="translate(103.135 68.058)" fill="none" stroke="#fff" stroke-linecap="round" stroke-linejoin="round" stroke-width="0.75"/>
        <path id="Path_2379" data-name="Path 2379" d="M345.1,194.325s4.333-5.416,8.639-2.594" transform="translate(-224.27 -153.777)" fill="none" stroke="#fff" stroke-linecap="round" stroke-linejoin="round" stroke-width="0.75"/>
        <path id="Path_2380" data-name="Path 2380" d="M279.32,253.4a16.4,16.4,0,0,0,4.782,2.237" transform="translate(-194.118 -182.502)" fill="none" stroke="#263238" stroke-linecap="round" stroke-linejoin="round" stroke-width="0.75"/>
        <path id="Path_2381" data-name="Path 2381" d="M280.24,256.84a9.612,9.612,0,0,0,2.854,1.739l1.305.368" transform="translate(-194.54 -184.083)" fill="none" stroke="#263238" stroke-linecap="round" stroke-linejoin="round" stroke-width="0.75"/>
        <path id="Path_2382" data-name="Path 2382" d="M286,262.57a8.575,8.575,0,0,0,2.3.5" transform="translate(-197.18 -186.716)" fill="none" stroke="#263238" stroke-linecap="round" stroke-linejoin="round" stroke-width="0.75"/>
        <path id="Path_2383" data-name="Path 2383" d="M175.262,193.968s-.856-8.747-1.863-14.911c-.542-3.407-2.605-6.31-4.761-8.91-1.782-2.166-4.474-4.149-5.958-6.451-.515-.791-3.212,4.929-3.217,4.934-.542,1.219,5.877,5.08,6.743,5.958,1.137,1.137,2.166,2.481,3.2,3.7.471.542,1.712,2.605,2.421,2.779l1.148.287-.861,2.584Z" transform="translate(-139.163 -141.173)" fill="#fbbc05" stroke="#263238" stroke-linecap="round" stroke-linejoin="round" stroke-width="0.75"/>
      </g>
    </g>
  </g>
</svg>
