<svg xmlns="http://www.w3.org/2000/svg" width="68.527" height="50.843" viewBox="0 0 68.527 50.843">
  <g id="Leave_application" data-name="Leave application" transform="translate(0 -66.064)">
    <g id="Group_34268" data-name="Group 34268" transform="translate(0 66.064)">
      <path id="Path_35420" data-name="Path 35420" d="M34.322,66.064H12.216a4.4,4.4,0,0,0-2.211.591L9,70.485v40.983a4.421,4.421,0,0,0,4.421,4.421h20.9l3.83-1.193a4.4,4.4,0,0,0,.591-2.211v-42a4.421,4.421,0,0,0-4.421-4.421Z" transform="translate(-7.795 -66.064)"/>
      <path id="Path_35421" data-name="Path 35421" d="M26.527,118.525,2.211,74.314v-3.83A4.438,4.438,0,0,0,0,74.314v42a4.421,4.421,0,0,0,4.421,4.421H26.527a4.438,4.438,0,0,0,3.83-2.211h-3.83Z" transform="translate(0 -69.892)"/>
      <path id="Path_35422" data-name="Path 35422" d="M18.727,82.581H40.832a2.211,2.211,0,0,1,2.211,2.211V106.9a2.211,2.211,0,0,1-2.211,2.211H18.727a2.211,2.211,0,0,1-2.211-2.211V84.792A2.211,2.211,0,0,1,18.727,82.581Z" transform="translate(-14.305 -80.37)" fill="#34a853"/>
      <path id="Path_35423" data-name="Path 35423" d="M55.138,121.2,44.2,123.176,33.032,121.2V103.518A4.421,4.421,0,0,1,37.453,99.1H50.716a4.421,4.421,0,0,1,4.421,4.421V121.2Z" transform="translate(-28.611 -94.676)" fill="#34a853"/>
      <path id="Path_35424" data-name="Path 35424" d="M73.8,189.935H71.591a5.526,5.526,0,0,0-5.526,5.526v5.324H79.328v-5.323A5.527,5.527,0,0,0,73.8,189.935Z" transform="translate(-57.223 -173.356)" fill="#fff"/>
      <path id="Path_35425" data-name="Path 35425" d="M40.832,286.363H18.727a2.211,2.211,0,0,1-2.211-2.211V264.258H43.043v19.895a2.211,2.211,0,0,1-2.211,2.211Z" transform="translate(-14.305 -237.731)" fill="#f2f5f8"/>
      <path id="Path_35426" data-name="Path 35426" d="M33.032,264.258H55.137v8.665L44.85,284.153h-7.4a4.421,4.421,0,0,1-4.421-4.421V264.258Z" transform="translate(-28.611 -237.731)" fill="#fff"/>
      <path id="Path_35427" data-name="Path 35427" d="M94.155,130.5a3.316,3.316,0,0,1-3.316-3.316v-1.105a2.211,2.211,0,0,1,2.211-2.211H95.26a2.211,2.211,0,0,1,2.211,2.211v1.105A3.316,3.316,0,0,1,94.155,130.5Z" transform="translate(-78.681 -116.134)" fill="#fff"/>
      <path id="Path_35428" data-name="Path 35428" d="M193.691,256H150.585a3.312,3.312,0,0,0-1.1.189l-1.147,3.127V274.6l1.785,1.428h43.573l3.127-1.242a3.31,3.31,0,0,0,.189-1.105V259.316A3.316,3.316,0,0,0,193.691,256Z" transform="translate(-128.48 -230.579)" fill="#fbbc05"/>
      <g id="Group_34264" data-name="Group 34264" transform="translate(24.316 30.195)">
        <path id="Path_35429" data-name="Path 35429" d="M296.36,292.482a1.306,1.306,0,0,0-1.21-.808h0a1.314,1.314,0,0,0-1.218.839l-3.381,8.875a1.105,1.105,0,1,0,2.066.787l.571-1.5h3.9l.564,1.495a1.105,1.105,0,0,0,2.068-.78Zm-2.334,5.983,1.12-2.94,1.109,2.94Z" transform="translate(-275.913 -291.673)" fill="#fff"/>
        <path id="Path_35430" data-name="Path 35430" d="M185.935,300.667h-.006c-.7,0-1.454.007-2.04.008v-7.9a1.105,1.105,0,1,0-2.211,0v8.994a1.105,1.105,0,0,0,.916,1.089,8.357,8.357,0,0,0,1.142.024c.482,0,1.182,0,2.205-.008a1.105,1.105,0,0,0-.007-2.211Z" transform="translate(-181.678 -291.672)" fill="#fff"/>
        <path id="Path_35431" data-name="Path 35431" d="M436.936,300.9h-2.653v-2.249h2.376a1.105,1.105,0,0,0,0-2.211h-2.376v-2.249h2.653a1.105,1.105,0,1,0,0-2.211h-3.758a1.1,1.1,0,0,0-1.105,1.105v8.919a1.105,1.105,0,0,0,1.105,1.105h3.758a1.105,1.105,0,1,0,0-2.211Z" transform="translate(-398.559 -291.942)" fill="#fff"/>
        <path id="Path_35432" data-name="Path 35432" d="M239.017,294.195a1.105,1.105,0,0,0,0-2.211h-3.758a1.1,1.1,0,0,0-1.105,1.105v8.919a1.105,1.105,0,0,0,1.105,1.105h3.758a1.105,1.105,0,0,0,0-2.211h-2.653v-2.249h2.376a1.105,1.105,0,1,0,0-2.211h-2.376v-2.249Z" transform="translate(-227.13 -291.942)" fill="#fff"/>
        <path id="Path_35433" data-name="Path 35433" d="M363.626,291.742a1.108,1.108,0,0,0-1.4.7l-2.1,6.324-2.206-6.354a1.1,1.1,0,1,0-2.088.725l3.081,8.876a1.309,1.309,0,0,0,1.232.868h.012a1.31,1.31,0,0,0,1.229-.894l2.939-8.847A1.106,1.106,0,0,0,363.626,291.742Z" transform="translate(-332.471 -291.668)" fill="#fff"/>
      </g>
      <g id="Group_34265" data-name="Group 34265" transform="translate(6.632 32.053)">
        <path id="Path_35434" data-name="Path 35434" d="M57.285,307.76H50.653a1.105,1.105,0,0,1,0-2.211h6.632a1.105,1.105,0,0,1,0,2.211Z" transform="translate(-49.548 -305.549)" fill="#7f7f7f"/>
      </g>
      <g id="Group_34266" data-name="Group 34266" transform="translate(6.632 36.474)">
        <path id="Path_35435" data-name="Path 35435" d="M57.285,340.792H50.653a1.105,1.105,0,0,1,0-2.211h6.632a1.105,1.105,0,0,1,0,2.211Z" transform="translate(-49.548 -338.581)" fill="#7f7f7f"/>
      </g>
      <g id="Group_34267" data-name="Group 34267" transform="translate(6.632 40.895)">
        <path id="Path_35436" data-name="Path 35436" d="M53.969,373.824H50.653a1.105,1.105,0,1,1,0-2.211h3.316a1.105,1.105,0,0,1,0,2.211Z" transform="translate(-49.548 -371.613)" fill="#7f7f7f"/>
      </g>
      <path id="Path_35437" data-name="Path 35437" d="M121.069,272.692V257.406a3.326,3.326,0,0,0-2.211,3.128V273.8l-3.1,3.1a.775.775,0,0,0,.548,1.323H165.28a3.325,3.325,0,0,0,3.127-2.211H124.385A3.316,3.316,0,0,1,121.069,272.692Z" transform="translate(-100.069 -231.796)" fill="#fbbc05"/>
    </g>
  </g>
</svg>
