<svg id="Logo_Font" data-name="Logo Font" xmlns="http://www.w3.org/2000/svg" width="194.46" height="41.076" viewBox="0 0 194.46 41.076">
  <path id="Path_36867" data-name="Path 36867" d="M12.642-30.45q5.04,0,7.9,2.52a8.916,8.916,0,0,1,2.856,7.056,12.01,12.01,0,0,1-.546,3.57A9.338,9.338,0,0,1,21.1-14.091a8.388,8.388,0,0,1-3.15,2.31,11.8,11.8,0,0,1-4.767.861H8.694V0H4.326V-30.45Zm.5,15.246a6.5,6.5,0,0,0,2.877-.567,4.839,4.839,0,0,0,1.806-1.449,5.726,5.726,0,0,0,.924-1.848,6.417,6.417,0,0,0,.273-1.722,6.441,6.441,0,0,0-.273-1.785,5.089,5.089,0,0,0-.924-1.764,4.88,4.88,0,0,0-1.743-1.344,6.286,6.286,0,0,0-2.73-.525H8.694v11ZM35.952.42A9.581,9.581,0,0,1,31.458-.63a7.784,7.784,0,0,1-3.192-3.087A9.989,9.989,0,0,1,27.09-8.778a9.862,9.862,0,0,1,1.239-5.061,8.759,8.759,0,0,1,3.276-3.276,8.832,8.832,0,0,1,4.431-1.155,7.572,7.572,0,0,1,4.158,1.05,7.732,7.732,0,0,1,2.52,2.52l-.252.672.42-3.528h3.906V0H42.546V-4.452l.42,1.05a5.4,5.4,0,0,1-.714.966,8.8,8.8,0,0,1-1.428,1.281A8.631,8.631,0,0,1,38.7-.042,7.822,7.822,0,0,1,35.952.42Zm1.134-3.486a5.653,5.653,0,0,0,3.549-1.113,5.239,5.239,0,0,0,1.911-3.045v-3.612a5.364,5.364,0,0,0-2.037-2.856,5.808,5.808,0,0,0-3.549-1.134,5.4,5.4,0,0,0-2.772.735,5.475,5.475,0,0,0-2.016,2.058,6.028,6.028,0,0,0-.756,3.045,5.931,5.931,0,0,0,.777,3.024,5.811,5.811,0,0,0,2.079,2.121A5.4,5.4,0,0,0,37.086-3.066ZM54.936,8.442l11.55-26h3.906l-11.34,26ZM59.3.126,50.862-17.556h4.746l7.014,15.54ZM78.2-17.556l.42,5.04-.168-.672a7.918,7.918,0,0,1,2-2.73,10.137,10.137,0,0,1,2.688-1.743,6.223,6.223,0,0,1,2.373-.609l-.21,4.2a5.91,5.91,0,0,0-3.465.756,6.366,6.366,0,0,0-2.331,2.352,6.246,6.246,0,0,0-.84,3.15V0H74.424V-17.556Zm9.954,8.61a9.155,9.155,0,0,1,1.26-4.767A8.989,8.989,0,0,1,92.9-17.052a10.414,10.414,0,0,1,5.082-1.218,10.143,10.143,0,0,1,5.061,1.218,8.655,8.655,0,0,1,3.36,3.339,9.529,9.529,0,0,1,1.2,4.767,9.4,9.4,0,0,1-1.218,4.767,8.956,8.956,0,0,1-3.381,3.36A10.093,10.093,0,0,1,97.9.42,10.723,10.723,0,0,1,92.925-.714a8.581,8.581,0,0,1-3.486-3.255A9.44,9.44,0,0,1,88.158-8.946Zm4.284.042a6.133,6.133,0,0,0,.714,2.961,5.532,5.532,0,0,0,1.953,2.1,5.073,5.073,0,0,0,2.751.777,5.078,5.078,0,0,0,3.927-1.68A5.939,5.939,0,0,0,103.32-8.9a6.015,6.015,0,0,0-1.533-4.179,5.049,5.049,0,0,0-3.927-1.7,4.945,4.945,0,0,0-2.772.8,5.714,5.714,0,0,0-1.932,2.142A6.169,6.169,0,0,0,92.442-8.9Zm20.286-23.73h4.242V0h-4.242Zm10.878,0h4.242V0h-4.242Zm11.886,2.184h19.95v4.242H139.86v8.778h13.9v4.242h-13.9v8.946h16.17V0H135.492Zm28.35,16.38a3.354,3.354,0,0,1-2.31-.861,3.173,3.173,0,0,1-.966-2.5v-1.806H163.8v.588q0,.714.336.9a2.345,2.345,0,0,0,1.092.189h11.214L166.068-2.6l-.84-.882h11.046V0H159.81l10.584-15.288.672,1.218ZM183.33,8.442l11.55-26h3.906l-11.34,26ZM187.7.126l-8.442-17.682H184l7.014,15.54Z" transform="translate(-4.326 32.634)" fill="#fff"/>
</svg>
