<svg xmlns="http://www.w3.org/2000/svg" xmlns:xlink="http://www.w3.org/1999/xlink" width="126.723" height="124.424" viewBox="0 0 126.723 124.424">
  <defs>
    <linearGradient id="linear-gradient" x1="0.323" x2="0.643" y2="0.943" gradientUnits="objectBoundingBox">
      <stop offset="0" stop-color="#f9ad1f"/>
      <stop offset="1" stop-color="#f98a14"/>
    </linearGradient>
    <linearGradient id="linear-gradient-2" x1="0.856" y1="0.185" x2="-0.074" y2="1.504" gradientUnits="objectBoundingBox">
      <stop offset="0" stop-color="#ff3b9f"/>
      <stop offset="1" stop-color="#5f0736"/>
    </linearGradient>
  </defs>
  <g id="LogoIcon" transform="translate(21739 16905.07)">
    <g id="Logo_Icon" data-name="Logo Icon" transform="translate(-21739 -16905.07)">
      <g id="_fa950dff" data-name="#fa950dff" transform="translate(5.885 0)">
        <path id="Path_36235" data-name="Path 36235" d="M49.811,3.836a4.65,4.65,0,0,1,3.131-.477c-.133,1.443-2.365,1.51-3.42,2.132-10.6,4.752-19.629,13.367-24.114,24.17-.067.844-.189,2.52-.244,3.353,3.242-3.209,4.274-7.827,6.961-11.413,4.241-5.374,9.27-10.292,15.4-13.467,1.932-.777,4.075-.377,6.1-.333C44.7,14.961,33.812,22.688,32.858,35.167c5.851-3.642,4.985-12.623,10.936-16.287,1.621-.833,4.8-1.632,5.074.966-1.477,3.708-4.508,6.539-6.04,10.225-2.764,5.729-2.6,12.235-2.409,18.43.178,9.393,5.4,17.808,11.458,24.636C59.958,81.775,71.5,87.559,83.451,87.526c2.975-.344,5.962-.622,8.926-1.044,16.987-2.753,28.677-20.217,27.112-36.949.355-6.972-2.454-13.545-5.307-19.74-3.686-7.916-9.87-14.278-16.187-20.151A63.737,63.737,0,0,1,127.76,47.28c6.994,23.182-.933,50.827-21.161,64.871-7.638,5.718-17.142,8.36-26.523,9.3-21.794,1.676-44.276-8-57.654-25.369-7.461-9.026-11.1-20.595-12.579-32.064a65.7,65.7,0,0,1,3.83-31.075c3.642-7.028,7.938-14.178,14.7-18.641.311-.355.933-1.066,1.255-1.421C35.811,8.71,43.072,6.856,49.811,3.836m-22.238,11.8c-4.53,6.084-10.447,12.324-10.581,20.351,2.443-3.164,3.7-7.017,5.74-10.425,2.109-3.975,5.174-7.305,7.949-10.8C29.638,15.038,28.605,15.327,27.573,15.638Z" transform="translate(-9.415 -3.27)" fill="url(#linear-gradient)"/>
      </g>
      <g id="_be0e6bff" data-name="#be0e6bff" transform="translate(0 10.94)">
        <g id="Group_34909" data-name="Group 34909">
          <path id="Path_36236" data-name="Path 36236" d="M52.139,14.9a15.639,15.639,0,0,1,11.824-1.088C70.358,15.651,76.842,17.561,82.6,21c8.138,4.585,15.033,11.014,21.15,18.008.611.033,1.832.089,2.443.111-1.665-7.727-8.4-12.879-10.814-20.228a8.723,8.723,0,0,1,5.751,2.454c7.605,7.239,11.2,17.42,14.577,27.1,1.565,16.731-10.125,34.2-27.112,36.949a66.679,66.679,0,0,1-8.871.97c.744-9.637-2.487-19.9-8.993-26.75-3.619-3.841-8.46-6.062-12.945-8.693-.037-1.373-.736-2.608,0-4.19s1.753-1.656,2.942-2.138c6.206,1.432,9.77,8.327,16.154,9.06.566-2.6-1.91-3.952-3.619-5.329a45.344,45.344,0,0,0-21.372-9.5c-2.309-.167-3.9-1.887-5.351-3.5,1.255-2.476,3.142-5.207,6.351-4.7a54.684,54.684,0,0,1,17.719,6.04c4.086,2.065,7.361,5.407,11.569,7.217-.311-1.743-.877-3.475-2.454-4.463-8.293-6.473-18.4-10.958-29.021-11.347a14.834,14.834,0,0,1-7.017-1.843,6.262,6.262,0,0,1,6.939-5.54A56.56,56.56,0,0,1,76.1,27.5c4.719,2.4,8.471,6.3,13.178,8.715-.278-1.288-.022-2.92-1.31-3.73-9.592-8.349-21.949-12.346-34.228-14.7Z" transform="translate(0.248 -13.123)" fill="url(#linear-gradient-2)"/>
          <path id="Path_36237" data-name="Path 36237" d="M4.2,61.031A47.147,47.147,0,0,1,14.257,30a65.7,65.7,0,0,0-3.83,31.075C11.9,72.544,15.545,84.113,23.006,93.139,36.384,110.5,58.866,120.184,80.66,118.508c9.382-.944,18.885-3.586,26.523-9.3a55.363,55.363,0,0,1-36.516,15.432c-20.084,1.232-40.612-7.86-52.969-23.781C8.784,89.686,3.366,75.431,4.2,61.031Z" transform="translate(-4.114 -11.263)" fill="url(#linear-gradient-2)"/>
        </g>
      </g>
    </g>
  </g>
</svg>
