<svg xmlns="http://www.w3.org/2000/svg" width="52.385" height="38.866" viewBox="0 0 52.385 38.866">
  <g id="Personal_information" data-name="Personal  information" transform="translate(-76 -475)">
    <path id="Path_35371" data-name="Path 35371" d="M46.383,3H6A5.975,5.975,0,0,0,0,8.938v26.99a5.975,5.975,0,0,0,6,5.938h40.38a5.975,5.975,0,0,0,6-5.938V8.938A5.975,5.975,0,0,0,46.383,3Z" transform="translate(76 472)" fill="#f2f5f8"/>
    <path id="Path_35372" data-name="Path 35372" d="M26.606,3H6.1A6.024,6.024,0,0,0,0,8.938v26.99a6.024,6.024,0,0,0,6.1,5.938H26.606Z" transform="translate(76 472)" fill="#dfdfdf"/>
    <path id="Path_35373" data-name="Path 35373" d="M10.543,7A5.543,5.543,0,1,1,5,12.543,5.551,5.551,0,0,1,10.543,7Z" transform="translate(78.85 476.548)" fill="#34a853"/>
    <path id="Path_35374" data-name="Path 35374" d="M22.954,20.206a1.663,1.663,0,0,1-1.663,1.663H4.663A1.663,1.663,0,0,1,3,20.206V19.1A6.1,6.1,0,0,1,9.1,13h7.76a6.1,6.1,0,0,1,6.1,6.1Z" transform="translate(76.489 483.427)" fill="#34a853"/>
    <g id="Group_34222" data-name="Group 34222" transform="translate(106.214 484.426)">
      <path id="Path_35377" data-name="Path 35377" d="M27.857,18.826H15.663a1.663,1.663,0,1,1,0-3.326H27.857a1.663,1.663,0,1,1,0,3.326Z" transform="translate(-14 2.237)" fill="#7f7f7f"/>
      <path id="Path_35378" data-name="Path 35378" d="M27.857,14.826H15.663a1.663,1.663,0,1,1,0-3.326H27.857a1.663,1.663,0,1,1,0,3.326Z" transform="translate(-14 -2.631)" fill="#7f7f7f"/>
      <path id="Path_35379" data-name="Path 35379" d="M27.857,10.826H15.663a1.663,1.663,0,1,1,0-3.326H27.857a1.663,1.663,0,1,1,0,3.326Z" transform="translate(-14 -7.5)" fill="#7f7f7f"/>
    </g>
  </g>
</svg>
