<svg xmlns="http://www.w3.org/2000/svg" width="49.59" height="45.293" viewBox="0 0 49.59 45.293">
  <g id="Timesheets" transform="translate(-15.423 -12.773)">
    <path id="Path_35439" data-name="Path 35439" d="M66.654,141.681a11.119,11.119,0,0,1,18.218-8.563V116.5H39.419v27.524a25.849,25.849,0,0,0,4.192,4.954H69.388a11.077,11.077,0,0,1-2.734-7.3Zm0,0" transform="translate(-23.996 -94.845)" fill="#f2f5f8"/>
    <path id="Path_35441" data-name="Path 35441" d="M83.822,55.5H40.467a1.052,1.052,0,0,0-1.049,1.049v5.457H84.872V56.549A1.052,1.052,0,0,0,83.822,55.5Zm0,0" transform="translate(-23.995 -40.247)" fill="#ff6565"/>
    <path id="Path_35443" data-name="Path 35443" d="M77.994,147.487a.526.526,0,0,1-.525.525h-7.46a.526.526,0,0,1-.525-.525v-4.435a.526.526,0,0,1,.525-.525h7.46a.526.526,0,0,1,.525.525Zm0,0" transform="translate(-50.906 -118.142)" fill="#bee8c9"/>
    <path id="Path_35444" data-name="Path 35444" d="M175.307,147.487a.526.526,0,0,1-.525.525h-7.46a.526.526,0,0,1-.525-.525v-4.435a.526.526,0,0,1,.525-.525h7.46a.526.526,0,0,1,.525.525Zm0,0" transform="translate(-138.008 -118.142)" fill="#bee8c9"/>
    <path id="Path_35445" data-name="Path 35445" d="M272.619,147.487a.526.526,0,0,1-.525.525h-7.46a.526.526,0,0,1-.525-.525v-4.435a.526.526,0,0,1,.525-.525h7.46a.526.526,0,0,1,.525.525Zm0,0" transform="translate(-225.108 -118.142)" fill="#bee8c9"/>
    <path id="Path_35446" data-name="Path 35446" d="M369.932,147.487a.526.526,0,0,1-.525.525h-7.46a.526.526,0,0,1-.525-.525v-4.435a.526.526,0,0,1,.525-.525h7.46a.526.526,0,0,1,.525.525Zm0,0" transform="translate(-312.21 -118.142)" fill="#fbbc05"/>
    <path id="Path_35447" data-name="Path 35447" d="M77.994,214.163a.526.526,0,0,1-.525.525h-7.46a.526.526,0,0,1-.525-.525v-4.435a.526.526,0,0,1,.525-.525h7.46a.526.526,0,0,1,.525.525Zm0,0" transform="translate(-50.906 -177.822)" fill="#bee8c9"/>
    <path id="Path_35448" data-name="Path 35448" d="M175.307,214.163a.526.526,0,0,1-.525.525h-7.46a.526.526,0,0,1-.525-.525v-4.435a.526.526,0,0,1,.525-.525h7.46a.526.526,0,0,1,.525.525Zm0,0" transform="translate(-138.008 -177.822)" fill="#bee8c9"/>
    <path id="Path_35449" data-name="Path 35449" d="M272.619,214.163a.526.526,0,0,1-.525.525h-7.46a.526.526,0,0,1-.525-.525v-4.435a.526.526,0,0,1,.525-.525h7.46a.526.526,0,0,1,.525.525Zm0,0" transform="translate(-225.108 -177.822)" fill="#bee8c9"/>
    <path id="Path_35450" data-name="Path 35450" d="M365.992,213.533a11.077,11.077,0,0,1,3.93.717.516.516,0,0,0,.009-.088v-4.435a.526.526,0,0,0-.525-.525h-7.46a.526.526,0,0,0-.525.525v4.435a.52.52,0,0,0,.1.308A11.062,11.062,0,0,1,365.992,213.533Zm0,0" transform="translate(-312.209 -177.822)" fill="#fbbc05"/>
    <path id="Path_35451" data-name="Path 35451" d="M77.994,280.843a.526.526,0,0,1-.525.525h-7.46a.526.526,0,0,1-.525-.525v-4.435a.526.526,0,0,1,.525-.525h7.46a.526.526,0,0,1,.525.525Zm0,0" transform="translate(-50.906 -237.505)" fill="#bee8c9"/>
    <path id="Path_35452" data-name="Path 35452" d="M175.307,280.843a.526.526,0,0,1-.525.525h-7.46a.526.526,0,0,1-.525-.525v-4.435a.526.526,0,0,1,.525-.525h7.46a.526.526,0,0,1,.525.525Zm0,0" transform="translate(-138.008 -237.505)" fill="#bee8c9"/>
    <path id="Path_35453" data-name="Path 35453" d="M271.673,275.883h-7.039a.526.526,0,0,0-.525.525v4.435a.526.526,0,0,0,.525.525h3.537A11.148,11.148,0,0,1,271.673,275.883Zm0,0" transform="translate(-225.108 -237.504)" fill="#bee8c9"/>
    <path id="Path_35454" data-name="Path 35454" d="M77.994,347.518a.526.526,0,0,1-.525.525h-7.46a.526.526,0,0,1-.525-.525v-4.435a.526.526,0,0,1,.525-.525h7.46a.526.526,0,0,1,.525.525Zm0,0" transform="translate(-50.906 -297.183)" fill="#bee8c9"/>
    <path id="Path_35455" data-name="Path 35455" d="M175.307,347.518a.526.526,0,0,1-.525.525h-7.46a.526.526,0,0,1-.525-.525v-4.435a.526.526,0,0,1,.525-.525h7.46a.526.526,0,0,1,.525.525Zm0,0" transform="translate(-138.008 -297.183)" fill="#bee8c9"/>
    <path id="Path_35456" data-name="Path 35456" d="M267.767,344.019a11.161,11.161,0,0,1,.1-1.461h-3.229a.526.526,0,0,0-.525.525v4.435a.526.526,0,0,0,.525.525h3.886A11.07,11.07,0,0,1,267.767,344.019Zm0,0" transform="translate(-225.109 -297.183)" fill="#bee8c9"/>
    <g id="Group_34286" data-name="Group 34286" transform="translate(18.475 12.773)">
      <path id="Path_35457" data-name="Path 35457" d="M69.287,31.867a.787.787,0,0,0-.787.787v4.331a.787.787,0,1,0,1.574,0V32.654a.787.787,0,0,0-.787-.787Zm0,0" transform="translate(-68.5 -31.867)" fill="#fbbc05"/>
      <path id="Path_35458" data-name="Path 35458" d="M105.287,31.867a.787.787,0,0,0-.787.787v4.331a.787.787,0,0,0,1.574,0V32.654a.787.787,0,0,0-.787-.787Zm0,0" transform="translate(-100.722 -31.867)" fill="#fbbc05"/>
      <path id="Path_35459" data-name="Path 35459" d="M141.287,31.867a.787.787,0,0,0-.787.787v4.331a.787.787,0,1,0,1.574,0V32.654a.787.787,0,0,0-.787-.787Zm0,0" transform="translate(-132.945 -31.867)" fill="#fbbc05"/>
      <path id="Path_35460" data-name="Path 35460" d="M177.287,31.867a.787.787,0,0,0-.787.787v4.331a.787.787,0,1,0,1.574,0V32.654a.787.787,0,0,0-.787-.787Zm0,0" transform="translate(-165.167 -31.867)" fill="#fbbc05"/>
      <path id="Path_35461" data-name="Path 35461" d="M213.287,31.867a.787.787,0,0,0-.787.787v4.331a.787.787,0,1,0,1.574,0V32.654a.787.787,0,0,0-.787-.787Zm0,0" transform="translate(-197.389 -31.867)" fill="#fbbc05"/>
      <path id="Path_35462" data-name="Path 35462" d="M249.287,31.867a.787.787,0,0,0-.787.787v4.331a.787.787,0,0,0,1.574,0V32.654a.787.787,0,0,0-.787-.787Zm0,0" transform="translate(-229.612 -31.867)" fill="#fbbc05"/>
      <path id="Path_35463" data-name="Path 35463" d="M285.287,31.867a.787.787,0,0,0-.787.787v4.331a.787.787,0,0,0,1.574,0V32.654a.787.787,0,0,0-.787-.787Zm0,0" transform="translate(-261.834 -31.867)" fill="#fbbc05"/>
      <path id="Path_35464" data-name="Path 35464" d="M321.287,31.867a.787.787,0,0,0-.787.787v4.331a.787.787,0,0,0,1.574,0V32.654a.787.787,0,0,0-.787-.787Zm0,0" transform="translate(-294.057 -31.867)" fill="#fbbc05"/>
      <path id="Path_35465" data-name="Path 35465" d="M357.287,31.867a.787.787,0,0,0-.787.787v4.331a.787.787,0,1,0,1.574,0V32.654a.787.787,0,0,0-.787-.787Zm0,0" transform="translate(-326.279 -31.867)" fill="#fbbc05"/>
      <path id="Path_35466" data-name="Path 35466" d="M393.287,31.867a.787.787,0,0,0-.787.787v4.331a.787.787,0,1,0,1.574,0V32.654a.787.787,0,0,0-.787-.787Zm0,0" transform="translate(-358.501 -31.867)" fill="#fbbc05"/>
      <path id="Path_35467" data-name="Path 35467" d="M429.287,31.867a.787.787,0,0,0-.787.787v4.331a.787.787,0,0,0,1.574,0V32.654a.787.787,0,0,0-.787-.787Zm0,0" transform="translate(-390.724 -31.867)" fill="#fbbc05"/>
    </g>
    <path id="Path_35468" data-name="Path 35468" d="M320.424,260.694a11.23,11.23,0,1,1-11.23-11.23A11.23,11.23,0,0,1,320.424,260.694Zm0,0" transform="translate(-255.411 -213.858)"/>
    <path id="Path_35469" data-name="Path 35469" d="M334.256,294.048a8.292,8.292,0,1,1,8.292-8.292A8.3,8.3,0,0,1,334.256,294.048Zm0,0" transform="translate(-280.473 -238.92)" fill="#fff"/>
    <path id="Path_35471" data-name="Path 35471" d="M404.98,277.465v6.575a1.718,1.718,0,0,1,1.717,1.716h6.575a8.3,8.3,0,0,0-8.291-8.291Zm0,0" transform="translate(-351.197 -238.92)" fill="#fbbc05"/>
    <path id="Path_35472" data-name="Path 35472" d="M398.267,298.025a1.7,1.7,0,0,1,.787.193v-4.341a.787.787,0,1,0-1.574,0v4.341A1.7,1.7,0,0,1,398.267,298.025Zm0,0" transform="translate(-344.484 -252.906)"/>
    <path id="Path_35473" data-name="Path 35473" d="M422.527,348.98H419.5a1.7,1.7,0,0,1,0,1.574h3.024a.787.787,0,1,0,0-1.574Zm0,0" transform="translate(-364.197 -302.931)"/>
    <path id="Path_35474" data-name="Path 35474" d="M389.446,342.768a1.821,1.821,0,1,1,1.822-1.821A1.823,1.823,0,0,1,389.446,342.768Zm0,0" transform="translate(-335.663 -294.11)"/>
    <path id="Path_35475" data-name="Path 35475" d="M398.267,407.414a.787.787,0,0,1-.787-.787v-.839a.787.787,0,1,1,1.574,0v.839A.787.787,0,0,1,398.267,407.414Zm0,0" transform="translate(-344.484 -353.073)" fill="#34a853"/>
    <path id="Path_35476" data-name="Path 35476" d="M353,390.763a.787.787,0,0,1-.556-1.344l.594-.594a.787.787,0,0,1,1.113,1.113l-.594.594A.784.784,0,0,1,353,390.763Zm0,0" transform="translate(-303.97 -338.389)" fill="#34a853"/>
    <path id="Path_35477" data-name="Path 35477" d="M335.091,350.558h-.839a.787.787,0,0,1,0-1.574h.839a.787.787,0,1,1,0,1.574Zm0,0" transform="translate(-287.186 -302.935)" fill="#34a853"/>
    <path id="Path_35478" data-name="Path 35478" d="M353.6,305.885a.785.785,0,0,1-.557-.231l-.594-.594a.787.787,0,0,1,1.113-1.113l.594.594a.787.787,0,0,1-.557,1.344Zm0,0" transform="translate(-303.97 -262.417)" fill="#34a853"/>
    <path id="Path_35479" data-name="Path 35479" d="M438.474,390.759a.783.783,0,0,1-.557-.231l-.594-.594a.787.787,0,0,1,1.113-1.113l.594.594a.787.787,0,0,1-.557,1.343Zm0,0" transform="translate(-379.941 -338.386)" fill="#34a853"/>
    <path id="Path_35480" data-name="Path 35480" d="M84.018,134.278a.787.787,0,0,1-.614-.3l-1.731-2.164a.787.787,0,1,1,1.229-.983l1.117,1.4,2.848-3.56a.787.787,0,0,1,1.229.983l-3.463,4.329A.789.789,0,0,1,84.018,134.278Zm0,0" transform="translate(-61.661 -105.475)" fill="#34a853"/>
    <path id="Path_35481" data-name="Path 35481" d="M84.018,266.651a.786.786,0,0,1-.614-.3l-1.731-2.164a.787.787,0,0,1,1.229-.983l1.117,1.4,2.848-3.56a.787.787,0,0,1,1.229.983l-3.463,4.329A.788.788,0,0,1,84.018,266.651Zm0,0" transform="translate(-61.661 -223.958)" fill="#34a853"/>
    <path id="Path_35482" data-name="Path 35482" d="M182.017,200.9a.786.786,0,0,1-.614-.3l-1.731-2.164a.787.787,0,0,1,1.229-.983l1.117,1.4,2.848-3.56a.787.787,0,0,1,1.229.983l-3.463,4.329A.788.788,0,0,1,182.017,200.9Zm0,0" transform="translate(-149.377 -165.108)" fill="#34a853"/>
  </g>
</svg>
